<?xml version="1.0" encoding="utf-8" standalone="no"?>
<!DOCTYPE svg PUBLIC "-//W3C//DTD SVG 1.1//EN"
  "http://www.w3.org/Graphics/SVG/1.1/DTD/svg11.dtd">
<svg xmlns:xlink="http://www.w3.org/1999/xlink" width="97.240625pt" height="239.66pt" viewBox="0 0 97.240625 239.66" xmlns="http://www.w3.org/2000/svg" version="1.1">
 <metadata>
  <rdf:RDF xmlns:dc="http://purl.org/dc/elements/1.1/" xmlns:cc="http://creativecommons.org/ns#" xmlns:rdf="http://www.w3.org/1999/02/22-rdf-syntax-ns#">
   <cc:Work>
    <dc:type rdf:resource="http://purl.org/dc/dcmitype/StillImage"/>
    <dc:date>2026-05-15T16:28:17.459611</dc:date>
    <dc:format>image/svg+xml</dc:format>
    <dc:creator>
     <cc:Agent>
      <dc:title>Matplotlib v3.10.1, https://matplotlib.org/</dc:title>
     </cc:Agent>
    </dc:creator>
   </cc:Work>
  </rdf:RDF>
 </metadata>
 <defs>
  <style type="text/css">*{stroke-linejoin: round; stroke-linecap: butt}</style>
 </defs>
 <g id="figure_1">
  <g id="patch_1">
   <path d="M 0 239.66 
L 97.240625 239.66 
L 97.240625 0 
L 0 0 
z
" style="fill: #ffffff"/>
  </g>
  <g id="axes_1">
   <g id="patch_2">
    <path d="M 34.240625 228.96 
L 90.040625 228.96 
L 90.040625 7.2 
L 34.240625 7.2 
z
" style="fill: #ffffff"/>
   </g>
   <g id="FillBetweenPolyCollection_1">
    <defs>
     <path id="m9d2624d8f7" d="M 65.183702 -20.78 
L 59.097548 -20.78 
L 56.342489 -22.816364 
L 52.391498 -24.852727 
L 47.674741 -26.889091 
L 43.198612 -28.925455 
L 40.252468 -30.961818 
L 39.820625 -32.998182 
L 42.055197 -35.034545 
L 46.190287 -37.070909 
L 50.962715 -39.107273 
L 55.227837 -41.143636 
L 58.367964 -43.18 
L 60.323669 -45.216364 
L 61.368395 -47.252727 
L 61.850953 -49.289091 
L 62.044547 -51.325455 
L 62.111646 -53.361818 
L 62.129495 -55.398182 
L 62.125187 -57.434545 
L 62.097372 -59.470909 
L 62.022718 -61.507273 
L 61.855084 -63.543636 
L 61.530125 -65.58 
L 60.988717 -67.616364 
L 60.222607 -69.652727 
L 59.32231 -71.689091 
L 58.486123 -73.725455 
L 57.958772 -75.761818 
L 57.917721 -77.798182 
L 58.377439 -79.834545 
L 59.181237 -81.870909 
L 60.086863 -83.907273 
L 60.882858 -85.943636 
L 61.46087 -87.98 
L 61.81643 -90.016364 
L 62.004176 -92.052727 
L 62.089931 -94.089091 
L 62.123935 -96.125455 
L 62.135465 -98.161818 
L 62.137993 -100.198182 
L 62.135442 -102.234545 
L 62.125453 -104.270909 
L 62.099513 -106.307273 
L 62.042006 -108.343636 
L 61.931819 -110.38 
L 61.750474 -112.416364 
L 61.497308 -114.452727 
L 61.204532 -116.489091 
L 60.938595 -118.525455 
L 60.778512 -120.561818 
L 60.778512 -122.598182 
L 60.938595 -124.634545 
L 61.204532 -126.670909 
L 61.497308 -128.707273 
L 61.750474 -130.743636 
L 61.931819 -132.78 
L 62.042008 -134.816364 
L 62.099522 -136.852727 
L 62.125503 -138.889091 
L 62.135694 -140.925455 
L 62.139114 -142.961818 
L 62.139855 -144.998182 
L 62.139113 -147.034545 
L 62.136239 -149.070909 
L 62.128854 -151.107273 
L 62.112664 -153.143636 
L 62.081998 -155.18 
L 62.032146 -157.216364 
L 61.963494 -159.252727 
L 61.885386 -161.289091 
L 61.816061 -163.325455 
L 61.776412 -165.361818 
L 61.779952 -167.398182 
L 61.825435 -169.434545 
L 61.897554 -171.470909 
L 61.975202 -173.507273 
L 62.041276 -175.543636 
L 62.087971 -177.58 
L 62.115999 -179.616364 
L 62.130461 -181.652727 
L 62.136922 -183.689091 
L 62.139431 -185.725455 
L 62.140272 -187.761818 
L 62.140479 -189.798182 
L 62.140394 -191.834545 
L 62.13998 -193.870909 
L 62.138915 -195.907273 
L 62.136603 -197.943636 
L 62.132275 -199.98 
L 62.125324 -202.016364 
L 62.115884 -204.052727 
L 62.105321 -206.089091 
L 62.096169 -208.125455 
L 62.091223 -210.161818 
L 62.092178 -212.198182 
L 62.098699 -214.234545 
L 62.108607 -216.270909 
L 62.119047 -218.307273 
L 62.127792 -220.343636 
L 62.13389 -222.38 
L 62.14736 -222.38 
L 62.14736 -222.38 
L 62.153458 -220.343636 
L 62.162203 -218.307273 
L 62.172643 -216.270909 
L 62.182551 -214.234545 
L 62.189072 -212.198182 
L 62.190027 -210.161818 
L 62.185081 -208.125455 
L 62.175929 -206.089091 
L 62.165366 -204.052727 
L 62.155926 -202.016364 
L 62.148975 -199.98 
L 62.144647 -197.943636 
L 62.142335 -195.907273 
L 62.14127 -193.870909 
L 62.140856 -191.834545 
L 62.140771 -189.798182 
L 62.140978 -187.761818 
L 62.141819 -185.725455 
L 62.144328 -183.689091 
L 62.150789 -181.652727 
L 62.165251 -179.616364 
L 62.193279 -177.58 
L 62.239974 -175.543636 
L 62.306048 -173.507273 
L 62.383696 -171.470909 
L 62.455815 -169.434545 
L 62.501298 -167.398182 
L 62.504838 -165.361818 
L 62.465189 -163.325455 
L 62.395864 -161.289091 
L 62.317756 -159.252727 
L 62.249104 -157.216364 
L 62.199252 -155.18 
L 62.168586 -153.143636 
L 62.152396 -151.107273 
L 62.145011 -149.070909 
L 62.142137 -147.034545 
L 62.141395 -144.998182 
L 62.142136 -142.961818 
L 62.145556 -140.925455 
L 62.155747 -138.889091 
L 62.181728 -136.852727 
L 62.239242 -134.816364 
L 62.349431 -132.78 
L 62.530776 -130.743636 
L 62.783942 -128.707273 
L 63.076718 -126.670909 
L 63.342655 -124.634545 
L 63.502738 -122.598182 
L 63.502738 -120.561818 
L 63.342655 -118.525455 
L 63.076718 -116.489091 
L 62.783942 -114.452727 
L 62.530776 -112.416364 
L 62.349431 -110.38 
L 62.239244 -108.343636 
L 62.181737 -106.307273 
L 62.155797 -104.270909 
L 62.145808 -102.234545 
L 62.143257 -100.198182 
L 62.145785 -98.161818 
L 62.157315 -96.125455 
L 62.191319 -94.089091 
L 62.277074 -92.052727 
L 62.46482 -90.016364 
L 62.82038 -87.98 
L 63.398392 -85.943636 
L 64.194387 -83.907273 
L 65.100013 -81.870909 
L 65.903811 -79.834545 
L 66.363529 -77.798182 
L 66.322478 -75.761818 
L 65.795127 -73.725455 
L 64.95894 -71.689091 
L 64.058643 -69.652727 
L 63.292533 -67.616364 
L 62.751125 -65.58 
L 62.426166 -63.543636 
L 62.258532 -61.507273 
L 62.183878 -59.470909 
L 62.156063 -57.434545 
L 62.151755 -55.398182 
L 62.169604 -53.361818 
L 62.236703 -51.325455 
L 62.430297 -49.289091 
L 62.912855 -47.252727 
L 63.957581 -45.216364 
L 65.913286 -43.18 
L 69.053413 -41.143636 
L 73.318535 -39.107273 
L 78.090963 -37.070909 
L 82.226053 -35.034545 
L 84.460625 -32.998182 
L 84.028782 -30.961818 
L 81.082638 -28.925455 
L 76.606509 -26.889091 
L 71.889752 -24.852727 
L 67.938761 -22.816364 
L 65.183702 -20.78 
z
" style="stroke: #3f3f3f; stroke-width: 1.25"/>
    </defs>
    <g clip-path="url(#pc7e740b84a)">
     <use xlink:href="#m9d2624d8f7" x="0" y="239.66" style="fill: #3274a1; stroke: #3f3f3f; stroke-width: 1.25"/>
    </g>
   </g>
   <g id="matplotlib.axis_1">
    <g id="xtick_1">
     <g id="line2d_1">
      <defs>
       <path id="m0f4bd912f7" d="M 0 0 
L 0 3.5 
" style="stroke: #000000; stroke-width: 0.8"/>
      </defs>
      <g>
       <use xlink:href="#m0f4bd912f7" x="62.140625" y="228.96" style="stroke: #000000; stroke-width: 0.8"/>
      </g>
     </g>
    </g>
   </g>
   <g id="matplotlib.axis_2">
    <g id="ytick_1">
     <g id="line2d_2">
      <defs>
       <path id="m3e6761fbb3" d="M 0 0 
L -3.5 0 
" style="stroke: #000000; stroke-width: 0.8"/>
      </defs>
      <g>
       <use xlink:href="#m3e6761fbb3" x="34.240625" y="207.361784" style="stroke: #000000; stroke-width: 0.8"/>
      </g>
     </g>
     <g id="text_1">
      <!-- 2 -->
      <g transform="translate(20.878125 211.161003) scale(0.1 -0.1)">
       <defs>
        <path id="DejaVuSans-32" d="M 1228 531 
L 3431 531 
L 3431 0 
L 469 0 
L 469 531 
Q 828 903 1448 1529 
Q 2069 2156 2228 2338 
Q 2531 2678 2651 2914 
Q 2772 3150 2772 3378 
Q 2772 3750 2511 3984 
Q 2250 4219 1831 4219 
Q 1534 4219 1204 4116 
Q 875 4013 500 3803 
L 500 4441 
Q 881 4594 1212 4672 
Q 1544 4750 1819 4750 
Q 2544 4750 2975 4387 
Q 3406 4025 3406 3419 
Q 3406 3131 3298 2873 
Q 3191 2616 2906 2266 
Q 2828 2175 2409 1742 
Q 1991 1309 1228 531 
z
" transform="scale(0.015625)"/>
       </defs>
       <use xlink:href="#DejaVuSans-32"/>
      </g>
     </g>
    </g>
    <g id="ytick_2">
     <g id="line2d_3">
      <g>
       <use xlink:href="#m3e6761fbb3" x="34.240625" y="162.720892" style="stroke: #000000; stroke-width: 0.8"/>
      </g>
     </g>
     <g id="text_2">
      <!-- 3 -->
      <g transform="translate(20.878125 166.520111) scale(0.1 -0.1)">
       <defs>
        <path id="DejaVuSans-33" d="M 2597 2516 
Q 3050 2419 3304 2112 
Q 3559 1806 3559 1356 
Q 3559 666 3084 287 
Q 2609 -91 1734 -91 
Q 1441 -91 1130 -33 
Q 819 25 488 141 
L 488 750 
Q 750 597 1062 519 
Q 1375 441 1716 441 
Q 2309 441 2620 675 
Q 2931 909 2931 1356 
Q 2931 1769 2642 2001 
Q 2353 2234 1838 2234 
L 1294 2234 
L 1294 2753 
L 1863 2753 
Q 2328 2753 2575 2939 
Q 2822 3125 2822 3475 
Q 2822 3834 2567 4026 
Q 2313 4219 1838 4219 
Q 1578 4219 1281 4162 
Q 984 4106 628 3988 
L 628 4550 
Q 988 4650 1302 4700 
Q 1616 4750 1894 4750 
Q 2613 4750 3031 4423 
Q 3450 4097 3450 3541 
Q 3450 3153 3228 2886 
Q 3006 2619 2597 2516 
z
" transform="scale(0.015625)"/>
       </defs>
       <use xlink:href="#DejaVuSans-33"/>
      </g>
     </g>
    </g>
    <g id="ytick_3">
     <g id="line2d_4">
      <g>
       <use xlink:href="#m3e6761fbb3" x="34.240625" y="118.08" style="stroke: #000000; stroke-width: 0.8"/>
      </g>
     </g>
     <g id="text_3">
      <!-- 4 -->
      <g transform="translate(20.878125 121.879219) scale(0.1 -0.1)">
       <defs>
        <path id="DejaVuSans-34" d="M 2419 4116 
L 825 1625 
L 2419 1625 
L 2419 4116 
z
M 2253 4666 
L 3047 4666 
L 3047 1625 
L 3713 1625 
L 3713 1100 
L 3047 1100 
L 3047 0 
L 2419 0 
L 2419 1100 
L 313 1100 
L 313 1709 
L 2253 4666 
z
" transform="scale(0.015625)"/>
       </defs>
       <use xlink:href="#DejaVuSans-34"/>
      </g>
     </g>
    </g>
    <g id="ytick_4">
     <g id="line2d_5">
      <g>
       <use xlink:href="#m3e6761fbb3" x="34.240625" y="73.439108" style="stroke: #000000; stroke-width: 0.8"/>
      </g>
     </g>
     <g id="text_4">
      <!-- 5 -->
      <g transform="translate(20.878125 77.238327) scale(0.1 -0.1)">
       <defs>
        <path id="DejaVuSans-35" d="M 691 4666 
L 3169 4666 
L 3169 4134 
L 1269 4134 
L 1269 2991 
Q 1406 3038 1543 3061 
Q 1681 3084 1819 3084 
Q 2600 3084 3056 2656 
Q 3513 2228 3513 1497 
Q 3513 744 3044 326 
Q 2575 -91 1722 -91 
Q 1428 -91 1123 -41 
Q 819 9 494 109 
L 494 744 
Q 775 591 1075 516 
Q 1375 441 1709 441 
Q 2250 441 2565 725 
Q 2881 1009 2881 1497 
Q 2881 1984 2565 2268 
Q 2250 2553 1709 2553 
Q 1456 2553 1204 2497 
Q 953 2441 691 2322 
L 691 4666 
z
" transform="scale(0.015625)"/>
       </defs>
       <use xlink:href="#DejaVuSans-35"/>
      </g>
     </g>
    </g>
    <g id="ytick_5">
     <g id="line2d_6">
      <g>
       <use xlink:href="#m3e6761fbb3" x="34.240625" y="28.798216" style="stroke: #000000; stroke-width: 0.8"/>
      </g>
     </g>
     <g id="text_5">
      <!-- 6 -->
      <g transform="translate(20.878125 32.597435) scale(0.1 -0.1)">
       <defs>
        <path id="DejaVuSans-36" d="M 2113 2584 
Q 1688 2584 1439 2293 
Q 1191 2003 1191 1497 
Q 1191 994 1439 701 
Q 1688 409 2113 409 
Q 2538 409 2786 701 
Q 3034 994 3034 1497 
Q 3034 2003 2786 2293 
Q 2538 2584 2113 2584 
z
M 3366 4563 
L 3366 3988 
Q 3128 4100 2886 4159 
Q 2644 4219 2406 4219 
Q 1781 4219 1451 3797 
Q 1122 3375 1075 2522 
Q 1259 2794 1537 2939 
Q 1816 3084 2150 3084 
Q 2853 3084 3261 2657 
Q 3669 2231 3669 1497 
Q 3669 778 3244 343 
Q 2819 -91 2113 -91 
Q 1303 -91 875 529 
Q 447 1150 447 2328 
Q 447 3434 972 4092 
Q 1497 4750 2381 4750 
Q 2619 4750 2861 4703 
Q 3103 4656 3366 4563 
z
" transform="scale(0.015625)"/>
       </defs>
       <use xlink:href="#DejaVuSans-36"/>
      </g>
     </g>
    </g>
    <g id="text_6">
     <!-- Number of classes -->
     <g transform="translate(14.798438 164.256563) rotate(-90) scale(0.1 -0.1)">
      <defs>
       <path id="DejaVuSans-4e" d="M 628 4666 
L 1478 4666 
L 3547 763 
L 3547 4666 
L 4159 4666 
L 4159 0 
L 3309 0 
L 1241 3903 
L 1241 0 
L 628 0 
L 628 4666 
z
" transform="scale(0.015625)"/>
       <path id="DejaVuSans-75" d="M 544 1381 
L 544 3500 
L 1119 3500 
L 1119 1403 
Q 1119 906 1312 657 
Q 1506 409 1894 409 
Q 2359 409 2629 706 
Q 2900 1003 2900 1516 
L 2900 3500 
L 3475 3500 
L 3475 0 
L 2900 0 
L 2900 538 
Q 2691 219 2414 64 
Q 2138 -91 1772 -91 
Q 1169 -91 856 284 
Q 544 659 544 1381 
z
M 1991 3584 
L 1991 3584 
z
" transform="scale(0.015625)"/>
       <path id="DejaVuSans-6d" d="M 3328 2828 
Q 3544 3216 3844 3400 
Q 4144 3584 4550 3584 
Q 5097 3584 5394 3201 
Q 5691 2819 5691 2113 
L 5691 0 
L 5113 0 
L 5113 2094 
Q 5113 2597 4934 2840 
Q 4756 3084 4391 3084 
Q 3944 3084 3684 2787 
Q 3425 2491 3425 1978 
L 3425 0 
L 2847 0 
L 2847 2094 
Q 2847 2600 2669 2842 
Q 2491 3084 2119 3084 
Q 1678 3084 1418 2786 
Q 1159 2488 1159 1978 
L 1159 0 
L 581 0 
L 581 3500 
L 1159 3500 
L 1159 2956 
Q 1356 3278 1631 3431 
Q 1906 3584 2284 3584 
Q 2666 3584 2933 3390 
Q 3200 3197 3328 2828 
z
" transform="scale(0.015625)"/>
       <path id="DejaVuSans-62" d="M 3116 1747 
Q 3116 2381 2855 2742 
Q 2594 3103 2138 3103 
Q 1681 3103 1420 2742 
Q 1159 2381 1159 1747 
Q 1159 1113 1420 752 
Q 1681 391 2138 391 
Q 2594 391 2855 752 
Q 3116 1113 3116 1747 
z
M 1159 2969 
Q 1341 3281 1617 3432 
Q 1894 3584 2278 3584 
Q 2916 3584 3314 3078 
Q 3713 2572 3713 1747 
Q 3713 922 3314 415 
Q 2916 -91 2278 -91 
Q 1894 -91 1617 61 
Q 1341 213 1159 525 
L 1159 0 
L 581 0 
L 581 4863 
L 1159 4863 
L 1159 2969 
z
" transform="scale(0.015625)"/>
       <path id="DejaVuSans-65" d="M 3597 1894 
L 3597 1613 
L 953 1613 
Q 991 1019 1311 708 
Q 1631 397 2203 397 
Q 2534 397 2845 478 
Q 3156 559 3463 722 
L 3463 178 
Q 3153 47 2828 -22 
Q 2503 -91 2169 -91 
Q 1331 -91 842 396 
Q 353 884 353 1716 
Q 353 2575 817 3079 
Q 1281 3584 2069 3584 
Q 2775 3584 3186 3129 
Q 3597 2675 3597 1894 
z
M 3022 2063 
Q 3016 2534 2758 2815 
Q 2500 3097 2075 3097 
Q 1594 3097 1305 2825 
Q 1016 2553 972 2059 
L 3022 2063 
z
" transform="scale(0.015625)"/>
       <path id="DejaVuSans-72" d="M 2631 2963 
Q 2534 3019 2420 3045 
Q 2306 3072 2169 3072 
Q 1681 3072 1420 2755 
Q 1159 2438 1159 1844 
L 1159 0 
L 581 0 
L 581 3500 
L 1159 3500 
L 1159 2956 
Q 1341 3275 1631 3429 
Q 1922 3584 2338 3584 
Q 2397 3584 2469 3576 
Q 2541 3569 2628 3553 
L 2631 2963 
z
" transform="scale(0.015625)"/>
       <path id="DejaVuSans-20" transform="scale(0.015625)"/>
       <path id="DejaVuSans-6f" d="M 1959 3097 
Q 1497 3097 1228 2736 
Q 959 2375 959 1747 
Q 959 1119 1226 758 
Q 1494 397 1959 397 
Q 2419 397 2687 759 
Q 2956 1122 2956 1747 
Q 2956 2369 2687 2733 
Q 2419 3097 1959 3097 
z
M 1959 3584 
Q 2709 3584 3137 3096 
Q 3566 2609 3566 1747 
Q 3566 888 3137 398 
Q 2709 -91 1959 -91 
Q 1206 -91 779 398 
Q 353 888 353 1747 
Q 353 2609 779 3096 
Q 1206 3584 1959 3584 
z
" transform="scale(0.015625)"/>
       <path id="DejaVuSans-66" d="M 2375 4863 
L 2375 4384 
L 1825 4384 
Q 1516 4384 1395 4259 
Q 1275 4134 1275 3809 
L 1275 3500 
L 2222 3500 
L 2222 3053 
L 1275 3053 
L 1275 0 
L 697 0 
L 697 3053 
L 147 3053 
L 147 3500 
L 697 3500 
L 697 3744 
Q 697 4328 969 4595 
Q 1241 4863 1831 4863 
L 2375 4863 
z
" transform="scale(0.015625)"/>
       <path id="DejaVuSans-63" d="M 3122 3366 
L 3122 2828 
Q 2878 2963 2633 3030 
Q 2388 3097 2138 3097 
Q 1578 3097 1268 2742 
Q 959 2388 959 1747 
Q 959 1106 1268 751 
Q 1578 397 2138 397 
Q 2388 397 2633 464 
Q 2878 531 3122 666 
L 3122 134 
Q 2881 22 2623 -34 
Q 2366 -91 2075 -91 
Q 1284 -91 818 406 
Q 353 903 353 1747 
Q 353 2603 823 3093 
Q 1294 3584 2113 3584 
Q 2378 3584 2631 3529 
Q 2884 3475 3122 3366 
z
" transform="scale(0.015625)"/>
       <path id="DejaVuSans-6c" d="M 603 4863 
L 1178 4863 
L 1178 0 
L 603 0 
L 603 4863 
z
" transform="scale(0.015625)"/>
       <path id="DejaVuSans-61" d="M 2194 1759 
Q 1497 1759 1228 1600 
Q 959 1441 959 1056 
Q 959 750 1161 570 
Q 1363 391 1709 391 
Q 2188 391 2477 730 
Q 2766 1069 2766 1631 
L 2766 1759 
L 2194 1759 
z
M 3341 1997 
L 3341 0 
L 2766 0 
L 2766 531 
Q 2569 213 2275 61 
Q 1981 -91 1556 -91 
Q 1019 -91 701 211 
Q 384 513 384 1019 
Q 384 1609 779 1909 
Q 1175 2209 1959 2209 
L 2766 2209 
L 2766 2266 
Q 2766 2663 2505 2880 
Q 2244 3097 1772 3097 
Q 1472 3097 1187 3025 
Q 903 2953 641 2809 
L 641 3341 
Q 956 3463 1253 3523 
Q 1550 3584 1831 3584 
Q 2591 3584 2966 3190 
Q 3341 2797 3341 1997 
z
" transform="scale(0.015625)"/>
       <path id="DejaVuSans-73" d="M 2834 3397 
L 2834 2853 
Q 2591 2978 2328 3040 
Q 2066 3103 1784 3103 
Q 1356 3103 1142 2972 
Q 928 2841 928 2578 
Q 928 2378 1081 2264 
Q 1234 2150 1697 2047 
L 1894 2003 
Q 2506 1872 2764 1633 
Q 3022 1394 3022 966 
Q 3022 478 2636 193 
Q 2250 -91 1575 -91 
Q 1294 -91 989 -36 
Q 684 19 347 128 
L 347 722 
Q 666 556 975 473 
Q 1284 391 1588 391 
Q 1994 391 2212 530 
Q 2431 669 2431 922 
Q 2431 1156 2273 1281 
Q 2116 1406 1581 1522 
L 1381 1569 
Q 847 1681 609 1914 
Q 372 2147 372 2553 
Q 372 3047 722 3315 
Q 1072 3584 1716 3584 
Q 2034 3584 2315 3537 
Q 2597 3491 2834 3397 
z
" transform="scale(0.015625)"/>
      </defs>
      <use xlink:href="#DejaVuSans-4e"/>
      <use xlink:href="#DejaVuSans-75" transform="translate(74.804688 0)"/>
      <use xlink:href="#DejaVuSans-6d" transform="translate(138.183594 0)"/>
      <use xlink:href="#DejaVuSans-62" transform="translate(235.595703 0)"/>
      <use xlink:href="#DejaVuSans-65" transform="translate(299.072266 0)"/>
      <use xlink:href="#DejaVuSans-72" transform="translate(360.595703 0)"/>
      <use xlink:href="#DejaVuSans-20" transform="translate(401.708984 0)"/>
      <use xlink:href="#DejaVuSans-6f" transform="translate(433.496094 0)"/>
      <use xlink:href="#DejaVuSans-66" transform="translate(494.677734 0)"/>
      <use xlink:href="#DejaVuSans-20" transform="translate(529.882812 0)"/>
      <use xlink:href="#DejaVuSans-63" transform="translate(561.669922 0)"/>
      <use xlink:href="#DejaVuSans-6c" transform="translate(616.650391 0)"/>
      <use xlink:href="#DejaVuSans-61" transform="translate(644.433594 0)"/>
      <use xlink:href="#DejaVuSans-73" transform="translate(705.712891 0)"/>
      <use xlink:href="#DejaVuSans-73" transform="translate(757.8125 0)"/>
      <use xlink:href="#DejaVuSans-65" transform="translate(809.912109 0)"/>
      <use xlink:href="#DejaVuSans-73" transform="translate(871.435547 0)"/>
     </g>
    </g>
   </g>
   <g id="line2d_7">
    <path d="M 62.140625 207.361784 
L 62.140625 207.361784 
" clip-path="url(#pc7e740b84a)" style="fill: none; stroke: #3f3f3f; stroke-width: 1.875; stroke-linecap: square"/>
   </g>
   <g id="line2d_8">
    <path d="M 62.140625 207.361784 
L 62.140625 207.361784 
" clip-path="url(#pc7e740b84a)" style="fill: none; stroke: #3f3f3f; stroke-width: 5.625; stroke-linecap: square"/>
   </g>
   <g id="line2d_9">
    <path d="M 62.140625 207.361784 
" clip-path="url(#pc7e740b84a)" style="fill: none; stroke: #3f3f3f; stroke-width: 1.5; stroke-linecap: square"/>
    <defs>
     <path id="m9914bbe1f2" d="M 2.34375 0 
L -2.34375 -0 
" style="stroke: #ffffff; stroke-width: 1.125"/>
    </defs>
    <g clip-path="url(#pc7e740b84a)">
     <use xlink:href="#m9914bbe1f2" x="62.140625" y="207.361784" style="fill: #ffffff; stroke: #ffffff; stroke-width: 1.125"/>
    </g>
   </g>
   <g id="patch_3">
    <path d="M 34.240625 228.96 
L 34.240625 7.2 
" style="fill: none; stroke: #000000; stroke-width: 0.8; stroke-linejoin: miter; stroke-linecap: square"/>
   </g>
   <g id="patch_4">
    <path d="M 90.040625 228.96 
L 90.040625 7.2 
" style="fill: none; stroke: #000000; stroke-width: 0.8; stroke-linejoin: miter; stroke-linecap: square"/>
   </g>
   <g id="patch_5">
    <path d="M 34.240625 228.96 
L 90.040625 228.96 
" style="fill: none; stroke: #000000; stroke-width: 0.8; stroke-linejoin: miter; stroke-linecap: square"/>
   </g>
   <g id="patch_6">
    <path d="M 34.240625 7.2 
L 90.040625 7.2 
" style="fill: none; stroke: #000000; stroke-width: 0.8; stroke-linejoin: miter; stroke-linecap: square"/>
   </g>
  </g>
 </g>
 <defs>
  <clipPath id="pc7e740b84a">
   <rect x="34.240625" y="7.2" width="55.8" height="221.76"/>
  </clipPath>
 </defs>
</svg>
