<?xml version="1.0" encoding="utf-8" standalone="no"?>
<!DOCTYPE svg PUBLIC "-//W3C//DTD SVG 1.1//EN"
  "http://www.w3.org/Graphics/SVG/1.1/DTD/svg11.dtd">
<svg xmlns:xlink="http://www.w3.org/1999/xlink" width="103.603125pt" height="239.66pt" viewBox="0 0 103.603125 239.66" xmlns="http://www.w3.org/2000/svg" version="1.1">
 <metadata>
  <rdf:RDF xmlns:dc="http://purl.org/dc/elements/1.1/" xmlns:cc="http://creativecommons.org/ns#" xmlns:rdf="http://www.w3.org/1999/02/22-rdf-syntax-ns#">
   <cc:Work>
    <dc:type rdf:resource="http://purl.org/dc/dcmitype/StillImage"/>
    <dc:date>2026-05-15T16:27:32.026830</dc:date>
    <dc:format>image/svg+xml</dc:format>
    <dc:creator>
     <cc:Agent>
      <dc:title>Matplotlib v3.10.1, https://matplotlib.org/</dc:title>
     </cc:Agent>
    </dc:creator>
   </cc:Work>
  </rdf:RDF>
 </metadata>
 <defs>
  <style type="text/css">*{stroke-linejoin: round; stroke-linecap: butt}</style>
 </defs>
 <g id="figure_1">
  <g id="patch_1">
   <path d="M 0 239.66 
L 103.603125 239.66 
L 103.603125 0 
L 0 0 
z
" style="fill: #ffffff"/>
  </g>
  <g id="axes_1">
   <g id="patch_2">
    <path d="M 40.603125 228.96 
L 96.403125 228.96 
L 96.403125 7.2 
L 40.603125 7.2 
z
" style="fill: #ffffff"/>
   </g>
   <g id="FillBetweenPolyCollection_1">
    <defs>
     <path id="m5a4d9046aa" d="M 70.917267 -20.78 
L 66.088983 -20.78 
L 61.07401 -22.816364 
L 53.33863 -24.852727 
L 47.175037 -26.889091 
L 46.183125 -28.925455 
L 48.892895 -30.961818 
L 52.139827 -32.998182 
L 54.71335 -35.034545 
L 56.825355 -37.070909 
L 58.733767 -39.107273 
L 60.473087 -41.143636 
L 62.039237 -43.18 
L 63.427454 -45.216364 
L 64.63508 -47.252727 
L 65.632826 -49.289091 
L 66.406347 -51.325455 
L 66.949993 -53.361818 
L 67.285885 -55.398182 
L 67.465739 -57.434545 
L 67.549522 -59.470909 
L 67.598808 -61.507273 
L 67.657818 -63.543636 
L 67.737819 -65.58 
L 67.827596 -67.616364 
L 67.897163 -69.652727 
L 67.931601 -71.689091 
L 67.967042 -73.725455 
L 68.046601 -75.761818 
L 68.144918 -77.798182 
L 68.201822 -79.834545 
L 68.212162 -81.870909 
L 68.217546 -83.907273 
L 68.24114 -85.943636 
L 68.275675 -87.98 
L 68.306268 -90.016364 
L 68.321576 -92.052727 
L 68.326185 -94.089091 
L 68.340566 -96.125455 
L 68.372932 -98.161818 
L 68.404202 -100.198182 
L 68.416047 -102.234545 
L 68.411037 -104.270909 
L 68.400101 -106.307273 
L 68.390931 -108.343636 
L 68.388696 -110.38 
L 68.397055 -112.416364 
L 68.415305 -114.452727 
L 68.431044 -116.489091 
L 68.428725 -118.525455 
L 68.411144 -120.561818 
L 68.39657 -122.598182 
L 68.398434 -124.634545 
L 68.419664 -126.670909 
L 68.451104 -128.707273 
L 68.473772 -130.743636 
L 68.478004 -132.78 
L 68.470184 -134.816364 
L 68.460541 -136.852727 
L 68.456605 -138.889091 
L 68.461444 -140.925455 
L 68.472087 -142.961818 
L 68.483117 -144.998182 
L 68.48916 -147.034545 
L 68.487363 -149.070909 
L 68.481174 -151.107273 
L 68.476906 -153.143636 
L 68.477747 -155.18 
L 68.483175 -157.216364 
L 68.48892 -159.252727 
L 68.489685 -161.289091 
L 68.486613 -163.325455 
L 68.486562 -165.361818 
L 68.491924 -167.398182 
L 68.498199 -169.434545 
L 68.50167 -171.470909 
L 68.502428 -173.507273 
L 68.500976 -175.543636 
L 68.496563 -177.58 
L 68.490021 -179.616364 
L 68.486242 -181.652727 
L 68.489094 -183.689091 
L 68.495604 -185.725455 
L 68.500524 -187.761818 
L 68.502545 -189.798182 
L 68.503042 -191.834545 
L 68.503117 -193.870909 
L 68.503125 -195.907273 
L 68.503124 -197.943636 
L 68.503116 -199.98 
L 68.503031 -202.016364 
L 68.502481 -204.052727 
L 68.500262 -206.089091 
L 68.494726 -208.125455 
L 68.486374 -210.161818 
L 68.479125 -212.198182 
L 68.476669 -214.234545 
L 68.479986 -216.270909 
L 68.487704 -218.307273 
L 68.495817 -220.343636 
L 68.500785 -222.38 
L 68.505465 -222.38 
L 68.505465 -222.38 
L 68.510433 -220.343636 
L 68.518546 -218.307273 
L 68.526264 -216.270909 
L 68.529581 -214.234545 
L 68.527125 -212.198182 
L 68.519876 -210.161818 
L 68.511524 -208.125455 
L 68.505988 -206.089091 
L 68.503769 -204.052727 
L 68.503219 -202.016364 
L 68.503134 -199.98 
L 68.503126 -197.943636 
L 68.503125 -195.907273 
L 68.503133 -193.870909 
L 68.503208 -191.834545 
L 68.503705 -189.798182 
L 68.505726 -187.761818 
L 68.510646 -185.725455 
L 68.517156 -183.689091 
L 68.520008 -181.652727 
L 68.516229 -179.616364 
L 68.509687 -177.58 
L 68.505274 -175.543636 
L 68.503822 -173.507273 
L 68.50458 -171.470909 
L 68.508051 -169.434545 
L 68.514326 -167.398182 
L 68.519688 -165.361818 
L 68.519637 -163.325455 
L 68.516565 -161.289091 
L 68.51733 -159.252727 
L 68.523075 -157.216364 
L 68.528503 -155.18 
L 68.529344 -153.143636 
L 68.525076 -151.107273 
L 68.518887 -149.070909 
L 68.51709 -147.034545 
L 68.523133 -144.998182 
L 68.534163 -142.961818 
L 68.544806 -140.925455 
L 68.549645 -138.889091 
L 68.545709 -136.852727 
L 68.536066 -134.816364 
L 68.528246 -132.78 
L 68.532478 -130.743636 
L 68.555146 -128.707273 
L 68.586586 -126.670909 
L 68.607816 -124.634545 
L 68.60968 -122.598182 
L 68.595106 -120.561818 
L 68.577525 -118.525455 
L 68.575206 -116.489091 
L 68.590945 -114.452727 
L 68.609195 -112.416364 
L 68.617554 -110.38 
L 68.615319 -108.343636 
L 68.606149 -106.307273 
L 68.595213 -104.270909 
L 68.590203 -102.234545 
L 68.602048 -100.198182 
L 68.633318 -98.161818 
L 68.665684 -96.125455 
L 68.680065 -94.089091 
L 68.684674 -92.052727 
L 68.699982 -90.016364 
L 68.730575 -87.98 
L 68.76511 -85.943636 
L 68.788704 -83.907273 
L 68.794088 -81.870909 
L 68.804428 -79.834545 
L 68.861332 -77.798182 
L 68.959649 -75.761818 
L 69.039208 -73.725455 
L 69.074649 -71.689091 
L 69.109087 -69.652727 
L 69.178654 -67.616364 
L 69.268431 -65.58 
L 69.348432 -63.543636 
L 69.407442 -61.507273 
L 69.456728 -59.470909 
L 69.540511 -57.434545 
L 69.720365 -55.398182 
L 70.056257 -53.361818 
L 70.599903 -51.325455 
L 71.373424 -49.289091 
L 72.37117 -47.252727 
L 73.578796 -45.216364 
L 74.967013 -43.18 
L 76.533163 -41.143636 
L 78.272483 -39.107273 
L 80.180895 -37.070909 
L 82.2929 -35.034545 
L 84.866423 -32.998182 
L 88.113355 -30.961818 
L 90.823125 -28.925455 
L 89.831213 -26.889091 
L 83.66762 -24.852727 
L 75.93224 -22.816364 
L 70.917267 -20.78 
z
" style="stroke: #3f3f3f; stroke-width: 1.25"/>
    </defs>
    <g clip-path="url(#p061cabb510)">
     <use xlink:href="#m5a4d9046aa" x="0" y="239.66" style="fill: #3274a1; stroke: #3f3f3f; stroke-width: 1.25"/>
    </g>
   </g>
   <g id="matplotlib.axis_1">
    <g id="xtick_1">
     <g id="line2d_1">
      <defs>
       <path id="m58347e56c7" d="M 0 0 
L 0 3.5 
" style="stroke: #000000; stroke-width: 0.8"/>
      </defs>
      <g>
       <use xlink:href="#m58347e56c7" x="68.503125" y="228.96" style="stroke: #000000; stroke-width: 0.8"/>
      </g>
     </g>
    </g>
   </g>
   <g id="matplotlib.axis_2">
    <g id="ytick_1">
     <g id="line2d_2">
      <defs>
       <path id="ma551929311" d="M 0 0 
L -3.5 0 
" style="stroke: #000000; stroke-width: 0.8"/>
      </defs>
      <g>
       <use xlink:href="#ma551929311" x="40.603125" y="221.333948" style="stroke: #000000; stroke-width: 0.8"/>
      </g>
     </g>
     <g id="text_1">
      <!-- 0 -->
      <g transform="translate(27.240625 225.133167) scale(0.1 -0.1)">
       <defs>
        <path id="DejaVuSans-30" d="M 2034 4250 
Q 1547 4250 1301 3770 
Q 1056 3291 1056 2328 
Q 1056 1369 1301 889 
Q 1547 409 2034 409 
Q 2525 409 2770 889 
Q 3016 1369 3016 2328 
Q 3016 3291 2770 3770 
Q 2525 4250 2034 4250 
z
M 2034 4750 
Q 2819 4750 3233 4129 
Q 3647 3509 3647 2328 
Q 3647 1150 3233 529 
Q 2819 -91 2034 -91 
Q 1250 -91 836 529 
Q 422 1150 422 2328 
Q 422 3509 836 4129 
Q 1250 4750 2034 4750 
z
" transform="scale(0.015625)"/>
       </defs>
       <use xlink:href="#DejaVuSans-30"/>
      </g>
     </g>
    </g>
    <g id="ytick_2">
     <g id="line2d_3">
      <g>
       <use xlink:href="#ma551929311" x="40.603125" y="178.31147" style="stroke: #000000; stroke-width: 0.8"/>
      </g>
     </g>
     <g id="text_2">
      <!-- 10 -->
      <g transform="translate(20.878125 182.110689) scale(0.1 -0.1)">
       <defs>
        <path id="DejaVuSans-31" d="M 794 531 
L 1825 531 
L 1825 4091 
L 703 3866 
L 703 4441 
L 1819 4666 
L 2450 4666 
L 2450 531 
L 3481 531 
L 3481 0 
L 794 0 
L 794 531 
z
" transform="scale(0.015625)"/>
       </defs>
       <use xlink:href="#DejaVuSans-31"/>
       <use xlink:href="#DejaVuSans-30" transform="translate(63.623047 0)"/>
      </g>
     </g>
    </g>
    <g id="ytick_3">
     <g id="line2d_4">
      <g>
       <use xlink:href="#ma551929311" x="40.603125" y="135.288991" style="stroke: #000000; stroke-width: 0.8"/>
      </g>
     </g>
     <g id="text_3">
      <!-- 20 -->
      <g transform="translate(20.878125 139.08821) scale(0.1 -0.1)">
       <defs>
        <path id="DejaVuSans-32" d="M 1228 531 
L 3431 531 
L 3431 0 
L 469 0 
L 469 531 
Q 828 903 1448 1529 
Q 2069 2156 2228 2338 
Q 2531 2678 2651 2914 
Q 2772 3150 2772 3378 
Q 2772 3750 2511 3984 
Q 2250 4219 1831 4219 
Q 1534 4219 1204 4116 
Q 875 4013 500 3803 
L 500 4441 
Q 881 4594 1212 4672 
Q 1544 4750 1819 4750 
Q 2544 4750 2975 4387 
Q 3406 4025 3406 3419 
Q 3406 3131 3298 2873 
Q 3191 2616 2906 2266 
Q 2828 2175 2409 1742 
Q 1991 1309 1228 531 
z
" transform="scale(0.015625)"/>
       </defs>
       <use xlink:href="#DejaVuSans-32"/>
       <use xlink:href="#DejaVuSans-30" transform="translate(63.623047 0)"/>
      </g>
     </g>
    </g>
    <g id="ytick_4">
     <g id="line2d_5">
      <g>
       <use xlink:href="#ma551929311" x="40.603125" y="92.266513" style="stroke: #000000; stroke-width: 0.8"/>
      </g>
     </g>
     <g id="text_4">
      <!-- 30 -->
      <g transform="translate(20.878125 96.065732) scale(0.1 -0.1)">
       <defs>
        <path id="DejaVuSans-33" d="M 2597 2516 
Q 3050 2419 3304 2112 
Q 3559 1806 3559 1356 
Q 3559 666 3084 287 
Q 2609 -91 1734 -91 
Q 1441 -91 1130 -33 
Q 819 25 488 141 
L 488 750 
Q 750 597 1062 519 
Q 1375 441 1716 441 
Q 2309 441 2620 675 
Q 2931 909 2931 1356 
Q 2931 1769 2642 2001 
Q 2353 2234 1838 2234 
L 1294 2234 
L 1294 2753 
L 1863 2753 
Q 2328 2753 2575 2939 
Q 2822 3125 2822 3475 
Q 2822 3834 2567 4026 
Q 2313 4219 1838 4219 
Q 1578 4219 1281 4162 
Q 984 4106 628 3988 
L 628 4550 
Q 988 4650 1302 4700 
Q 1616 4750 1894 4750 
Q 2613 4750 3031 4423 
Q 3450 4097 3450 3541 
Q 3450 3153 3228 2886 
Q 3006 2619 2597 2516 
z
" transform="scale(0.015625)"/>
       </defs>
       <use xlink:href="#DejaVuSans-33"/>
       <use xlink:href="#DejaVuSans-30" transform="translate(63.623047 0)"/>
      </g>
     </g>
    </g>
    <g id="ytick_5">
     <g id="line2d_6">
      <g>
       <use xlink:href="#ma551929311" x="40.603125" y="49.244035" style="stroke: #000000; stroke-width: 0.8"/>
      </g>
     </g>
     <g id="text_5">
      <!-- 40 -->
      <g transform="translate(20.878125 53.043253) scale(0.1 -0.1)">
       <defs>
        <path id="DejaVuSans-34" d="M 2419 4116 
L 825 1625 
L 2419 1625 
L 2419 4116 
z
M 2253 4666 
L 3047 4666 
L 3047 1625 
L 3713 1625 
L 3713 1100 
L 3047 1100 
L 3047 0 
L 2419 0 
L 2419 1100 
L 313 1100 
L 313 1709 
L 2253 4666 
z
" transform="scale(0.015625)"/>
       </defs>
       <use xlink:href="#DejaVuSans-34"/>
       <use xlink:href="#DejaVuSans-30" transform="translate(63.623047 0)"/>
      </g>
     </g>
    </g>
    <g id="text_6">
     <!-- Problematic Connected Components Sizes -->
     <g transform="translate(14.798437 223.876875) rotate(-90) scale(0.1 -0.1)">
      <defs>
       <path id="DejaVuSans-50" d="M 1259 4147 
L 1259 2394 
L 2053 2394 
Q 2494 2394 2734 2622 
Q 2975 2850 2975 3272 
Q 2975 3691 2734 3919 
Q 2494 4147 2053 4147 
L 1259 4147 
z
M 628 4666 
L 2053 4666 
Q 2838 4666 3239 4311 
Q 3641 3956 3641 3272 
Q 3641 2581 3239 2228 
Q 2838 1875 2053 1875 
L 1259 1875 
L 1259 0 
L 628 0 
L 628 4666 
z
" transform="scale(0.015625)"/>
       <path id="DejaVuSans-72" d="M 2631 2963 
Q 2534 3019 2420 3045 
Q 2306 3072 2169 3072 
Q 1681 3072 1420 2755 
Q 1159 2438 1159 1844 
L 1159 0 
L 581 0 
L 581 3500 
L 1159 3500 
L 1159 2956 
Q 1341 3275 1631 3429 
Q 1922 3584 2338 3584 
Q 2397 3584 2469 3576 
Q 2541 3569 2628 3553 
L 2631 2963 
z
" transform="scale(0.015625)"/>
       <path id="DejaVuSans-6f" d="M 1959 3097 
Q 1497 3097 1228 2736 
Q 959 2375 959 1747 
Q 959 1119 1226 758 
Q 1494 397 1959 397 
Q 2419 397 2687 759 
Q 2956 1122 2956 1747 
Q 2956 2369 2687 2733 
Q 2419 3097 1959 3097 
z
M 1959 3584 
Q 2709 3584 3137 3096 
Q 3566 2609 3566 1747 
Q 3566 888 3137 398 
Q 2709 -91 1959 -91 
Q 1206 -91 779 398 
Q 353 888 353 1747 
Q 353 2609 779 3096 
Q 1206 3584 1959 3584 
z
" transform="scale(0.015625)"/>
       <path id="DejaVuSans-62" d="M 3116 1747 
Q 3116 2381 2855 2742 
Q 2594 3103 2138 3103 
Q 1681 3103 1420 2742 
Q 1159 2381 1159 1747 
Q 1159 1113 1420 752 
Q 1681 391 2138 391 
Q 2594 391 2855 752 
Q 3116 1113 3116 1747 
z
M 1159 2969 
Q 1341 3281 1617 3432 
Q 1894 3584 2278 3584 
Q 2916 3584 3314 3078 
Q 3713 2572 3713 1747 
Q 3713 922 3314 415 
Q 2916 -91 2278 -91 
Q 1894 -91 1617 61 
Q 1341 213 1159 525 
L 1159 0 
L 581 0 
L 581 4863 
L 1159 4863 
L 1159 2969 
z
" transform="scale(0.015625)"/>
       <path id="DejaVuSans-6c" d="M 603 4863 
L 1178 4863 
L 1178 0 
L 603 0 
L 603 4863 
z
" transform="scale(0.015625)"/>
       <path id="DejaVuSans-65" d="M 3597 1894 
L 3597 1613 
L 953 1613 
Q 991 1019 1311 708 
Q 1631 397 2203 397 
Q 2534 397 2845 478 
Q 3156 559 3463 722 
L 3463 178 
Q 3153 47 2828 -22 
Q 2503 -91 2169 -91 
Q 1331 -91 842 396 
Q 353 884 353 1716 
Q 353 2575 817 3079 
Q 1281 3584 2069 3584 
Q 2775 3584 3186 3129 
Q 3597 2675 3597 1894 
z
M 3022 2063 
Q 3016 2534 2758 2815 
Q 2500 3097 2075 3097 
Q 1594 3097 1305 2825 
Q 1016 2553 972 2059 
L 3022 2063 
z
" transform="scale(0.015625)"/>
       <path id="DejaVuSans-6d" d="M 3328 2828 
Q 3544 3216 3844 3400 
Q 4144 3584 4550 3584 
Q 5097 3584 5394 3201 
Q 5691 2819 5691 2113 
L 5691 0 
L 5113 0 
L 5113 2094 
Q 5113 2597 4934 2840 
Q 4756 3084 4391 3084 
Q 3944 3084 3684 2787 
Q 3425 2491 3425 1978 
L 3425 0 
L 2847 0 
L 2847 2094 
Q 2847 2600 2669 2842 
Q 2491 3084 2119 3084 
Q 1678 3084 1418 2786 
Q 1159 2488 1159 1978 
L 1159 0 
L 581 0 
L 581 3500 
L 1159 3500 
L 1159 2956 
Q 1356 3278 1631 3431 
Q 1906 3584 2284 3584 
Q 2666 3584 2933 3390 
Q 3200 3197 3328 2828 
z
" transform="scale(0.015625)"/>
       <path id="DejaVuSans-61" d="M 2194 1759 
Q 1497 1759 1228 1600 
Q 959 1441 959 1056 
Q 959 750 1161 570 
Q 1363 391 1709 391 
Q 2188 391 2477 730 
Q 2766 1069 2766 1631 
L 2766 1759 
L 2194 1759 
z
M 3341 1997 
L 3341 0 
L 2766 0 
L 2766 531 
Q 2569 213 2275 61 
Q 1981 -91 1556 -91 
Q 1019 -91 701 211 
Q 384 513 384 1019 
Q 384 1609 779 1909 
Q 1175 2209 1959 2209 
L 2766 2209 
L 2766 2266 
Q 2766 2663 2505 2880 
Q 2244 3097 1772 3097 
Q 1472 3097 1187 3025 
Q 903 2953 641 2809 
L 641 3341 
Q 956 3463 1253 3523 
Q 1550 3584 1831 3584 
Q 2591 3584 2966 3190 
Q 3341 2797 3341 1997 
z
" transform="scale(0.015625)"/>
       <path id="DejaVuSans-74" d="M 1172 4494 
L 1172 3500 
L 2356 3500 
L 2356 3053 
L 1172 3053 
L 1172 1153 
Q 1172 725 1289 603 
Q 1406 481 1766 481 
L 2356 481 
L 2356 0 
L 1766 0 
Q 1100 0 847 248 
Q 594 497 594 1153 
L 594 3053 
L 172 3053 
L 172 3500 
L 594 3500 
L 594 4494 
L 1172 4494 
z
" transform="scale(0.015625)"/>
       <path id="DejaVuSans-69" d="M 603 3500 
L 1178 3500 
L 1178 0 
L 603 0 
L 603 3500 
z
M 603 4863 
L 1178 4863 
L 1178 4134 
L 603 4134 
L 603 4863 
z
" transform="scale(0.015625)"/>
       <path id="DejaVuSans-63" d="M 3122 3366 
L 3122 2828 
Q 2878 2963 2633 3030 
Q 2388 3097 2138 3097 
Q 1578 3097 1268 2742 
Q 959 2388 959 1747 
Q 959 1106 1268 751 
Q 1578 397 2138 397 
Q 2388 397 2633 464 
Q 2878 531 3122 666 
L 3122 134 
Q 2881 22 2623 -34 
Q 2366 -91 2075 -91 
Q 1284 -91 818 406 
Q 353 903 353 1747 
Q 353 2603 823 3093 
Q 1294 3584 2113 3584 
Q 2378 3584 2631 3529 
Q 2884 3475 3122 3366 
z
" transform="scale(0.015625)"/>
       <path id="DejaVuSans-20" transform="scale(0.015625)"/>
       <path id="DejaVuSans-43" d="M 4122 4306 
L 4122 3641 
Q 3803 3938 3442 4084 
Q 3081 4231 2675 4231 
Q 1875 4231 1450 3742 
Q 1025 3253 1025 2328 
Q 1025 1406 1450 917 
Q 1875 428 2675 428 
Q 3081 428 3442 575 
Q 3803 722 4122 1019 
L 4122 359 
Q 3791 134 3420 21 
Q 3050 -91 2638 -91 
Q 1578 -91 968 557 
Q 359 1206 359 2328 
Q 359 3453 968 4101 
Q 1578 4750 2638 4750 
Q 3056 4750 3426 4639 
Q 3797 4528 4122 4306 
z
" transform="scale(0.015625)"/>
       <path id="DejaVuSans-6e" d="M 3513 2113 
L 3513 0 
L 2938 0 
L 2938 2094 
Q 2938 2591 2744 2837 
Q 2550 3084 2163 3084 
Q 1697 3084 1428 2787 
Q 1159 2491 1159 1978 
L 1159 0 
L 581 0 
L 581 3500 
L 1159 3500 
L 1159 2956 
Q 1366 3272 1645 3428 
Q 1925 3584 2291 3584 
Q 2894 3584 3203 3211 
Q 3513 2838 3513 2113 
z
" transform="scale(0.015625)"/>
       <path id="DejaVuSans-64" d="M 2906 2969 
L 2906 4863 
L 3481 4863 
L 3481 0 
L 2906 0 
L 2906 525 
Q 2725 213 2448 61 
Q 2172 -91 1784 -91 
Q 1150 -91 751 415 
Q 353 922 353 1747 
Q 353 2572 751 3078 
Q 1150 3584 1784 3584 
Q 2172 3584 2448 3432 
Q 2725 3281 2906 2969 
z
M 947 1747 
Q 947 1113 1208 752 
Q 1469 391 1925 391 
Q 2381 391 2643 752 
Q 2906 1113 2906 1747 
Q 2906 2381 2643 2742 
Q 2381 3103 1925 3103 
Q 1469 3103 1208 2742 
Q 947 2381 947 1747 
z
" transform="scale(0.015625)"/>
       <path id="DejaVuSans-70" d="M 1159 525 
L 1159 -1331 
L 581 -1331 
L 581 3500 
L 1159 3500 
L 1159 2969 
Q 1341 3281 1617 3432 
Q 1894 3584 2278 3584 
Q 2916 3584 3314 3078 
Q 3713 2572 3713 1747 
Q 3713 922 3314 415 
Q 2916 -91 2278 -91 
Q 1894 -91 1617 61 
Q 1341 213 1159 525 
z
M 3116 1747 
Q 3116 2381 2855 2742 
Q 2594 3103 2138 3103 
Q 1681 3103 1420 2742 
Q 1159 2381 1159 1747 
Q 1159 1113 1420 752 
Q 1681 391 2138 391 
Q 2594 391 2855 752 
Q 3116 1113 3116 1747 
z
" transform="scale(0.015625)"/>
       <path id="DejaVuSans-73" d="M 2834 3397 
L 2834 2853 
Q 2591 2978 2328 3040 
Q 2066 3103 1784 3103 
Q 1356 3103 1142 2972 
Q 928 2841 928 2578 
Q 928 2378 1081 2264 
Q 1234 2150 1697 2047 
L 1894 2003 
Q 2506 1872 2764 1633 
Q 3022 1394 3022 966 
Q 3022 478 2636 193 
Q 2250 -91 1575 -91 
Q 1294 -91 989 -36 
Q 684 19 347 128 
L 347 722 
Q 666 556 975 473 
Q 1284 391 1588 391 
Q 1994 391 2212 530 
Q 2431 669 2431 922 
Q 2431 1156 2273 1281 
Q 2116 1406 1581 1522 
L 1381 1569 
Q 847 1681 609 1914 
Q 372 2147 372 2553 
Q 372 3047 722 3315 
Q 1072 3584 1716 3584 
Q 2034 3584 2315 3537 
Q 2597 3491 2834 3397 
z
" transform="scale(0.015625)"/>
       <path id="DejaVuSans-53" d="M 3425 4513 
L 3425 3897 
Q 3066 4069 2747 4153 
Q 2428 4238 2131 4238 
Q 1616 4238 1336 4038 
Q 1056 3838 1056 3469 
Q 1056 3159 1242 3001 
Q 1428 2844 1947 2747 
L 2328 2669 
Q 3034 2534 3370 2195 
Q 3706 1856 3706 1288 
Q 3706 609 3251 259 
Q 2797 -91 1919 -91 
Q 1588 -91 1214 -16 
Q 841 59 441 206 
L 441 856 
Q 825 641 1194 531 
Q 1563 422 1919 422 
Q 2459 422 2753 634 
Q 3047 847 3047 1241 
Q 3047 1584 2836 1778 
Q 2625 1972 2144 2069 
L 1759 2144 
Q 1053 2284 737 2584 
Q 422 2884 422 3419 
Q 422 4038 858 4394 
Q 1294 4750 2059 4750 
Q 2388 4750 2728 4690 
Q 3069 4631 3425 4513 
z
" transform="scale(0.015625)"/>
       <path id="DejaVuSans-7a" d="M 353 3500 
L 3084 3500 
L 3084 2975 
L 922 459 
L 3084 459 
L 3084 0 
L 275 0 
L 275 525 
L 2438 3041 
L 353 3041 
L 353 3500 
z
" transform="scale(0.015625)"/>
      </defs>
      <use xlink:href="#DejaVuSans-50"/>
      <use xlink:href="#DejaVuSans-72" transform="translate(58.552734 0)"/>
      <use xlink:href="#DejaVuSans-6f" transform="translate(97.416016 0)"/>
      <use xlink:href="#DejaVuSans-62" transform="translate(158.597656 0)"/>
      <use xlink:href="#DejaVuSans-6c" transform="translate(222.074219 0)"/>
      <use xlink:href="#DejaVuSans-65" transform="translate(249.857422 0)"/>
      <use xlink:href="#DejaVuSans-6d" transform="translate(311.380859 0)"/>
      <use xlink:href="#DejaVuSans-61" transform="translate(408.792969 0)"/>
      <use xlink:href="#DejaVuSans-74" transform="translate(470.072266 0)"/>
      <use xlink:href="#DejaVuSans-69" transform="translate(509.28125 0)"/>
      <use xlink:href="#DejaVuSans-63" transform="translate(537.064453 0)"/>
      <use xlink:href="#DejaVuSans-20" transform="translate(592.044922 0)"/>
      <use xlink:href="#DejaVuSans-43" transform="translate(623.832031 0)"/>
      <use xlink:href="#DejaVuSans-6f" transform="translate(693.65625 0)"/>
      <use xlink:href="#DejaVuSans-6e" transform="translate(754.837891 0)"/>
      <use xlink:href="#DejaVuSans-6e" transform="translate(818.216797 0)"/>
      <use xlink:href="#DejaVuSans-65" transform="translate(881.595703 0)"/>
      <use xlink:href="#DejaVuSans-63" transform="translate(943.119141 0)"/>
      <use xlink:href="#DejaVuSans-74" transform="translate(998.099609 0)"/>
      <use xlink:href="#DejaVuSans-65" transform="translate(1037.308594 0)"/>
      <use xlink:href="#DejaVuSans-64" transform="translate(1098.832031 0)"/>
      <use xlink:href="#DejaVuSans-20" transform="translate(1162.308594 0)"/>
      <use xlink:href="#DejaVuSans-43" transform="translate(1194.095703 0)"/>
      <use xlink:href="#DejaVuSans-6f" transform="translate(1263.919922 0)"/>
      <use xlink:href="#DejaVuSans-6d" transform="translate(1325.101562 0)"/>
      <use xlink:href="#DejaVuSans-70" transform="translate(1422.513672 0)"/>
      <use xlink:href="#DejaVuSans-6f" transform="translate(1485.990234 0)"/>
      <use xlink:href="#DejaVuSans-6e" transform="translate(1547.171875 0)"/>
      <use xlink:href="#DejaVuSans-65" transform="translate(1610.550781 0)"/>
      <use xlink:href="#DejaVuSans-6e" transform="translate(1672.074219 0)"/>
      <use xlink:href="#DejaVuSans-74" transform="translate(1735.453125 0)"/>
      <use xlink:href="#DejaVuSans-73" transform="translate(1774.662109 0)"/>
      <use xlink:href="#DejaVuSans-20" transform="translate(1826.761719 0)"/>
      <use xlink:href="#DejaVuSans-53" transform="translate(1858.548828 0)"/>
      <use xlink:href="#DejaVuSans-69" transform="translate(1922.025391 0)"/>
      <use xlink:href="#DejaVuSans-7a" transform="translate(1949.808594 0)"/>
      <use xlink:href="#DejaVuSans-65" transform="translate(2002.298828 0)"/>
      <use xlink:href="#DejaVuSans-73" transform="translate(2063.822266 0)"/>
     </g>
    </g>
   </g>
   <g id="line2d_7">
    <path d="M 68.503125 212.729452 
L 68.503125 182.613718 
" clip-path="url(#p061cabb510)" style="fill: none; stroke: #3f3f3f; stroke-width: 1.875; stroke-linecap: square"/>
   </g>
   <g id="line2d_8">
    <path d="M 68.503125 212.729452 
L 68.503125 199.822709 
" clip-path="url(#p061cabb510)" style="fill: none; stroke: #3f3f3f; stroke-width: 5.625; stroke-linecap: square"/>
   </g>
   <g id="line2d_9">
    <path d="M 68.503125 208.427205 
" clip-path="url(#p061cabb510)" style="fill: none; stroke: #3f3f3f; stroke-width: 1.5; stroke-linecap: square"/>
    <defs>
     <path id="m7e30e6c3f5" d="M 2.34375 0 
L -2.34375 -0 
" style="stroke: #ffffff; stroke-width: 1.125"/>
    </defs>
    <g clip-path="url(#p061cabb510)">
     <use xlink:href="#m7e30e6c3f5" x="68.503125" y="208.427205" style="fill: #ffffff; stroke: #ffffff; stroke-width: 1.125"/>
    </g>
   </g>
   <g id="patch_3">
    <path d="M 40.603125 228.96 
L 40.603125 7.2 
" style="fill: none; stroke: #000000; stroke-width: 0.8; stroke-linejoin: miter; stroke-linecap: square"/>
   </g>
   <g id="patch_4">
    <path d="M 96.403125 228.96 
L 96.403125 7.2 
" style="fill: none; stroke: #000000; stroke-width: 0.8; stroke-linejoin: miter; stroke-linecap: square"/>
   </g>
   <g id="patch_5">
    <path d="M 40.603125 228.96 
L 96.403125 228.96 
" style="fill: none; stroke: #000000; stroke-width: 0.8; stroke-linejoin: miter; stroke-linecap: square"/>
   </g>
   <g id="patch_6">
    <path d="M 40.603125 7.2 
L 96.403125 7.2 
" style="fill: none; stroke: #000000; stroke-width: 0.8; stroke-linejoin: miter; stroke-linecap: square"/>
   </g>
  </g>
 </g>
 <defs>
  <clipPath id="p061cabb510">
   <rect x="40.603125" y="7.2" width="55.8" height="221.76"/>
  </clipPath>
 </defs>
</svg>
