<?xml version="1.0" encoding="utf-8" standalone="no"?>
<!DOCTYPE svg PUBLIC "-//W3C//DTD SVG 1.1//EN"
  "http://www.w3.org/Graphics/SVG/1.1/DTD/svg11.dtd">
<svg xmlns:xlink="http://www.w3.org/1999/xlink" width="271.003125pt" height="503.128437pt" viewBox="0 0 271.003125 503.128437" xmlns="http://www.w3.org/2000/svg" version="1.1">
 <metadata>
  <rdf:RDF xmlns:dc="http://purl.org/dc/elements/1.1/" xmlns:cc="http://creativecommons.org/ns#" xmlns:rdf="http://www.w3.org/1999/02/22-rdf-syntax-ns#">
   <cc:Work>
    <dc:type rdf:resource="http://purl.org/dc/dcmitype/StillImage"/>
    <dc:date>2026-05-15T15:48:13.541439</dc:date>
    <dc:format>image/svg+xml</dc:format>
    <dc:creator>
     <cc:Agent>
      <dc:title>Matplotlib v3.10.1, https://matplotlib.org/</dc:title>
     </cc:Agent>
    </dc:creator>
   </cc:Work>
  </rdf:RDF>
 </metadata>
 <defs>
  <style type="text/css">*{stroke-linejoin: round; stroke-linecap: butt}</style>
 </defs>
 <g id="figure_1">
  <g id="patch_1">
   <path d="M 0 503.128437 
L 271.003125 503.128437 
L 271.003125 0 
L 0 0 
z
" style="fill: #ffffff"/>
  </g>
  <g id="axes_1">
   <g id="patch_2">
    <path d="M 40.603125 77.758125 
L 263.803125 77.758125 
L 263.803125 22.318125 
L 40.603125 22.318125 
z
" style="fill: #ffffff"/>
   </g>
   <g id="patch_3">
    <path d="M 46.183125 77.758125 
L 57.343125 77.758125 
L 57.343125 24.958125 
L 46.183125 24.958125 
z
" clip-path="url(#p1caa6aec88)" style="fill: #d3d3d3"/>
   </g>
   <g id="patch_4">
    <path d="M 68.503125 77.758125 
L 79.663125 77.758125 
L 79.663125 31.558125 
L 68.503125 31.558125 
z
" clip-path="url(#p1caa6aec88)" style="fill: #d3d3d3"/>
   </g>
   <g id="patch_5">
    <path d="M 90.823125 77.758125 
L 101.983125 77.758125 
L 101.983125 57.958125 
L 90.823125 57.958125 
z
" clip-path="url(#p1caa6aec88)" style="fill: #d3d3d3"/>
   </g>
   <g id="patch_6">
    <path d="M 113.143125 77.758125 
L 124.303125 77.758125 
L 124.303125 57.958125 
L 113.143125 57.958125 
z
" clip-path="url(#p1caa6aec88)" style="fill: #d3d3d3"/>
   </g>
   <g id="patch_7">
    <path d="M 135.463125 77.758125 
L 146.623125 77.758125 
L 146.623125 67.858125 
L 135.463125 67.858125 
z
" clip-path="url(#p1caa6aec88)" style="fill: #d3d3d3"/>
   </g>
   <g id="patch_8">
    <path d="M 157.783125 77.758125 
L 168.943125 77.758125 
L 168.943125 67.858125 
L 157.783125 67.858125 
z
" clip-path="url(#p1caa6aec88)" style="fill: #d3d3d3"/>
   </g>
   <g id="patch_9">
    <path d="M 180.103125 77.758125 
L 191.263125 77.758125 
L 191.263125 71.158125 
L 180.103125 71.158125 
z
" clip-path="url(#p1caa6aec88)" style="fill: #d3d3d3"/>
   </g>
   <g id="patch_10">
    <path d="M 202.423125 77.758125 
L 213.583125 77.758125 
L 213.583125 71.158125 
L 202.423125 71.158125 
z
" clip-path="url(#p1caa6aec88)" style="fill: #d3d3d3"/>
   </g>
   <g id="patch_11">
    <path d="M 224.743125 77.758125 
L 235.903125 77.758125 
L 235.903125 71.158125 
L 224.743125 71.158125 
z
" clip-path="url(#p1caa6aec88)" style="fill: #d3d3d3"/>
   </g>
   <g id="patch_12">
    <path d="M 247.063125 77.758125 
L 258.223125 77.758125 
L 258.223125 71.158125 
L 247.063125 71.158125 
z
" clip-path="url(#p1caa6aec88)" style="fill: #d3d3d3"/>
   </g>
   <g id="matplotlib.axis_1">
    <g id="xtick_1">
     <g id="line2d_1">
      <defs>
       <path id="m3fc28f16e8" d="M 0 0 
L 0 3.5 
" style="stroke: #000000; stroke-width: 0.8"/>
      </defs>
      <g>
       <use xlink:href="#m3fc28f16e8" x="51.763125" y="77.758125" style="stroke: #000000; stroke-width: 0.8"/>
      </g>
     </g>
     <g id="text_1">
      <!-- {beta-lactam, aminoglycoside} -->
      <g transform="translate(54.5225 242.445625) rotate(-90) scale(0.1 -0.1)">
       <defs>
        <path id="DejaVuSans-7b" d="M 3272 -594 
L 3272 -1044 
L 3078 -1044 
Q 2300 -1044 2036 -812 
Q 1772 -581 1772 109 
L 1772 856 
Q 1772 1328 1603 1509 
Q 1434 1691 991 1691 
L 800 1691 
L 800 2138 
L 991 2138 
Q 1438 2138 1605 2317 
Q 1772 2497 1772 2963 
L 1772 3713 
Q 1772 4403 2036 4633 
Q 2300 4863 3078 4863 
L 3272 4863 
L 3272 4416 
L 3059 4416 
Q 2619 4416 2484 4278 
Q 2350 4141 2350 3700 
L 2350 2925 
Q 2350 2434 2208 2212 
Q 2066 1991 1722 1913 
Q 2069 1828 2209 1606 
Q 2350 1384 2350 897 
L 2350 122 
Q 2350 -319 2484 -456 
Q 2619 -594 3059 -594 
L 3272 -594 
z
" transform="scale(0.015625)"/>
        <path id="DejaVuSans-62" d="M 3116 1747 
Q 3116 2381 2855 2742 
Q 2594 3103 2138 3103 
Q 1681 3103 1420 2742 
Q 1159 2381 1159 1747 
Q 1159 1113 1420 752 
Q 1681 391 2138 391 
Q 2594 391 2855 752 
Q 3116 1113 3116 1747 
z
M 1159 2969 
Q 1341 3281 1617 3432 
Q 1894 3584 2278 3584 
Q 2916 3584 3314 3078 
Q 3713 2572 3713 1747 
Q 3713 922 3314 415 
Q 2916 -91 2278 -91 
Q 1894 -91 1617 61 
Q 1341 213 1159 525 
L 1159 0 
L 581 0 
L 581 4863 
L 1159 4863 
L 1159 2969 
z
" transform="scale(0.015625)"/>
        <path id="DejaVuSans-65" d="M 3597 1894 
L 3597 1613 
L 953 1613 
Q 991 1019 1311 708 
Q 1631 397 2203 397 
Q 2534 397 2845 478 
Q 3156 559 3463 722 
L 3463 178 
Q 3153 47 2828 -22 
Q 2503 -91 2169 -91 
Q 1331 -91 842 396 
Q 353 884 353 1716 
Q 353 2575 817 3079 
Q 1281 3584 2069 3584 
Q 2775 3584 3186 3129 
Q 3597 2675 3597 1894 
z
M 3022 2063 
Q 3016 2534 2758 2815 
Q 2500 3097 2075 3097 
Q 1594 3097 1305 2825 
Q 1016 2553 972 2059 
L 3022 2063 
z
" transform="scale(0.015625)"/>
        <path id="DejaVuSans-74" d="M 1172 4494 
L 1172 3500 
L 2356 3500 
L 2356 3053 
L 1172 3053 
L 1172 1153 
Q 1172 725 1289 603 
Q 1406 481 1766 481 
L 2356 481 
L 2356 0 
L 1766 0 
Q 1100 0 847 248 
Q 594 497 594 1153 
L 594 3053 
L 172 3053 
L 172 3500 
L 594 3500 
L 594 4494 
L 1172 4494 
z
" transform="scale(0.015625)"/>
        <path id="DejaVuSans-61" d="M 2194 1759 
Q 1497 1759 1228 1600 
Q 959 1441 959 1056 
Q 959 750 1161 570 
Q 1363 391 1709 391 
Q 2188 391 2477 730 
Q 2766 1069 2766 1631 
L 2766 1759 
L 2194 1759 
z
M 3341 1997 
L 3341 0 
L 2766 0 
L 2766 531 
Q 2569 213 2275 61 
Q 1981 -91 1556 -91 
Q 1019 -91 701 211 
Q 384 513 384 1019 
Q 384 1609 779 1909 
Q 1175 2209 1959 2209 
L 2766 2209 
L 2766 2266 
Q 2766 2663 2505 2880 
Q 2244 3097 1772 3097 
Q 1472 3097 1187 3025 
Q 903 2953 641 2809 
L 641 3341 
Q 956 3463 1253 3523 
Q 1550 3584 1831 3584 
Q 2591 3584 2966 3190 
Q 3341 2797 3341 1997 
z
" transform="scale(0.015625)"/>
        <path id="DejaVuSans-2d" d="M 313 2009 
L 1997 2009 
L 1997 1497 
L 313 1497 
L 313 2009 
z
" transform="scale(0.015625)"/>
        <path id="DejaVuSans-6c" d="M 603 4863 
L 1178 4863 
L 1178 0 
L 603 0 
L 603 4863 
z
" transform="scale(0.015625)"/>
        <path id="DejaVuSans-63" d="M 3122 3366 
L 3122 2828 
Q 2878 2963 2633 3030 
Q 2388 3097 2138 3097 
Q 1578 3097 1268 2742 
Q 959 2388 959 1747 
Q 959 1106 1268 751 
Q 1578 397 2138 397 
Q 2388 397 2633 464 
Q 2878 531 3122 666 
L 3122 134 
Q 2881 22 2623 -34 
Q 2366 -91 2075 -91 
Q 1284 -91 818 406 
Q 353 903 353 1747 
Q 353 2603 823 3093 
Q 1294 3584 2113 3584 
Q 2378 3584 2631 3529 
Q 2884 3475 3122 3366 
z
" transform="scale(0.015625)"/>
        <path id="DejaVuSans-6d" d="M 3328 2828 
Q 3544 3216 3844 3400 
Q 4144 3584 4550 3584 
Q 5097 3584 5394 3201 
Q 5691 2819 5691 2113 
L 5691 0 
L 5113 0 
L 5113 2094 
Q 5113 2597 4934 2840 
Q 4756 3084 4391 3084 
Q 3944 3084 3684 2787 
Q 3425 2491 3425 1978 
L 3425 0 
L 2847 0 
L 2847 2094 
Q 2847 2600 2669 2842 
Q 2491 3084 2119 3084 
Q 1678 3084 1418 2786 
Q 1159 2488 1159 1978 
L 1159 0 
L 581 0 
L 581 3500 
L 1159 3500 
L 1159 2956 
Q 1356 3278 1631 3431 
Q 1906 3584 2284 3584 
Q 2666 3584 2933 3390 
Q 3200 3197 3328 2828 
z
" transform="scale(0.015625)"/>
        <path id="DejaVuSans-2c" d="M 750 794 
L 1409 794 
L 1409 256 
L 897 -744 
L 494 -744 
L 750 256 
L 750 794 
z
" transform="scale(0.015625)"/>
        <path id="DejaVuSans-20" transform="scale(0.015625)"/>
        <path id="DejaVuSans-69" d="M 603 3500 
L 1178 3500 
L 1178 0 
L 603 0 
L 603 3500 
z
M 603 4863 
L 1178 4863 
L 1178 4134 
L 603 4134 
L 603 4863 
z
" transform="scale(0.015625)"/>
        <path id="DejaVuSans-6e" d="M 3513 2113 
L 3513 0 
L 2938 0 
L 2938 2094 
Q 2938 2591 2744 2837 
Q 2550 3084 2163 3084 
Q 1697 3084 1428 2787 
Q 1159 2491 1159 1978 
L 1159 0 
L 581 0 
L 581 3500 
L 1159 3500 
L 1159 2956 
Q 1366 3272 1645 3428 
Q 1925 3584 2291 3584 
Q 2894 3584 3203 3211 
Q 3513 2838 3513 2113 
z
" transform="scale(0.015625)"/>
        <path id="DejaVuSans-6f" d="M 1959 3097 
Q 1497 3097 1228 2736 
Q 959 2375 959 1747 
Q 959 1119 1226 758 
Q 1494 397 1959 397 
Q 2419 397 2687 759 
Q 2956 1122 2956 1747 
Q 2956 2369 2687 2733 
Q 2419 3097 1959 3097 
z
M 1959 3584 
Q 2709 3584 3137 3096 
Q 3566 2609 3566 1747 
Q 3566 888 3137 398 
Q 2709 -91 1959 -91 
Q 1206 -91 779 398 
Q 353 888 353 1747 
Q 353 2609 779 3096 
Q 1206 3584 1959 3584 
z
" transform="scale(0.015625)"/>
        <path id="DejaVuSans-67" d="M 2906 1791 
Q 2906 2416 2648 2759 
Q 2391 3103 1925 3103 
Q 1463 3103 1205 2759 
Q 947 2416 947 1791 
Q 947 1169 1205 825 
Q 1463 481 1925 481 
Q 2391 481 2648 825 
Q 2906 1169 2906 1791 
z
M 3481 434 
Q 3481 -459 3084 -895 
Q 2688 -1331 1869 -1331 
Q 1566 -1331 1297 -1286 
Q 1028 -1241 775 -1147 
L 775 -588 
Q 1028 -725 1275 -790 
Q 1522 -856 1778 -856 
Q 2344 -856 2625 -561 
Q 2906 -266 2906 331 
L 2906 616 
Q 2728 306 2450 153 
Q 2172 0 1784 0 
Q 1141 0 747 490 
Q 353 981 353 1791 
Q 353 2603 747 3093 
Q 1141 3584 1784 3584 
Q 2172 3584 2450 3431 
Q 2728 3278 2906 2969 
L 2906 3500 
L 3481 3500 
L 3481 434 
z
" transform="scale(0.015625)"/>
        <path id="DejaVuSans-79" d="M 2059 -325 
Q 1816 -950 1584 -1140 
Q 1353 -1331 966 -1331 
L 506 -1331 
L 506 -850 
L 844 -850 
Q 1081 -850 1212 -737 
Q 1344 -625 1503 -206 
L 1606 56 
L 191 3500 
L 800 3500 
L 1894 763 
L 2988 3500 
L 3597 3500 
L 2059 -325 
z
" transform="scale(0.015625)"/>
        <path id="DejaVuSans-73" d="M 2834 3397 
L 2834 2853 
Q 2591 2978 2328 3040 
Q 2066 3103 1784 3103 
Q 1356 3103 1142 2972 
Q 928 2841 928 2578 
Q 928 2378 1081 2264 
Q 1234 2150 1697 2047 
L 1894 2003 
Q 2506 1872 2764 1633 
Q 3022 1394 3022 966 
Q 3022 478 2636 193 
Q 2250 -91 1575 -91 
Q 1294 -91 989 -36 
Q 684 19 347 128 
L 347 722 
Q 666 556 975 473 
Q 1284 391 1588 391 
Q 1994 391 2212 530 
Q 2431 669 2431 922 
Q 2431 1156 2273 1281 
Q 2116 1406 1581 1522 
L 1381 1569 
Q 847 1681 609 1914 
Q 372 2147 372 2553 
Q 372 3047 722 3315 
Q 1072 3584 1716 3584 
Q 2034 3584 2315 3537 
Q 2597 3491 2834 3397 
z
" transform="scale(0.015625)"/>
        <path id="DejaVuSans-64" d="M 2906 2969 
L 2906 4863 
L 3481 4863 
L 3481 0 
L 2906 0 
L 2906 525 
Q 2725 213 2448 61 
Q 2172 -91 1784 -91 
Q 1150 -91 751 415 
Q 353 922 353 1747 
Q 353 2572 751 3078 
Q 1150 3584 1784 3584 
Q 2172 3584 2448 3432 
Q 2725 3281 2906 2969 
z
M 947 1747 
Q 947 1113 1208 752 
Q 1469 391 1925 391 
Q 2381 391 2643 752 
Q 2906 1113 2906 1747 
Q 2906 2381 2643 2742 
Q 2381 3103 1925 3103 
Q 1469 3103 1208 2742 
Q 947 2381 947 1747 
z
" transform="scale(0.015625)"/>
        <path id="DejaVuSans-7d" d="M 800 -594 
L 1019 -594 
Q 1456 -594 1589 -459 
Q 1722 -325 1722 122 
L 1722 897 
Q 1722 1384 1862 1606 
Q 2003 1828 2350 1913 
Q 2003 1991 1862 2212 
Q 1722 2434 1722 2925 
L 1722 3700 
Q 1722 4144 1589 4280 
Q 1456 4416 1019 4416 
L 800 4416 
L 800 4863 
L 997 4863 
Q 1775 4863 2036 4633 
Q 2297 4403 2297 3713 
L 2297 2963 
Q 2297 2497 2465 2317 
Q 2634 2138 3078 2138 
L 3272 2138 
L 3272 1691 
L 3078 1691 
Q 2634 1691 2465 1509 
Q 2297 1328 2297 856 
L 2297 109 
Q 2297 -581 2036 -812 
Q 1775 -1044 997 -1044 
L 800 -1044 
L 800 -594 
z
" transform="scale(0.015625)"/>
       </defs>
       <use xlink:href="#DejaVuSans-7b"/>
       <use xlink:href="#DejaVuSans-62" transform="translate(63.623047 0)"/>
       <use xlink:href="#DejaVuSans-65" transform="translate(127.099609 0)"/>
       <use xlink:href="#DejaVuSans-74" transform="translate(188.623047 0)"/>
       <use xlink:href="#DejaVuSans-61" transform="translate(227.832031 0)"/>
       <use xlink:href="#DejaVuSans-2d" transform="translate(289.111328 0)"/>
       <use xlink:href="#DejaVuSans-6c" transform="translate(325.195312 0)"/>
       <use xlink:href="#DejaVuSans-61" transform="translate(352.978516 0)"/>
       <use xlink:href="#DejaVuSans-63" transform="translate(414.257812 0)"/>
       <use xlink:href="#DejaVuSans-74" transform="translate(469.238281 0)"/>
       <use xlink:href="#DejaVuSans-61" transform="translate(508.447266 0)"/>
       <use xlink:href="#DejaVuSans-6d" transform="translate(569.726562 0)"/>
       <use xlink:href="#DejaVuSans-2c" transform="translate(667.138672 0)"/>
       <use xlink:href="#DejaVuSans-20" transform="translate(698.925781 0)"/>
       <use xlink:href="#DejaVuSans-61" transform="translate(730.712891 0)"/>
       <use xlink:href="#DejaVuSans-6d" transform="translate(791.992188 0)"/>
       <use xlink:href="#DejaVuSans-69" transform="translate(889.404297 0)"/>
       <use xlink:href="#DejaVuSans-6e" transform="translate(917.1875 0)"/>
       <use xlink:href="#DejaVuSans-6f" transform="translate(980.566406 0)"/>
       <use xlink:href="#DejaVuSans-67" transform="translate(1041.748047 0)"/>
       <use xlink:href="#DejaVuSans-6c" transform="translate(1105.224609 0)"/>
       <use xlink:href="#DejaVuSans-79" transform="translate(1133.007812 0)"/>
       <use xlink:href="#DejaVuSans-63" transform="translate(1192.1875 0)"/>
       <use xlink:href="#DejaVuSans-6f" transform="translate(1247.167969 0)"/>
       <use xlink:href="#DejaVuSans-73" transform="translate(1308.349609 0)"/>
       <use xlink:href="#DejaVuSans-69" transform="translate(1360.449219 0)"/>
       <use xlink:href="#DejaVuSans-64" transform="translate(1388.232422 0)"/>
       <use xlink:href="#DejaVuSans-65" transform="translate(1451.708984 0)"/>
       <use xlink:href="#DejaVuSans-7d" transform="translate(1513.232422 0)"/>
      </g>
     </g>
    </g>
    <g id="xtick_2">
     <g id="line2d_2">
      <g>
       <use xlink:href="#m3fc28f16e8" x="74.083125" y="77.758125" style="stroke: #000000; stroke-width: 0.8"/>
      </g>
     </g>
     <g id="text_2">
      <!-- {kasugamycin, aminoglycoside} -->
      <g transform="translate(76.8425 248.134688) rotate(-90) scale(0.1 -0.1)">
       <defs>
        <path id="DejaVuSans-6b" d="M 581 4863 
L 1159 4863 
L 1159 1991 
L 2875 3500 
L 3609 3500 
L 1753 1863 
L 3688 0 
L 2938 0 
L 1159 1709 
L 1159 0 
L 581 0 
L 581 4863 
z
" transform="scale(0.015625)"/>
        <path id="DejaVuSans-75" d="M 544 1381 
L 544 3500 
L 1119 3500 
L 1119 1403 
Q 1119 906 1312 657 
Q 1506 409 1894 409 
Q 2359 409 2629 706 
Q 2900 1003 2900 1516 
L 2900 3500 
L 3475 3500 
L 3475 0 
L 2900 0 
L 2900 538 
Q 2691 219 2414 64 
Q 2138 -91 1772 -91 
Q 1169 -91 856 284 
Q 544 659 544 1381 
z
M 1991 3584 
L 1991 3584 
z
" transform="scale(0.015625)"/>
       </defs>
       <use xlink:href="#DejaVuSans-7b"/>
       <use xlink:href="#DejaVuSans-6b" transform="translate(63.623047 0)"/>
       <use xlink:href="#DejaVuSans-61" transform="translate(119.783203 0)"/>
       <use xlink:href="#DejaVuSans-73" transform="translate(181.0625 0)"/>
       <use xlink:href="#DejaVuSans-75" transform="translate(233.162109 0)"/>
       <use xlink:href="#DejaVuSans-67" transform="translate(296.541016 0)"/>
       <use xlink:href="#DejaVuSans-61" transform="translate(360.017578 0)"/>
       <use xlink:href="#DejaVuSans-6d" transform="translate(421.296875 0)"/>
       <use xlink:href="#DejaVuSans-79" transform="translate(518.708984 0)"/>
       <use xlink:href="#DejaVuSans-63" transform="translate(577.888672 0)"/>
       <use xlink:href="#DejaVuSans-69" transform="translate(632.869141 0)"/>
       <use xlink:href="#DejaVuSans-6e" transform="translate(660.652344 0)"/>
       <use xlink:href="#DejaVuSans-2c" transform="translate(724.03125 0)"/>
       <use xlink:href="#DejaVuSans-20" transform="translate(755.818359 0)"/>
       <use xlink:href="#DejaVuSans-61" transform="translate(787.605469 0)"/>
       <use xlink:href="#DejaVuSans-6d" transform="translate(848.884766 0)"/>
       <use xlink:href="#DejaVuSans-69" transform="translate(946.296875 0)"/>
       <use xlink:href="#DejaVuSans-6e" transform="translate(974.080078 0)"/>
       <use xlink:href="#DejaVuSans-6f" transform="translate(1037.458984 0)"/>
       <use xlink:href="#DejaVuSans-67" transform="translate(1098.640625 0)"/>
       <use xlink:href="#DejaVuSans-6c" transform="translate(1162.117188 0)"/>
       <use xlink:href="#DejaVuSans-79" transform="translate(1189.900391 0)"/>
       <use xlink:href="#DejaVuSans-63" transform="translate(1249.080078 0)"/>
       <use xlink:href="#DejaVuSans-6f" transform="translate(1304.060547 0)"/>
       <use xlink:href="#DejaVuSans-73" transform="translate(1365.242188 0)"/>
       <use xlink:href="#DejaVuSans-69" transform="translate(1417.341797 0)"/>
       <use xlink:href="#DejaVuSans-64" transform="translate(1445.125 0)"/>
       <use xlink:href="#DejaVuSans-65" transform="translate(1508.601562 0)"/>
       <use xlink:href="#DejaVuSans-7d" transform="translate(1570.125 0)"/>
      </g>
     </g>
    </g>
    <g id="xtick_3">
     <g id="line2d_3">
      <g>
       <use xlink:href="#m3fc28f16e8" x="96.403125" y="77.758125" style="stroke: #000000; stroke-width: 0.8"/>
      </g>
     </g>
     <g id="text_3">
      <!-- {aminoglycoside, multidrug} -->
      <g transform="translate(99.1625 230.794063) rotate(-90) scale(0.1 -0.1)">
       <defs>
        <path id="DejaVuSans-72" d="M 2631 2963 
Q 2534 3019 2420 3045 
Q 2306 3072 2169 3072 
Q 1681 3072 1420 2755 
Q 1159 2438 1159 1844 
L 1159 0 
L 581 0 
L 581 3500 
L 1159 3500 
L 1159 2956 
Q 1341 3275 1631 3429 
Q 1922 3584 2338 3584 
Q 2397 3584 2469 3576 
Q 2541 3569 2628 3553 
L 2631 2963 
z
" transform="scale(0.015625)"/>
       </defs>
       <use xlink:href="#DejaVuSans-7b"/>
       <use xlink:href="#DejaVuSans-61" transform="translate(63.623047 0)"/>
       <use xlink:href="#DejaVuSans-6d" transform="translate(124.902344 0)"/>
       <use xlink:href="#DejaVuSans-69" transform="translate(222.314453 0)"/>
       <use xlink:href="#DejaVuSans-6e" transform="translate(250.097656 0)"/>
       <use xlink:href="#DejaVuSans-6f" transform="translate(313.476562 0)"/>
       <use xlink:href="#DejaVuSans-67" transform="translate(374.658203 0)"/>
       <use xlink:href="#DejaVuSans-6c" transform="translate(438.134766 0)"/>
       <use xlink:href="#DejaVuSans-79" transform="translate(465.917969 0)"/>
       <use xlink:href="#DejaVuSans-63" transform="translate(525.097656 0)"/>
       <use xlink:href="#DejaVuSans-6f" transform="translate(580.078125 0)"/>
       <use xlink:href="#DejaVuSans-73" transform="translate(641.259766 0)"/>
       <use xlink:href="#DejaVuSans-69" transform="translate(693.359375 0)"/>
       <use xlink:href="#DejaVuSans-64" transform="translate(721.142578 0)"/>
       <use xlink:href="#DejaVuSans-65" transform="translate(784.619141 0)"/>
       <use xlink:href="#DejaVuSans-2c" transform="translate(846.142578 0)"/>
       <use xlink:href="#DejaVuSans-20" transform="translate(877.929688 0)"/>
       <use xlink:href="#DejaVuSans-6d" transform="translate(909.716797 0)"/>
       <use xlink:href="#DejaVuSans-75" transform="translate(1007.128906 0)"/>
       <use xlink:href="#DejaVuSans-6c" transform="translate(1070.507812 0)"/>
       <use xlink:href="#DejaVuSans-74" transform="translate(1098.291016 0)"/>
       <use xlink:href="#DejaVuSans-69" transform="translate(1137.5 0)"/>
       <use xlink:href="#DejaVuSans-64" transform="translate(1165.283203 0)"/>
       <use xlink:href="#DejaVuSans-72" transform="translate(1228.759766 0)"/>
       <use xlink:href="#DejaVuSans-75" transform="translate(1269.873047 0)"/>
       <use xlink:href="#DejaVuSans-67" transform="translate(1333.251953 0)"/>
       <use xlink:href="#DejaVuSans-7d" transform="translate(1396.728516 0)"/>
      </g>
     </g>
    </g>
    <g id="xtick_4">
     <g id="line2d_4">
      <g>
       <use xlink:href="#m3fc28f16e8" x="118.723125" y="77.758125" style="stroke: #000000; stroke-width: 0.8"/>
      </g>
     </g>
     <g id="text_4">
      <!-- {na, aminoglycoside} -->
      <g transform="translate(121.4825 194.559687) rotate(-90) scale(0.1 -0.1)">
       <use xlink:href="#DejaVuSans-7b"/>
       <use xlink:href="#DejaVuSans-6e" transform="translate(63.623047 0)"/>
       <use xlink:href="#DejaVuSans-61" transform="translate(127.001953 0)"/>
       <use xlink:href="#DejaVuSans-2c" transform="translate(188.28125 0)"/>
       <use xlink:href="#DejaVuSans-20" transform="translate(220.068359 0)"/>
       <use xlink:href="#DejaVuSans-61" transform="translate(251.855469 0)"/>
       <use xlink:href="#DejaVuSans-6d" transform="translate(313.134766 0)"/>
       <use xlink:href="#DejaVuSans-69" transform="translate(410.546875 0)"/>
       <use xlink:href="#DejaVuSans-6e" transform="translate(438.330078 0)"/>
       <use xlink:href="#DejaVuSans-6f" transform="translate(501.708984 0)"/>
       <use xlink:href="#DejaVuSans-67" transform="translate(562.890625 0)"/>
       <use xlink:href="#DejaVuSans-6c" transform="translate(626.367188 0)"/>
       <use xlink:href="#DejaVuSans-79" transform="translate(654.150391 0)"/>
       <use xlink:href="#DejaVuSans-63" transform="translate(713.330078 0)"/>
       <use xlink:href="#DejaVuSans-6f" transform="translate(768.310547 0)"/>
       <use xlink:href="#DejaVuSans-73" transform="translate(829.492188 0)"/>
       <use xlink:href="#DejaVuSans-69" transform="translate(881.591797 0)"/>
       <use xlink:href="#DejaVuSans-64" transform="translate(909.375 0)"/>
       <use xlink:href="#DejaVuSans-65" transform="translate(972.851562 0)"/>
       <use xlink:href="#DejaVuSans-7d" transform="translate(1034.375 0)"/>
      </g>
     </g>
    </g>
    <g id="xtick_5">
     <g id="line2d_5">
      <g>
       <use xlink:href="#m3fc28f16e8" x="141.043125" y="77.758125" style="stroke: #000000; stroke-width: 0.8"/>
      </g>
     </g>
     <g id="text_5">
      <!-- {aminoglycoside ;fluoroquinolone, aminoglycoside, aminoglycoside/quinolone} -->
      <g transform="translate(143.8025 482.250313) rotate(-90) scale(0.1 -0.1)">
       <defs>
        <path id="DejaVuSans-3b" d="M 750 3309 
L 1409 3309 
L 1409 2516 
L 750 2516 
L 750 3309 
z
M 750 794 
L 1409 794 
L 1409 256 
L 897 -744 
L 494 -744 
L 750 256 
L 750 794 
z
" transform="scale(0.015625)"/>
        <path id="DejaVuSans-66" d="M 2375 4863 
L 2375 4384 
L 1825 4384 
Q 1516 4384 1395 4259 
Q 1275 4134 1275 3809 
L 1275 3500 
L 2222 3500 
L 2222 3053 
L 1275 3053 
L 1275 0 
L 697 0 
L 697 3053 
L 147 3053 
L 147 3500 
L 697 3500 
L 697 3744 
Q 697 4328 969 4595 
Q 1241 4863 1831 4863 
L 2375 4863 
z
" transform="scale(0.015625)"/>
        <path id="DejaVuSans-71" d="M 947 1747 
Q 947 1113 1208 752 
Q 1469 391 1925 391 
Q 2381 391 2643 752 
Q 2906 1113 2906 1747 
Q 2906 2381 2643 2742 
Q 2381 3103 1925 3103 
Q 1469 3103 1208 2742 
Q 947 2381 947 1747 
z
M 2906 525 
Q 2725 213 2448 61 
Q 2172 -91 1784 -91 
Q 1150 -91 751 415 
Q 353 922 353 1747 
Q 353 2572 751 3078 
Q 1150 3584 1784 3584 
Q 2172 3584 2448 3432 
Q 2725 3281 2906 2969 
L 2906 3500 
L 3481 3500 
L 3481 -1331 
L 2906 -1331 
L 2906 525 
z
" transform="scale(0.015625)"/>
        <path id="DejaVuSans-2f" d="M 1625 4666 
L 2156 4666 
L 531 -594 
L 0 -594 
L 1625 4666 
z
" transform="scale(0.015625)"/>
       </defs>
       <use xlink:href="#DejaVuSans-7b"/>
       <use xlink:href="#DejaVuSans-61" transform="translate(63.623047 0)"/>
       <use xlink:href="#DejaVuSans-6d" transform="translate(124.902344 0)"/>
       <use xlink:href="#DejaVuSans-69" transform="translate(222.314453 0)"/>
       <use xlink:href="#DejaVuSans-6e" transform="translate(250.097656 0)"/>
       <use xlink:href="#DejaVuSans-6f" transform="translate(313.476562 0)"/>
       <use xlink:href="#DejaVuSans-67" transform="translate(374.658203 0)"/>
       <use xlink:href="#DejaVuSans-6c" transform="translate(438.134766 0)"/>
       <use xlink:href="#DejaVuSans-79" transform="translate(465.917969 0)"/>
       <use xlink:href="#DejaVuSans-63" transform="translate(525.097656 0)"/>
       <use xlink:href="#DejaVuSans-6f" transform="translate(580.078125 0)"/>
       <use xlink:href="#DejaVuSans-73" transform="translate(641.259766 0)"/>
       <use xlink:href="#DejaVuSans-69" transform="translate(693.359375 0)"/>
       <use xlink:href="#DejaVuSans-64" transform="translate(721.142578 0)"/>
       <use xlink:href="#DejaVuSans-65" transform="translate(784.619141 0)"/>
       <use xlink:href="#DejaVuSans-20" transform="translate(846.142578 0)"/>
       <use xlink:href="#DejaVuSans-3b" transform="translate(877.929688 0)"/>
       <use xlink:href="#DejaVuSans-66" transform="translate(911.621094 0)"/>
       <use xlink:href="#DejaVuSans-6c" transform="translate(946.826172 0)"/>
       <use xlink:href="#DejaVuSans-75" transform="translate(974.609375 0)"/>
       <use xlink:href="#DejaVuSans-6f" transform="translate(1037.988281 0)"/>
       <use xlink:href="#DejaVuSans-72" transform="translate(1099.169922 0)"/>
       <use xlink:href="#DejaVuSans-6f" transform="translate(1138.033203 0)"/>
       <use xlink:href="#DejaVuSans-71" transform="translate(1199.214844 0)"/>
       <use xlink:href="#DejaVuSans-75" transform="translate(1262.691406 0)"/>
       <use xlink:href="#DejaVuSans-69" transform="translate(1326.070312 0)"/>
       <use xlink:href="#DejaVuSans-6e" transform="translate(1353.853516 0)"/>
       <use xlink:href="#DejaVuSans-6f" transform="translate(1417.232422 0)"/>
       <use xlink:href="#DejaVuSans-6c" transform="translate(1478.414062 0)"/>
       <use xlink:href="#DejaVuSans-6f" transform="translate(1506.197266 0)"/>
       <use xlink:href="#DejaVuSans-6e" transform="translate(1567.378906 0)"/>
       <use xlink:href="#DejaVuSans-65" transform="translate(1630.757812 0)"/>
       <use xlink:href="#DejaVuSans-2c" transform="translate(1692.28125 0)"/>
       <use xlink:href="#DejaVuSans-20" transform="translate(1724.068359 0)"/>
       <use xlink:href="#DejaVuSans-61" transform="translate(1755.855469 0)"/>
       <use xlink:href="#DejaVuSans-6d" transform="translate(1817.134766 0)"/>
       <use xlink:href="#DejaVuSans-69" transform="translate(1914.546875 0)"/>
       <use xlink:href="#DejaVuSans-6e" transform="translate(1942.330078 0)"/>
       <use xlink:href="#DejaVuSans-6f" transform="translate(2005.708984 0)"/>
       <use xlink:href="#DejaVuSans-67" transform="translate(2066.890625 0)"/>
       <use xlink:href="#DejaVuSans-6c" transform="translate(2130.367188 0)"/>
       <use xlink:href="#DejaVuSans-79" transform="translate(2158.150391 0)"/>
       <use xlink:href="#DejaVuSans-63" transform="translate(2217.330078 0)"/>
       <use xlink:href="#DejaVuSans-6f" transform="translate(2272.310547 0)"/>
       <use xlink:href="#DejaVuSans-73" transform="translate(2333.492188 0)"/>
       <use xlink:href="#DejaVuSans-69" transform="translate(2385.591797 0)"/>
       <use xlink:href="#DejaVuSans-64" transform="translate(2413.375 0)"/>
       <use xlink:href="#DejaVuSans-65" transform="translate(2476.851562 0)"/>
       <use xlink:href="#DejaVuSans-2c" transform="translate(2538.375 0)"/>
       <use xlink:href="#DejaVuSans-20" transform="translate(2570.162109 0)"/>
       <use xlink:href="#DejaVuSans-61" transform="translate(2601.949219 0)"/>
       <use xlink:href="#DejaVuSans-6d" transform="translate(2663.228516 0)"/>
       <use xlink:href="#DejaVuSans-69" transform="translate(2760.640625 0)"/>
       <use xlink:href="#DejaVuSans-6e" transform="translate(2788.423828 0)"/>
       <use xlink:href="#DejaVuSans-6f" transform="translate(2851.802734 0)"/>
       <use xlink:href="#DejaVuSans-67" transform="translate(2912.984375 0)"/>
       <use xlink:href="#DejaVuSans-6c" transform="translate(2976.460938 0)"/>
       <use xlink:href="#DejaVuSans-79" transform="translate(3004.244141 0)"/>
       <use xlink:href="#DejaVuSans-63" transform="translate(3063.423828 0)"/>
       <use xlink:href="#DejaVuSans-6f" transform="translate(3118.404297 0)"/>
       <use xlink:href="#DejaVuSans-73" transform="translate(3179.585938 0)"/>
       <use xlink:href="#DejaVuSans-69" transform="translate(3231.685547 0)"/>
       <use xlink:href="#DejaVuSans-64" transform="translate(3259.46875 0)"/>
       <use xlink:href="#DejaVuSans-65" transform="translate(3322.945312 0)"/>
       <use xlink:href="#DejaVuSans-2f" transform="translate(3384.46875 0)"/>
       <use xlink:href="#DejaVuSans-71" transform="translate(3418.160156 0)"/>
       <use xlink:href="#DejaVuSans-75" transform="translate(3481.636719 0)"/>
       <use xlink:href="#DejaVuSans-69" transform="translate(3545.015625 0)"/>
       <use xlink:href="#DejaVuSans-6e" transform="translate(3572.798828 0)"/>
       <use xlink:href="#DejaVuSans-6f" transform="translate(3636.177734 0)"/>
       <use xlink:href="#DejaVuSans-6c" transform="translate(3697.359375 0)"/>
       <use xlink:href="#DejaVuSans-6f" transform="translate(3725.142578 0)"/>
       <use xlink:href="#DejaVuSans-6e" transform="translate(3786.324219 0)"/>
       <use xlink:href="#DejaVuSans-65" transform="translate(3849.703125 0)"/>
       <use xlink:href="#DejaVuSans-7d" transform="translate(3911.226562 0)"/>
      </g>
     </g>
    </g>
    <g id="xtick_6">
     <g id="line2d_6">
      <g>
       <use xlink:href="#m3fc28f16e8" x="163.363125" y="77.758125" style="stroke: #000000; stroke-width: 0.8"/>
      </g>
     </g>
     <g id="text_6">
      <!-- {aminoglycoside, streptothricin, nucleoside} -->
      <g transform="translate(166.1225 309.48) rotate(-90) scale(0.1 -0.1)">
       <defs>
        <path id="DejaVuSans-70" d="M 1159 525 
L 1159 -1331 
L 581 -1331 
L 581 3500 
L 1159 3500 
L 1159 2969 
Q 1341 3281 1617 3432 
Q 1894 3584 2278 3584 
Q 2916 3584 3314 3078 
Q 3713 2572 3713 1747 
Q 3713 922 3314 415 
Q 2916 -91 2278 -91 
Q 1894 -91 1617 61 
Q 1341 213 1159 525 
z
M 3116 1747 
Q 3116 2381 2855 2742 
Q 2594 3103 2138 3103 
Q 1681 3103 1420 2742 
Q 1159 2381 1159 1747 
Q 1159 1113 1420 752 
Q 1681 391 2138 391 
Q 2594 391 2855 752 
Q 3116 1113 3116 1747 
z
" transform="scale(0.015625)"/>
        <path id="DejaVuSans-68" d="M 3513 2113 
L 3513 0 
L 2938 0 
L 2938 2094 
Q 2938 2591 2744 2837 
Q 2550 3084 2163 3084 
Q 1697 3084 1428 2787 
Q 1159 2491 1159 1978 
L 1159 0 
L 581 0 
L 581 4863 
L 1159 4863 
L 1159 2956 
Q 1366 3272 1645 3428 
Q 1925 3584 2291 3584 
Q 2894 3584 3203 3211 
Q 3513 2838 3513 2113 
z
" transform="scale(0.015625)"/>
       </defs>
       <use xlink:href="#DejaVuSans-7b"/>
       <use xlink:href="#DejaVuSans-61" transform="translate(63.623047 0)"/>
       <use xlink:href="#DejaVuSans-6d" transform="translate(124.902344 0)"/>
       <use xlink:href="#DejaVuSans-69" transform="translate(222.314453 0)"/>
       <use xlink:href="#DejaVuSans-6e" transform="translate(250.097656 0)"/>
       <use xlink:href="#DejaVuSans-6f" transform="translate(313.476562 0)"/>
       <use xlink:href="#DejaVuSans-67" transform="translate(374.658203 0)"/>
       <use xlink:href="#DejaVuSans-6c" transform="translate(438.134766 0)"/>
       <use xlink:href="#DejaVuSans-79" transform="translate(465.917969 0)"/>
       <use xlink:href="#DejaVuSans-63" transform="translate(525.097656 0)"/>
       <use xlink:href="#DejaVuSans-6f" transform="translate(580.078125 0)"/>
       <use xlink:href="#DejaVuSans-73" transform="translate(641.259766 0)"/>
       <use xlink:href="#DejaVuSans-69" transform="translate(693.359375 0)"/>
       <use xlink:href="#DejaVuSans-64" transform="translate(721.142578 0)"/>
       <use xlink:href="#DejaVuSans-65" transform="translate(784.619141 0)"/>
       <use xlink:href="#DejaVuSans-2c" transform="translate(846.142578 0)"/>
       <use xlink:href="#DejaVuSans-20" transform="translate(877.929688 0)"/>
       <use xlink:href="#DejaVuSans-73" transform="translate(909.716797 0)"/>
       <use xlink:href="#DejaVuSans-74" transform="translate(961.816406 0)"/>
       <use xlink:href="#DejaVuSans-72" transform="translate(1001.025391 0)"/>
       <use xlink:href="#DejaVuSans-65" transform="translate(1039.888672 0)"/>
       <use xlink:href="#DejaVuSans-70" transform="translate(1101.412109 0)"/>
       <use xlink:href="#DejaVuSans-74" transform="translate(1164.888672 0)"/>
       <use xlink:href="#DejaVuSans-6f" transform="translate(1204.097656 0)"/>
       <use xlink:href="#DejaVuSans-74" transform="translate(1265.279297 0)"/>
       <use xlink:href="#DejaVuSans-68" transform="translate(1304.488281 0)"/>
       <use xlink:href="#DejaVuSans-72" transform="translate(1367.867188 0)"/>
       <use xlink:href="#DejaVuSans-69" transform="translate(1408.980469 0)"/>
       <use xlink:href="#DejaVuSans-63" transform="translate(1436.763672 0)"/>
       <use xlink:href="#DejaVuSans-69" transform="translate(1491.744141 0)"/>
       <use xlink:href="#DejaVuSans-6e" transform="translate(1519.527344 0)"/>
       <use xlink:href="#DejaVuSans-2c" transform="translate(1582.90625 0)"/>
       <use xlink:href="#DejaVuSans-20" transform="translate(1614.693359 0)"/>
       <use xlink:href="#DejaVuSans-6e" transform="translate(1646.480469 0)"/>
       <use xlink:href="#DejaVuSans-75" transform="translate(1709.859375 0)"/>
       <use xlink:href="#DejaVuSans-63" transform="translate(1773.238281 0)"/>
       <use xlink:href="#DejaVuSans-6c" transform="translate(1828.21875 0)"/>
       <use xlink:href="#DejaVuSans-65" transform="translate(1856.001953 0)"/>
       <use xlink:href="#DejaVuSans-6f" transform="translate(1917.525391 0)"/>
       <use xlink:href="#DejaVuSans-73" transform="translate(1978.707031 0)"/>
       <use xlink:href="#DejaVuSans-69" transform="translate(2030.806641 0)"/>
       <use xlink:href="#DejaVuSans-64" transform="translate(2058.589844 0)"/>
       <use xlink:href="#DejaVuSans-65" transform="translate(2122.066406 0)"/>
       <use xlink:href="#DejaVuSans-7d" transform="translate(2183.589844 0)"/>
      </g>
     </g>
    </g>
    <g id="xtick_7">
     <g id="line2d_7">
      <g>
       <use xlink:href="#m3fc28f16e8" x="185.683125" y="77.758125" style="stroke: #000000; stroke-width: 0.8"/>
      </g>
     </g>
     <g id="text_7">
      <!-- {aminoglycoside, efflux} -->
      <g transform="translate(188.4425 210.322187) rotate(-90) scale(0.1 -0.1)">
       <defs>
        <path id="DejaVuSans-78" d="M 3513 3500 
L 2247 1797 
L 3578 0 
L 2900 0 
L 1881 1375 
L 863 0 
L 184 0 
L 1544 1831 
L 300 3500 
L 978 3500 
L 1906 2253 
L 2834 3500 
L 3513 3500 
z
" transform="scale(0.015625)"/>
       </defs>
       <use xlink:href="#DejaVuSans-7b"/>
       <use xlink:href="#DejaVuSans-61" transform="translate(63.623047 0)"/>
       <use xlink:href="#DejaVuSans-6d" transform="translate(124.902344 0)"/>
       <use xlink:href="#DejaVuSans-69" transform="translate(222.314453 0)"/>
       <use xlink:href="#DejaVuSans-6e" transform="translate(250.097656 0)"/>
       <use xlink:href="#DejaVuSans-6f" transform="translate(313.476562 0)"/>
       <use xlink:href="#DejaVuSans-67" transform="translate(374.658203 0)"/>
       <use xlink:href="#DejaVuSans-6c" transform="translate(438.134766 0)"/>
       <use xlink:href="#DejaVuSans-79" transform="translate(465.917969 0)"/>
       <use xlink:href="#DejaVuSans-63" transform="translate(525.097656 0)"/>
       <use xlink:href="#DejaVuSans-6f" transform="translate(580.078125 0)"/>
       <use xlink:href="#DejaVuSans-73" transform="translate(641.259766 0)"/>
       <use xlink:href="#DejaVuSans-69" transform="translate(693.359375 0)"/>
       <use xlink:href="#DejaVuSans-64" transform="translate(721.142578 0)"/>
       <use xlink:href="#DejaVuSans-65" transform="translate(784.619141 0)"/>
       <use xlink:href="#DejaVuSans-2c" transform="translate(846.142578 0)"/>
       <use xlink:href="#DejaVuSans-20" transform="translate(877.929688 0)"/>
       <use xlink:href="#DejaVuSans-65" transform="translate(909.716797 0)"/>
       <use xlink:href="#DejaVuSans-66" transform="translate(971.240234 0)"/>
       <use xlink:href="#DejaVuSans-66" transform="translate(1006.445312 0)"/>
       <use xlink:href="#DejaVuSans-6c" transform="translate(1041.650391 0)"/>
       <use xlink:href="#DejaVuSans-75" transform="translate(1069.433594 0)"/>
       <use xlink:href="#DejaVuSans-78" transform="translate(1132.8125 0)"/>
       <use xlink:href="#DejaVuSans-7d" transform="translate(1191.992188 0)"/>
      </g>
     </g>
    </g>
    <g id="xtick_8">
     <g id="line2d_8">
      <g>
       <use xlink:href="#m3fc28f16e8" x="208.003125" y="77.758125" style="stroke: #000000; stroke-width: 0.8"/>
      </g>
     </g>
     <g id="text_8">
      <!-- {aminoglycoside, drug_and_biocide_and_metal_resistance} -->
      <g transform="translate(210.623437 383.884688) rotate(-90) scale(0.1 -0.1)">
       <defs>
        <path id="DejaVuSans-5f" d="M 3263 -1063 
L 3263 -1509 
L -63 -1509 
L -63 -1063 
L 3263 -1063 
z
" transform="scale(0.015625)"/>
       </defs>
       <use xlink:href="#DejaVuSans-7b"/>
       <use xlink:href="#DejaVuSans-61" transform="translate(63.623047 0)"/>
       <use xlink:href="#DejaVuSans-6d" transform="translate(124.902344 0)"/>
       <use xlink:href="#DejaVuSans-69" transform="translate(222.314453 0)"/>
       <use xlink:href="#DejaVuSans-6e" transform="translate(250.097656 0)"/>
       <use xlink:href="#DejaVuSans-6f" transform="translate(313.476562 0)"/>
       <use xlink:href="#DejaVuSans-67" transform="translate(374.658203 0)"/>
       <use xlink:href="#DejaVuSans-6c" transform="translate(438.134766 0)"/>
       <use xlink:href="#DejaVuSans-79" transform="translate(465.917969 0)"/>
       <use xlink:href="#DejaVuSans-63" transform="translate(525.097656 0)"/>
       <use xlink:href="#DejaVuSans-6f" transform="translate(580.078125 0)"/>
       <use xlink:href="#DejaVuSans-73" transform="translate(641.259766 0)"/>
       <use xlink:href="#DejaVuSans-69" transform="translate(693.359375 0)"/>
       <use xlink:href="#DejaVuSans-64" transform="translate(721.142578 0)"/>
       <use xlink:href="#DejaVuSans-65" transform="translate(784.619141 0)"/>
       <use xlink:href="#DejaVuSans-2c" transform="translate(846.142578 0)"/>
       <use xlink:href="#DejaVuSans-20" transform="translate(877.929688 0)"/>
       <use xlink:href="#DejaVuSans-64" transform="translate(909.716797 0)"/>
       <use xlink:href="#DejaVuSans-72" transform="translate(973.193359 0)"/>
       <use xlink:href="#DejaVuSans-75" transform="translate(1014.306641 0)"/>
       <use xlink:href="#DejaVuSans-67" transform="translate(1077.685547 0)"/>
       <use xlink:href="#DejaVuSans-5f" transform="translate(1141.162109 0)"/>
       <use xlink:href="#DejaVuSans-61" transform="translate(1191.162109 0)"/>
       <use xlink:href="#DejaVuSans-6e" transform="translate(1252.441406 0)"/>
       <use xlink:href="#DejaVuSans-64" transform="translate(1315.820312 0)"/>
       <use xlink:href="#DejaVuSans-5f" transform="translate(1379.296875 0)"/>
       <use xlink:href="#DejaVuSans-62" transform="translate(1429.296875 0)"/>
       <use xlink:href="#DejaVuSans-69" transform="translate(1492.773438 0)"/>
       <use xlink:href="#DejaVuSans-6f" transform="translate(1520.556641 0)"/>
       <use xlink:href="#DejaVuSans-63" transform="translate(1581.738281 0)"/>
       <use xlink:href="#DejaVuSans-69" transform="translate(1636.71875 0)"/>
       <use xlink:href="#DejaVuSans-64" transform="translate(1664.501953 0)"/>
       <use xlink:href="#DejaVuSans-65" transform="translate(1727.978516 0)"/>
       <use xlink:href="#DejaVuSans-5f" transform="translate(1789.501953 0)"/>
       <use xlink:href="#DejaVuSans-61" transform="translate(1839.501953 0)"/>
       <use xlink:href="#DejaVuSans-6e" transform="translate(1900.78125 0)"/>
       <use xlink:href="#DejaVuSans-64" transform="translate(1964.160156 0)"/>
       <use xlink:href="#DejaVuSans-5f" transform="translate(2027.636719 0)"/>
       <use xlink:href="#DejaVuSans-6d" transform="translate(2077.636719 0)"/>
       <use xlink:href="#DejaVuSans-65" transform="translate(2175.048828 0)"/>
       <use xlink:href="#DejaVuSans-74" transform="translate(2236.572266 0)"/>
       <use xlink:href="#DejaVuSans-61" transform="translate(2275.78125 0)"/>
       <use xlink:href="#DejaVuSans-6c" transform="translate(2337.060547 0)"/>
       <use xlink:href="#DejaVuSans-5f" transform="translate(2364.84375 0)"/>
       <use xlink:href="#DejaVuSans-72" transform="translate(2414.84375 0)"/>
       <use xlink:href="#DejaVuSans-65" transform="translate(2453.707031 0)"/>
       <use xlink:href="#DejaVuSans-73" transform="translate(2515.230469 0)"/>
       <use xlink:href="#DejaVuSans-69" transform="translate(2567.330078 0)"/>
       <use xlink:href="#DejaVuSans-73" transform="translate(2595.113281 0)"/>
       <use xlink:href="#DejaVuSans-74" transform="translate(2647.212891 0)"/>
       <use xlink:href="#DejaVuSans-61" transform="translate(2686.421875 0)"/>
       <use xlink:href="#DejaVuSans-6e" transform="translate(2747.701172 0)"/>
       <use xlink:href="#DejaVuSans-63" transform="translate(2811.080078 0)"/>
       <use xlink:href="#DejaVuSans-65" transform="translate(2866.060547 0)"/>
       <use xlink:href="#DejaVuSans-7d" transform="translate(2927.583984 0)"/>
      </g>
     </g>
    </g>
    <g id="xtick_9">
     <g id="line2d_9">
      <g>
       <use xlink:href="#m3fc28f16e8" x="230.323125" y="77.758125" style="stroke: #000000; stroke-width: 0.8"/>
      </g>
     </g>
     <g id="text_9">
      <!-- {aminoglycoside, fluoroquinolone, quinolone} -->
      <g transform="translate(233.0825 315.825312) rotate(-90) scale(0.1 -0.1)">
       <use xlink:href="#DejaVuSans-7b"/>
       <use xlink:href="#DejaVuSans-61" transform="translate(63.623047 0)"/>
       <use xlink:href="#DejaVuSans-6d" transform="translate(124.902344 0)"/>
       <use xlink:href="#DejaVuSans-69" transform="translate(222.314453 0)"/>
       <use xlink:href="#DejaVuSans-6e" transform="translate(250.097656 0)"/>
       <use xlink:href="#DejaVuSans-6f" transform="translate(313.476562 0)"/>
       <use xlink:href="#DejaVuSans-67" transform="translate(374.658203 0)"/>
       <use xlink:href="#DejaVuSans-6c" transform="translate(438.134766 0)"/>
       <use xlink:href="#DejaVuSans-79" transform="translate(465.917969 0)"/>
       <use xlink:href="#DejaVuSans-63" transform="translate(525.097656 0)"/>
       <use xlink:href="#DejaVuSans-6f" transform="translate(580.078125 0)"/>
       <use xlink:href="#DejaVuSans-73" transform="translate(641.259766 0)"/>
       <use xlink:href="#DejaVuSans-69" transform="translate(693.359375 0)"/>
       <use xlink:href="#DejaVuSans-64" transform="translate(721.142578 0)"/>
       <use xlink:href="#DejaVuSans-65" transform="translate(784.619141 0)"/>
       <use xlink:href="#DejaVuSans-2c" transform="translate(846.142578 0)"/>
       <use xlink:href="#DejaVuSans-20" transform="translate(877.929688 0)"/>
       <use xlink:href="#DejaVuSans-66" transform="translate(909.716797 0)"/>
       <use xlink:href="#DejaVuSans-6c" transform="translate(944.921875 0)"/>
       <use xlink:href="#DejaVuSans-75" transform="translate(972.705078 0)"/>
       <use xlink:href="#DejaVuSans-6f" transform="translate(1036.083984 0)"/>
       <use xlink:href="#DejaVuSans-72" transform="translate(1097.265625 0)"/>
       <use xlink:href="#DejaVuSans-6f" transform="translate(1136.128906 0)"/>
       <use xlink:href="#DejaVuSans-71" transform="translate(1197.310547 0)"/>
       <use xlink:href="#DejaVuSans-75" transform="translate(1260.787109 0)"/>
       <use xlink:href="#DejaVuSans-69" transform="translate(1324.166016 0)"/>
       <use xlink:href="#DejaVuSans-6e" transform="translate(1351.949219 0)"/>
       <use xlink:href="#DejaVuSans-6f" transform="translate(1415.328125 0)"/>
       <use xlink:href="#DejaVuSans-6c" transform="translate(1476.509766 0)"/>
       <use xlink:href="#DejaVuSans-6f" transform="translate(1504.292969 0)"/>
       <use xlink:href="#DejaVuSans-6e" transform="translate(1565.474609 0)"/>
       <use xlink:href="#DejaVuSans-65" transform="translate(1628.853516 0)"/>
       <use xlink:href="#DejaVuSans-2c" transform="translate(1690.376953 0)"/>
       <use xlink:href="#DejaVuSans-20" transform="translate(1722.164062 0)"/>
       <use xlink:href="#DejaVuSans-71" transform="translate(1753.951172 0)"/>
       <use xlink:href="#DejaVuSans-75" transform="translate(1817.427734 0)"/>
       <use xlink:href="#DejaVuSans-69" transform="translate(1880.806641 0)"/>
       <use xlink:href="#DejaVuSans-6e" transform="translate(1908.589844 0)"/>
       <use xlink:href="#DejaVuSans-6f" transform="translate(1971.96875 0)"/>
       <use xlink:href="#DejaVuSans-6c" transform="translate(2033.150391 0)"/>
       <use xlink:href="#DejaVuSans-6f" transform="translate(2060.933594 0)"/>
       <use xlink:href="#DejaVuSans-6e" transform="translate(2122.115234 0)"/>
       <use xlink:href="#DejaVuSans-65" transform="translate(2185.494141 0)"/>
       <use xlink:href="#DejaVuSans-7d" transform="translate(2247.017578 0)"/>
      </g>
     </g>
    </g>
    <g id="xtick_10">
     <g id="line2d_10">
      <g>
       <use xlink:href="#m3fc28f16e8" x="252.643125" y="77.758125" style="stroke: #000000; stroke-width: 0.8"/>
      </g>
     </g>
     <g id="text_10">
      <!-- {aminoglycoside, fluoroquinolone} -->
      <g transform="translate(255.4025 260.16125) rotate(-90) scale(0.1 -0.1)">
       <use xlink:href="#DejaVuSans-7b"/>
       <use xlink:href="#DejaVuSans-61" transform="translate(63.623047 0)"/>
       <use xlink:href="#DejaVuSans-6d" transform="translate(124.902344 0)"/>
       <use xlink:href="#DejaVuSans-69" transform="translate(222.314453 0)"/>
       <use xlink:href="#DejaVuSans-6e" transform="translate(250.097656 0)"/>
       <use xlink:href="#DejaVuSans-6f" transform="translate(313.476562 0)"/>
       <use xlink:href="#DejaVuSans-67" transform="translate(374.658203 0)"/>
       <use xlink:href="#DejaVuSans-6c" transform="translate(438.134766 0)"/>
       <use xlink:href="#DejaVuSans-79" transform="translate(465.917969 0)"/>
       <use xlink:href="#DejaVuSans-63" transform="translate(525.097656 0)"/>
       <use xlink:href="#DejaVuSans-6f" transform="translate(580.078125 0)"/>
       <use xlink:href="#DejaVuSans-73" transform="translate(641.259766 0)"/>
       <use xlink:href="#DejaVuSans-69" transform="translate(693.359375 0)"/>
       <use xlink:href="#DejaVuSans-64" transform="translate(721.142578 0)"/>
       <use xlink:href="#DejaVuSans-65" transform="translate(784.619141 0)"/>
       <use xlink:href="#DejaVuSans-2c" transform="translate(846.142578 0)"/>
       <use xlink:href="#DejaVuSans-20" transform="translate(877.929688 0)"/>
       <use xlink:href="#DejaVuSans-66" transform="translate(909.716797 0)"/>
       <use xlink:href="#DejaVuSans-6c" transform="translate(944.921875 0)"/>
       <use xlink:href="#DejaVuSans-75" transform="translate(972.705078 0)"/>
       <use xlink:href="#DejaVuSans-6f" transform="translate(1036.083984 0)"/>
       <use xlink:href="#DejaVuSans-72" transform="translate(1097.265625 0)"/>
       <use xlink:href="#DejaVuSans-6f" transform="translate(1136.128906 0)"/>
       <use xlink:href="#DejaVuSans-71" transform="translate(1197.310547 0)"/>
       <use xlink:href="#DejaVuSans-75" transform="translate(1260.787109 0)"/>
       <use xlink:href="#DejaVuSans-69" transform="translate(1324.166016 0)"/>
       <use xlink:href="#DejaVuSans-6e" transform="translate(1351.949219 0)"/>
       <use xlink:href="#DejaVuSans-6f" transform="translate(1415.328125 0)"/>
       <use xlink:href="#DejaVuSans-6c" transform="translate(1476.509766 0)"/>
       <use xlink:href="#DejaVuSans-6f" transform="translate(1504.292969 0)"/>
       <use xlink:href="#DejaVuSans-6e" transform="translate(1565.474609 0)"/>
       <use xlink:href="#DejaVuSans-65" transform="translate(1628.853516 0)"/>
       <use xlink:href="#DejaVuSans-7d" transform="translate(1690.376953 0)"/>
      </g>
     </g>
    </g>
    <g id="text_11">
     <!-- Sets -->
     <g transform="translate(141.3875 493.84875) scale(0.1 -0.1)">
      <defs>
       <path id="DejaVuSans-53" d="M 3425 4513 
L 3425 3897 
Q 3066 4069 2747 4153 
Q 2428 4238 2131 4238 
Q 1616 4238 1336 4038 
Q 1056 3838 1056 3469 
Q 1056 3159 1242 3001 
Q 1428 2844 1947 2747 
L 2328 2669 
Q 3034 2534 3370 2195 
Q 3706 1856 3706 1288 
Q 3706 609 3251 259 
Q 2797 -91 1919 -91 
Q 1588 -91 1214 -16 
Q 841 59 441 206 
L 441 856 
Q 825 641 1194 531 
Q 1563 422 1919 422 
Q 2459 422 2753 634 
Q 3047 847 3047 1241 
Q 3047 1584 2836 1778 
Q 2625 1972 2144 2069 
L 1759 2144 
Q 1053 2284 737 2584 
Q 422 2884 422 3419 
Q 422 4038 858 4394 
Q 1294 4750 2059 4750 
Q 2388 4750 2728 4690 
Q 3069 4631 3425 4513 
z
" transform="scale(0.015625)"/>
      </defs>
      <use xlink:href="#DejaVuSans-53"/>
      <use xlink:href="#DejaVuSans-65" transform="translate(63.476562 0)"/>
      <use xlink:href="#DejaVuSans-74" transform="translate(125 0)"/>
      <use xlink:href="#DejaVuSans-73" transform="translate(164.208984 0)"/>
     </g>
    </g>
   </g>
   <g id="matplotlib.axis_2">
    <g id="ytick_1">
     <g id="line2d_11">
      <defs>
       <path id="m99a1de77ea" d="M 0 0 
L -3.5 0 
" style="stroke: #000000; stroke-width: 0.8"/>
      </defs>
      <g>
       <use xlink:href="#m99a1de77ea" x="40.603125" y="77.758125" style="stroke: #000000; stroke-width: 0.8"/>
      </g>
     </g>
     <g id="text_12">
      <!-- 0 -->
      <g transform="translate(27.240625 81.557344) scale(0.1 -0.1)">
       <defs>
        <path id="DejaVuSans-30" d="M 2034 4250 
Q 1547 4250 1301 3770 
Q 1056 3291 1056 2328 
Q 1056 1369 1301 889 
Q 1547 409 2034 409 
Q 2525 409 2770 889 
Q 3016 1369 3016 2328 
Q 3016 3291 2770 3770 
Q 2525 4250 2034 4250 
z
M 2034 4750 
Q 2819 4750 3233 4129 
Q 3647 3509 3647 2328 
Q 3647 1150 3233 529 
Q 2819 -91 2034 -91 
Q 1250 -91 836 529 
Q 422 1150 422 2328 
Q 422 3509 836 4129 
Q 1250 4750 2034 4750 
z
" transform="scale(0.015625)"/>
       </defs>
       <use xlink:href="#DejaVuSans-30"/>
      </g>
     </g>
    </g>
    <g id="ytick_2">
     <g id="line2d_12">
      <g>
       <use xlink:href="#m99a1de77ea" x="40.603125" y="44.758125" style="stroke: #000000; stroke-width: 0.8"/>
      </g>
     </g>
     <g id="text_13">
      <!-- 10 -->
      <g transform="translate(20.878125 48.557344) scale(0.1 -0.1)">
       <defs>
        <path id="DejaVuSans-31" d="M 794 531 
L 1825 531 
L 1825 4091 
L 703 3866 
L 703 4441 
L 1819 4666 
L 2450 4666 
L 2450 531 
L 3481 531 
L 3481 0 
L 794 0 
L 794 531 
z
" transform="scale(0.015625)"/>
       </defs>
       <use xlink:href="#DejaVuSans-31"/>
       <use xlink:href="#DejaVuSans-30" transform="translate(63.623047 0)"/>
      </g>
     </g>
    </g>
    <g id="text_14">
     <!-- Count -->
     <g transform="translate(14.798438 64.886562) rotate(-90) scale(0.1 -0.1)">
      <defs>
       <path id="DejaVuSans-43" d="M 4122 4306 
L 4122 3641 
Q 3803 3938 3442 4084 
Q 3081 4231 2675 4231 
Q 1875 4231 1450 3742 
Q 1025 3253 1025 2328 
Q 1025 1406 1450 917 
Q 1875 428 2675 428 
Q 3081 428 3442 575 
Q 3803 722 4122 1019 
L 4122 359 
Q 3791 134 3420 21 
Q 3050 -91 2638 -91 
Q 1578 -91 968 557 
Q 359 1206 359 2328 
Q 359 3453 968 4101 
Q 1578 4750 2638 4750 
Q 3056 4750 3426 4639 
Q 3797 4528 4122 4306 
z
" transform="scale(0.015625)"/>
      </defs>
      <use xlink:href="#DejaVuSans-43"/>
      <use xlink:href="#DejaVuSans-6f" transform="translate(69.824219 0)"/>
      <use xlink:href="#DejaVuSans-75" transform="translate(131.005859 0)"/>
      <use xlink:href="#DejaVuSans-6e" transform="translate(194.384766 0)"/>
      <use xlink:href="#DejaVuSans-74" transform="translate(257.763672 0)"/>
     </g>
    </g>
   </g>
   <g id="patch_13">
    <path d="M 40.603125 77.758125 
L 40.603125 22.318125 
" style="fill: none; stroke: #000000; stroke-width: 0.8; stroke-linejoin: miter; stroke-linecap: square"/>
   </g>
   <g id="patch_14">
    <path d="M 263.803125 77.758125 
L 263.803125 22.318125 
" style="fill: none; stroke: #000000; stroke-width: 0.8; stroke-linejoin: miter; stroke-linecap: square"/>
   </g>
   <g id="patch_15">
    <path d="M 40.603125 77.758125 
L 263.803125 77.758125 
" style="fill: none; stroke: #000000; stroke-width: 0.8; stroke-linejoin: miter; stroke-linecap: square"/>
   </g>
   <g id="patch_16">
    <path d="M 40.603125 22.318125 
L 263.803125 22.318125 
" style="fill: none; stroke: #000000; stroke-width: 0.8; stroke-linejoin: miter; stroke-linecap: square"/>
   </g>
   <g id="text_15">
    <!-- Aminoglycoside -->
    <g transform="translate(104.822812 16.318125) scale(0.12 -0.12)">
     <defs>
      <path id="DejaVuSans-41" d="M 2188 4044 
L 1331 1722 
L 3047 1722 
L 2188 4044 
z
M 1831 4666 
L 2547 4666 
L 4325 0 
L 3669 0 
L 3244 1197 
L 1141 1197 
L 716 0 
L 50 0 
L 1831 4666 
z
" transform="scale(0.015625)"/>
     </defs>
     <use xlink:href="#DejaVuSans-41"/>
     <use xlink:href="#DejaVuSans-6d" transform="translate(68.408203 0)"/>
     <use xlink:href="#DejaVuSans-69" transform="translate(165.820312 0)"/>
     <use xlink:href="#DejaVuSans-6e" transform="translate(193.603516 0)"/>
     <use xlink:href="#DejaVuSans-6f" transform="translate(256.982422 0)"/>
     <use xlink:href="#DejaVuSans-67" transform="translate(318.164062 0)"/>
     <use xlink:href="#DejaVuSans-6c" transform="translate(381.640625 0)"/>
     <use xlink:href="#DejaVuSans-79" transform="translate(409.423828 0)"/>
     <use xlink:href="#DejaVuSans-63" transform="translate(468.603516 0)"/>
     <use xlink:href="#DejaVuSans-6f" transform="translate(523.583984 0)"/>
     <use xlink:href="#DejaVuSans-73" transform="translate(584.765625 0)"/>
     <use xlink:href="#DejaVuSans-69" transform="translate(636.865234 0)"/>
     <use xlink:href="#DejaVuSans-64" transform="translate(664.648438 0)"/>
     <use xlink:href="#DejaVuSans-65" transform="translate(728.125 0)"/>
    </g>
   </g>
   <g id="legend_1">
    <g id="patch_17">
     <path d="M 196.590625 44.99625 
L 256.803125 44.99625 
Q 258.803125 44.99625 258.803125 42.99625 
L 258.803125 29.318125 
Q 258.803125 27.318125 256.803125 27.318125 
L 196.590625 27.318125 
Q 194.590625 27.318125 194.590625 29.318125 
L 194.590625 42.99625 
Q 194.590625 44.99625 196.590625 44.99625 
z
" style="fill: #ffffff; opacity: 0.8; stroke: #cccccc; stroke-linejoin: miter"/>
    </g>
    <g id="patch_18">
     <path d="M 198.590625 38.916563 
L 218.590625 38.916563 
L 218.590625 31.916563 
L 198.590625 31.916563 
z
" style="fill: #d3d3d3"/>
    </g>
    <g id="text_16">
     <!-- count -->
     <g transform="translate(226.590625 38.916563) scale(0.1 -0.1)">
      <use xlink:href="#DejaVuSans-63"/>
      <use xlink:href="#DejaVuSans-6f" transform="translate(54.980469 0)"/>
      <use xlink:href="#DejaVuSans-75" transform="translate(116.162109 0)"/>
      <use xlink:href="#DejaVuSans-6e" transform="translate(179.541016 0)"/>
      <use xlink:href="#DejaVuSans-74" transform="translate(242.919922 0)"/>
     </g>
    </g>
   </g>
  </g>
 </g>
 <defs>
  <clipPath id="p1caa6aec88">
   <rect x="40.603125" y="22.318125" width="223.2" height="55.44"/>
  </clipPath>
 </defs>
</svg>
