<?xml version="1.0" encoding="utf-8" standalone="no"?>
<!DOCTYPE svg PUBLIC "-//W3C//DTD SVG 1.1//EN"
  "http://www.w3.org/Graphics/SVG/1.1/DTD/svg11.dtd">
<svg xmlns:xlink="http://www.w3.org/1999/xlink" width="271.003125pt" height="900.733125pt" viewBox="0 0 271.003125 900.733125" xmlns="http://www.w3.org/2000/svg" version="1.1">
 <metadata>
  <rdf:RDF xmlns:dc="http://purl.org/dc/elements/1.1/" xmlns:cc="http://creativecommons.org/ns#" xmlns:rdf="http://www.w3.org/1999/02/22-rdf-syntax-ns#">
   <cc:Work>
    <dc:type rdf:resource="http://purl.org/dc/dcmitype/StillImage"/>
    <dc:date>2026-05-15T15:48:14.726222</dc:date>
    <dc:format>image/svg+xml</dc:format>
    <dc:creator>
     <cc:Agent>
      <dc:title>Matplotlib v3.10.1, https://matplotlib.org/</dc:title>
     </cc:Agent>
    </dc:creator>
   </cc:Work>
  </rdf:RDF>
 </metadata>
 <defs>
  <style type="text/css">*{stroke-linejoin: round; stroke-linecap: butt}</style>
 </defs>
 <g id="figure_1">
  <g id="patch_1">
   <path d="M 0 900.733125 
L 271.003125 900.733125 
L 271.003125 0 
L 0 0 
z
" style="fill: #ffffff"/>
  </g>
  <g id="axes_1">
   <g id="patch_2">
    <path d="M 40.603125 77.758125 
L 263.803125 77.758125 
L 263.803125 22.318125 
L 40.603125 22.318125 
z
" style="fill: #ffffff"/>
   </g>
   <g id="patch_3">
    <path d="M 48.574554 77.758125 
L 64.517411 77.758125 
L 64.517411 24.958125 
L 48.574554 24.958125 
z
" clip-path="url(#p59439f55ac)" style="fill: #d3d3d3"/>
   </g>
   <g id="patch_4">
    <path d="M 80.460268 77.758125 
L 96.403125 77.758125 
L 96.403125 68.654677 
L 80.460268 68.654677 
z
" clip-path="url(#p59439f55ac)" style="fill: #d3d3d3"/>
   </g>
   <g id="patch_5">
    <path d="M 112.345982 77.758125 
L 128.288839 77.758125 
L 128.288839 74.116746 
L 112.345982 74.116746 
z
" clip-path="url(#p59439f55ac)" style="fill: #d3d3d3"/>
   </g>
   <g id="patch_6">
    <path d="M 144.231696 77.758125 
L 160.174554 77.758125 
L 160.174554 75.937435 
L 144.231696 75.937435 
z
" clip-path="url(#p59439f55ac)" style="fill: #d3d3d3"/>
   </g>
   <g id="patch_7">
    <path d="M 176.117411 77.758125 
L 192.060268 77.758125 
L 192.060268 75.937435 
L 176.117411 75.937435 
z
" clip-path="url(#p59439f55ac)" style="fill: #d3d3d3"/>
   </g>
   <g id="patch_8">
    <path d="M 208.003125 77.758125 
L 223.945982 77.758125 
L 223.945982 75.937435 
L 208.003125 75.937435 
z
" clip-path="url(#p59439f55ac)" style="fill: #d3d3d3"/>
   </g>
   <g id="patch_9">
    <path d="M 239.888839 77.758125 
L 255.831696 77.758125 
L 255.831696 75.937435 
L 239.888839 75.937435 
z
" clip-path="url(#p59439f55ac)" style="fill: #d3d3d3"/>
   </g>
   <g id="matplotlib.axis_1">
    <g id="xtick_1">
     <g id="line2d_1">
      <defs>
       <path id="m46fa9ddfaf" d="M 0 0 
L 0 3.5 
" style="stroke: #000000; stroke-width: 0.8"/>
      </defs>
      <g>
       <use xlink:href="#m46fa9ddfaf" x="56.545982" y="77.758125" style="stroke: #000000; stroke-width: 0.8"/>
      </g>
     </g>
     <g id="text_1">
      <!-- {phenicol, amphenicol, chloramphenicol} -->
      <g transform="translate(59.305357 293.826875) rotate(-90) scale(0.1 -0.1)">
       <defs>
        <path id="DejaVuSans-7b" d="M 3272 -594 
L 3272 -1044 
L 3078 -1044 
Q 2300 -1044 2036 -812 
Q 1772 -581 1772 109 
L 1772 856 
Q 1772 1328 1603 1509 
Q 1434 1691 991 1691 
L 800 1691 
L 800 2138 
L 991 2138 
Q 1438 2138 1605 2317 
Q 1772 2497 1772 2963 
L 1772 3713 
Q 1772 4403 2036 4633 
Q 2300 4863 3078 4863 
L 3272 4863 
L 3272 4416 
L 3059 4416 
Q 2619 4416 2484 4278 
Q 2350 4141 2350 3700 
L 2350 2925 
Q 2350 2434 2208 2212 
Q 2066 1991 1722 1913 
Q 2069 1828 2209 1606 
Q 2350 1384 2350 897 
L 2350 122 
Q 2350 -319 2484 -456 
Q 2619 -594 3059 -594 
L 3272 -594 
z
" transform="scale(0.015625)"/>
        <path id="DejaVuSans-70" d="M 1159 525 
L 1159 -1331 
L 581 -1331 
L 581 3500 
L 1159 3500 
L 1159 2969 
Q 1341 3281 1617 3432 
Q 1894 3584 2278 3584 
Q 2916 3584 3314 3078 
Q 3713 2572 3713 1747 
Q 3713 922 3314 415 
Q 2916 -91 2278 -91 
Q 1894 -91 1617 61 
Q 1341 213 1159 525 
z
M 3116 1747 
Q 3116 2381 2855 2742 
Q 2594 3103 2138 3103 
Q 1681 3103 1420 2742 
Q 1159 2381 1159 1747 
Q 1159 1113 1420 752 
Q 1681 391 2138 391 
Q 2594 391 2855 752 
Q 3116 1113 3116 1747 
z
" transform="scale(0.015625)"/>
        <path id="DejaVuSans-68" d="M 3513 2113 
L 3513 0 
L 2938 0 
L 2938 2094 
Q 2938 2591 2744 2837 
Q 2550 3084 2163 3084 
Q 1697 3084 1428 2787 
Q 1159 2491 1159 1978 
L 1159 0 
L 581 0 
L 581 4863 
L 1159 4863 
L 1159 2956 
Q 1366 3272 1645 3428 
Q 1925 3584 2291 3584 
Q 2894 3584 3203 3211 
Q 3513 2838 3513 2113 
z
" transform="scale(0.015625)"/>
        <path id="DejaVuSans-65" d="M 3597 1894 
L 3597 1613 
L 953 1613 
Q 991 1019 1311 708 
Q 1631 397 2203 397 
Q 2534 397 2845 478 
Q 3156 559 3463 722 
L 3463 178 
Q 3153 47 2828 -22 
Q 2503 -91 2169 -91 
Q 1331 -91 842 396 
Q 353 884 353 1716 
Q 353 2575 817 3079 
Q 1281 3584 2069 3584 
Q 2775 3584 3186 3129 
Q 3597 2675 3597 1894 
z
M 3022 2063 
Q 3016 2534 2758 2815 
Q 2500 3097 2075 3097 
Q 1594 3097 1305 2825 
Q 1016 2553 972 2059 
L 3022 2063 
z
" transform="scale(0.015625)"/>
        <path id="DejaVuSans-6e" d="M 3513 2113 
L 3513 0 
L 2938 0 
L 2938 2094 
Q 2938 2591 2744 2837 
Q 2550 3084 2163 3084 
Q 1697 3084 1428 2787 
Q 1159 2491 1159 1978 
L 1159 0 
L 581 0 
L 581 3500 
L 1159 3500 
L 1159 2956 
Q 1366 3272 1645 3428 
Q 1925 3584 2291 3584 
Q 2894 3584 3203 3211 
Q 3513 2838 3513 2113 
z
" transform="scale(0.015625)"/>
        <path id="DejaVuSans-69" d="M 603 3500 
L 1178 3500 
L 1178 0 
L 603 0 
L 603 3500 
z
M 603 4863 
L 1178 4863 
L 1178 4134 
L 603 4134 
L 603 4863 
z
" transform="scale(0.015625)"/>
        <path id="DejaVuSans-63" d="M 3122 3366 
L 3122 2828 
Q 2878 2963 2633 3030 
Q 2388 3097 2138 3097 
Q 1578 3097 1268 2742 
Q 959 2388 959 1747 
Q 959 1106 1268 751 
Q 1578 397 2138 397 
Q 2388 397 2633 464 
Q 2878 531 3122 666 
L 3122 134 
Q 2881 22 2623 -34 
Q 2366 -91 2075 -91 
Q 1284 -91 818 406 
Q 353 903 353 1747 
Q 353 2603 823 3093 
Q 1294 3584 2113 3584 
Q 2378 3584 2631 3529 
Q 2884 3475 3122 3366 
z
" transform="scale(0.015625)"/>
        <path id="DejaVuSans-6f" d="M 1959 3097 
Q 1497 3097 1228 2736 
Q 959 2375 959 1747 
Q 959 1119 1226 758 
Q 1494 397 1959 397 
Q 2419 397 2687 759 
Q 2956 1122 2956 1747 
Q 2956 2369 2687 2733 
Q 2419 3097 1959 3097 
z
M 1959 3584 
Q 2709 3584 3137 3096 
Q 3566 2609 3566 1747 
Q 3566 888 3137 398 
Q 2709 -91 1959 -91 
Q 1206 -91 779 398 
Q 353 888 353 1747 
Q 353 2609 779 3096 
Q 1206 3584 1959 3584 
z
" transform="scale(0.015625)"/>
        <path id="DejaVuSans-6c" d="M 603 4863 
L 1178 4863 
L 1178 0 
L 603 0 
L 603 4863 
z
" transform="scale(0.015625)"/>
        <path id="DejaVuSans-2c" d="M 750 794 
L 1409 794 
L 1409 256 
L 897 -744 
L 494 -744 
L 750 256 
L 750 794 
z
" transform="scale(0.015625)"/>
        <path id="DejaVuSans-20" transform="scale(0.015625)"/>
        <path id="DejaVuSans-61" d="M 2194 1759 
Q 1497 1759 1228 1600 
Q 959 1441 959 1056 
Q 959 750 1161 570 
Q 1363 391 1709 391 
Q 2188 391 2477 730 
Q 2766 1069 2766 1631 
L 2766 1759 
L 2194 1759 
z
M 3341 1997 
L 3341 0 
L 2766 0 
L 2766 531 
Q 2569 213 2275 61 
Q 1981 -91 1556 -91 
Q 1019 -91 701 211 
Q 384 513 384 1019 
Q 384 1609 779 1909 
Q 1175 2209 1959 2209 
L 2766 2209 
L 2766 2266 
Q 2766 2663 2505 2880 
Q 2244 3097 1772 3097 
Q 1472 3097 1187 3025 
Q 903 2953 641 2809 
L 641 3341 
Q 956 3463 1253 3523 
Q 1550 3584 1831 3584 
Q 2591 3584 2966 3190 
Q 3341 2797 3341 1997 
z
" transform="scale(0.015625)"/>
        <path id="DejaVuSans-6d" d="M 3328 2828 
Q 3544 3216 3844 3400 
Q 4144 3584 4550 3584 
Q 5097 3584 5394 3201 
Q 5691 2819 5691 2113 
L 5691 0 
L 5113 0 
L 5113 2094 
Q 5113 2597 4934 2840 
Q 4756 3084 4391 3084 
Q 3944 3084 3684 2787 
Q 3425 2491 3425 1978 
L 3425 0 
L 2847 0 
L 2847 2094 
Q 2847 2600 2669 2842 
Q 2491 3084 2119 3084 
Q 1678 3084 1418 2786 
Q 1159 2488 1159 1978 
L 1159 0 
L 581 0 
L 581 3500 
L 1159 3500 
L 1159 2956 
Q 1356 3278 1631 3431 
Q 1906 3584 2284 3584 
Q 2666 3584 2933 3390 
Q 3200 3197 3328 2828 
z
" transform="scale(0.015625)"/>
        <path id="DejaVuSans-72" d="M 2631 2963 
Q 2534 3019 2420 3045 
Q 2306 3072 2169 3072 
Q 1681 3072 1420 2755 
Q 1159 2438 1159 1844 
L 1159 0 
L 581 0 
L 581 3500 
L 1159 3500 
L 1159 2956 
Q 1341 3275 1631 3429 
Q 1922 3584 2338 3584 
Q 2397 3584 2469 3576 
Q 2541 3569 2628 3553 
L 2631 2963 
z
" transform="scale(0.015625)"/>
        <path id="DejaVuSans-7d" d="M 800 -594 
L 1019 -594 
Q 1456 -594 1589 -459 
Q 1722 -325 1722 122 
L 1722 897 
Q 1722 1384 1862 1606 
Q 2003 1828 2350 1913 
Q 2003 1991 1862 2212 
Q 1722 2434 1722 2925 
L 1722 3700 
Q 1722 4144 1589 4280 
Q 1456 4416 1019 4416 
L 800 4416 
L 800 4863 
L 997 4863 
Q 1775 4863 2036 4633 
Q 2297 4403 2297 3713 
L 2297 2963 
Q 2297 2497 2465 2317 
Q 2634 2138 3078 2138 
L 3272 2138 
L 3272 1691 
L 3078 1691 
Q 2634 1691 2465 1509 
Q 2297 1328 2297 856 
L 2297 109 
Q 2297 -581 2036 -812 
Q 1775 -1044 997 -1044 
L 800 -1044 
L 800 -594 
z
" transform="scale(0.015625)"/>
       </defs>
       <use xlink:href="#DejaVuSans-7b"/>
       <use xlink:href="#DejaVuSans-70" transform="translate(63.623047 0)"/>
       <use xlink:href="#DejaVuSans-68" transform="translate(127.099609 0)"/>
       <use xlink:href="#DejaVuSans-65" transform="translate(190.478516 0)"/>
       <use xlink:href="#DejaVuSans-6e" transform="translate(252.001953 0)"/>
       <use xlink:href="#DejaVuSans-69" transform="translate(315.380859 0)"/>
       <use xlink:href="#DejaVuSans-63" transform="translate(343.164062 0)"/>
       <use xlink:href="#DejaVuSans-6f" transform="translate(398.144531 0)"/>
       <use xlink:href="#DejaVuSans-6c" transform="translate(459.326172 0)"/>
       <use xlink:href="#DejaVuSans-2c" transform="translate(487.109375 0)"/>
       <use xlink:href="#DejaVuSans-20" transform="translate(518.896484 0)"/>
       <use xlink:href="#DejaVuSans-61" transform="translate(550.683594 0)"/>
       <use xlink:href="#DejaVuSans-6d" transform="translate(611.962891 0)"/>
       <use xlink:href="#DejaVuSans-70" transform="translate(709.375 0)"/>
       <use xlink:href="#DejaVuSans-68" transform="translate(772.851562 0)"/>
       <use xlink:href="#DejaVuSans-65" transform="translate(836.230469 0)"/>
       <use xlink:href="#DejaVuSans-6e" transform="translate(897.753906 0)"/>
       <use xlink:href="#DejaVuSans-69" transform="translate(961.132812 0)"/>
       <use xlink:href="#DejaVuSans-63" transform="translate(988.916016 0)"/>
       <use xlink:href="#DejaVuSans-6f" transform="translate(1043.896484 0)"/>
       <use xlink:href="#DejaVuSans-6c" transform="translate(1105.078125 0)"/>
       <use xlink:href="#DejaVuSans-2c" transform="translate(1132.861328 0)"/>
       <use xlink:href="#DejaVuSans-20" transform="translate(1164.648438 0)"/>
       <use xlink:href="#DejaVuSans-63" transform="translate(1196.435547 0)"/>
       <use xlink:href="#DejaVuSans-68" transform="translate(1251.416016 0)"/>
       <use xlink:href="#DejaVuSans-6c" transform="translate(1314.794922 0)"/>
       <use xlink:href="#DejaVuSans-6f" transform="translate(1342.578125 0)"/>
       <use xlink:href="#DejaVuSans-72" transform="translate(1403.759766 0)"/>
       <use xlink:href="#DejaVuSans-61" transform="translate(1444.873047 0)"/>
       <use xlink:href="#DejaVuSans-6d" transform="translate(1506.152344 0)"/>
       <use xlink:href="#DejaVuSans-70" transform="translate(1603.564453 0)"/>
       <use xlink:href="#DejaVuSans-68" transform="translate(1667.041016 0)"/>
       <use xlink:href="#DejaVuSans-65" transform="translate(1730.419922 0)"/>
       <use xlink:href="#DejaVuSans-6e" transform="translate(1791.943359 0)"/>
       <use xlink:href="#DejaVuSans-69" transform="translate(1855.322266 0)"/>
       <use xlink:href="#DejaVuSans-63" transform="translate(1883.105469 0)"/>
       <use xlink:href="#DejaVuSans-6f" transform="translate(1938.085938 0)"/>
       <use xlink:href="#DejaVuSans-6c" transform="translate(1999.267578 0)"/>
       <use xlink:href="#DejaVuSans-7d" transform="translate(2027.050781 0)"/>
      </g>
     </g>
    </g>
    <g id="xtick_2">
     <g id="line2d_2">
      <g>
       <use xlink:href="#m46fa9ddfaf" x="88.431696" y="77.758125" style="stroke: #000000; stroke-width: 0.8"/>
      </g>
     </g>
     <g id="text_2">
      <!-- {phenicol, amphenicol} -->
      <g transform="translate(91.191071 204.408125) rotate(-90) scale(0.1 -0.1)">
       <use xlink:href="#DejaVuSans-7b"/>
       <use xlink:href="#DejaVuSans-70" transform="translate(63.623047 0)"/>
       <use xlink:href="#DejaVuSans-68" transform="translate(127.099609 0)"/>
       <use xlink:href="#DejaVuSans-65" transform="translate(190.478516 0)"/>
       <use xlink:href="#DejaVuSans-6e" transform="translate(252.001953 0)"/>
       <use xlink:href="#DejaVuSans-69" transform="translate(315.380859 0)"/>
       <use xlink:href="#DejaVuSans-63" transform="translate(343.164062 0)"/>
       <use xlink:href="#DejaVuSans-6f" transform="translate(398.144531 0)"/>
       <use xlink:href="#DejaVuSans-6c" transform="translate(459.326172 0)"/>
       <use xlink:href="#DejaVuSans-2c" transform="translate(487.109375 0)"/>
       <use xlink:href="#DejaVuSans-20" transform="translate(518.896484 0)"/>
       <use xlink:href="#DejaVuSans-61" transform="translate(550.683594 0)"/>
       <use xlink:href="#DejaVuSans-6d" transform="translate(611.962891 0)"/>
       <use xlink:href="#DejaVuSans-70" transform="translate(709.375 0)"/>
       <use xlink:href="#DejaVuSans-68" transform="translate(772.851562 0)"/>
       <use xlink:href="#DejaVuSans-65" transform="translate(836.230469 0)"/>
       <use xlink:href="#DejaVuSans-6e" transform="translate(897.753906 0)"/>
       <use xlink:href="#DejaVuSans-69" transform="translate(961.132812 0)"/>
       <use xlink:href="#DejaVuSans-63" transform="translate(988.916016 0)"/>
       <use xlink:href="#DejaVuSans-6f" transform="translate(1043.896484 0)"/>
       <use xlink:href="#DejaVuSans-6c" transform="translate(1105.078125 0)"/>
       <use xlink:href="#DejaVuSans-7d" transform="translate(1132.861328 0)"/>
      </g>
     </g>
    </g>
    <g id="xtick_3">
     <g id="line2d_3">
      <g>
       <use xlink:href="#m46fa9ddfaf" x="120.317411" y="77.758125" style="stroke: #000000; stroke-width: 0.8"/>
      </g>
     </g>
     <g id="text_3">
      <!-- {drug_and_biocide_resistance, phenicol, amphenicol, multidrug} -->
      <g transform="translate(122.937723 410.076875) rotate(-90) scale(0.1 -0.1)">
       <defs>
        <path id="DejaVuSans-64" d="M 2906 2969 
L 2906 4863 
L 3481 4863 
L 3481 0 
L 2906 0 
L 2906 525 
Q 2725 213 2448 61 
Q 2172 -91 1784 -91 
Q 1150 -91 751 415 
Q 353 922 353 1747 
Q 353 2572 751 3078 
Q 1150 3584 1784 3584 
Q 2172 3584 2448 3432 
Q 2725 3281 2906 2969 
z
M 947 1747 
Q 947 1113 1208 752 
Q 1469 391 1925 391 
Q 2381 391 2643 752 
Q 2906 1113 2906 1747 
Q 2906 2381 2643 2742 
Q 2381 3103 1925 3103 
Q 1469 3103 1208 2742 
Q 947 2381 947 1747 
z
" transform="scale(0.015625)"/>
        <path id="DejaVuSans-75" d="M 544 1381 
L 544 3500 
L 1119 3500 
L 1119 1403 
Q 1119 906 1312 657 
Q 1506 409 1894 409 
Q 2359 409 2629 706 
Q 2900 1003 2900 1516 
L 2900 3500 
L 3475 3500 
L 3475 0 
L 2900 0 
L 2900 538 
Q 2691 219 2414 64 
Q 2138 -91 1772 -91 
Q 1169 -91 856 284 
Q 544 659 544 1381 
z
M 1991 3584 
L 1991 3584 
z
" transform="scale(0.015625)"/>
        <path id="DejaVuSans-67" d="M 2906 1791 
Q 2906 2416 2648 2759 
Q 2391 3103 1925 3103 
Q 1463 3103 1205 2759 
Q 947 2416 947 1791 
Q 947 1169 1205 825 
Q 1463 481 1925 481 
Q 2391 481 2648 825 
Q 2906 1169 2906 1791 
z
M 3481 434 
Q 3481 -459 3084 -895 
Q 2688 -1331 1869 -1331 
Q 1566 -1331 1297 -1286 
Q 1028 -1241 775 -1147 
L 775 -588 
Q 1028 -725 1275 -790 
Q 1522 -856 1778 -856 
Q 2344 -856 2625 -561 
Q 2906 -266 2906 331 
L 2906 616 
Q 2728 306 2450 153 
Q 2172 0 1784 0 
Q 1141 0 747 490 
Q 353 981 353 1791 
Q 353 2603 747 3093 
Q 1141 3584 1784 3584 
Q 2172 3584 2450 3431 
Q 2728 3278 2906 2969 
L 2906 3500 
L 3481 3500 
L 3481 434 
z
" transform="scale(0.015625)"/>
        <path id="DejaVuSans-5f" d="M 3263 -1063 
L 3263 -1509 
L -63 -1509 
L -63 -1063 
L 3263 -1063 
z
" transform="scale(0.015625)"/>
        <path id="DejaVuSans-62" d="M 3116 1747 
Q 3116 2381 2855 2742 
Q 2594 3103 2138 3103 
Q 1681 3103 1420 2742 
Q 1159 2381 1159 1747 
Q 1159 1113 1420 752 
Q 1681 391 2138 391 
Q 2594 391 2855 752 
Q 3116 1113 3116 1747 
z
M 1159 2969 
Q 1341 3281 1617 3432 
Q 1894 3584 2278 3584 
Q 2916 3584 3314 3078 
Q 3713 2572 3713 1747 
Q 3713 922 3314 415 
Q 2916 -91 2278 -91 
Q 1894 -91 1617 61 
Q 1341 213 1159 525 
L 1159 0 
L 581 0 
L 581 4863 
L 1159 4863 
L 1159 2969 
z
" transform="scale(0.015625)"/>
        <path id="DejaVuSans-73" d="M 2834 3397 
L 2834 2853 
Q 2591 2978 2328 3040 
Q 2066 3103 1784 3103 
Q 1356 3103 1142 2972 
Q 928 2841 928 2578 
Q 928 2378 1081 2264 
Q 1234 2150 1697 2047 
L 1894 2003 
Q 2506 1872 2764 1633 
Q 3022 1394 3022 966 
Q 3022 478 2636 193 
Q 2250 -91 1575 -91 
Q 1294 -91 989 -36 
Q 684 19 347 128 
L 347 722 
Q 666 556 975 473 
Q 1284 391 1588 391 
Q 1994 391 2212 530 
Q 2431 669 2431 922 
Q 2431 1156 2273 1281 
Q 2116 1406 1581 1522 
L 1381 1569 
Q 847 1681 609 1914 
Q 372 2147 372 2553 
Q 372 3047 722 3315 
Q 1072 3584 1716 3584 
Q 2034 3584 2315 3537 
Q 2597 3491 2834 3397 
z
" transform="scale(0.015625)"/>
        <path id="DejaVuSans-74" d="M 1172 4494 
L 1172 3500 
L 2356 3500 
L 2356 3053 
L 1172 3053 
L 1172 1153 
Q 1172 725 1289 603 
Q 1406 481 1766 481 
L 2356 481 
L 2356 0 
L 1766 0 
Q 1100 0 847 248 
Q 594 497 594 1153 
L 594 3053 
L 172 3053 
L 172 3500 
L 594 3500 
L 594 4494 
L 1172 4494 
z
" transform="scale(0.015625)"/>
       </defs>
       <use xlink:href="#DejaVuSans-7b"/>
       <use xlink:href="#DejaVuSans-64" transform="translate(63.623047 0)"/>
       <use xlink:href="#DejaVuSans-72" transform="translate(127.099609 0)"/>
       <use xlink:href="#DejaVuSans-75" transform="translate(168.212891 0)"/>
       <use xlink:href="#DejaVuSans-67" transform="translate(231.591797 0)"/>
       <use xlink:href="#DejaVuSans-5f" transform="translate(295.068359 0)"/>
       <use xlink:href="#DejaVuSans-61" transform="translate(345.068359 0)"/>
       <use xlink:href="#DejaVuSans-6e" transform="translate(406.347656 0)"/>
       <use xlink:href="#DejaVuSans-64" transform="translate(469.726562 0)"/>
       <use xlink:href="#DejaVuSans-5f" transform="translate(533.203125 0)"/>
       <use xlink:href="#DejaVuSans-62" transform="translate(583.203125 0)"/>
       <use xlink:href="#DejaVuSans-69" transform="translate(646.679688 0)"/>
       <use xlink:href="#DejaVuSans-6f" transform="translate(674.462891 0)"/>
       <use xlink:href="#DejaVuSans-63" transform="translate(735.644531 0)"/>
       <use xlink:href="#DejaVuSans-69" transform="translate(790.625 0)"/>
       <use xlink:href="#DejaVuSans-64" transform="translate(818.408203 0)"/>
       <use xlink:href="#DejaVuSans-65" transform="translate(881.884766 0)"/>
       <use xlink:href="#DejaVuSans-5f" transform="translate(943.408203 0)"/>
       <use xlink:href="#DejaVuSans-72" transform="translate(993.408203 0)"/>
       <use xlink:href="#DejaVuSans-65" transform="translate(1032.271484 0)"/>
       <use xlink:href="#DejaVuSans-73" transform="translate(1093.794922 0)"/>
       <use xlink:href="#DejaVuSans-69" transform="translate(1145.894531 0)"/>
       <use xlink:href="#DejaVuSans-73" transform="translate(1173.677734 0)"/>
       <use xlink:href="#DejaVuSans-74" transform="translate(1225.777344 0)"/>
       <use xlink:href="#DejaVuSans-61" transform="translate(1264.986328 0)"/>
       <use xlink:href="#DejaVuSans-6e" transform="translate(1326.265625 0)"/>
       <use xlink:href="#DejaVuSans-63" transform="translate(1389.644531 0)"/>
       <use xlink:href="#DejaVuSans-65" transform="translate(1444.625 0)"/>
       <use xlink:href="#DejaVuSans-2c" transform="translate(1506.148438 0)"/>
       <use xlink:href="#DejaVuSans-20" transform="translate(1537.935547 0)"/>
       <use xlink:href="#DejaVuSans-70" transform="translate(1569.722656 0)"/>
       <use xlink:href="#DejaVuSans-68" transform="translate(1633.199219 0)"/>
       <use xlink:href="#DejaVuSans-65" transform="translate(1696.578125 0)"/>
       <use xlink:href="#DejaVuSans-6e" transform="translate(1758.101562 0)"/>
       <use xlink:href="#DejaVuSans-69" transform="translate(1821.480469 0)"/>
       <use xlink:href="#DejaVuSans-63" transform="translate(1849.263672 0)"/>
       <use xlink:href="#DejaVuSans-6f" transform="translate(1904.244141 0)"/>
       <use xlink:href="#DejaVuSans-6c" transform="translate(1965.425781 0)"/>
       <use xlink:href="#DejaVuSans-2c" transform="translate(1993.208984 0)"/>
       <use xlink:href="#DejaVuSans-20" transform="translate(2024.996094 0)"/>
       <use xlink:href="#DejaVuSans-61" transform="translate(2056.783203 0)"/>
       <use xlink:href="#DejaVuSans-6d" transform="translate(2118.0625 0)"/>
       <use xlink:href="#DejaVuSans-70" transform="translate(2215.474609 0)"/>
       <use xlink:href="#DejaVuSans-68" transform="translate(2278.951172 0)"/>
       <use xlink:href="#DejaVuSans-65" transform="translate(2342.330078 0)"/>
       <use xlink:href="#DejaVuSans-6e" transform="translate(2403.853516 0)"/>
       <use xlink:href="#DejaVuSans-69" transform="translate(2467.232422 0)"/>
       <use xlink:href="#DejaVuSans-63" transform="translate(2495.015625 0)"/>
       <use xlink:href="#DejaVuSans-6f" transform="translate(2549.996094 0)"/>
       <use xlink:href="#DejaVuSans-6c" transform="translate(2611.177734 0)"/>
       <use xlink:href="#DejaVuSans-2c" transform="translate(2638.960938 0)"/>
       <use xlink:href="#DejaVuSans-20" transform="translate(2670.748047 0)"/>
       <use xlink:href="#DejaVuSans-6d" transform="translate(2702.535156 0)"/>
       <use xlink:href="#DejaVuSans-75" transform="translate(2799.947266 0)"/>
       <use xlink:href="#DejaVuSans-6c" transform="translate(2863.326172 0)"/>
       <use xlink:href="#DejaVuSans-74" transform="translate(2891.109375 0)"/>
       <use xlink:href="#DejaVuSans-69" transform="translate(2930.318359 0)"/>
       <use xlink:href="#DejaVuSans-64" transform="translate(2958.101562 0)"/>
       <use xlink:href="#DejaVuSans-72" transform="translate(3021.578125 0)"/>
       <use xlink:href="#DejaVuSans-75" transform="translate(3062.691406 0)"/>
       <use xlink:href="#DejaVuSans-67" transform="translate(3126.070312 0)"/>
       <use xlink:href="#DejaVuSans-7d" transform="translate(3189.546875 0)"/>
      </g>
     </g>
    </g>
    <g id="xtick_4">
     <g id="line2d_4">
      <g>
       <use xlink:href="#m46fa9ddfaf" x="152.203125" y="77.758125" style="stroke: #000000; stroke-width: 0.8"/>
      </g>
     </g>
     <g id="text_4">
      <!-- {amphenicol, multidrug, glycopeptide ;lincosamide ;oxazolidinone ;phenicol ;streptogramin, lincosamide/oxazolidinone/phenicol/pleuromutilin/streptogramin} -->
      <g transform="translate(154.9625 878.275313) rotate(-90) scale(0.1 -0.1)">
       <defs>
        <path id="DejaVuSans-79" d="M 2059 -325 
Q 1816 -950 1584 -1140 
Q 1353 -1331 966 -1331 
L 506 -1331 
L 506 -850 
L 844 -850 
Q 1081 -850 1212 -737 
Q 1344 -625 1503 -206 
L 1606 56 
L 191 3500 
L 800 3500 
L 1894 763 
L 2988 3500 
L 3597 3500 
L 2059 -325 
z
" transform="scale(0.015625)"/>
        <path id="DejaVuSans-3b" d="M 750 3309 
L 1409 3309 
L 1409 2516 
L 750 2516 
L 750 3309 
z
M 750 794 
L 1409 794 
L 1409 256 
L 897 -744 
L 494 -744 
L 750 256 
L 750 794 
z
" transform="scale(0.015625)"/>
        <path id="DejaVuSans-78" d="M 3513 3500 
L 2247 1797 
L 3578 0 
L 2900 0 
L 1881 1375 
L 863 0 
L 184 0 
L 1544 1831 
L 300 3500 
L 978 3500 
L 1906 2253 
L 2834 3500 
L 3513 3500 
z
" transform="scale(0.015625)"/>
        <path id="DejaVuSans-7a" d="M 353 3500 
L 3084 3500 
L 3084 2975 
L 922 459 
L 3084 459 
L 3084 0 
L 275 0 
L 275 525 
L 2438 3041 
L 353 3041 
L 353 3500 
z
" transform="scale(0.015625)"/>
        <path id="DejaVuSans-2f" d="M 1625 4666 
L 2156 4666 
L 531 -594 
L 0 -594 
L 1625 4666 
z
" transform="scale(0.015625)"/>
       </defs>
       <use xlink:href="#DejaVuSans-7b"/>
       <use xlink:href="#DejaVuSans-61" transform="translate(63.623047 0)"/>
       <use xlink:href="#DejaVuSans-6d" transform="translate(124.902344 0)"/>
       <use xlink:href="#DejaVuSans-70" transform="translate(222.314453 0)"/>
       <use xlink:href="#DejaVuSans-68" transform="translate(285.791016 0)"/>
       <use xlink:href="#DejaVuSans-65" transform="translate(349.169922 0)"/>
       <use xlink:href="#DejaVuSans-6e" transform="translate(410.693359 0)"/>
       <use xlink:href="#DejaVuSans-69" transform="translate(474.072266 0)"/>
       <use xlink:href="#DejaVuSans-63" transform="translate(501.855469 0)"/>
       <use xlink:href="#DejaVuSans-6f" transform="translate(556.835938 0)"/>
       <use xlink:href="#DejaVuSans-6c" transform="translate(618.017578 0)"/>
       <use xlink:href="#DejaVuSans-2c" transform="translate(645.800781 0)"/>
       <use xlink:href="#DejaVuSans-20" transform="translate(677.587891 0)"/>
       <use xlink:href="#DejaVuSans-6d" transform="translate(709.375 0)"/>
       <use xlink:href="#DejaVuSans-75" transform="translate(806.787109 0)"/>
       <use xlink:href="#DejaVuSans-6c" transform="translate(870.166016 0)"/>
       <use xlink:href="#DejaVuSans-74" transform="translate(897.949219 0)"/>
       <use xlink:href="#DejaVuSans-69" transform="translate(937.158203 0)"/>
       <use xlink:href="#DejaVuSans-64" transform="translate(964.941406 0)"/>
       <use xlink:href="#DejaVuSans-72" transform="translate(1028.417969 0)"/>
       <use xlink:href="#DejaVuSans-75" transform="translate(1069.53125 0)"/>
       <use xlink:href="#DejaVuSans-67" transform="translate(1132.910156 0)"/>
       <use xlink:href="#DejaVuSans-2c" transform="translate(1196.386719 0)"/>
       <use xlink:href="#DejaVuSans-20" transform="translate(1228.173828 0)"/>
       <use xlink:href="#DejaVuSans-67" transform="translate(1259.960938 0)"/>
       <use xlink:href="#DejaVuSans-6c" transform="translate(1323.4375 0)"/>
       <use xlink:href="#DejaVuSans-79" transform="translate(1351.220703 0)"/>
       <use xlink:href="#DejaVuSans-63" transform="translate(1410.400391 0)"/>
       <use xlink:href="#DejaVuSans-6f" transform="translate(1465.380859 0)"/>
       <use xlink:href="#DejaVuSans-70" transform="translate(1526.5625 0)"/>
       <use xlink:href="#DejaVuSans-65" transform="translate(1590.039062 0)"/>
       <use xlink:href="#DejaVuSans-70" transform="translate(1651.5625 0)"/>
       <use xlink:href="#DejaVuSans-74" transform="translate(1715.039062 0)"/>
       <use xlink:href="#DejaVuSans-69" transform="translate(1754.248047 0)"/>
       <use xlink:href="#DejaVuSans-64" transform="translate(1782.03125 0)"/>
       <use xlink:href="#DejaVuSans-65" transform="translate(1845.507812 0)"/>
       <use xlink:href="#DejaVuSans-20" transform="translate(1907.03125 0)"/>
       <use xlink:href="#DejaVuSans-3b" transform="translate(1938.818359 0)"/>
       <use xlink:href="#DejaVuSans-6c" transform="translate(1972.509766 0)"/>
       <use xlink:href="#DejaVuSans-69" transform="translate(2000.292969 0)"/>
       <use xlink:href="#DejaVuSans-6e" transform="translate(2028.076172 0)"/>
       <use xlink:href="#DejaVuSans-63" transform="translate(2091.455078 0)"/>
       <use xlink:href="#DejaVuSans-6f" transform="translate(2146.435547 0)"/>
       <use xlink:href="#DejaVuSans-73" transform="translate(2207.617188 0)"/>
       <use xlink:href="#DejaVuSans-61" transform="translate(2259.716797 0)"/>
       <use xlink:href="#DejaVuSans-6d" transform="translate(2320.996094 0)"/>
       <use xlink:href="#DejaVuSans-69" transform="translate(2418.408203 0)"/>
       <use xlink:href="#DejaVuSans-64" transform="translate(2446.191406 0)"/>
       <use xlink:href="#DejaVuSans-65" transform="translate(2509.667969 0)"/>
       <use xlink:href="#DejaVuSans-20" transform="translate(2571.191406 0)"/>
       <use xlink:href="#DejaVuSans-3b" transform="translate(2602.978516 0)"/>
       <use xlink:href="#DejaVuSans-6f" transform="translate(2636.669922 0)"/>
       <use xlink:href="#DejaVuSans-78" transform="translate(2694.726562 0)"/>
       <use xlink:href="#DejaVuSans-61" transform="translate(2753.90625 0)"/>
       <use xlink:href="#DejaVuSans-7a" transform="translate(2815.185547 0)"/>
       <use xlink:href="#DejaVuSans-6f" transform="translate(2867.675781 0)"/>
       <use xlink:href="#DejaVuSans-6c" transform="translate(2928.857422 0)"/>
       <use xlink:href="#DejaVuSans-69" transform="translate(2956.640625 0)"/>
       <use xlink:href="#DejaVuSans-64" transform="translate(2984.423828 0)"/>
       <use xlink:href="#DejaVuSans-69" transform="translate(3047.900391 0)"/>
       <use xlink:href="#DejaVuSans-6e" transform="translate(3075.683594 0)"/>
       <use xlink:href="#DejaVuSans-6f" transform="translate(3139.0625 0)"/>
       <use xlink:href="#DejaVuSans-6e" transform="translate(3200.244141 0)"/>
       <use xlink:href="#DejaVuSans-65" transform="translate(3263.623047 0)"/>
       <use xlink:href="#DejaVuSans-20" transform="translate(3325.146484 0)"/>
       <use xlink:href="#DejaVuSans-3b" transform="translate(3356.933594 0)"/>
       <use xlink:href="#DejaVuSans-70" transform="translate(3390.625 0)"/>
       <use xlink:href="#DejaVuSans-68" transform="translate(3454.101562 0)"/>
       <use xlink:href="#DejaVuSans-65" transform="translate(3517.480469 0)"/>
       <use xlink:href="#DejaVuSans-6e" transform="translate(3579.003906 0)"/>
       <use xlink:href="#DejaVuSans-69" transform="translate(3642.382812 0)"/>
       <use xlink:href="#DejaVuSans-63" transform="translate(3670.166016 0)"/>
       <use xlink:href="#DejaVuSans-6f" transform="translate(3725.146484 0)"/>
       <use xlink:href="#DejaVuSans-6c" transform="translate(3786.328125 0)"/>
       <use xlink:href="#DejaVuSans-20" transform="translate(3814.111328 0)"/>
       <use xlink:href="#DejaVuSans-3b" transform="translate(3845.898438 0)"/>
       <use xlink:href="#DejaVuSans-73" transform="translate(3879.589844 0)"/>
       <use xlink:href="#DejaVuSans-74" transform="translate(3931.689453 0)"/>
       <use xlink:href="#DejaVuSans-72" transform="translate(3970.898438 0)"/>
       <use xlink:href="#DejaVuSans-65" transform="translate(4009.761719 0)"/>
       <use xlink:href="#DejaVuSans-70" transform="translate(4071.285156 0)"/>
       <use xlink:href="#DejaVuSans-74" transform="translate(4134.761719 0)"/>
       <use xlink:href="#DejaVuSans-6f" transform="translate(4173.970703 0)"/>
       <use xlink:href="#DejaVuSans-67" transform="translate(4235.152344 0)"/>
       <use xlink:href="#DejaVuSans-72" transform="translate(4298.628906 0)"/>
       <use xlink:href="#DejaVuSans-61" transform="translate(4339.742188 0)"/>
       <use xlink:href="#DejaVuSans-6d" transform="translate(4401.021484 0)"/>
       <use xlink:href="#DejaVuSans-69" transform="translate(4498.433594 0)"/>
       <use xlink:href="#DejaVuSans-6e" transform="translate(4526.216797 0)"/>
       <use xlink:href="#DejaVuSans-2c" transform="translate(4589.595703 0)"/>
       <use xlink:href="#DejaVuSans-20" transform="translate(4621.382812 0)"/>
       <use xlink:href="#DejaVuSans-6c" transform="translate(4653.169922 0)"/>
       <use xlink:href="#DejaVuSans-69" transform="translate(4680.953125 0)"/>
       <use xlink:href="#DejaVuSans-6e" transform="translate(4708.736328 0)"/>
       <use xlink:href="#DejaVuSans-63" transform="translate(4772.115234 0)"/>
       <use xlink:href="#DejaVuSans-6f" transform="translate(4827.095703 0)"/>
       <use xlink:href="#DejaVuSans-73" transform="translate(4888.277344 0)"/>
       <use xlink:href="#DejaVuSans-61" transform="translate(4940.376953 0)"/>
       <use xlink:href="#DejaVuSans-6d" transform="translate(5001.65625 0)"/>
       <use xlink:href="#DejaVuSans-69" transform="translate(5099.068359 0)"/>
       <use xlink:href="#DejaVuSans-64" transform="translate(5126.851562 0)"/>
       <use xlink:href="#DejaVuSans-65" transform="translate(5190.328125 0)"/>
       <use xlink:href="#DejaVuSans-2f" transform="translate(5251.851562 0)"/>
       <use xlink:href="#DejaVuSans-6f" transform="translate(5285.542969 0)"/>
       <use xlink:href="#DejaVuSans-78" transform="translate(5343.599609 0)"/>
       <use xlink:href="#DejaVuSans-61" transform="translate(5402.779297 0)"/>
       <use xlink:href="#DejaVuSans-7a" transform="translate(5464.058594 0)"/>
       <use xlink:href="#DejaVuSans-6f" transform="translate(5516.548828 0)"/>
       <use xlink:href="#DejaVuSans-6c" transform="translate(5577.730469 0)"/>
       <use xlink:href="#DejaVuSans-69" transform="translate(5605.513672 0)"/>
       <use xlink:href="#DejaVuSans-64" transform="translate(5633.296875 0)"/>
       <use xlink:href="#DejaVuSans-69" transform="translate(5696.773438 0)"/>
       <use xlink:href="#DejaVuSans-6e" transform="translate(5724.556641 0)"/>
       <use xlink:href="#DejaVuSans-6f" transform="translate(5787.935547 0)"/>
       <use xlink:href="#DejaVuSans-6e" transform="translate(5849.117188 0)"/>
       <use xlink:href="#DejaVuSans-65" transform="translate(5912.496094 0)"/>
       <use xlink:href="#DejaVuSans-2f" transform="translate(5974.019531 0)"/>
       <use xlink:href="#DejaVuSans-70" transform="translate(6007.710938 0)"/>
       <use xlink:href="#DejaVuSans-68" transform="translate(6071.1875 0)"/>
       <use xlink:href="#DejaVuSans-65" transform="translate(6134.566406 0)"/>
       <use xlink:href="#DejaVuSans-6e" transform="translate(6196.089844 0)"/>
       <use xlink:href="#DejaVuSans-69" transform="translate(6259.46875 0)"/>
       <use xlink:href="#DejaVuSans-63" transform="translate(6287.251953 0)"/>
       <use xlink:href="#DejaVuSans-6f" transform="translate(6342.232422 0)"/>
       <use xlink:href="#DejaVuSans-6c" transform="translate(6403.414062 0)"/>
       <use xlink:href="#DejaVuSans-2f" transform="translate(6431.197266 0)"/>
       <use xlink:href="#DejaVuSans-70" transform="translate(6464.888672 0)"/>
       <use xlink:href="#DejaVuSans-6c" transform="translate(6528.365234 0)"/>
       <use xlink:href="#DejaVuSans-65" transform="translate(6556.148438 0)"/>
       <use xlink:href="#DejaVuSans-75" transform="translate(6617.671875 0)"/>
       <use xlink:href="#DejaVuSans-72" transform="translate(6681.050781 0)"/>
       <use xlink:href="#DejaVuSans-6f" transform="translate(6719.914062 0)"/>
       <use xlink:href="#DejaVuSans-6d" transform="translate(6781.095703 0)"/>
       <use xlink:href="#DejaVuSans-75" transform="translate(6878.507812 0)"/>
       <use xlink:href="#DejaVuSans-74" transform="translate(6941.886719 0)"/>
       <use xlink:href="#DejaVuSans-69" transform="translate(6981.095703 0)"/>
       <use xlink:href="#DejaVuSans-6c" transform="translate(7008.878906 0)"/>
       <use xlink:href="#DejaVuSans-69" transform="translate(7036.662109 0)"/>
       <use xlink:href="#DejaVuSans-6e" transform="translate(7064.445312 0)"/>
       <use xlink:href="#DejaVuSans-2f" transform="translate(7127.824219 0)"/>
       <use xlink:href="#DejaVuSans-73" transform="translate(7161.515625 0)"/>
       <use xlink:href="#DejaVuSans-74" transform="translate(7213.615234 0)"/>
       <use xlink:href="#DejaVuSans-72" transform="translate(7252.824219 0)"/>
       <use xlink:href="#DejaVuSans-65" transform="translate(7291.6875 0)"/>
       <use xlink:href="#DejaVuSans-70" transform="translate(7353.210938 0)"/>
       <use xlink:href="#DejaVuSans-74" transform="translate(7416.6875 0)"/>
       <use xlink:href="#DejaVuSans-6f" transform="translate(7455.896484 0)"/>
       <use xlink:href="#DejaVuSans-67" transform="translate(7517.078125 0)"/>
       <use xlink:href="#DejaVuSans-72" transform="translate(7580.554688 0)"/>
       <use xlink:href="#DejaVuSans-61" transform="translate(7621.667969 0)"/>
       <use xlink:href="#DejaVuSans-6d" transform="translate(7682.947266 0)"/>
       <use xlink:href="#DejaVuSans-69" transform="translate(7780.359375 0)"/>
       <use xlink:href="#DejaVuSans-6e" transform="translate(7808.142578 0)"/>
       <use xlink:href="#DejaVuSans-7d" transform="translate(7871.521484 0)"/>
      </g>
     </g>
    </g>
    <g id="xtick_5">
     <g id="line2d_5">
      <g>
       <use xlink:href="#m46fa9ddfaf" x="184.088839" y="77.758125" style="stroke: #000000; stroke-width: 0.8"/>
      </g>
     </g>
     <g id="text_5">
      <!-- {lincosamide ;oxazolidinone ;phenicol ;pleuromutilin ;streptogramin, lincosamide/oxazolidinone/phenicol/pleuromutilin/streptogramin, multidrug, amphenicol} -->
      <g transform="translate(186.848214 879.855) rotate(-90) scale(0.1 -0.1)">
       <use xlink:href="#DejaVuSans-7b"/>
       <use xlink:href="#DejaVuSans-6c" transform="translate(63.623047 0)"/>
       <use xlink:href="#DejaVuSans-69" transform="translate(91.40625 0)"/>
       <use xlink:href="#DejaVuSans-6e" transform="translate(119.189453 0)"/>
       <use xlink:href="#DejaVuSans-63" transform="translate(182.568359 0)"/>
       <use xlink:href="#DejaVuSans-6f" transform="translate(237.548828 0)"/>
       <use xlink:href="#DejaVuSans-73" transform="translate(298.730469 0)"/>
       <use xlink:href="#DejaVuSans-61" transform="translate(350.830078 0)"/>
       <use xlink:href="#DejaVuSans-6d" transform="translate(412.109375 0)"/>
       <use xlink:href="#DejaVuSans-69" transform="translate(509.521484 0)"/>
       <use xlink:href="#DejaVuSans-64" transform="translate(537.304688 0)"/>
       <use xlink:href="#DejaVuSans-65" transform="translate(600.78125 0)"/>
       <use xlink:href="#DejaVuSans-20" transform="translate(662.304688 0)"/>
       <use xlink:href="#DejaVuSans-3b" transform="translate(694.091797 0)"/>
       <use xlink:href="#DejaVuSans-6f" transform="translate(727.783203 0)"/>
       <use xlink:href="#DejaVuSans-78" transform="translate(785.839844 0)"/>
       <use xlink:href="#DejaVuSans-61" transform="translate(845.019531 0)"/>
       <use xlink:href="#DejaVuSans-7a" transform="translate(906.298828 0)"/>
       <use xlink:href="#DejaVuSans-6f" transform="translate(958.789062 0)"/>
       <use xlink:href="#DejaVuSans-6c" transform="translate(1019.970703 0)"/>
       <use xlink:href="#DejaVuSans-69" transform="translate(1047.753906 0)"/>
       <use xlink:href="#DejaVuSans-64" transform="translate(1075.537109 0)"/>
       <use xlink:href="#DejaVuSans-69" transform="translate(1139.013672 0)"/>
       <use xlink:href="#DejaVuSans-6e" transform="translate(1166.796875 0)"/>
       <use xlink:href="#DejaVuSans-6f" transform="translate(1230.175781 0)"/>
       <use xlink:href="#DejaVuSans-6e" transform="translate(1291.357422 0)"/>
       <use xlink:href="#DejaVuSans-65" transform="translate(1354.736328 0)"/>
       <use xlink:href="#DejaVuSans-20" transform="translate(1416.259766 0)"/>
       <use xlink:href="#DejaVuSans-3b" transform="translate(1448.046875 0)"/>
       <use xlink:href="#DejaVuSans-70" transform="translate(1481.738281 0)"/>
       <use xlink:href="#DejaVuSans-68" transform="translate(1545.214844 0)"/>
       <use xlink:href="#DejaVuSans-65" transform="translate(1608.59375 0)"/>
       <use xlink:href="#DejaVuSans-6e" transform="translate(1670.117188 0)"/>
       <use xlink:href="#DejaVuSans-69" transform="translate(1733.496094 0)"/>
       <use xlink:href="#DejaVuSans-63" transform="translate(1761.279297 0)"/>
       <use xlink:href="#DejaVuSans-6f" transform="translate(1816.259766 0)"/>
       <use xlink:href="#DejaVuSans-6c" transform="translate(1877.441406 0)"/>
       <use xlink:href="#DejaVuSans-20" transform="translate(1905.224609 0)"/>
       <use xlink:href="#DejaVuSans-3b" transform="translate(1937.011719 0)"/>
       <use xlink:href="#DejaVuSans-70" transform="translate(1970.703125 0)"/>
       <use xlink:href="#DejaVuSans-6c" transform="translate(2034.179688 0)"/>
       <use xlink:href="#DejaVuSans-65" transform="translate(2061.962891 0)"/>
       <use xlink:href="#DejaVuSans-75" transform="translate(2123.486328 0)"/>
       <use xlink:href="#DejaVuSans-72" transform="translate(2186.865234 0)"/>
       <use xlink:href="#DejaVuSans-6f" transform="translate(2225.728516 0)"/>
       <use xlink:href="#DejaVuSans-6d" transform="translate(2286.910156 0)"/>
       <use xlink:href="#DejaVuSans-75" transform="translate(2384.322266 0)"/>
       <use xlink:href="#DejaVuSans-74" transform="translate(2447.701172 0)"/>
       <use xlink:href="#DejaVuSans-69" transform="translate(2486.910156 0)"/>
       <use xlink:href="#DejaVuSans-6c" transform="translate(2514.693359 0)"/>
       <use xlink:href="#DejaVuSans-69" transform="translate(2542.476562 0)"/>
       <use xlink:href="#DejaVuSans-6e" transform="translate(2570.259766 0)"/>
       <use xlink:href="#DejaVuSans-20" transform="translate(2633.638672 0)"/>
       <use xlink:href="#DejaVuSans-3b" transform="translate(2665.425781 0)"/>
       <use xlink:href="#DejaVuSans-73" transform="translate(2699.117188 0)"/>
       <use xlink:href="#DejaVuSans-74" transform="translate(2751.216797 0)"/>
       <use xlink:href="#DejaVuSans-72" transform="translate(2790.425781 0)"/>
       <use xlink:href="#DejaVuSans-65" transform="translate(2829.289062 0)"/>
       <use xlink:href="#DejaVuSans-70" transform="translate(2890.8125 0)"/>
       <use xlink:href="#DejaVuSans-74" transform="translate(2954.289062 0)"/>
       <use xlink:href="#DejaVuSans-6f" transform="translate(2993.498047 0)"/>
       <use xlink:href="#DejaVuSans-67" transform="translate(3054.679688 0)"/>
       <use xlink:href="#DejaVuSans-72" transform="translate(3118.15625 0)"/>
       <use xlink:href="#DejaVuSans-61" transform="translate(3159.269531 0)"/>
       <use xlink:href="#DejaVuSans-6d" transform="translate(3220.548828 0)"/>
       <use xlink:href="#DejaVuSans-69" transform="translate(3317.960938 0)"/>
       <use xlink:href="#DejaVuSans-6e" transform="translate(3345.744141 0)"/>
       <use xlink:href="#DejaVuSans-2c" transform="translate(3409.123047 0)"/>
       <use xlink:href="#DejaVuSans-20" transform="translate(3440.910156 0)"/>
       <use xlink:href="#DejaVuSans-6c" transform="translate(3472.697266 0)"/>
       <use xlink:href="#DejaVuSans-69" transform="translate(3500.480469 0)"/>
       <use xlink:href="#DejaVuSans-6e" transform="translate(3528.263672 0)"/>
       <use xlink:href="#DejaVuSans-63" transform="translate(3591.642578 0)"/>
       <use xlink:href="#DejaVuSans-6f" transform="translate(3646.623047 0)"/>
       <use xlink:href="#DejaVuSans-73" transform="translate(3707.804688 0)"/>
       <use xlink:href="#DejaVuSans-61" transform="translate(3759.904297 0)"/>
       <use xlink:href="#DejaVuSans-6d" transform="translate(3821.183594 0)"/>
       <use xlink:href="#DejaVuSans-69" transform="translate(3918.595703 0)"/>
       <use xlink:href="#DejaVuSans-64" transform="translate(3946.378906 0)"/>
       <use xlink:href="#DejaVuSans-65" transform="translate(4009.855469 0)"/>
       <use xlink:href="#DejaVuSans-2f" transform="translate(4071.378906 0)"/>
       <use xlink:href="#DejaVuSans-6f" transform="translate(4105.070312 0)"/>
       <use xlink:href="#DejaVuSans-78" transform="translate(4163.126953 0)"/>
       <use xlink:href="#DejaVuSans-61" transform="translate(4222.306641 0)"/>
       <use xlink:href="#DejaVuSans-7a" transform="translate(4283.585938 0)"/>
       <use xlink:href="#DejaVuSans-6f" transform="translate(4336.076172 0)"/>
       <use xlink:href="#DejaVuSans-6c" transform="translate(4397.257812 0)"/>
       <use xlink:href="#DejaVuSans-69" transform="translate(4425.041016 0)"/>
       <use xlink:href="#DejaVuSans-64" transform="translate(4452.824219 0)"/>
       <use xlink:href="#DejaVuSans-69" transform="translate(4516.300781 0)"/>
       <use xlink:href="#DejaVuSans-6e" transform="translate(4544.083984 0)"/>
       <use xlink:href="#DejaVuSans-6f" transform="translate(4607.462891 0)"/>
       <use xlink:href="#DejaVuSans-6e" transform="translate(4668.644531 0)"/>
       <use xlink:href="#DejaVuSans-65" transform="translate(4732.023438 0)"/>
       <use xlink:href="#DejaVuSans-2f" transform="translate(4793.546875 0)"/>
       <use xlink:href="#DejaVuSans-70" transform="translate(4827.238281 0)"/>
       <use xlink:href="#DejaVuSans-68" transform="translate(4890.714844 0)"/>
       <use xlink:href="#DejaVuSans-65" transform="translate(4954.09375 0)"/>
       <use xlink:href="#DejaVuSans-6e" transform="translate(5015.617188 0)"/>
       <use xlink:href="#DejaVuSans-69" transform="translate(5078.996094 0)"/>
       <use xlink:href="#DejaVuSans-63" transform="translate(5106.779297 0)"/>
       <use xlink:href="#DejaVuSans-6f" transform="translate(5161.759766 0)"/>
       <use xlink:href="#DejaVuSans-6c" transform="translate(5222.941406 0)"/>
       <use xlink:href="#DejaVuSans-2f" transform="translate(5250.724609 0)"/>
       <use xlink:href="#DejaVuSans-70" transform="translate(5284.416016 0)"/>
       <use xlink:href="#DejaVuSans-6c" transform="translate(5347.892578 0)"/>
       <use xlink:href="#DejaVuSans-65" transform="translate(5375.675781 0)"/>
       <use xlink:href="#DejaVuSans-75" transform="translate(5437.199219 0)"/>
       <use xlink:href="#DejaVuSans-72" transform="translate(5500.578125 0)"/>
       <use xlink:href="#DejaVuSans-6f" transform="translate(5539.441406 0)"/>
       <use xlink:href="#DejaVuSans-6d" transform="translate(5600.623047 0)"/>
       <use xlink:href="#DejaVuSans-75" transform="translate(5698.035156 0)"/>
       <use xlink:href="#DejaVuSans-74" transform="translate(5761.414062 0)"/>
       <use xlink:href="#DejaVuSans-69" transform="translate(5800.623047 0)"/>
       <use xlink:href="#DejaVuSans-6c" transform="translate(5828.40625 0)"/>
       <use xlink:href="#DejaVuSans-69" transform="translate(5856.189453 0)"/>
       <use xlink:href="#DejaVuSans-6e" transform="translate(5883.972656 0)"/>
       <use xlink:href="#DejaVuSans-2f" transform="translate(5947.351562 0)"/>
       <use xlink:href="#DejaVuSans-73" transform="translate(5981.042969 0)"/>
       <use xlink:href="#DejaVuSans-74" transform="translate(6033.142578 0)"/>
       <use xlink:href="#DejaVuSans-72" transform="translate(6072.351562 0)"/>
       <use xlink:href="#DejaVuSans-65" transform="translate(6111.214844 0)"/>
       <use xlink:href="#DejaVuSans-70" transform="translate(6172.738281 0)"/>
       <use xlink:href="#DejaVuSans-74" transform="translate(6236.214844 0)"/>
       <use xlink:href="#DejaVuSans-6f" transform="translate(6275.423828 0)"/>
       <use xlink:href="#DejaVuSans-67" transform="translate(6336.605469 0)"/>
       <use xlink:href="#DejaVuSans-72" transform="translate(6400.082031 0)"/>
       <use xlink:href="#DejaVuSans-61" transform="translate(6441.195312 0)"/>
       <use xlink:href="#DejaVuSans-6d" transform="translate(6502.474609 0)"/>
       <use xlink:href="#DejaVuSans-69" transform="translate(6599.886719 0)"/>
       <use xlink:href="#DejaVuSans-6e" transform="translate(6627.669922 0)"/>
       <use xlink:href="#DejaVuSans-2c" transform="translate(6691.048828 0)"/>
       <use xlink:href="#DejaVuSans-20" transform="translate(6722.835938 0)"/>
       <use xlink:href="#DejaVuSans-6d" transform="translate(6754.623047 0)"/>
       <use xlink:href="#DejaVuSans-75" transform="translate(6852.035156 0)"/>
       <use xlink:href="#DejaVuSans-6c" transform="translate(6915.414062 0)"/>
       <use xlink:href="#DejaVuSans-74" transform="translate(6943.197266 0)"/>
       <use xlink:href="#DejaVuSans-69" transform="translate(6982.40625 0)"/>
       <use xlink:href="#DejaVuSans-64" transform="translate(7010.189453 0)"/>
       <use xlink:href="#DejaVuSans-72" transform="translate(7073.666016 0)"/>
       <use xlink:href="#DejaVuSans-75" transform="translate(7114.779297 0)"/>
       <use xlink:href="#DejaVuSans-67" transform="translate(7178.158203 0)"/>
       <use xlink:href="#DejaVuSans-2c" transform="translate(7241.634766 0)"/>
       <use xlink:href="#DejaVuSans-20" transform="translate(7273.421875 0)"/>
       <use xlink:href="#DejaVuSans-61" transform="translate(7305.208984 0)"/>
       <use xlink:href="#DejaVuSans-6d" transform="translate(7366.488281 0)"/>
       <use xlink:href="#DejaVuSans-70" transform="translate(7463.900391 0)"/>
       <use xlink:href="#DejaVuSans-68" transform="translate(7527.376953 0)"/>
       <use xlink:href="#DejaVuSans-65" transform="translate(7590.755859 0)"/>
       <use xlink:href="#DejaVuSans-6e" transform="translate(7652.279297 0)"/>
       <use xlink:href="#DejaVuSans-69" transform="translate(7715.658203 0)"/>
       <use xlink:href="#DejaVuSans-63" transform="translate(7743.441406 0)"/>
       <use xlink:href="#DejaVuSans-6f" transform="translate(7798.421875 0)"/>
       <use xlink:href="#DejaVuSans-6c" transform="translate(7859.603516 0)"/>
       <use xlink:href="#DejaVuSans-7d" transform="translate(7887.386719 0)"/>
      </g>
     </g>
    </g>
    <g id="xtick_6">
     <g id="line2d_6">
      <g>
       <use xlink:href="#m46fa9ddfaf" x="215.974554" y="77.758125" style="stroke: #000000; stroke-width: 0.8"/>
      </g>
     </g>
     <g id="text_6">
      <!-- {phenicol, amphenicol, multidrug} -->
      <g transform="translate(218.733929 259.464375) rotate(-90) scale(0.1 -0.1)">
       <use xlink:href="#DejaVuSans-7b"/>
       <use xlink:href="#DejaVuSans-70" transform="translate(63.623047 0)"/>
       <use xlink:href="#DejaVuSans-68" transform="translate(127.099609 0)"/>
       <use xlink:href="#DejaVuSans-65" transform="translate(190.478516 0)"/>
       <use xlink:href="#DejaVuSans-6e" transform="translate(252.001953 0)"/>
       <use xlink:href="#DejaVuSans-69" transform="translate(315.380859 0)"/>
       <use xlink:href="#DejaVuSans-63" transform="translate(343.164062 0)"/>
       <use xlink:href="#DejaVuSans-6f" transform="translate(398.144531 0)"/>
       <use xlink:href="#DejaVuSans-6c" transform="translate(459.326172 0)"/>
       <use xlink:href="#DejaVuSans-2c" transform="translate(487.109375 0)"/>
       <use xlink:href="#DejaVuSans-20" transform="translate(518.896484 0)"/>
       <use xlink:href="#DejaVuSans-61" transform="translate(550.683594 0)"/>
       <use xlink:href="#DejaVuSans-6d" transform="translate(611.962891 0)"/>
       <use xlink:href="#DejaVuSans-70" transform="translate(709.375 0)"/>
       <use xlink:href="#DejaVuSans-68" transform="translate(772.851562 0)"/>
       <use xlink:href="#DejaVuSans-65" transform="translate(836.230469 0)"/>
       <use xlink:href="#DejaVuSans-6e" transform="translate(897.753906 0)"/>
       <use xlink:href="#DejaVuSans-69" transform="translate(961.132812 0)"/>
       <use xlink:href="#DejaVuSans-63" transform="translate(988.916016 0)"/>
       <use xlink:href="#DejaVuSans-6f" transform="translate(1043.896484 0)"/>
       <use xlink:href="#DejaVuSans-6c" transform="translate(1105.078125 0)"/>
       <use xlink:href="#DejaVuSans-2c" transform="translate(1132.861328 0)"/>
       <use xlink:href="#DejaVuSans-20" transform="translate(1164.648438 0)"/>
       <use xlink:href="#DejaVuSans-6d" transform="translate(1196.435547 0)"/>
       <use xlink:href="#DejaVuSans-75" transform="translate(1293.847656 0)"/>
       <use xlink:href="#DejaVuSans-6c" transform="translate(1357.226562 0)"/>
       <use xlink:href="#DejaVuSans-74" transform="translate(1385.009766 0)"/>
       <use xlink:href="#DejaVuSans-69" transform="translate(1424.21875 0)"/>
       <use xlink:href="#DejaVuSans-64" transform="translate(1452.001953 0)"/>
       <use xlink:href="#DejaVuSans-72" transform="translate(1515.478516 0)"/>
       <use xlink:href="#DejaVuSans-75" transform="translate(1556.591797 0)"/>
       <use xlink:href="#DejaVuSans-67" transform="translate(1619.970703 0)"/>
       <use xlink:href="#DejaVuSans-7d" transform="translate(1683.447266 0)"/>
      </g>
     </g>
    </g>
    <g id="xtick_7">
     <g id="line2d_7">
      <g>
       <use xlink:href="#m46fa9ddfaf" x="247.860268" y="77.758125" style="stroke: #000000; stroke-width: 0.8"/>
      </g>
     </g>
     <g id="text_7">
      <!-- {phenicol, amphenicol, multidrug, chloramphenicol} -->
      <g transform="translate(250.619643 348.883125) rotate(-90) scale(0.1 -0.1)">
       <use xlink:href="#DejaVuSans-7b"/>
       <use xlink:href="#DejaVuSans-70" transform="translate(63.623047 0)"/>
       <use xlink:href="#DejaVuSans-68" transform="translate(127.099609 0)"/>
       <use xlink:href="#DejaVuSans-65" transform="translate(190.478516 0)"/>
       <use xlink:href="#DejaVuSans-6e" transform="translate(252.001953 0)"/>
       <use xlink:href="#DejaVuSans-69" transform="translate(315.380859 0)"/>
       <use xlink:href="#DejaVuSans-63" transform="translate(343.164062 0)"/>
       <use xlink:href="#DejaVuSans-6f" transform="translate(398.144531 0)"/>
       <use xlink:href="#DejaVuSans-6c" transform="translate(459.326172 0)"/>
       <use xlink:href="#DejaVuSans-2c" transform="translate(487.109375 0)"/>
       <use xlink:href="#DejaVuSans-20" transform="translate(518.896484 0)"/>
       <use xlink:href="#DejaVuSans-61" transform="translate(550.683594 0)"/>
       <use xlink:href="#DejaVuSans-6d" transform="translate(611.962891 0)"/>
       <use xlink:href="#DejaVuSans-70" transform="translate(709.375 0)"/>
       <use xlink:href="#DejaVuSans-68" transform="translate(772.851562 0)"/>
       <use xlink:href="#DejaVuSans-65" transform="translate(836.230469 0)"/>
       <use xlink:href="#DejaVuSans-6e" transform="translate(897.753906 0)"/>
       <use xlink:href="#DejaVuSans-69" transform="translate(961.132812 0)"/>
       <use xlink:href="#DejaVuSans-63" transform="translate(988.916016 0)"/>
       <use xlink:href="#DejaVuSans-6f" transform="translate(1043.896484 0)"/>
       <use xlink:href="#DejaVuSans-6c" transform="translate(1105.078125 0)"/>
       <use xlink:href="#DejaVuSans-2c" transform="translate(1132.861328 0)"/>
       <use xlink:href="#DejaVuSans-20" transform="translate(1164.648438 0)"/>
       <use xlink:href="#DejaVuSans-6d" transform="translate(1196.435547 0)"/>
       <use xlink:href="#DejaVuSans-75" transform="translate(1293.847656 0)"/>
       <use xlink:href="#DejaVuSans-6c" transform="translate(1357.226562 0)"/>
       <use xlink:href="#DejaVuSans-74" transform="translate(1385.009766 0)"/>
       <use xlink:href="#DejaVuSans-69" transform="translate(1424.21875 0)"/>
       <use xlink:href="#DejaVuSans-64" transform="translate(1452.001953 0)"/>
       <use xlink:href="#DejaVuSans-72" transform="translate(1515.478516 0)"/>
       <use xlink:href="#DejaVuSans-75" transform="translate(1556.591797 0)"/>
       <use xlink:href="#DejaVuSans-67" transform="translate(1619.970703 0)"/>
       <use xlink:href="#DejaVuSans-2c" transform="translate(1683.447266 0)"/>
       <use xlink:href="#DejaVuSans-20" transform="translate(1715.234375 0)"/>
       <use xlink:href="#DejaVuSans-63" transform="translate(1747.021484 0)"/>
       <use xlink:href="#DejaVuSans-68" transform="translate(1802.001953 0)"/>
       <use xlink:href="#DejaVuSans-6c" transform="translate(1865.380859 0)"/>
       <use xlink:href="#DejaVuSans-6f" transform="translate(1893.164062 0)"/>
       <use xlink:href="#DejaVuSans-72" transform="translate(1954.345703 0)"/>
       <use xlink:href="#DejaVuSans-61" transform="translate(1995.458984 0)"/>
       <use xlink:href="#DejaVuSans-6d" transform="translate(2056.738281 0)"/>
       <use xlink:href="#DejaVuSans-70" transform="translate(2154.150391 0)"/>
       <use xlink:href="#DejaVuSans-68" transform="translate(2217.626953 0)"/>
       <use xlink:href="#DejaVuSans-65" transform="translate(2281.005859 0)"/>
       <use xlink:href="#DejaVuSans-6e" transform="translate(2342.529297 0)"/>
       <use xlink:href="#DejaVuSans-69" transform="translate(2405.908203 0)"/>
       <use xlink:href="#DejaVuSans-63" transform="translate(2433.691406 0)"/>
       <use xlink:href="#DejaVuSans-6f" transform="translate(2488.671875 0)"/>
       <use xlink:href="#DejaVuSans-6c" transform="translate(2549.853516 0)"/>
       <use xlink:href="#DejaVuSans-7d" transform="translate(2577.636719 0)"/>
      </g>
     </g>
    </g>
    <g id="text_8">
     <!-- Sets -->
     <g transform="translate(141.3875 891.453438) scale(0.1 -0.1)">
      <defs>
       <path id="DejaVuSans-53" d="M 3425 4513 
L 3425 3897 
Q 3066 4069 2747 4153 
Q 2428 4238 2131 4238 
Q 1616 4238 1336 4038 
Q 1056 3838 1056 3469 
Q 1056 3159 1242 3001 
Q 1428 2844 1947 2747 
L 2328 2669 
Q 3034 2534 3370 2195 
Q 3706 1856 3706 1288 
Q 3706 609 3251 259 
Q 2797 -91 1919 -91 
Q 1588 -91 1214 -16 
Q 841 59 441 206 
L 441 856 
Q 825 641 1194 531 
Q 1563 422 1919 422 
Q 2459 422 2753 634 
Q 3047 847 3047 1241 
Q 3047 1584 2836 1778 
Q 2625 1972 2144 2069 
L 1759 2144 
Q 1053 2284 737 2584 
Q 422 2884 422 3419 
Q 422 4038 858 4394 
Q 1294 4750 2059 4750 
Q 2388 4750 2728 4690 
Q 3069 4631 3425 4513 
z
" transform="scale(0.015625)"/>
      </defs>
      <use xlink:href="#DejaVuSans-53"/>
      <use xlink:href="#DejaVuSans-65" transform="translate(63.476562 0)"/>
      <use xlink:href="#DejaVuSans-74" transform="translate(125 0)"/>
      <use xlink:href="#DejaVuSans-73" transform="translate(164.208984 0)"/>
     </g>
    </g>
   </g>
   <g id="matplotlib.axis_2">
    <g id="ytick_1">
     <g id="line2d_8">
      <defs>
       <path id="m8b65e2c49d" d="M 0 0 
L -3.5 0 
" style="stroke: #000000; stroke-width: 0.8"/>
      </defs>
      <g>
       <use xlink:href="#m8b65e2c49d" x="40.603125" y="77.758125" style="stroke: #000000; stroke-width: 0.8"/>
      </g>
     </g>
     <g id="text_9">
      <!-- 0 -->
      <g transform="translate(27.240625 81.557344) scale(0.1 -0.1)">
       <defs>
        <path id="DejaVuSans-30" d="M 2034 4250 
Q 1547 4250 1301 3770 
Q 1056 3291 1056 2328 
Q 1056 1369 1301 889 
Q 1547 409 2034 409 
Q 2525 409 2770 889 
Q 3016 1369 3016 2328 
Q 3016 3291 2770 3770 
Q 2525 4250 2034 4250 
z
M 2034 4750 
Q 2819 4750 3233 4129 
Q 3647 3509 3647 2328 
Q 3647 1150 3233 529 
Q 2819 -91 2034 -91 
Q 1250 -91 836 529 
Q 422 1150 422 2328 
Q 422 3509 836 4129 
Q 1250 4750 2034 4750 
z
" transform="scale(0.015625)"/>
       </defs>
       <use xlink:href="#DejaVuSans-30"/>
      </g>
     </g>
    </g>
    <g id="ytick_2">
     <g id="line2d_9">
      <g>
       <use xlink:href="#m8b65e2c49d" x="40.603125" y="41.344332" style="stroke: #000000; stroke-width: 0.8"/>
      </g>
     </g>
     <g id="text_10">
      <!-- 20 -->
      <g transform="translate(20.878125 45.143551) scale(0.1 -0.1)">
       <defs>
        <path id="DejaVuSans-32" d="M 1228 531 
L 3431 531 
L 3431 0 
L 469 0 
L 469 531 
Q 828 903 1448 1529 
Q 2069 2156 2228 2338 
Q 2531 2678 2651 2914 
Q 2772 3150 2772 3378 
Q 2772 3750 2511 3984 
Q 2250 4219 1831 4219 
Q 1534 4219 1204 4116 
Q 875 4013 500 3803 
L 500 4441 
Q 881 4594 1212 4672 
Q 1544 4750 1819 4750 
Q 2544 4750 2975 4387 
Q 3406 4025 3406 3419 
Q 3406 3131 3298 2873 
Q 3191 2616 2906 2266 
Q 2828 2175 2409 1742 
Q 1991 1309 1228 531 
z
" transform="scale(0.015625)"/>
       </defs>
       <use xlink:href="#DejaVuSans-32"/>
       <use xlink:href="#DejaVuSans-30" transform="translate(63.623047 0)"/>
      </g>
     </g>
    </g>
    <g id="text_11">
     <!-- Count -->
     <g transform="translate(14.798438 64.886562) rotate(-90) scale(0.1 -0.1)">
      <defs>
       <path id="DejaVuSans-43" d="M 4122 4306 
L 4122 3641 
Q 3803 3938 3442 4084 
Q 3081 4231 2675 4231 
Q 1875 4231 1450 3742 
Q 1025 3253 1025 2328 
Q 1025 1406 1450 917 
Q 1875 428 2675 428 
Q 3081 428 3442 575 
Q 3803 722 4122 1019 
L 4122 359 
Q 3791 134 3420 21 
Q 3050 -91 2638 -91 
Q 1578 -91 968 557 
Q 359 1206 359 2328 
Q 359 3453 968 4101 
Q 1578 4750 2638 4750 
Q 3056 4750 3426 4639 
Q 3797 4528 4122 4306 
z
" transform="scale(0.015625)"/>
      </defs>
      <use xlink:href="#DejaVuSans-43"/>
      <use xlink:href="#DejaVuSans-6f" transform="translate(69.824219 0)"/>
      <use xlink:href="#DejaVuSans-75" transform="translate(131.005859 0)"/>
      <use xlink:href="#DejaVuSans-6e" transform="translate(194.384766 0)"/>
      <use xlink:href="#DejaVuSans-74" transform="translate(257.763672 0)"/>
     </g>
    </g>
   </g>
   <g id="patch_10">
    <path d="M 40.603125 77.758125 
L 40.603125 22.318125 
" style="fill: none; stroke: #000000; stroke-width: 0.8; stroke-linejoin: miter; stroke-linecap: square"/>
   </g>
   <g id="patch_11">
    <path d="M 263.803125 77.758125 
L 263.803125 22.318125 
" style="fill: none; stroke: #000000; stroke-width: 0.8; stroke-linejoin: miter; stroke-linecap: square"/>
   </g>
   <g id="patch_12">
    <path d="M 40.603125 77.758125 
L 263.803125 77.758125 
" style="fill: none; stroke: #000000; stroke-width: 0.8; stroke-linejoin: miter; stroke-linecap: square"/>
   </g>
   <g id="patch_13">
    <path d="M 40.603125 22.318125 
L 263.803125 22.318125 
" style="fill: none; stroke: #000000; stroke-width: 0.8; stroke-linejoin: miter; stroke-linecap: square"/>
   </g>
   <g id="text_12">
    <!-- Amphenicol -->
    <g transform="translate(116.844375 16.318125) scale(0.12 -0.12)">
     <defs>
      <path id="DejaVuSans-41" d="M 2188 4044 
L 1331 1722 
L 3047 1722 
L 2188 4044 
z
M 1831 4666 
L 2547 4666 
L 4325 0 
L 3669 0 
L 3244 1197 
L 1141 1197 
L 716 0 
L 50 0 
L 1831 4666 
z
" transform="scale(0.015625)"/>
     </defs>
     <use xlink:href="#DejaVuSans-41"/>
     <use xlink:href="#DejaVuSans-6d" transform="translate(68.408203 0)"/>
     <use xlink:href="#DejaVuSans-70" transform="translate(165.820312 0)"/>
     <use xlink:href="#DejaVuSans-68" transform="translate(229.296875 0)"/>
     <use xlink:href="#DejaVuSans-65" transform="translate(292.675781 0)"/>
     <use xlink:href="#DejaVuSans-6e" transform="translate(354.199219 0)"/>
     <use xlink:href="#DejaVuSans-69" transform="translate(417.578125 0)"/>
     <use xlink:href="#DejaVuSans-63" transform="translate(445.361328 0)"/>
     <use xlink:href="#DejaVuSans-6f" transform="translate(500.341797 0)"/>
     <use xlink:href="#DejaVuSans-6c" transform="translate(561.523438 0)"/>
    </g>
   </g>
   <g id="legend_1">
    <g id="patch_14">
     <path d="M 196.590625 44.99625 
L 256.803125 44.99625 
Q 258.803125 44.99625 258.803125 42.99625 
L 258.803125 29.318125 
Q 258.803125 27.318125 256.803125 27.318125 
L 196.590625 27.318125 
Q 194.590625 27.318125 194.590625 29.318125 
L 194.590625 42.99625 
Q 194.590625 44.99625 196.590625 44.99625 
z
" style="fill: #ffffff; opacity: 0.8; stroke: #cccccc; stroke-linejoin: miter"/>
    </g>
    <g id="patch_15">
     <path d="M 198.590625 38.916562 
L 218.590625 38.916562 
L 218.590625 31.916562 
L 198.590625 31.916562 
z
" style="fill: #d3d3d3"/>
    </g>
    <g id="text_13">
     <!-- count -->
     <g transform="translate(226.590625 38.916562) scale(0.1 -0.1)">
      <use xlink:href="#DejaVuSans-63"/>
      <use xlink:href="#DejaVuSans-6f" transform="translate(54.980469 0)"/>
      <use xlink:href="#DejaVuSans-75" transform="translate(116.162109 0)"/>
      <use xlink:href="#DejaVuSans-6e" transform="translate(179.541016 0)"/>
      <use xlink:href="#DejaVuSans-74" transform="translate(242.919922 0)"/>
     </g>
    </g>
   </g>
  </g>
 </g>
 <defs>
  <clipPath id="p59439f55ac">
   <rect x="40.603125" y="22.318125" width="223.2" height="55.44"/>
  </clipPath>
 </defs>
</svg>
