<?xml version="1.0" encoding="utf-8" standalone="no"?>
<!DOCTYPE svg PUBLIC "-//W3C//DTD SVG 1.1//EN"
  "http://www.w3.org/Graphics/SVG/1.1/DTD/svg11.dtd">
<svg xmlns:xlink="http://www.w3.org/1999/xlink" width="404.923125pt" height="316.30825pt" viewBox="0 0 404.923125 316.30825" xmlns="http://www.w3.org/2000/svg" version="1.1">
 <metadata>
  <rdf:RDF xmlns:dc="http://purl.org/dc/elements/1.1/" xmlns:cc="http://creativecommons.org/ns#" xmlns:rdf="http://www.w3.org/1999/02/22-rdf-syntax-ns#">
   <cc:Work>
    <dc:type rdf:resource="http://purl.org/dc/dcmitype/StillImage"/>
    <dc:date>2026-05-15T16:26:18.596326</dc:date>
    <dc:format>image/svg+xml</dc:format>
    <dc:creator>
     <cc:Agent>
      <dc:title>Matplotlib v3.10.1, https://matplotlib.org/</dc:title>
     </cc:Agent>
    </dc:creator>
   </cc:Work>
  </rdf:RDF>
 </metadata>
 <defs>
  <style type="text/css">*{stroke-linejoin: round; stroke-linecap: butt}</style>
 </defs>
 <g id="figure_1">
  <g id="patch_1">
   <path d="M 0 316.30825 
L 404.923125 316.30825 
L 404.923125 0 
L 0 0 
z
" style="fill: #ffffff"/>
  </g>
  <g id="axes_1">
   <g id="patch_2">
    <path d="M 40.603125 288.430125 
L 397.723125 288.430125 
L 397.723125 22.318125 
L 40.603125 22.318125 
z
" style="fill: #ffffff"/>
   </g>
   <g id="FillBetweenPolyCollection_1">
    <defs>
     <path id="m2332687c28" d="M 234.613636 -39.974125 
L 203.712614 -39.974125 
L 171.616789 -42.417761 
L 122.110354 -44.861398 
L 82.663364 -47.305034 
L 76.315125 -49.74867 
L 93.657652 -52.192307 
L 114.438018 -54.635943 
L 130.908567 -57.07958 
L 144.4254 -59.523216 
L 156.639233 -61.966852 
L 167.770883 -64.410489 
L 177.794242 -66.854125 
L 186.678831 -69.297761 
L 194.407639 -71.741398 
L 200.793213 -74.185034 
L 205.743746 -76.62867 
L 209.223083 -79.072307 
L 211.372788 -81.515943 
L 212.523855 -83.95958 
L 213.060065 -86.403216 
L 213.375494 -88.846852 
L 213.753162 -91.290489 
L 214.265168 -93.734125 
L 214.839737 -96.177761 
L 215.284968 -98.621398 
L 215.505371 -101.065034 
L 215.732193 -103.50867 
L 216.24137 -105.952307 
L 216.8706 -108.395943 
L 217.234786 -110.83958 
L 217.300959 -113.283216 
L 217.335422 -115.726852 
L 217.48642 -118.170489 
L 217.707447 -120.614125 
L 217.903239 -123.057761 
L 218.001215 -125.501398 
L 218.030712 -127.945034 
L 218.122749 -130.38867 
L 218.329889 -132.832307 
L 218.530016 -135.275943 
L 218.605826 -137.71958 
L 218.573759 -140.163216 
L 218.503772 -142.606852 
L 218.445082 -145.050489 
L 218.430779 -147.494125 
L 218.484278 -149.937761 
L 218.601076 -152.381398 
L 218.701807 -154.825034 
L 218.686967 -157.26867 
L 218.574447 -159.712307 
L 218.481175 -162.155943 
L 218.493102 -164.59958 
L 218.628973 -167.043216 
L 218.830188 -169.486852 
L 218.975265 -171.930489 
L 219.002353 -174.374125 
L 218.9523 -176.817761 
L 218.890588 -179.261398 
L 218.865398 -181.705034 
L 218.896369 -184.14867 
L 218.964479 -186.592307 
L 219.035074 -189.035943 
L 219.073748 -191.47958 
L 219.06225 -193.923216 
L 219.022641 -196.366852 
L 218.995322 -198.810489 
L 219.000704 -201.254125 
L 219.035445 -203.697761 
L 219.072214 -206.141398 
L 219.077111 -208.585034 
L 219.057451 -211.02867 
L 219.057121 -213.472307 
L 219.091437 -215.915943 
L 219.131599 -218.35958 
L 219.153812 -220.803216 
L 219.158666 -223.246852 
L 219.149374 -225.690489 
L 219.121125 -228.134125 
L 219.07926 -230.577761 
L 219.055072 -233.021398 
L 219.073327 -235.465034 
L 219.114989 -237.90867 
L 219.146481 -240.352307 
L 219.159413 -242.795943 
L 219.162591 -245.23958 
L 219.163075 -247.683216 
L 219.163122 -250.126852 
L 219.163121 -252.570489 
L 219.163068 -255.014125 
L 219.162521 -257.457761 
L 219.159004 -259.901398 
L 219.144804 -262.345034 
L 219.109374 -264.78867 
L 219.055916 -267.232307 
L 219.009525 -269.675943 
L 218.993803 -272.11958 
L 219.015036 -274.563216 
L 219.064431 -277.006852 
L 219.116353 -279.450489 
L 219.148147 -281.894125 
L 219.178103 -281.894125 
L 219.178103 -281.894125 
L 219.209897 -279.450489 
L 219.261819 -277.006852 
L 219.311214 -274.563216 
L 219.332447 -272.11958 
L 219.316725 -269.675943 
L 219.270334 -267.232307 
L 219.216876 -264.78867 
L 219.181446 -262.345034 
L 219.167246 -259.901398 
L 219.163729 -257.457761 
L 219.163182 -255.014125 
L 219.163129 -252.570489 
L 219.163128 -250.126852 
L 219.163175 -247.683216 
L 219.163659 -245.23958 
L 219.166837 -242.795943 
L 219.179769 -240.352307 
L 219.211261 -237.90867 
L 219.252923 -235.465034 
L 219.271178 -233.021398 
L 219.24699 -230.577761 
L 219.205125 -228.134125 
L 219.176876 -225.690489 
L 219.167584 -223.246852 
L 219.172438 -220.803216 
L 219.194651 -218.35958 
L 219.234813 -215.915943 
L 219.269129 -213.472307 
L 219.268799 -211.02867 
L 219.249139 -208.585034 
L 219.254036 -206.141398 
L 219.290805 -203.697761 
L 219.325546 -201.254125 
L 219.330928 -198.810489 
L 219.303609 -196.366852 
L 219.264 -193.923216 
L 219.252502 -191.47958 
L 219.291176 -189.035943 
L 219.361771 -186.592307 
L 219.429881 -184.14867 
L 219.460852 -181.705034 
L 219.435662 -179.261398 
L 219.37395 -176.817761 
L 219.323897 -174.374125 
L 219.350985 -171.930489 
L 219.496062 -169.486852 
L 219.697277 -167.043216 
L 219.833148 -164.59958 
L 219.845075 -162.155943 
L 219.751803 -159.712307 
L 219.639283 -157.26867 
L 219.624443 -154.825034 
L 219.725174 -152.381398 
L 219.841972 -149.937761 
L 219.895471 -147.494125 
L 219.881168 -145.050489 
L 219.822478 -142.606852 
L 219.752491 -140.163216 
L 219.720424 -137.71958 
L 219.796234 -135.275943 
L 219.996361 -132.832307 
L 220.203501 -130.38867 
L 220.295538 -127.945034 
L 220.325035 -125.501398 
L 220.423011 -123.057761 
L 220.618803 -120.614125 
L 220.83983 -118.170489 
L 220.990828 -115.726852 
L 221.025291 -113.283216 
L 221.091464 -110.83958 
L 221.45565 -108.395943 
L 222.08488 -105.952307 
L 222.594057 -103.50867 
L 222.820879 -101.065034 
L 223.041282 -98.621398 
L 223.486513 -96.177761 
L 224.061082 -93.734125 
L 224.573088 -91.290489 
L 224.950756 -88.846852 
L 225.266185 -86.403216 
L 225.802395 -83.95958 
L 226.953462 -81.515943 
L 229.103167 -79.072307 
L 232.582504 -76.62867 
L 237.533037 -74.185034 
L 243.918611 -71.741398 
L 251.647419 -69.297761 
L 260.532008 -66.854125 
L 270.555367 -64.410489 
L 281.687017 -61.966852 
L 293.90085 -59.523216 
L 307.417683 -57.07958 
L 323.888232 -54.635943 
L 344.668598 -52.192307 
L 362.011125 -49.74867 
L 355.662886 -47.305034 
L 316.215896 -44.861398 
L 266.709461 -42.417761 
L 234.613636 -39.974125 
z
" style="stroke: #3f3f3f; stroke-width: 1.25"/>
    </defs>
    <g clip-path="url(#pa9f29ff04a)">
     <use xlink:href="#m2332687c28" x="0" y="316.30825" style="fill: #3274a1; stroke: #3f3f3f; stroke-width: 1.25"/>
    </g>
   </g>
   <g id="matplotlib.axis_1">
    <g id="xtick_1">
     <g id="line2d_1">
      <defs>
       <path id="mc974f262a2" d="M 0 0 
L 0 3.5 
" style="stroke: #000000; stroke-width: 0.8"/>
      </defs>
      <g>
       <use xlink:href="#mc974f262a2" x="219.163125" y="288.430125" style="stroke: #000000; stroke-width: 0.8"/>
      </g>
     </g>
    </g>
    <g id="text_1">
     <!-- Component Size -->
     <g transform="translate(178.281094 307.028562) scale(0.1 -0.1)">
      <defs>
       <path id="DejaVuSans-43" d="M 4122 4306 
L 4122 3641 
Q 3803 3938 3442 4084 
Q 3081 4231 2675 4231 
Q 1875 4231 1450 3742 
Q 1025 3253 1025 2328 
Q 1025 1406 1450 917 
Q 1875 428 2675 428 
Q 3081 428 3442 575 
Q 3803 722 4122 1019 
L 4122 359 
Q 3791 134 3420 21 
Q 3050 -91 2638 -91 
Q 1578 -91 968 557 
Q 359 1206 359 2328 
Q 359 3453 968 4101 
Q 1578 4750 2638 4750 
Q 3056 4750 3426 4639 
Q 3797 4528 4122 4306 
z
" transform="scale(0.015625)"/>
       <path id="DejaVuSans-6f" d="M 1959 3097 
Q 1497 3097 1228 2736 
Q 959 2375 959 1747 
Q 959 1119 1226 758 
Q 1494 397 1959 397 
Q 2419 397 2687 759 
Q 2956 1122 2956 1747 
Q 2956 2369 2687 2733 
Q 2419 3097 1959 3097 
z
M 1959 3584 
Q 2709 3584 3137 3096 
Q 3566 2609 3566 1747 
Q 3566 888 3137 398 
Q 2709 -91 1959 -91 
Q 1206 -91 779 398 
Q 353 888 353 1747 
Q 353 2609 779 3096 
Q 1206 3584 1959 3584 
z
" transform="scale(0.015625)"/>
       <path id="DejaVuSans-6d" d="M 3328 2828 
Q 3544 3216 3844 3400 
Q 4144 3584 4550 3584 
Q 5097 3584 5394 3201 
Q 5691 2819 5691 2113 
L 5691 0 
L 5113 0 
L 5113 2094 
Q 5113 2597 4934 2840 
Q 4756 3084 4391 3084 
Q 3944 3084 3684 2787 
Q 3425 2491 3425 1978 
L 3425 0 
L 2847 0 
L 2847 2094 
Q 2847 2600 2669 2842 
Q 2491 3084 2119 3084 
Q 1678 3084 1418 2786 
Q 1159 2488 1159 1978 
L 1159 0 
L 581 0 
L 581 3500 
L 1159 3500 
L 1159 2956 
Q 1356 3278 1631 3431 
Q 1906 3584 2284 3584 
Q 2666 3584 2933 3390 
Q 3200 3197 3328 2828 
z
" transform="scale(0.015625)"/>
       <path id="DejaVuSans-70" d="M 1159 525 
L 1159 -1331 
L 581 -1331 
L 581 3500 
L 1159 3500 
L 1159 2969 
Q 1341 3281 1617 3432 
Q 1894 3584 2278 3584 
Q 2916 3584 3314 3078 
Q 3713 2572 3713 1747 
Q 3713 922 3314 415 
Q 2916 -91 2278 -91 
Q 1894 -91 1617 61 
Q 1341 213 1159 525 
z
M 3116 1747 
Q 3116 2381 2855 2742 
Q 2594 3103 2138 3103 
Q 1681 3103 1420 2742 
Q 1159 2381 1159 1747 
Q 1159 1113 1420 752 
Q 1681 391 2138 391 
Q 2594 391 2855 752 
Q 3116 1113 3116 1747 
z
" transform="scale(0.015625)"/>
       <path id="DejaVuSans-6e" d="M 3513 2113 
L 3513 0 
L 2938 0 
L 2938 2094 
Q 2938 2591 2744 2837 
Q 2550 3084 2163 3084 
Q 1697 3084 1428 2787 
Q 1159 2491 1159 1978 
L 1159 0 
L 581 0 
L 581 3500 
L 1159 3500 
L 1159 2956 
Q 1366 3272 1645 3428 
Q 1925 3584 2291 3584 
Q 2894 3584 3203 3211 
Q 3513 2838 3513 2113 
z
" transform="scale(0.015625)"/>
       <path id="DejaVuSans-65" d="M 3597 1894 
L 3597 1613 
L 953 1613 
Q 991 1019 1311 708 
Q 1631 397 2203 397 
Q 2534 397 2845 478 
Q 3156 559 3463 722 
L 3463 178 
Q 3153 47 2828 -22 
Q 2503 -91 2169 -91 
Q 1331 -91 842 396 
Q 353 884 353 1716 
Q 353 2575 817 3079 
Q 1281 3584 2069 3584 
Q 2775 3584 3186 3129 
Q 3597 2675 3597 1894 
z
M 3022 2063 
Q 3016 2534 2758 2815 
Q 2500 3097 2075 3097 
Q 1594 3097 1305 2825 
Q 1016 2553 972 2059 
L 3022 2063 
z
" transform="scale(0.015625)"/>
       <path id="DejaVuSans-74" d="M 1172 4494 
L 1172 3500 
L 2356 3500 
L 2356 3053 
L 1172 3053 
L 1172 1153 
Q 1172 725 1289 603 
Q 1406 481 1766 481 
L 2356 481 
L 2356 0 
L 1766 0 
Q 1100 0 847 248 
Q 594 497 594 1153 
L 594 3053 
L 172 3053 
L 172 3500 
L 594 3500 
L 594 4494 
L 1172 4494 
z
" transform="scale(0.015625)"/>
       <path id="DejaVuSans-20" transform="scale(0.015625)"/>
       <path id="DejaVuSans-53" d="M 3425 4513 
L 3425 3897 
Q 3066 4069 2747 4153 
Q 2428 4238 2131 4238 
Q 1616 4238 1336 4038 
Q 1056 3838 1056 3469 
Q 1056 3159 1242 3001 
Q 1428 2844 1947 2747 
L 2328 2669 
Q 3034 2534 3370 2195 
Q 3706 1856 3706 1288 
Q 3706 609 3251 259 
Q 2797 -91 1919 -91 
Q 1588 -91 1214 -16 
Q 841 59 441 206 
L 441 856 
Q 825 641 1194 531 
Q 1563 422 1919 422 
Q 2459 422 2753 634 
Q 3047 847 3047 1241 
Q 3047 1584 2836 1778 
Q 2625 1972 2144 2069 
L 1759 2144 
Q 1053 2284 737 2584 
Q 422 2884 422 3419 
Q 422 4038 858 4394 
Q 1294 4750 2059 4750 
Q 2388 4750 2728 4690 
Q 3069 4631 3425 4513 
z
" transform="scale(0.015625)"/>
       <path id="DejaVuSans-69" d="M 603 3500 
L 1178 3500 
L 1178 0 
L 603 0 
L 603 3500 
z
M 603 4863 
L 1178 4863 
L 1178 4134 
L 603 4134 
L 603 4863 
z
" transform="scale(0.015625)"/>
       <path id="DejaVuSans-7a" d="M 353 3500 
L 3084 3500 
L 3084 2975 
L 922 459 
L 3084 459 
L 3084 0 
L 275 0 
L 275 525 
L 2438 3041 
L 353 3041 
L 353 3500 
z
" transform="scale(0.015625)"/>
      </defs>
      <use xlink:href="#DejaVuSans-43"/>
      <use xlink:href="#DejaVuSans-6f" transform="translate(69.824219 0)"/>
      <use xlink:href="#DejaVuSans-6d" transform="translate(131.005859 0)"/>
      <use xlink:href="#DejaVuSans-70" transform="translate(228.417969 0)"/>
      <use xlink:href="#DejaVuSans-6f" transform="translate(291.894531 0)"/>
      <use xlink:href="#DejaVuSans-6e" transform="translate(353.076172 0)"/>
      <use xlink:href="#DejaVuSans-65" transform="translate(416.455078 0)"/>
      <use xlink:href="#DejaVuSans-6e" transform="translate(477.978516 0)"/>
      <use xlink:href="#DejaVuSans-74" transform="translate(541.357422 0)"/>
      <use xlink:href="#DejaVuSans-20" transform="translate(580.566406 0)"/>
      <use xlink:href="#DejaVuSans-53" transform="translate(612.353516 0)"/>
      <use xlink:href="#DejaVuSans-69" transform="translate(675.830078 0)"/>
      <use xlink:href="#DejaVuSans-7a" transform="translate(703.613281 0)"/>
      <use xlink:href="#DejaVuSans-65" transform="translate(756.103516 0)"/>
     </g>
    </g>
   </g>
   <g id="matplotlib.axis_2">
    <g id="ytick_1">
     <g id="line2d_2">
      <defs>
       <path id="mc63ef01793" d="M 0 0 
L -3.5 0 
" style="stroke: #000000; stroke-width: 0.8"/>
      </defs>
      <g>
       <use xlink:href="#mc63ef01793" x="40.603125" y="279.278863" style="stroke: #000000; stroke-width: 0.8"/>
      </g>
     </g>
     <g id="text_2">
      <!-- 0 -->
      <g transform="translate(27.240625 283.078082) scale(0.1 -0.1)">
       <defs>
        <path id="DejaVuSans-30" d="M 2034 4250 
Q 1547 4250 1301 3770 
Q 1056 3291 1056 2328 
Q 1056 1369 1301 889 
Q 1547 409 2034 409 
Q 2525 409 2770 889 
Q 3016 1369 3016 2328 
Q 3016 3291 2770 3770 
Q 2525 4250 2034 4250 
z
M 2034 4750 
Q 2819 4750 3233 4129 
Q 3647 3509 3647 2328 
Q 3647 1150 3233 529 
Q 2819 -91 2034 -91 
Q 1250 -91 836 529 
Q 422 1150 422 2328 
Q 422 3509 836 4129 
Q 1250 4750 2034 4750 
z
" transform="scale(0.015625)"/>
       </defs>
       <use xlink:href="#DejaVuSans-30"/>
      </g>
     </g>
    </g>
    <g id="ytick_2">
     <g id="line2d_3">
      <g>
       <use xlink:href="#mc63ef01793" x="40.603125" y="227.651889" style="stroke: #000000; stroke-width: 0.8"/>
      </g>
     </g>
     <g id="text_3">
      <!-- 10 -->
      <g transform="translate(20.878125 231.451107) scale(0.1 -0.1)">
       <defs>
        <path id="DejaVuSans-31" d="M 794 531 
L 1825 531 
L 1825 4091 
L 703 3866 
L 703 4441 
L 1819 4666 
L 2450 4666 
L 2450 531 
L 3481 531 
L 3481 0 
L 794 0 
L 794 531 
z
" transform="scale(0.015625)"/>
       </defs>
       <use xlink:href="#DejaVuSans-31"/>
       <use xlink:href="#DejaVuSans-30" transform="translate(63.623047 0)"/>
      </g>
     </g>
    </g>
    <g id="ytick_3">
     <g id="line2d_4">
      <g>
       <use xlink:href="#mc63ef01793" x="40.603125" y="176.024915" style="stroke: #000000; stroke-width: 0.8"/>
      </g>
     </g>
     <g id="text_4">
      <!-- 20 -->
      <g transform="translate(20.878125 179.824133) scale(0.1 -0.1)">
       <defs>
        <path id="DejaVuSans-32" d="M 1228 531 
L 3431 531 
L 3431 0 
L 469 0 
L 469 531 
Q 828 903 1448 1529 
Q 2069 2156 2228 2338 
Q 2531 2678 2651 2914 
Q 2772 3150 2772 3378 
Q 2772 3750 2511 3984 
Q 2250 4219 1831 4219 
Q 1534 4219 1204 4116 
Q 875 4013 500 3803 
L 500 4441 
Q 881 4594 1212 4672 
Q 1544 4750 1819 4750 
Q 2544 4750 2975 4387 
Q 3406 4025 3406 3419 
Q 3406 3131 3298 2873 
Q 3191 2616 2906 2266 
Q 2828 2175 2409 1742 
Q 1991 1309 1228 531 
z
" transform="scale(0.015625)"/>
       </defs>
       <use xlink:href="#DejaVuSans-32"/>
       <use xlink:href="#DejaVuSans-30" transform="translate(63.623047 0)"/>
      </g>
     </g>
    </g>
    <g id="ytick_4">
     <g id="line2d_5">
      <g>
       <use xlink:href="#mc63ef01793" x="40.603125" y="124.397941" style="stroke: #000000; stroke-width: 0.8"/>
      </g>
     </g>
     <g id="text_5">
      <!-- 30 -->
      <g transform="translate(20.878125 128.197159) scale(0.1 -0.1)">
       <defs>
        <path id="DejaVuSans-33" d="M 2597 2516 
Q 3050 2419 3304 2112 
Q 3559 1806 3559 1356 
Q 3559 666 3084 287 
Q 2609 -91 1734 -91 
Q 1441 -91 1130 -33 
Q 819 25 488 141 
L 488 750 
Q 750 597 1062 519 
Q 1375 441 1716 441 
Q 2309 441 2620 675 
Q 2931 909 2931 1356 
Q 2931 1769 2642 2001 
Q 2353 2234 1838 2234 
L 1294 2234 
L 1294 2753 
L 1863 2753 
Q 2328 2753 2575 2939 
Q 2822 3125 2822 3475 
Q 2822 3834 2567 4026 
Q 2313 4219 1838 4219 
Q 1578 4219 1281 4162 
Q 984 4106 628 3988 
L 628 4550 
Q 988 4650 1302 4700 
Q 1616 4750 1894 4750 
Q 2613 4750 3031 4423 
Q 3450 4097 3450 3541 
Q 3450 3153 3228 2886 
Q 3006 2619 2597 2516 
z
" transform="scale(0.015625)"/>
       </defs>
       <use xlink:href="#DejaVuSans-33"/>
       <use xlink:href="#DejaVuSans-30" transform="translate(63.623047 0)"/>
      </g>
     </g>
    </g>
    <g id="ytick_5">
     <g id="line2d_6">
      <g>
       <use xlink:href="#mc63ef01793" x="40.603125" y="72.770966" style="stroke: #000000; stroke-width: 0.8"/>
      </g>
     </g>
     <g id="text_6">
      <!-- 40 -->
      <g transform="translate(20.878125 76.570185) scale(0.1 -0.1)">
       <defs>
        <path id="DejaVuSans-34" d="M 2419 4116 
L 825 1625 
L 2419 1625 
L 2419 4116 
z
M 2253 4666 
L 3047 4666 
L 3047 1625 
L 3713 1625 
L 3713 1100 
L 3047 1100 
L 3047 0 
L 2419 0 
L 2419 1100 
L 313 1100 
L 313 1709 
L 2253 4666 
z
" transform="scale(0.015625)"/>
       </defs>
       <use xlink:href="#DejaVuSans-34"/>
       <use xlink:href="#DejaVuSans-30" transform="translate(63.623047 0)"/>
      </g>
     </g>
    </g>
    <g id="text_7">
     <!-- Problematic Connected Components Sizes -->
     <g transform="translate(14.798437 261.171) rotate(-90) scale(0.1 -0.1)">
      <defs>
       <path id="DejaVuSans-50" d="M 1259 4147 
L 1259 2394 
L 2053 2394 
Q 2494 2394 2734 2622 
Q 2975 2850 2975 3272 
Q 2975 3691 2734 3919 
Q 2494 4147 2053 4147 
L 1259 4147 
z
M 628 4666 
L 2053 4666 
Q 2838 4666 3239 4311 
Q 3641 3956 3641 3272 
Q 3641 2581 3239 2228 
Q 2838 1875 2053 1875 
L 1259 1875 
L 1259 0 
L 628 0 
L 628 4666 
z
" transform="scale(0.015625)"/>
       <path id="DejaVuSans-72" d="M 2631 2963 
Q 2534 3019 2420 3045 
Q 2306 3072 2169 3072 
Q 1681 3072 1420 2755 
Q 1159 2438 1159 1844 
L 1159 0 
L 581 0 
L 581 3500 
L 1159 3500 
L 1159 2956 
Q 1341 3275 1631 3429 
Q 1922 3584 2338 3584 
Q 2397 3584 2469 3576 
Q 2541 3569 2628 3553 
L 2631 2963 
z
" transform="scale(0.015625)"/>
       <path id="DejaVuSans-62" d="M 3116 1747 
Q 3116 2381 2855 2742 
Q 2594 3103 2138 3103 
Q 1681 3103 1420 2742 
Q 1159 2381 1159 1747 
Q 1159 1113 1420 752 
Q 1681 391 2138 391 
Q 2594 391 2855 752 
Q 3116 1113 3116 1747 
z
M 1159 2969 
Q 1341 3281 1617 3432 
Q 1894 3584 2278 3584 
Q 2916 3584 3314 3078 
Q 3713 2572 3713 1747 
Q 3713 922 3314 415 
Q 2916 -91 2278 -91 
Q 1894 -91 1617 61 
Q 1341 213 1159 525 
L 1159 0 
L 581 0 
L 581 4863 
L 1159 4863 
L 1159 2969 
z
" transform="scale(0.015625)"/>
       <path id="DejaVuSans-6c" d="M 603 4863 
L 1178 4863 
L 1178 0 
L 603 0 
L 603 4863 
z
" transform="scale(0.015625)"/>
       <path id="DejaVuSans-61" d="M 2194 1759 
Q 1497 1759 1228 1600 
Q 959 1441 959 1056 
Q 959 750 1161 570 
Q 1363 391 1709 391 
Q 2188 391 2477 730 
Q 2766 1069 2766 1631 
L 2766 1759 
L 2194 1759 
z
M 3341 1997 
L 3341 0 
L 2766 0 
L 2766 531 
Q 2569 213 2275 61 
Q 1981 -91 1556 -91 
Q 1019 -91 701 211 
Q 384 513 384 1019 
Q 384 1609 779 1909 
Q 1175 2209 1959 2209 
L 2766 2209 
L 2766 2266 
Q 2766 2663 2505 2880 
Q 2244 3097 1772 3097 
Q 1472 3097 1187 3025 
Q 903 2953 641 2809 
L 641 3341 
Q 956 3463 1253 3523 
Q 1550 3584 1831 3584 
Q 2591 3584 2966 3190 
Q 3341 2797 3341 1997 
z
" transform="scale(0.015625)"/>
       <path id="DejaVuSans-63" d="M 3122 3366 
L 3122 2828 
Q 2878 2963 2633 3030 
Q 2388 3097 2138 3097 
Q 1578 3097 1268 2742 
Q 959 2388 959 1747 
Q 959 1106 1268 751 
Q 1578 397 2138 397 
Q 2388 397 2633 464 
Q 2878 531 3122 666 
L 3122 134 
Q 2881 22 2623 -34 
Q 2366 -91 2075 -91 
Q 1284 -91 818 406 
Q 353 903 353 1747 
Q 353 2603 823 3093 
Q 1294 3584 2113 3584 
Q 2378 3584 2631 3529 
Q 2884 3475 3122 3366 
z
" transform="scale(0.015625)"/>
       <path id="DejaVuSans-64" d="M 2906 2969 
L 2906 4863 
L 3481 4863 
L 3481 0 
L 2906 0 
L 2906 525 
Q 2725 213 2448 61 
Q 2172 -91 1784 -91 
Q 1150 -91 751 415 
Q 353 922 353 1747 
Q 353 2572 751 3078 
Q 1150 3584 1784 3584 
Q 2172 3584 2448 3432 
Q 2725 3281 2906 2969 
z
M 947 1747 
Q 947 1113 1208 752 
Q 1469 391 1925 391 
Q 2381 391 2643 752 
Q 2906 1113 2906 1747 
Q 2906 2381 2643 2742 
Q 2381 3103 1925 3103 
Q 1469 3103 1208 2742 
Q 947 2381 947 1747 
z
" transform="scale(0.015625)"/>
       <path id="DejaVuSans-73" d="M 2834 3397 
L 2834 2853 
Q 2591 2978 2328 3040 
Q 2066 3103 1784 3103 
Q 1356 3103 1142 2972 
Q 928 2841 928 2578 
Q 928 2378 1081 2264 
Q 1234 2150 1697 2047 
L 1894 2003 
Q 2506 1872 2764 1633 
Q 3022 1394 3022 966 
Q 3022 478 2636 193 
Q 2250 -91 1575 -91 
Q 1294 -91 989 -36 
Q 684 19 347 128 
L 347 722 
Q 666 556 975 473 
Q 1284 391 1588 391 
Q 1994 391 2212 530 
Q 2431 669 2431 922 
Q 2431 1156 2273 1281 
Q 2116 1406 1581 1522 
L 1381 1569 
Q 847 1681 609 1914 
Q 372 2147 372 2553 
Q 372 3047 722 3315 
Q 1072 3584 1716 3584 
Q 2034 3584 2315 3537 
Q 2597 3491 2834 3397 
z
" transform="scale(0.015625)"/>
      </defs>
      <use xlink:href="#DejaVuSans-50"/>
      <use xlink:href="#DejaVuSans-72" transform="translate(58.552734 0)"/>
      <use xlink:href="#DejaVuSans-6f" transform="translate(97.416016 0)"/>
      <use xlink:href="#DejaVuSans-62" transform="translate(158.597656 0)"/>
      <use xlink:href="#DejaVuSans-6c" transform="translate(222.074219 0)"/>
      <use xlink:href="#DejaVuSans-65" transform="translate(249.857422 0)"/>
      <use xlink:href="#DejaVuSans-6d" transform="translate(311.380859 0)"/>
      <use xlink:href="#DejaVuSans-61" transform="translate(408.792969 0)"/>
      <use xlink:href="#DejaVuSans-74" transform="translate(470.072266 0)"/>
      <use xlink:href="#DejaVuSans-69" transform="translate(509.28125 0)"/>
      <use xlink:href="#DejaVuSans-63" transform="translate(537.064453 0)"/>
      <use xlink:href="#DejaVuSans-20" transform="translate(592.044922 0)"/>
      <use xlink:href="#DejaVuSans-43" transform="translate(623.832031 0)"/>
      <use xlink:href="#DejaVuSans-6f" transform="translate(693.65625 0)"/>
      <use xlink:href="#DejaVuSans-6e" transform="translate(754.837891 0)"/>
      <use xlink:href="#DejaVuSans-6e" transform="translate(818.216797 0)"/>
      <use xlink:href="#DejaVuSans-65" transform="translate(881.595703 0)"/>
      <use xlink:href="#DejaVuSans-63" transform="translate(943.119141 0)"/>
      <use xlink:href="#DejaVuSans-74" transform="translate(998.099609 0)"/>
      <use xlink:href="#DejaVuSans-65" transform="translate(1037.308594 0)"/>
      <use xlink:href="#DejaVuSans-64" transform="translate(1098.832031 0)"/>
      <use xlink:href="#DejaVuSans-20" transform="translate(1162.308594 0)"/>
      <use xlink:href="#DejaVuSans-43" transform="translate(1194.095703 0)"/>
      <use xlink:href="#DejaVuSans-6f" transform="translate(1263.919922 0)"/>
      <use xlink:href="#DejaVuSans-6d" transform="translate(1325.101562 0)"/>
      <use xlink:href="#DejaVuSans-70" transform="translate(1422.513672 0)"/>
      <use xlink:href="#DejaVuSans-6f" transform="translate(1485.990234 0)"/>
      <use xlink:href="#DejaVuSans-6e" transform="translate(1547.171875 0)"/>
      <use xlink:href="#DejaVuSans-65" transform="translate(1610.550781 0)"/>
      <use xlink:href="#DejaVuSans-6e" transform="translate(1672.074219 0)"/>
      <use xlink:href="#DejaVuSans-74" transform="translate(1735.453125 0)"/>
      <use xlink:href="#DejaVuSans-73" transform="translate(1774.662109 0)"/>
      <use xlink:href="#DejaVuSans-20" transform="translate(1826.761719 0)"/>
      <use xlink:href="#DejaVuSans-53" transform="translate(1858.548828 0)"/>
      <use xlink:href="#DejaVuSans-69" transform="translate(1922.025391 0)"/>
      <use xlink:href="#DejaVuSans-7a" transform="translate(1949.808594 0)"/>
      <use xlink:href="#DejaVuSans-65" transform="translate(2002.298828 0)"/>
      <use xlink:href="#DejaVuSans-73" transform="translate(2063.822266 0)"/>
     </g>
    </g>
   </g>
   <g id="line2d_7">
    <path d="M 219.163125 268.953468 
L 219.163125 232.814586 
" clip-path="url(#pa9f29ff04a)" style="fill: none; stroke: #3f3f3f; stroke-width: 1.875; stroke-linecap: square"/>
   </g>
   <g id="line2d_8">
    <path d="M 219.163125 268.953468 
L 219.163125 253.465376 
" clip-path="url(#pa9f29ff04a)" style="fill: none; stroke: #3f3f3f; stroke-width: 5.625; stroke-linecap: square"/>
   </g>
   <g id="line2d_9">
    <path d="M 219.163125 263.790771 
" clip-path="url(#pa9f29ff04a)" style="fill: none; stroke: #3f3f3f; stroke-width: 1.5; stroke-linecap: square"/>
    <defs>
     <path id="mb063bfb6d9" d="M 2.34375 0 
L -2.34375 -0 
" style="stroke: #ffffff; stroke-width: 1.125"/>
    </defs>
    <g clip-path="url(#pa9f29ff04a)">
     <use xlink:href="#mb063bfb6d9" x="219.163125" y="263.790771" style="fill: #ffffff; stroke: #ffffff; stroke-width: 1.125"/>
    </g>
   </g>
   <g id="patch_3">
    <path d="M 40.603125 288.430125 
L 40.603125 22.318125 
" style="fill: none; stroke: #000000; stroke-width: 0.8; stroke-linejoin: miter; stroke-linecap: square"/>
   </g>
   <g id="patch_4">
    <path d="M 397.723125 288.430125 
L 397.723125 22.318125 
" style="fill: none; stroke: #000000; stroke-width: 0.8; stroke-linejoin: miter; stroke-linecap: square"/>
   </g>
   <g id="patch_5">
    <path d="M 40.603125 288.430125 
L 397.723125 288.430125 
" style="fill: none; stroke: #000000; stroke-width: 0.8; stroke-linejoin: miter; stroke-linecap: square"/>
   </g>
   <g id="patch_6">
    <path d="M 40.603125 22.318125 
L 397.723125 22.318125 
" style="fill: none; stroke: #000000; stroke-width: 0.8; stroke-linejoin: miter; stroke-linecap: square"/>
   </g>
   <g id="text_8">
    <!-- Fosfomycin -->
    <g transform="translate(185.185313 16.318125) scale(0.12 -0.12)">
     <defs>
      <path id="DejaVuSans-46" d="M 628 4666 
L 3309 4666 
L 3309 4134 
L 1259 4134 
L 1259 2759 
L 3109 2759 
L 3109 2228 
L 1259 2228 
L 1259 0 
L 628 0 
L 628 4666 
z
" transform="scale(0.015625)"/>
      <path id="DejaVuSans-66" d="M 2375 4863 
L 2375 4384 
L 1825 4384 
Q 1516 4384 1395 4259 
Q 1275 4134 1275 3809 
L 1275 3500 
L 2222 3500 
L 2222 3053 
L 1275 3053 
L 1275 0 
L 697 0 
L 697 3053 
L 147 3053 
L 147 3500 
L 697 3500 
L 697 3744 
Q 697 4328 969 4595 
Q 1241 4863 1831 4863 
L 2375 4863 
z
" transform="scale(0.015625)"/>
      <path id="DejaVuSans-79" d="M 2059 -325 
Q 1816 -950 1584 -1140 
Q 1353 -1331 966 -1331 
L 506 -1331 
L 506 -850 
L 844 -850 
Q 1081 -850 1212 -737 
Q 1344 -625 1503 -206 
L 1606 56 
L 191 3500 
L 800 3500 
L 1894 763 
L 2988 3500 
L 3597 3500 
L 2059 -325 
z
" transform="scale(0.015625)"/>
     </defs>
     <use xlink:href="#DejaVuSans-46"/>
     <use xlink:href="#DejaVuSans-6f" transform="translate(53.894531 0)"/>
     <use xlink:href="#DejaVuSans-73" transform="translate(115.076172 0)"/>
     <use xlink:href="#DejaVuSans-66" transform="translate(167.175781 0)"/>
     <use xlink:href="#DejaVuSans-6f" transform="translate(202.380859 0)"/>
     <use xlink:href="#DejaVuSans-6d" transform="translate(263.5625 0)"/>
     <use xlink:href="#DejaVuSans-79" transform="translate(360.974609 0)"/>
     <use xlink:href="#DejaVuSans-63" transform="translate(420.154297 0)"/>
     <use xlink:href="#DejaVuSans-69" transform="translate(475.134766 0)"/>
     <use xlink:href="#DejaVuSans-6e" transform="translate(502.917969 0)"/>
    </g>
   </g>
  </g>
 </g>
 <defs>
  <clipPath id="pa9f29ff04a">
   <rect x="40.603125" y="22.318125" width="357.12" height="266.112"/>
  </clipPath>
 </defs>
</svg>
