<?xml version="1.0" encoding="utf-8" standalone="no"?>
<!DOCTYPE svg PUBLIC "-//W3C//DTD SVG 1.1//EN"
  "http://www.w3.org/Graphics/SVG/1.1/DTD/svg11.dtd">
<svg xmlns:xlink="http://www.w3.org/1999/xlink" width="277.365625pt" height="1221.712812pt" viewBox="0 0 277.365625 1221.712812" xmlns="http://www.w3.org/2000/svg" version="1.1">
 <metadata>
  <rdf:RDF xmlns:dc="http://purl.org/dc/elements/1.1/" xmlns:cc="http://creativecommons.org/ns#" xmlns:rdf="http://www.w3.org/1999/02/22-rdf-syntax-ns#">
   <cc:Work>
    <dc:type rdf:resource="http://purl.org/dc/dcmitype/StillImage"/>
    <dc:date>2026-05-15T15:48:11.627069</dc:date>
    <dc:format>image/svg+xml</dc:format>
    <dc:creator>
     <cc:Agent>
      <dc:title>Matplotlib v3.10.1, https://matplotlib.org/</dc:title>
     </cc:Agent>
    </dc:creator>
   </cc:Work>
  </rdf:RDF>
 </metadata>
 <defs>
  <style type="text/css">*{stroke-linejoin: round; stroke-linecap: butt}</style>
 </defs>
 <g id="figure_1">
  <g id="patch_1">
   <path d="M 0 1221.712812 
L 277.365625 1221.712812 
L 277.365625 0 
L 0 0 
z
" style="fill: #ffffff"/>
  </g>
  <g id="axes_1">
   <g id="patch_2">
    <path d="M 46.965625 77.758125 
L 270.165625 77.758125 
L 270.165625 22.318125 
L 46.965625 22.318125 
z
" style="fill: #ffffff"/>
   </g>
   <g id="patch_3">
    <path d="M 52.545625 77.758125 
L 63.705625 77.758125 
L 63.705625 24.958125 
L 52.545625 24.958125 
z
" clip-path="url(#pdbadf82a43)" style="fill: #d3d3d3"/>
   </g>
   <g id="patch_4">
    <path d="M 74.865625 77.758125 
L 86.025625 77.758125 
L 86.025625 75.627183 
L 74.865625 75.627183 
z
" clip-path="url(#pdbadf82a43)" style="fill: #d3d3d3"/>
   </g>
   <g id="patch_5">
    <path d="M 97.185625 77.758125 
L 108.345625 77.758125 
L 108.345625 76.100726 
L 97.185625 76.100726 
z
" clip-path="url(#pdbadf82a43)" style="fill: #d3d3d3"/>
   </g>
   <g id="patch_6">
    <path d="M 119.505625 77.758125 
L 130.665625 77.758125 
L 130.665625 76.337497 
L 119.505625 76.337497 
z
" clip-path="url(#pdbadf82a43)" style="fill: #d3d3d3"/>
   </g>
   <g id="patch_7">
    <path d="M 141.825625 77.758125 
L 152.985625 77.758125 
L 152.985625 76.337497 
L 141.825625 76.337497 
z
" clip-path="url(#pdbadf82a43)" style="fill: #d3d3d3"/>
   </g>
   <g id="patch_8">
    <path d="M 164.145625 77.758125 
L 175.305625 77.758125 
L 175.305625 76.574268 
L 164.145625 76.574268 
z
" clip-path="url(#pdbadf82a43)" style="fill: #d3d3d3"/>
   </g>
   <g id="patch_9">
    <path d="M 186.465625 77.758125 
L 197.625625 77.758125 
L 197.625625 77.284582 
L 186.465625 77.284582 
z
" clip-path="url(#pdbadf82a43)" style="fill: #d3d3d3"/>
   </g>
   <g id="patch_10">
    <path d="M 208.785625 77.758125 
L 219.945625 77.758125 
L 219.945625 77.284582 
L 208.785625 77.284582 
z
" clip-path="url(#pdbadf82a43)" style="fill: #d3d3d3"/>
   </g>
   <g id="patch_11">
    <path d="M 231.105625 77.758125 
L 242.265625 77.758125 
L 242.265625 77.284582 
L 231.105625 77.284582 
z
" clip-path="url(#pdbadf82a43)" style="fill: #d3d3d3"/>
   </g>
   <g id="patch_12">
    <path d="M 253.425625 77.758125 
L 264.585625 77.758125 
L 264.585625 77.284582 
L 253.425625 77.284582 
z
" clip-path="url(#pdbadf82a43)" style="fill: #d3d3d3"/>
   </g>
   <g id="matplotlib.axis_1">
    <g id="xtick_1">
     <g id="line2d_1">
      <defs>
       <path id="m71c999262e" d="M 0 0 
L 0 3.5 
" style="stroke: #000000; stroke-width: 0.8"/>
      </defs>
      <g>
       <use xlink:href="#m71c999262e" x="58.125625" y="77.758125" style="stroke: #000000; stroke-width: 0.8"/>
      </g>
     </g>
     <g id="text_1">
      <!-- {fluoroquinolone, quinolone} -->
      <g transform="translate(60.885 231.214375) rotate(-90) scale(0.1 -0.1)">
       <defs>
        <path id="DejaVuSans-7b" d="M 3272 -594 
L 3272 -1044 
L 3078 -1044 
Q 2300 -1044 2036 -812 
Q 1772 -581 1772 109 
L 1772 856 
Q 1772 1328 1603 1509 
Q 1434 1691 991 1691 
L 800 1691 
L 800 2138 
L 991 2138 
Q 1438 2138 1605 2317 
Q 1772 2497 1772 2963 
L 1772 3713 
Q 1772 4403 2036 4633 
Q 2300 4863 3078 4863 
L 3272 4863 
L 3272 4416 
L 3059 4416 
Q 2619 4416 2484 4278 
Q 2350 4141 2350 3700 
L 2350 2925 
Q 2350 2434 2208 2212 
Q 2066 1991 1722 1913 
Q 2069 1828 2209 1606 
Q 2350 1384 2350 897 
L 2350 122 
Q 2350 -319 2484 -456 
Q 2619 -594 3059 -594 
L 3272 -594 
z
" transform="scale(0.015625)"/>
        <path id="DejaVuSans-66" d="M 2375 4863 
L 2375 4384 
L 1825 4384 
Q 1516 4384 1395 4259 
Q 1275 4134 1275 3809 
L 1275 3500 
L 2222 3500 
L 2222 3053 
L 1275 3053 
L 1275 0 
L 697 0 
L 697 3053 
L 147 3053 
L 147 3500 
L 697 3500 
L 697 3744 
Q 697 4328 969 4595 
Q 1241 4863 1831 4863 
L 2375 4863 
z
" transform="scale(0.015625)"/>
        <path id="DejaVuSans-6c" d="M 603 4863 
L 1178 4863 
L 1178 0 
L 603 0 
L 603 4863 
z
" transform="scale(0.015625)"/>
        <path id="DejaVuSans-75" d="M 544 1381 
L 544 3500 
L 1119 3500 
L 1119 1403 
Q 1119 906 1312 657 
Q 1506 409 1894 409 
Q 2359 409 2629 706 
Q 2900 1003 2900 1516 
L 2900 3500 
L 3475 3500 
L 3475 0 
L 2900 0 
L 2900 538 
Q 2691 219 2414 64 
Q 2138 -91 1772 -91 
Q 1169 -91 856 284 
Q 544 659 544 1381 
z
M 1991 3584 
L 1991 3584 
z
" transform="scale(0.015625)"/>
        <path id="DejaVuSans-6f" d="M 1959 3097 
Q 1497 3097 1228 2736 
Q 959 2375 959 1747 
Q 959 1119 1226 758 
Q 1494 397 1959 397 
Q 2419 397 2687 759 
Q 2956 1122 2956 1747 
Q 2956 2369 2687 2733 
Q 2419 3097 1959 3097 
z
M 1959 3584 
Q 2709 3584 3137 3096 
Q 3566 2609 3566 1747 
Q 3566 888 3137 398 
Q 2709 -91 1959 -91 
Q 1206 -91 779 398 
Q 353 888 353 1747 
Q 353 2609 779 3096 
Q 1206 3584 1959 3584 
z
" transform="scale(0.015625)"/>
        <path id="DejaVuSans-72" d="M 2631 2963 
Q 2534 3019 2420 3045 
Q 2306 3072 2169 3072 
Q 1681 3072 1420 2755 
Q 1159 2438 1159 1844 
L 1159 0 
L 581 0 
L 581 3500 
L 1159 3500 
L 1159 2956 
Q 1341 3275 1631 3429 
Q 1922 3584 2338 3584 
Q 2397 3584 2469 3576 
Q 2541 3569 2628 3553 
L 2631 2963 
z
" transform="scale(0.015625)"/>
        <path id="DejaVuSans-71" d="M 947 1747 
Q 947 1113 1208 752 
Q 1469 391 1925 391 
Q 2381 391 2643 752 
Q 2906 1113 2906 1747 
Q 2906 2381 2643 2742 
Q 2381 3103 1925 3103 
Q 1469 3103 1208 2742 
Q 947 2381 947 1747 
z
M 2906 525 
Q 2725 213 2448 61 
Q 2172 -91 1784 -91 
Q 1150 -91 751 415 
Q 353 922 353 1747 
Q 353 2572 751 3078 
Q 1150 3584 1784 3584 
Q 2172 3584 2448 3432 
Q 2725 3281 2906 2969 
L 2906 3500 
L 3481 3500 
L 3481 -1331 
L 2906 -1331 
L 2906 525 
z
" transform="scale(0.015625)"/>
        <path id="DejaVuSans-69" d="M 603 3500 
L 1178 3500 
L 1178 0 
L 603 0 
L 603 3500 
z
M 603 4863 
L 1178 4863 
L 1178 4134 
L 603 4134 
L 603 4863 
z
" transform="scale(0.015625)"/>
        <path id="DejaVuSans-6e" d="M 3513 2113 
L 3513 0 
L 2938 0 
L 2938 2094 
Q 2938 2591 2744 2837 
Q 2550 3084 2163 3084 
Q 1697 3084 1428 2787 
Q 1159 2491 1159 1978 
L 1159 0 
L 581 0 
L 581 3500 
L 1159 3500 
L 1159 2956 
Q 1366 3272 1645 3428 
Q 1925 3584 2291 3584 
Q 2894 3584 3203 3211 
Q 3513 2838 3513 2113 
z
" transform="scale(0.015625)"/>
        <path id="DejaVuSans-65" d="M 3597 1894 
L 3597 1613 
L 953 1613 
Q 991 1019 1311 708 
Q 1631 397 2203 397 
Q 2534 397 2845 478 
Q 3156 559 3463 722 
L 3463 178 
Q 3153 47 2828 -22 
Q 2503 -91 2169 -91 
Q 1331 -91 842 396 
Q 353 884 353 1716 
Q 353 2575 817 3079 
Q 1281 3584 2069 3584 
Q 2775 3584 3186 3129 
Q 3597 2675 3597 1894 
z
M 3022 2063 
Q 3016 2534 2758 2815 
Q 2500 3097 2075 3097 
Q 1594 3097 1305 2825 
Q 1016 2553 972 2059 
L 3022 2063 
z
" transform="scale(0.015625)"/>
        <path id="DejaVuSans-2c" d="M 750 794 
L 1409 794 
L 1409 256 
L 897 -744 
L 494 -744 
L 750 256 
L 750 794 
z
" transform="scale(0.015625)"/>
        <path id="DejaVuSans-20" transform="scale(0.015625)"/>
        <path id="DejaVuSans-7d" d="M 800 -594 
L 1019 -594 
Q 1456 -594 1589 -459 
Q 1722 -325 1722 122 
L 1722 897 
Q 1722 1384 1862 1606 
Q 2003 1828 2350 1913 
Q 2003 1991 1862 2212 
Q 1722 2434 1722 2925 
L 1722 3700 
Q 1722 4144 1589 4280 
Q 1456 4416 1019 4416 
L 800 4416 
L 800 4863 
L 997 4863 
Q 1775 4863 2036 4633 
Q 2297 4403 2297 3713 
L 2297 2963 
Q 2297 2497 2465 2317 
Q 2634 2138 3078 2138 
L 3272 2138 
L 3272 1691 
L 3078 1691 
Q 2634 1691 2465 1509 
Q 2297 1328 2297 856 
L 2297 109 
Q 2297 -581 2036 -812 
Q 1775 -1044 997 -1044 
L 800 -1044 
L 800 -594 
z
" transform="scale(0.015625)"/>
       </defs>
       <use xlink:href="#DejaVuSans-7b"/>
       <use xlink:href="#DejaVuSans-66" transform="translate(63.623047 0)"/>
       <use xlink:href="#DejaVuSans-6c" transform="translate(98.828125 0)"/>
       <use xlink:href="#DejaVuSans-75" transform="translate(126.611328 0)"/>
       <use xlink:href="#DejaVuSans-6f" transform="translate(189.990234 0)"/>
       <use xlink:href="#DejaVuSans-72" transform="translate(251.171875 0)"/>
       <use xlink:href="#DejaVuSans-6f" transform="translate(290.035156 0)"/>
       <use xlink:href="#DejaVuSans-71" transform="translate(351.216797 0)"/>
       <use xlink:href="#DejaVuSans-75" transform="translate(414.693359 0)"/>
       <use xlink:href="#DejaVuSans-69" transform="translate(478.072266 0)"/>
       <use xlink:href="#DejaVuSans-6e" transform="translate(505.855469 0)"/>
       <use xlink:href="#DejaVuSans-6f" transform="translate(569.234375 0)"/>
       <use xlink:href="#DejaVuSans-6c" transform="translate(630.416016 0)"/>
       <use xlink:href="#DejaVuSans-6f" transform="translate(658.199219 0)"/>
       <use xlink:href="#DejaVuSans-6e" transform="translate(719.380859 0)"/>
       <use xlink:href="#DejaVuSans-65" transform="translate(782.759766 0)"/>
       <use xlink:href="#DejaVuSans-2c" transform="translate(844.283203 0)"/>
       <use xlink:href="#DejaVuSans-20" transform="translate(876.070312 0)"/>
       <use xlink:href="#DejaVuSans-71" transform="translate(907.857422 0)"/>
       <use xlink:href="#DejaVuSans-75" transform="translate(971.333984 0)"/>
       <use xlink:href="#DejaVuSans-69" transform="translate(1034.712891 0)"/>
       <use xlink:href="#DejaVuSans-6e" transform="translate(1062.496094 0)"/>
       <use xlink:href="#DejaVuSans-6f" transform="translate(1125.875 0)"/>
       <use xlink:href="#DejaVuSans-6c" transform="translate(1187.056641 0)"/>
       <use xlink:href="#DejaVuSans-6f" transform="translate(1214.839844 0)"/>
       <use xlink:href="#DejaVuSans-6e" transform="translate(1276.021484 0)"/>
       <use xlink:href="#DejaVuSans-65" transform="translate(1339.400391 0)"/>
       <use xlink:href="#DejaVuSans-7d" transform="translate(1400.923828 0)"/>
      </g>
     </g>
    </g>
    <g id="xtick_2">
     <g id="line2d_2">
      <g>
       <use xlink:href="#m71c999262e" x="80.445625" y="77.758125" style="stroke: #000000; stroke-width: 0.8"/>
      </g>
     </g>
     <g id="text_2">
      <!-- {multidrug, fluoroquinolone, quinolone} -->
      <g transform="translate(83.205 286.270625) rotate(-90) scale(0.1 -0.1)">
       <defs>
        <path id="DejaVuSans-6d" d="M 3328 2828 
Q 3544 3216 3844 3400 
Q 4144 3584 4550 3584 
Q 5097 3584 5394 3201 
Q 5691 2819 5691 2113 
L 5691 0 
L 5113 0 
L 5113 2094 
Q 5113 2597 4934 2840 
Q 4756 3084 4391 3084 
Q 3944 3084 3684 2787 
Q 3425 2491 3425 1978 
L 3425 0 
L 2847 0 
L 2847 2094 
Q 2847 2600 2669 2842 
Q 2491 3084 2119 3084 
Q 1678 3084 1418 2786 
Q 1159 2488 1159 1978 
L 1159 0 
L 581 0 
L 581 3500 
L 1159 3500 
L 1159 2956 
Q 1356 3278 1631 3431 
Q 1906 3584 2284 3584 
Q 2666 3584 2933 3390 
Q 3200 3197 3328 2828 
z
" transform="scale(0.015625)"/>
        <path id="DejaVuSans-74" d="M 1172 4494 
L 1172 3500 
L 2356 3500 
L 2356 3053 
L 1172 3053 
L 1172 1153 
Q 1172 725 1289 603 
Q 1406 481 1766 481 
L 2356 481 
L 2356 0 
L 1766 0 
Q 1100 0 847 248 
Q 594 497 594 1153 
L 594 3053 
L 172 3053 
L 172 3500 
L 594 3500 
L 594 4494 
L 1172 4494 
z
" transform="scale(0.015625)"/>
        <path id="DejaVuSans-64" d="M 2906 2969 
L 2906 4863 
L 3481 4863 
L 3481 0 
L 2906 0 
L 2906 525 
Q 2725 213 2448 61 
Q 2172 -91 1784 -91 
Q 1150 -91 751 415 
Q 353 922 353 1747 
Q 353 2572 751 3078 
Q 1150 3584 1784 3584 
Q 2172 3584 2448 3432 
Q 2725 3281 2906 2969 
z
M 947 1747 
Q 947 1113 1208 752 
Q 1469 391 1925 391 
Q 2381 391 2643 752 
Q 2906 1113 2906 1747 
Q 2906 2381 2643 2742 
Q 2381 3103 1925 3103 
Q 1469 3103 1208 2742 
Q 947 2381 947 1747 
z
" transform="scale(0.015625)"/>
        <path id="DejaVuSans-67" d="M 2906 1791 
Q 2906 2416 2648 2759 
Q 2391 3103 1925 3103 
Q 1463 3103 1205 2759 
Q 947 2416 947 1791 
Q 947 1169 1205 825 
Q 1463 481 1925 481 
Q 2391 481 2648 825 
Q 2906 1169 2906 1791 
z
M 3481 434 
Q 3481 -459 3084 -895 
Q 2688 -1331 1869 -1331 
Q 1566 -1331 1297 -1286 
Q 1028 -1241 775 -1147 
L 775 -588 
Q 1028 -725 1275 -790 
Q 1522 -856 1778 -856 
Q 2344 -856 2625 -561 
Q 2906 -266 2906 331 
L 2906 616 
Q 2728 306 2450 153 
Q 2172 0 1784 0 
Q 1141 0 747 490 
Q 353 981 353 1791 
Q 353 2603 747 3093 
Q 1141 3584 1784 3584 
Q 2172 3584 2450 3431 
Q 2728 3278 2906 2969 
L 2906 3500 
L 3481 3500 
L 3481 434 
z
" transform="scale(0.015625)"/>
       </defs>
       <use xlink:href="#DejaVuSans-7b"/>
       <use xlink:href="#DejaVuSans-6d" transform="translate(63.623047 0)"/>
       <use xlink:href="#DejaVuSans-75" transform="translate(161.035156 0)"/>
       <use xlink:href="#DejaVuSans-6c" transform="translate(224.414062 0)"/>
       <use xlink:href="#DejaVuSans-74" transform="translate(252.197266 0)"/>
       <use xlink:href="#DejaVuSans-69" transform="translate(291.40625 0)"/>
       <use xlink:href="#DejaVuSans-64" transform="translate(319.189453 0)"/>
       <use xlink:href="#DejaVuSans-72" transform="translate(382.666016 0)"/>
       <use xlink:href="#DejaVuSans-75" transform="translate(423.779297 0)"/>
       <use xlink:href="#DejaVuSans-67" transform="translate(487.158203 0)"/>
       <use xlink:href="#DejaVuSans-2c" transform="translate(550.634766 0)"/>
       <use xlink:href="#DejaVuSans-20" transform="translate(582.421875 0)"/>
       <use xlink:href="#DejaVuSans-66" transform="translate(614.208984 0)"/>
       <use xlink:href="#DejaVuSans-6c" transform="translate(649.414062 0)"/>
       <use xlink:href="#DejaVuSans-75" transform="translate(677.197266 0)"/>
       <use xlink:href="#DejaVuSans-6f" transform="translate(740.576172 0)"/>
       <use xlink:href="#DejaVuSans-72" transform="translate(801.757812 0)"/>
       <use xlink:href="#DejaVuSans-6f" transform="translate(840.621094 0)"/>
       <use xlink:href="#DejaVuSans-71" transform="translate(901.802734 0)"/>
       <use xlink:href="#DejaVuSans-75" transform="translate(965.279297 0)"/>
       <use xlink:href="#DejaVuSans-69" transform="translate(1028.658203 0)"/>
       <use xlink:href="#DejaVuSans-6e" transform="translate(1056.441406 0)"/>
       <use xlink:href="#DejaVuSans-6f" transform="translate(1119.820312 0)"/>
       <use xlink:href="#DejaVuSans-6c" transform="translate(1181.001953 0)"/>
       <use xlink:href="#DejaVuSans-6f" transform="translate(1208.785156 0)"/>
       <use xlink:href="#DejaVuSans-6e" transform="translate(1269.966797 0)"/>
       <use xlink:href="#DejaVuSans-65" transform="translate(1333.345703 0)"/>
       <use xlink:href="#DejaVuSans-2c" transform="translate(1394.869141 0)"/>
       <use xlink:href="#DejaVuSans-20" transform="translate(1426.65625 0)"/>
       <use xlink:href="#DejaVuSans-71" transform="translate(1458.443359 0)"/>
       <use xlink:href="#DejaVuSans-75" transform="translate(1521.919922 0)"/>
       <use xlink:href="#DejaVuSans-69" transform="translate(1585.298828 0)"/>
       <use xlink:href="#DejaVuSans-6e" transform="translate(1613.082031 0)"/>
       <use xlink:href="#DejaVuSans-6f" transform="translate(1676.460938 0)"/>
       <use xlink:href="#DejaVuSans-6c" transform="translate(1737.642578 0)"/>
       <use xlink:href="#DejaVuSans-6f" transform="translate(1765.425781 0)"/>
       <use xlink:href="#DejaVuSans-6e" transform="translate(1826.607422 0)"/>
       <use xlink:href="#DejaVuSans-65" transform="translate(1889.986328 0)"/>
       <use xlink:href="#DejaVuSans-7d" transform="translate(1951.509766 0)"/>
      </g>
     </g>
    </g>
    <g id="xtick_3">
     <g id="line2d_3">
      <g>
       <use xlink:href="#m71c999262e" x="102.765625" y="77.758125" style="stroke: #000000; stroke-width: 0.8"/>
      </g>
     </g>
     <g id="text_3">
      <!-- {quaternary ammonium, quinolone} -->
      <g transform="translate(105.525 268.565938) rotate(-90) scale(0.1 -0.1)">
       <defs>
        <path id="DejaVuSans-61" d="M 2194 1759 
Q 1497 1759 1228 1600 
Q 959 1441 959 1056 
Q 959 750 1161 570 
Q 1363 391 1709 391 
Q 2188 391 2477 730 
Q 2766 1069 2766 1631 
L 2766 1759 
L 2194 1759 
z
M 3341 1997 
L 3341 0 
L 2766 0 
L 2766 531 
Q 2569 213 2275 61 
Q 1981 -91 1556 -91 
Q 1019 -91 701 211 
Q 384 513 384 1019 
Q 384 1609 779 1909 
Q 1175 2209 1959 2209 
L 2766 2209 
L 2766 2266 
Q 2766 2663 2505 2880 
Q 2244 3097 1772 3097 
Q 1472 3097 1187 3025 
Q 903 2953 641 2809 
L 641 3341 
Q 956 3463 1253 3523 
Q 1550 3584 1831 3584 
Q 2591 3584 2966 3190 
Q 3341 2797 3341 1997 
z
" transform="scale(0.015625)"/>
        <path id="DejaVuSans-79" d="M 2059 -325 
Q 1816 -950 1584 -1140 
Q 1353 -1331 966 -1331 
L 506 -1331 
L 506 -850 
L 844 -850 
Q 1081 -850 1212 -737 
Q 1344 -625 1503 -206 
L 1606 56 
L 191 3500 
L 800 3500 
L 1894 763 
L 2988 3500 
L 3597 3500 
L 2059 -325 
z
" transform="scale(0.015625)"/>
       </defs>
       <use xlink:href="#DejaVuSans-7b"/>
       <use xlink:href="#DejaVuSans-71" transform="translate(63.623047 0)"/>
       <use xlink:href="#DejaVuSans-75" transform="translate(127.099609 0)"/>
       <use xlink:href="#DejaVuSans-61" transform="translate(190.478516 0)"/>
       <use xlink:href="#DejaVuSans-74" transform="translate(251.757812 0)"/>
       <use xlink:href="#DejaVuSans-65" transform="translate(290.966797 0)"/>
       <use xlink:href="#DejaVuSans-72" transform="translate(352.490234 0)"/>
       <use xlink:href="#DejaVuSans-6e" transform="translate(391.853516 0)"/>
       <use xlink:href="#DejaVuSans-61" transform="translate(455.232422 0)"/>
       <use xlink:href="#DejaVuSans-72" transform="translate(516.511719 0)"/>
       <use xlink:href="#DejaVuSans-79" transform="translate(557.625 0)"/>
       <use xlink:href="#DejaVuSans-20" transform="translate(616.804688 0)"/>
       <use xlink:href="#DejaVuSans-61" transform="translate(648.591797 0)"/>
       <use xlink:href="#DejaVuSans-6d" transform="translate(709.871094 0)"/>
       <use xlink:href="#DejaVuSans-6d" transform="translate(807.283203 0)"/>
       <use xlink:href="#DejaVuSans-6f" transform="translate(904.695312 0)"/>
       <use xlink:href="#DejaVuSans-6e" transform="translate(965.876953 0)"/>
       <use xlink:href="#DejaVuSans-69" transform="translate(1029.255859 0)"/>
       <use xlink:href="#DejaVuSans-75" transform="translate(1057.039062 0)"/>
       <use xlink:href="#DejaVuSans-6d" transform="translate(1120.417969 0)"/>
       <use xlink:href="#DejaVuSans-2c" transform="translate(1217.830078 0)"/>
       <use xlink:href="#DejaVuSans-20" transform="translate(1249.617188 0)"/>
       <use xlink:href="#DejaVuSans-71" transform="translate(1281.404297 0)"/>
       <use xlink:href="#DejaVuSans-75" transform="translate(1344.880859 0)"/>
       <use xlink:href="#DejaVuSans-69" transform="translate(1408.259766 0)"/>
       <use xlink:href="#DejaVuSans-6e" transform="translate(1436.042969 0)"/>
       <use xlink:href="#DejaVuSans-6f" transform="translate(1499.421875 0)"/>
       <use xlink:href="#DejaVuSans-6c" transform="translate(1560.603516 0)"/>
       <use xlink:href="#DejaVuSans-6f" transform="translate(1588.386719 0)"/>
       <use xlink:href="#DejaVuSans-6e" transform="translate(1649.568359 0)"/>
       <use xlink:href="#DejaVuSans-65" transform="translate(1712.947266 0)"/>
       <use xlink:href="#DejaVuSans-7d" transform="translate(1774.470703 0)"/>
      </g>
     </g>
    </g>
    <g id="xtick_4">
     <g id="line2d_4">
      <g>
       <use xlink:href="#m71c999262e" x="125.085625" y="77.758125" style="stroke: #000000; stroke-width: 0.8"/>
      </g>
     </g>
     <g id="text_4">
      <!-- {beta-lactam, fluoroquinolone, quinolone} -->
      <g transform="translate(127.845 297.922188) rotate(-90) scale(0.1 -0.1)">
       <defs>
        <path id="DejaVuSans-62" d="M 3116 1747 
Q 3116 2381 2855 2742 
Q 2594 3103 2138 3103 
Q 1681 3103 1420 2742 
Q 1159 2381 1159 1747 
Q 1159 1113 1420 752 
Q 1681 391 2138 391 
Q 2594 391 2855 752 
Q 3116 1113 3116 1747 
z
M 1159 2969 
Q 1341 3281 1617 3432 
Q 1894 3584 2278 3584 
Q 2916 3584 3314 3078 
Q 3713 2572 3713 1747 
Q 3713 922 3314 415 
Q 2916 -91 2278 -91 
Q 1894 -91 1617 61 
Q 1341 213 1159 525 
L 1159 0 
L 581 0 
L 581 4863 
L 1159 4863 
L 1159 2969 
z
" transform="scale(0.015625)"/>
        <path id="DejaVuSans-2d" d="M 313 2009 
L 1997 2009 
L 1997 1497 
L 313 1497 
L 313 2009 
z
" transform="scale(0.015625)"/>
        <path id="DejaVuSans-63" d="M 3122 3366 
L 3122 2828 
Q 2878 2963 2633 3030 
Q 2388 3097 2138 3097 
Q 1578 3097 1268 2742 
Q 959 2388 959 1747 
Q 959 1106 1268 751 
Q 1578 397 2138 397 
Q 2388 397 2633 464 
Q 2878 531 3122 666 
L 3122 134 
Q 2881 22 2623 -34 
Q 2366 -91 2075 -91 
Q 1284 -91 818 406 
Q 353 903 353 1747 
Q 353 2603 823 3093 
Q 1294 3584 2113 3584 
Q 2378 3584 2631 3529 
Q 2884 3475 3122 3366 
z
" transform="scale(0.015625)"/>
       </defs>
       <use xlink:href="#DejaVuSans-7b"/>
       <use xlink:href="#DejaVuSans-62" transform="translate(63.623047 0)"/>
       <use xlink:href="#DejaVuSans-65" transform="translate(127.099609 0)"/>
       <use xlink:href="#DejaVuSans-74" transform="translate(188.623047 0)"/>
       <use xlink:href="#DejaVuSans-61" transform="translate(227.832031 0)"/>
       <use xlink:href="#DejaVuSans-2d" transform="translate(289.111328 0)"/>
       <use xlink:href="#DejaVuSans-6c" transform="translate(325.195312 0)"/>
       <use xlink:href="#DejaVuSans-61" transform="translate(352.978516 0)"/>
       <use xlink:href="#DejaVuSans-63" transform="translate(414.257812 0)"/>
       <use xlink:href="#DejaVuSans-74" transform="translate(469.238281 0)"/>
       <use xlink:href="#DejaVuSans-61" transform="translate(508.447266 0)"/>
       <use xlink:href="#DejaVuSans-6d" transform="translate(569.726562 0)"/>
       <use xlink:href="#DejaVuSans-2c" transform="translate(667.138672 0)"/>
       <use xlink:href="#DejaVuSans-20" transform="translate(698.925781 0)"/>
       <use xlink:href="#DejaVuSans-66" transform="translate(730.712891 0)"/>
       <use xlink:href="#DejaVuSans-6c" transform="translate(765.917969 0)"/>
       <use xlink:href="#DejaVuSans-75" transform="translate(793.701172 0)"/>
       <use xlink:href="#DejaVuSans-6f" transform="translate(857.080078 0)"/>
       <use xlink:href="#DejaVuSans-72" transform="translate(918.261719 0)"/>
       <use xlink:href="#DejaVuSans-6f" transform="translate(957.125 0)"/>
       <use xlink:href="#DejaVuSans-71" transform="translate(1018.306641 0)"/>
       <use xlink:href="#DejaVuSans-75" transform="translate(1081.783203 0)"/>
       <use xlink:href="#DejaVuSans-69" transform="translate(1145.162109 0)"/>
       <use xlink:href="#DejaVuSans-6e" transform="translate(1172.945312 0)"/>
       <use xlink:href="#DejaVuSans-6f" transform="translate(1236.324219 0)"/>
       <use xlink:href="#DejaVuSans-6c" transform="translate(1297.505859 0)"/>
       <use xlink:href="#DejaVuSans-6f" transform="translate(1325.289062 0)"/>
       <use xlink:href="#DejaVuSans-6e" transform="translate(1386.470703 0)"/>
       <use xlink:href="#DejaVuSans-65" transform="translate(1449.849609 0)"/>
       <use xlink:href="#DejaVuSans-2c" transform="translate(1511.373047 0)"/>
       <use xlink:href="#DejaVuSans-20" transform="translate(1543.160156 0)"/>
       <use xlink:href="#DejaVuSans-71" transform="translate(1574.947266 0)"/>
       <use xlink:href="#DejaVuSans-75" transform="translate(1638.423828 0)"/>
       <use xlink:href="#DejaVuSans-69" transform="translate(1701.802734 0)"/>
       <use xlink:href="#DejaVuSans-6e" transform="translate(1729.585938 0)"/>
       <use xlink:href="#DejaVuSans-6f" transform="translate(1792.964844 0)"/>
       <use xlink:href="#DejaVuSans-6c" transform="translate(1854.146484 0)"/>
       <use xlink:href="#DejaVuSans-6f" transform="translate(1881.929688 0)"/>
       <use xlink:href="#DejaVuSans-6e" transform="translate(1943.111328 0)"/>
       <use xlink:href="#DejaVuSans-65" transform="translate(2006.490234 0)"/>
       <use xlink:href="#DejaVuSans-7d" transform="translate(2068.013672 0)"/>
      </g>
     </g>
    </g>
    <g id="xtick_5">
     <g id="line2d_5">
      <g>
       <use xlink:href="#m71c999262e" x="147.405625" y="77.758125" style="stroke: #000000; stroke-width: 0.8"/>
      </g>
     </g>
     <g id="text_5">
      <!-- {disinfecting agents and antiseptic, quinolone} -->
      <g transform="translate(150.165 322.672188) rotate(-90) scale(0.1 -0.1)">
       <defs>
        <path id="DejaVuSans-73" d="M 2834 3397 
L 2834 2853 
Q 2591 2978 2328 3040 
Q 2066 3103 1784 3103 
Q 1356 3103 1142 2972 
Q 928 2841 928 2578 
Q 928 2378 1081 2264 
Q 1234 2150 1697 2047 
L 1894 2003 
Q 2506 1872 2764 1633 
Q 3022 1394 3022 966 
Q 3022 478 2636 193 
Q 2250 -91 1575 -91 
Q 1294 -91 989 -36 
Q 684 19 347 128 
L 347 722 
Q 666 556 975 473 
Q 1284 391 1588 391 
Q 1994 391 2212 530 
Q 2431 669 2431 922 
Q 2431 1156 2273 1281 
Q 2116 1406 1581 1522 
L 1381 1569 
Q 847 1681 609 1914 
Q 372 2147 372 2553 
Q 372 3047 722 3315 
Q 1072 3584 1716 3584 
Q 2034 3584 2315 3537 
Q 2597 3491 2834 3397 
z
" transform="scale(0.015625)"/>
        <path id="DejaVuSans-70" d="M 1159 525 
L 1159 -1331 
L 581 -1331 
L 581 3500 
L 1159 3500 
L 1159 2969 
Q 1341 3281 1617 3432 
Q 1894 3584 2278 3584 
Q 2916 3584 3314 3078 
Q 3713 2572 3713 1747 
Q 3713 922 3314 415 
Q 2916 -91 2278 -91 
Q 1894 -91 1617 61 
Q 1341 213 1159 525 
z
M 3116 1747 
Q 3116 2381 2855 2742 
Q 2594 3103 2138 3103 
Q 1681 3103 1420 2742 
Q 1159 2381 1159 1747 
Q 1159 1113 1420 752 
Q 1681 391 2138 391 
Q 2594 391 2855 752 
Q 3116 1113 3116 1747 
z
" transform="scale(0.015625)"/>
       </defs>
       <use xlink:href="#DejaVuSans-7b"/>
       <use xlink:href="#DejaVuSans-64" transform="translate(63.623047 0)"/>
       <use xlink:href="#DejaVuSans-69" transform="translate(127.099609 0)"/>
       <use xlink:href="#DejaVuSans-73" transform="translate(154.882812 0)"/>
       <use xlink:href="#DejaVuSans-69" transform="translate(206.982422 0)"/>
       <use xlink:href="#DejaVuSans-6e" transform="translate(234.765625 0)"/>
       <use xlink:href="#DejaVuSans-66" transform="translate(298.144531 0)"/>
       <use xlink:href="#DejaVuSans-65" transform="translate(333.349609 0)"/>
       <use xlink:href="#DejaVuSans-63" transform="translate(394.873047 0)"/>
       <use xlink:href="#DejaVuSans-74" transform="translate(449.853516 0)"/>
       <use xlink:href="#DejaVuSans-69" transform="translate(489.0625 0)"/>
       <use xlink:href="#DejaVuSans-6e" transform="translate(516.845703 0)"/>
       <use xlink:href="#DejaVuSans-67" transform="translate(580.224609 0)"/>
       <use xlink:href="#DejaVuSans-20" transform="translate(643.701172 0)"/>
       <use xlink:href="#DejaVuSans-61" transform="translate(675.488281 0)"/>
       <use xlink:href="#DejaVuSans-67" transform="translate(736.767578 0)"/>
       <use xlink:href="#DejaVuSans-65" transform="translate(800.244141 0)"/>
       <use xlink:href="#DejaVuSans-6e" transform="translate(861.767578 0)"/>
       <use xlink:href="#DejaVuSans-74" transform="translate(925.146484 0)"/>
       <use xlink:href="#DejaVuSans-73" transform="translate(964.355469 0)"/>
       <use xlink:href="#DejaVuSans-20" transform="translate(1016.455078 0)"/>
       <use xlink:href="#DejaVuSans-61" transform="translate(1048.242188 0)"/>
       <use xlink:href="#DejaVuSans-6e" transform="translate(1109.521484 0)"/>
       <use xlink:href="#DejaVuSans-64" transform="translate(1172.900391 0)"/>
       <use xlink:href="#DejaVuSans-20" transform="translate(1236.376953 0)"/>
       <use xlink:href="#DejaVuSans-61" transform="translate(1268.164062 0)"/>
       <use xlink:href="#DejaVuSans-6e" transform="translate(1329.443359 0)"/>
       <use xlink:href="#DejaVuSans-74" transform="translate(1392.822266 0)"/>
       <use xlink:href="#DejaVuSans-69" transform="translate(1432.03125 0)"/>
       <use xlink:href="#DejaVuSans-73" transform="translate(1459.814453 0)"/>
       <use xlink:href="#DejaVuSans-65" transform="translate(1511.914062 0)"/>
       <use xlink:href="#DejaVuSans-70" transform="translate(1573.4375 0)"/>
       <use xlink:href="#DejaVuSans-74" transform="translate(1636.914062 0)"/>
       <use xlink:href="#DejaVuSans-69" transform="translate(1676.123047 0)"/>
       <use xlink:href="#DejaVuSans-63" transform="translate(1703.90625 0)"/>
       <use xlink:href="#DejaVuSans-2c" transform="translate(1758.886719 0)"/>
       <use xlink:href="#DejaVuSans-20" transform="translate(1790.673828 0)"/>
       <use xlink:href="#DejaVuSans-71" transform="translate(1822.460938 0)"/>
       <use xlink:href="#DejaVuSans-75" transform="translate(1885.9375 0)"/>
       <use xlink:href="#DejaVuSans-69" transform="translate(1949.316406 0)"/>
       <use xlink:href="#DejaVuSans-6e" transform="translate(1977.099609 0)"/>
       <use xlink:href="#DejaVuSans-6f" transform="translate(2040.478516 0)"/>
       <use xlink:href="#DejaVuSans-6c" transform="translate(2101.660156 0)"/>
       <use xlink:href="#DejaVuSans-6f" transform="translate(2129.443359 0)"/>
       <use xlink:href="#DejaVuSans-6e" transform="translate(2190.625 0)"/>
       <use xlink:href="#DejaVuSans-65" transform="translate(2254.003906 0)"/>
       <use xlink:href="#DejaVuSans-7d" transform="translate(2315.527344 0)"/>
      </g>
     </g>
    </g>
    <g id="xtick_6">
     <g id="line2d_6">
      <g>
       <use xlink:href="#m71c999262e" x="169.725625" y="77.758125" style="stroke: #000000; stroke-width: 0.8"/>
      </g>
     </g>
     <g id="text_6">
      <!-- {quaternary ammonium, disinfecting agents and antiseptic, quinolone} -->
      <g transform="translate(172.485 444.447188) rotate(-90) scale(0.1 -0.1)">
       <use xlink:href="#DejaVuSans-7b"/>
       <use xlink:href="#DejaVuSans-71" transform="translate(63.623047 0)"/>
       <use xlink:href="#DejaVuSans-75" transform="translate(127.099609 0)"/>
       <use xlink:href="#DejaVuSans-61" transform="translate(190.478516 0)"/>
       <use xlink:href="#DejaVuSans-74" transform="translate(251.757812 0)"/>
       <use xlink:href="#DejaVuSans-65" transform="translate(290.966797 0)"/>
       <use xlink:href="#DejaVuSans-72" transform="translate(352.490234 0)"/>
       <use xlink:href="#DejaVuSans-6e" transform="translate(391.853516 0)"/>
       <use xlink:href="#DejaVuSans-61" transform="translate(455.232422 0)"/>
       <use xlink:href="#DejaVuSans-72" transform="translate(516.511719 0)"/>
       <use xlink:href="#DejaVuSans-79" transform="translate(557.625 0)"/>
       <use xlink:href="#DejaVuSans-20" transform="translate(616.804688 0)"/>
       <use xlink:href="#DejaVuSans-61" transform="translate(648.591797 0)"/>
       <use xlink:href="#DejaVuSans-6d" transform="translate(709.871094 0)"/>
       <use xlink:href="#DejaVuSans-6d" transform="translate(807.283203 0)"/>
       <use xlink:href="#DejaVuSans-6f" transform="translate(904.695312 0)"/>
       <use xlink:href="#DejaVuSans-6e" transform="translate(965.876953 0)"/>
       <use xlink:href="#DejaVuSans-69" transform="translate(1029.255859 0)"/>
       <use xlink:href="#DejaVuSans-75" transform="translate(1057.039062 0)"/>
       <use xlink:href="#DejaVuSans-6d" transform="translate(1120.417969 0)"/>
       <use xlink:href="#DejaVuSans-2c" transform="translate(1217.830078 0)"/>
       <use xlink:href="#DejaVuSans-20" transform="translate(1249.617188 0)"/>
       <use xlink:href="#DejaVuSans-64" transform="translate(1281.404297 0)"/>
       <use xlink:href="#DejaVuSans-69" transform="translate(1344.880859 0)"/>
       <use xlink:href="#DejaVuSans-73" transform="translate(1372.664062 0)"/>
       <use xlink:href="#DejaVuSans-69" transform="translate(1424.763672 0)"/>
       <use xlink:href="#DejaVuSans-6e" transform="translate(1452.546875 0)"/>
       <use xlink:href="#DejaVuSans-66" transform="translate(1515.925781 0)"/>
       <use xlink:href="#DejaVuSans-65" transform="translate(1551.130859 0)"/>
       <use xlink:href="#DejaVuSans-63" transform="translate(1612.654297 0)"/>
       <use xlink:href="#DejaVuSans-74" transform="translate(1667.634766 0)"/>
       <use xlink:href="#DejaVuSans-69" transform="translate(1706.84375 0)"/>
       <use xlink:href="#DejaVuSans-6e" transform="translate(1734.626953 0)"/>
       <use xlink:href="#DejaVuSans-67" transform="translate(1798.005859 0)"/>
       <use xlink:href="#DejaVuSans-20" transform="translate(1861.482422 0)"/>
       <use xlink:href="#DejaVuSans-61" transform="translate(1893.269531 0)"/>
       <use xlink:href="#DejaVuSans-67" transform="translate(1954.548828 0)"/>
       <use xlink:href="#DejaVuSans-65" transform="translate(2018.025391 0)"/>
       <use xlink:href="#DejaVuSans-6e" transform="translate(2079.548828 0)"/>
       <use xlink:href="#DejaVuSans-74" transform="translate(2142.927734 0)"/>
       <use xlink:href="#DejaVuSans-73" transform="translate(2182.136719 0)"/>
       <use xlink:href="#DejaVuSans-20" transform="translate(2234.236328 0)"/>
       <use xlink:href="#DejaVuSans-61" transform="translate(2266.023438 0)"/>
       <use xlink:href="#DejaVuSans-6e" transform="translate(2327.302734 0)"/>
       <use xlink:href="#DejaVuSans-64" transform="translate(2390.681641 0)"/>
       <use xlink:href="#DejaVuSans-20" transform="translate(2454.158203 0)"/>
       <use xlink:href="#DejaVuSans-61" transform="translate(2485.945312 0)"/>
       <use xlink:href="#DejaVuSans-6e" transform="translate(2547.224609 0)"/>
       <use xlink:href="#DejaVuSans-74" transform="translate(2610.603516 0)"/>
       <use xlink:href="#DejaVuSans-69" transform="translate(2649.8125 0)"/>
       <use xlink:href="#DejaVuSans-73" transform="translate(2677.595703 0)"/>
       <use xlink:href="#DejaVuSans-65" transform="translate(2729.695312 0)"/>
       <use xlink:href="#DejaVuSans-70" transform="translate(2791.21875 0)"/>
       <use xlink:href="#DejaVuSans-74" transform="translate(2854.695312 0)"/>
       <use xlink:href="#DejaVuSans-69" transform="translate(2893.904297 0)"/>
       <use xlink:href="#DejaVuSans-63" transform="translate(2921.6875 0)"/>
       <use xlink:href="#DejaVuSans-2c" transform="translate(2976.667969 0)"/>
       <use xlink:href="#DejaVuSans-20" transform="translate(3008.455078 0)"/>
       <use xlink:href="#DejaVuSans-71" transform="translate(3040.242188 0)"/>
       <use xlink:href="#DejaVuSans-75" transform="translate(3103.71875 0)"/>
       <use xlink:href="#DejaVuSans-69" transform="translate(3167.097656 0)"/>
       <use xlink:href="#DejaVuSans-6e" transform="translate(3194.880859 0)"/>
       <use xlink:href="#DejaVuSans-6f" transform="translate(3258.259766 0)"/>
       <use xlink:href="#DejaVuSans-6c" transform="translate(3319.441406 0)"/>
       <use xlink:href="#DejaVuSans-6f" transform="translate(3347.224609 0)"/>
       <use xlink:href="#DejaVuSans-6e" transform="translate(3408.40625 0)"/>
       <use xlink:href="#DejaVuSans-65" transform="translate(3471.785156 0)"/>
       <use xlink:href="#DejaVuSans-7d" transform="translate(3533.308594 0)"/>
      </g>
     </g>
    </g>
    <g id="xtick_7">
     <g id="line2d_7">
      <g>
       <use xlink:href="#m71c999262e" x="192.045625" y="77.758125" style="stroke: #000000; stroke-width: 0.8"/>
      </g>
     </g>
     <g id="text_7">
      <!-- {fosfomycin, fluoroquinolone, quinolone} -->
      <g transform="translate(194.805 292.331563) rotate(-90) scale(0.1 -0.1)">
       <use xlink:href="#DejaVuSans-7b"/>
       <use xlink:href="#DejaVuSans-66" transform="translate(63.623047 0)"/>
       <use xlink:href="#DejaVuSans-6f" transform="translate(98.828125 0)"/>
       <use xlink:href="#DejaVuSans-73" transform="translate(160.009766 0)"/>
       <use xlink:href="#DejaVuSans-66" transform="translate(212.109375 0)"/>
       <use xlink:href="#DejaVuSans-6f" transform="translate(247.314453 0)"/>
       <use xlink:href="#DejaVuSans-6d" transform="translate(308.496094 0)"/>
       <use xlink:href="#DejaVuSans-79" transform="translate(405.908203 0)"/>
       <use xlink:href="#DejaVuSans-63" transform="translate(465.087891 0)"/>
       <use xlink:href="#DejaVuSans-69" transform="translate(520.068359 0)"/>
       <use xlink:href="#DejaVuSans-6e" transform="translate(547.851562 0)"/>
       <use xlink:href="#DejaVuSans-2c" transform="translate(611.230469 0)"/>
       <use xlink:href="#DejaVuSans-20" transform="translate(643.017578 0)"/>
       <use xlink:href="#DejaVuSans-66" transform="translate(674.804688 0)"/>
       <use xlink:href="#DejaVuSans-6c" transform="translate(710.009766 0)"/>
       <use xlink:href="#DejaVuSans-75" transform="translate(737.792969 0)"/>
       <use xlink:href="#DejaVuSans-6f" transform="translate(801.171875 0)"/>
       <use xlink:href="#DejaVuSans-72" transform="translate(862.353516 0)"/>
       <use xlink:href="#DejaVuSans-6f" transform="translate(901.216797 0)"/>
       <use xlink:href="#DejaVuSans-71" transform="translate(962.398438 0)"/>
       <use xlink:href="#DejaVuSans-75" transform="translate(1025.875 0)"/>
       <use xlink:href="#DejaVuSans-69" transform="translate(1089.253906 0)"/>
       <use xlink:href="#DejaVuSans-6e" transform="translate(1117.037109 0)"/>
       <use xlink:href="#DejaVuSans-6f" transform="translate(1180.416016 0)"/>
       <use xlink:href="#DejaVuSans-6c" transform="translate(1241.597656 0)"/>
       <use xlink:href="#DejaVuSans-6f" transform="translate(1269.380859 0)"/>
       <use xlink:href="#DejaVuSans-6e" transform="translate(1330.5625 0)"/>
       <use xlink:href="#DejaVuSans-65" transform="translate(1393.941406 0)"/>
       <use xlink:href="#DejaVuSans-2c" transform="translate(1455.464844 0)"/>
       <use xlink:href="#DejaVuSans-20" transform="translate(1487.251953 0)"/>
       <use xlink:href="#DejaVuSans-71" transform="translate(1519.039062 0)"/>
       <use xlink:href="#DejaVuSans-75" transform="translate(1582.515625 0)"/>
       <use xlink:href="#DejaVuSans-69" transform="translate(1645.894531 0)"/>
       <use xlink:href="#DejaVuSans-6e" transform="translate(1673.677734 0)"/>
       <use xlink:href="#DejaVuSans-6f" transform="translate(1737.056641 0)"/>
       <use xlink:href="#DejaVuSans-6c" transform="translate(1798.238281 0)"/>
       <use xlink:href="#DejaVuSans-6f" transform="translate(1826.021484 0)"/>
       <use xlink:href="#DejaVuSans-6e" transform="translate(1887.203125 0)"/>
       <use xlink:href="#DejaVuSans-65" transform="translate(1950.582031 0)"/>
       <use xlink:href="#DejaVuSans-7d" transform="translate(2012.105469 0)"/>
      </g>
     </g>
    </g>
    <g id="xtick_8">
     <g id="line2d_8">
      <g>
       <use xlink:href="#m71c999262e" x="214.365625" y="77.758125" style="stroke: #000000; stroke-width: 0.8"/>
      </g>
     </g>
     <g id="text_8">
      <!-- {drug_and_biocide_resistance, multidrug, quinolone} -->
      <g transform="translate(216.985938 352.459688) rotate(-90) scale(0.1 -0.1)">
       <defs>
        <path id="DejaVuSans-5f" d="M 3263 -1063 
L 3263 -1509 
L -63 -1509 
L -63 -1063 
L 3263 -1063 
z
" transform="scale(0.015625)"/>
       </defs>
       <use xlink:href="#DejaVuSans-7b"/>
       <use xlink:href="#DejaVuSans-64" transform="translate(63.623047 0)"/>
       <use xlink:href="#DejaVuSans-72" transform="translate(127.099609 0)"/>
       <use xlink:href="#DejaVuSans-75" transform="translate(168.212891 0)"/>
       <use xlink:href="#DejaVuSans-67" transform="translate(231.591797 0)"/>
       <use xlink:href="#DejaVuSans-5f" transform="translate(295.068359 0)"/>
       <use xlink:href="#DejaVuSans-61" transform="translate(345.068359 0)"/>
       <use xlink:href="#DejaVuSans-6e" transform="translate(406.347656 0)"/>
       <use xlink:href="#DejaVuSans-64" transform="translate(469.726562 0)"/>
       <use xlink:href="#DejaVuSans-5f" transform="translate(533.203125 0)"/>
       <use xlink:href="#DejaVuSans-62" transform="translate(583.203125 0)"/>
       <use xlink:href="#DejaVuSans-69" transform="translate(646.679688 0)"/>
       <use xlink:href="#DejaVuSans-6f" transform="translate(674.462891 0)"/>
       <use xlink:href="#DejaVuSans-63" transform="translate(735.644531 0)"/>
       <use xlink:href="#DejaVuSans-69" transform="translate(790.625 0)"/>
       <use xlink:href="#DejaVuSans-64" transform="translate(818.408203 0)"/>
       <use xlink:href="#DejaVuSans-65" transform="translate(881.884766 0)"/>
       <use xlink:href="#DejaVuSans-5f" transform="translate(943.408203 0)"/>
       <use xlink:href="#DejaVuSans-72" transform="translate(993.408203 0)"/>
       <use xlink:href="#DejaVuSans-65" transform="translate(1032.271484 0)"/>
       <use xlink:href="#DejaVuSans-73" transform="translate(1093.794922 0)"/>
       <use xlink:href="#DejaVuSans-69" transform="translate(1145.894531 0)"/>
       <use xlink:href="#DejaVuSans-73" transform="translate(1173.677734 0)"/>
       <use xlink:href="#DejaVuSans-74" transform="translate(1225.777344 0)"/>
       <use xlink:href="#DejaVuSans-61" transform="translate(1264.986328 0)"/>
       <use xlink:href="#DejaVuSans-6e" transform="translate(1326.265625 0)"/>
       <use xlink:href="#DejaVuSans-63" transform="translate(1389.644531 0)"/>
       <use xlink:href="#DejaVuSans-65" transform="translate(1444.625 0)"/>
       <use xlink:href="#DejaVuSans-2c" transform="translate(1506.148438 0)"/>
       <use xlink:href="#DejaVuSans-20" transform="translate(1537.935547 0)"/>
       <use xlink:href="#DejaVuSans-6d" transform="translate(1569.722656 0)"/>
       <use xlink:href="#DejaVuSans-75" transform="translate(1667.134766 0)"/>
       <use xlink:href="#DejaVuSans-6c" transform="translate(1730.513672 0)"/>
       <use xlink:href="#DejaVuSans-74" transform="translate(1758.296875 0)"/>
       <use xlink:href="#DejaVuSans-69" transform="translate(1797.505859 0)"/>
       <use xlink:href="#DejaVuSans-64" transform="translate(1825.289062 0)"/>
       <use xlink:href="#DejaVuSans-72" transform="translate(1888.765625 0)"/>
       <use xlink:href="#DejaVuSans-75" transform="translate(1929.878906 0)"/>
       <use xlink:href="#DejaVuSans-67" transform="translate(1993.257812 0)"/>
       <use xlink:href="#DejaVuSans-2c" transform="translate(2056.734375 0)"/>
       <use xlink:href="#DejaVuSans-20" transform="translate(2088.521484 0)"/>
       <use xlink:href="#DejaVuSans-71" transform="translate(2120.308594 0)"/>
       <use xlink:href="#DejaVuSans-75" transform="translate(2183.785156 0)"/>
       <use xlink:href="#DejaVuSans-69" transform="translate(2247.164062 0)"/>
       <use xlink:href="#DejaVuSans-6e" transform="translate(2274.947266 0)"/>
       <use xlink:href="#DejaVuSans-6f" transform="translate(2338.326172 0)"/>
       <use xlink:href="#DejaVuSans-6c" transform="translate(2399.507812 0)"/>
       <use xlink:href="#DejaVuSans-6f" transform="translate(2427.291016 0)"/>
       <use xlink:href="#DejaVuSans-6e" transform="translate(2488.472656 0)"/>
       <use xlink:href="#DejaVuSans-65" transform="translate(2551.851562 0)"/>
       <use xlink:href="#DejaVuSans-7d" transform="translate(2613.375 0)"/>
      </g>
     </g>
    </g>
    <g id="xtick_9">
     <g id="line2d_9">
      <g>
       <use xlink:href="#m71c999262e" x="236.685625" y="77.758125" style="stroke: #000000; stroke-width: 0.8"/>
      </g>
     </g>
     <g id="text_9">
      <!-- {multidrug, quinolone} -->
      <g transform="translate(239.445 201.847188) rotate(-90) scale(0.1 -0.1)">
       <use xlink:href="#DejaVuSans-7b"/>
       <use xlink:href="#DejaVuSans-6d" transform="translate(63.623047 0)"/>
       <use xlink:href="#DejaVuSans-75" transform="translate(161.035156 0)"/>
       <use xlink:href="#DejaVuSans-6c" transform="translate(224.414062 0)"/>
       <use xlink:href="#DejaVuSans-74" transform="translate(252.197266 0)"/>
       <use xlink:href="#DejaVuSans-69" transform="translate(291.40625 0)"/>
       <use xlink:href="#DejaVuSans-64" transform="translate(319.189453 0)"/>
       <use xlink:href="#DejaVuSans-72" transform="translate(382.666016 0)"/>
       <use xlink:href="#DejaVuSans-75" transform="translate(423.779297 0)"/>
       <use xlink:href="#DejaVuSans-67" transform="translate(487.158203 0)"/>
       <use xlink:href="#DejaVuSans-2c" transform="translate(550.634766 0)"/>
       <use xlink:href="#DejaVuSans-20" transform="translate(582.421875 0)"/>
       <use xlink:href="#DejaVuSans-71" transform="translate(614.208984 0)"/>
       <use xlink:href="#DejaVuSans-75" transform="translate(677.685547 0)"/>
       <use xlink:href="#DejaVuSans-69" transform="translate(741.064453 0)"/>
       <use xlink:href="#DejaVuSans-6e" transform="translate(768.847656 0)"/>
       <use xlink:href="#DejaVuSans-6f" transform="translate(832.226562 0)"/>
       <use xlink:href="#DejaVuSans-6c" transform="translate(893.408203 0)"/>
       <use xlink:href="#DejaVuSans-6f" transform="translate(921.191406 0)"/>
       <use xlink:href="#DejaVuSans-6e" transform="translate(982.373047 0)"/>
       <use xlink:href="#DejaVuSans-65" transform="translate(1045.751953 0)"/>
       <use xlink:href="#DejaVuSans-7d" transform="translate(1107.275391 0)"/>
      </g>
     </g>
    </g>
    <g id="xtick_10">
     <g id="line2d_10">
      <g>
       <use xlink:href="#m71c999262e" x="259.005625" y="77.758125" style="stroke: #000000; stroke-width: 0.8"/>
      </g>
     </g>
     <g id="text_10">
      <!-- {multidrug, nitrofuran/phenicol/quinolone/tetracycline, quinolone, amphenicol, quinolone, folate pathway antagonist, diaminopyrimidine ;fluoroquinolone ;glycylcycline;nitrofuran ;tetracycline, drug_and_biocide_resistance} -->
      <g transform="translate(261.625937 1200.834688) rotate(-90) scale(0.1 -0.1)">
       <defs>
        <path id="DejaVuSans-2f" d="M 1625 4666 
L 2156 4666 
L 531 -594 
L 0 -594 
L 1625 4666 
z
" transform="scale(0.015625)"/>
        <path id="DejaVuSans-68" d="M 3513 2113 
L 3513 0 
L 2938 0 
L 2938 2094 
Q 2938 2591 2744 2837 
Q 2550 3084 2163 3084 
Q 1697 3084 1428 2787 
Q 1159 2491 1159 1978 
L 1159 0 
L 581 0 
L 581 4863 
L 1159 4863 
L 1159 2956 
Q 1366 3272 1645 3428 
Q 1925 3584 2291 3584 
Q 2894 3584 3203 3211 
Q 3513 2838 3513 2113 
z
" transform="scale(0.015625)"/>
        <path id="DejaVuSans-77" d="M 269 3500 
L 844 3500 
L 1563 769 
L 2278 3500 
L 2956 3500 
L 3675 769 
L 4391 3500 
L 4966 3500 
L 4050 0 
L 3372 0 
L 2619 2869 
L 1863 0 
L 1184 0 
L 269 3500 
z
" transform="scale(0.015625)"/>
        <path id="DejaVuSans-3b" d="M 750 3309 
L 1409 3309 
L 1409 2516 
L 750 2516 
L 750 3309 
z
M 750 794 
L 1409 794 
L 1409 256 
L 897 -744 
L 494 -744 
L 750 256 
L 750 794 
z
" transform="scale(0.015625)"/>
       </defs>
       <use xlink:href="#DejaVuSans-7b"/>
       <use xlink:href="#DejaVuSans-6d" transform="translate(63.623047 0)"/>
       <use xlink:href="#DejaVuSans-75" transform="translate(161.035156 0)"/>
       <use xlink:href="#DejaVuSans-6c" transform="translate(224.414062 0)"/>
       <use xlink:href="#DejaVuSans-74" transform="translate(252.197266 0)"/>
       <use xlink:href="#DejaVuSans-69" transform="translate(291.40625 0)"/>
       <use xlink:href="#DejaVuSans-64" transform="translate(319.189453 0)"/>
       <use xlink:href="#DejaVuSans-72" transform="translate(382.666016 0)"/>
       <use xlink:href="#DejaVuSans-75" transform="translate(423.779297 0)"/>
       <use xlink:href="#DejaVuSans-67" transform="translate(487.158203 0)"/>
       <use xlink:href="#DejaVuSans-2c" transform="translate(550.634766 0)"/>
       <use xlink:href="#DejaVuSans-20" transform="translate(582.421875 0)"/>
       <use xlink:href="#DejaVuSans-6e" transform="translate(614.208984 0)"/>
       <use xlink:href="#DejaVuSans-69" transform="translate(677.587891 0)"/>
       <use xlink:href="#DejaVuSans-74" transform="translate(705.371094 0)"/>
       <use xlink:href="#DejaVuSans-72" transform="translate(744.580078 0)"/>
       <use xlink:href="#DejaVuSans-6f" transform="translate(783.443359 0)"/>
       <use xlink:href="#DejaVuSans-66" transform="translate(844.625 0)"/>
       <use xlink:href="#DejaVuSans-75" transform="translate(879.830078 0)"/>
       <use xlink:href="#DejaVuSans-72" transform="translate(943.208984 0)"/>
       <use xlink:href="#DejaVuSans-61" transform="translate(984.322266 0)"/>
       <use xlink:href="#DejaVuSans-6e" transform="translate(1045.601562 0)"/>
       <use xlink:href="#DejaVuSans-2f" transform="translate(1108.980469 0)"/>
       <use xlink:href="#DejaVuSans-70" transform="translate(1142.671875 0)"/>
       <use xlink:href="#DejaVuSans-68" transform="translate(1206.148438 0)"/>
       <use xlink:href="#DejaVuSans-65" transform="translate(1269.527344 0)"/>
       <use xlink:href="#DejaVuSans-6e" transform="translate(1331.050781 0)"/>
       <use xlink:href="#DejaVuSans-69" transform="translate(1394.429688 0)"/>
       <use xlink:href="#DejaVuSans-63" transform="translate(1422.212891 0)"/>
       <use xlink:href="#DejaVuSans-6f" transform="translate(1477.193359 0)"/>
       <use xlink:href="#DejaVuSans-6c" transform="translate(1538.375 0)"/>
       <use xlink:href="#DejaVuSans-2f" transform="translate(1566.158203 0)"/>
       <use xlink:href="#DejaVuSans-71" transform="translate(1599.849609 0)"/>
       <use xlink:href="#DejaVuSans-75" transform="translate(1663.326172 0)"/>
       <use xlink:href="#DejaVuSans-69" transform="translate(1726.705078 0)"/>
       <use xlink:href="#DejaVuSans-6e" transform="translate(1754.488281 0)"/>
       <use xlink:href="#DejaVuSans-6f" transform="translate(1817.867188 0)"/>
       <use xlink:href="#DejaVuSans-6c" transform="translate(1879.048828 0)"/>
       <use xlink:href="#DejaVuSans-6f" transform="translate(1906.832031 0)"/>
       <use xlink:href="#DejaVuSans-6e" transform="translate(1968.013672 0)"/>
       <use xlink:href="#DejaVuSans-65" transform="translate(2031.392578 0)"/>
       <use xlink:href="#DejaVuSans-2f" transform="translate(2092.916016 0)"/>
       <use xlink:href="#DejaVuSans-74" transform="translate(2126.607422 0)"/>
       <use xlink:href="#DejaVuSans-65" transform="translate(2165.816406 0)"/>
       <use xlink:href="#DejaVuSans-74" transform="translate(2227.339844 0)"/>
       <use xlink:href="#DejaVuSans-72" transform="translate(2266.548828 0)"/>
       <use xlink:href="#DejaVuSans-61" transform="translate(2307.662109 0)"/>
       <use xlink:href="#DejaVuSans-63" transform="translate(2368.941406 0)"/>
       <use xlink:href="#DejaVuSans-79" transform="translate(2423.921875 0)"/>
       <use xlink:href="#DejaVuSans-63" transform="translate(2483.101562 0)"/>
       <use xlink:href="#DejaVuSans-6c" transform="translate(2538.082031 0)"/>
       <use xlink:href="#DejaVuSans-69" transform="translate(2565.865234 0)"/>
       <use xlink:href="#DejaVuSans-6e" transform="translate(2593.648438 0)"/>
       <use xlink:href="#DejaVuSans-65" transform="translate(2657.027344 0)"/>
       <use xlink:href="#DejaVuSans-2c" transform="translate(2718.550781 0)"/>
       <use xlink:href="#DejaVuSans-20" transform="translate(2750.337891 0)"/>
       <use xlink:href="#DejaVuSans-71" transform="translate(2782.125 0)"/>
       <use xlink:href="#DejaVuSans-75" transform="translate(2845.601562 0)"/>
       <use xlink:href="#DejaVuSans-69" transform="translate(2908.980469 0)"/>
       <use xlink:href="#DejaVuSans-6e" transform="translate(2936.763672 0)"/>
       <use xlink:href="#DejaVuSans-6f" transform="translate(3000.142578 0)"/>
       <use xlink:href="#DejaVuSans-6c" transform="translate(3061.324219 0)"/>
       <use xlink:href="#DejaVuSans-6f" transform="translate(3089.107422 0)"/>
       <use xlink:href="#DejaVuSans-6e" transform="translate(3150.289062 0)"/>
       <use xlink:href="#DejaVuSans-65" transform="translate(3213.667969 0)"/>
       <use xlink:href="#DejaVuSans-2c" transform="translate(3275.191406 0)"/>
       <use xlink:href="#DejaVuSans-20" transform="translate(3306.978516 0)"/>
       <use xlink:href="#DejaVuSans-61" transform="translate(3338.765625 0)"/>
       <use xlink:href="#DejaVuSans-6d" transform="translate(3400.044922 0)"/>
       <use xlink:href="#DejaVuSans-70" transform="translate(3497.457031 0)"/>
       <use xlink:href="#DejaVuSans-68" transform="translate(3560.933594 0)"/>
       <use xlink:href="#DejaVuSans-65" transform="translate(3624.3125 0)"/>
       <use xlink:href="#DejaVuSans-6e" transform="translate(3685.835938 0)"/>
       <use xlink:href="#DejaVuSans-69" transform="translate(3749.214844 0)"/>
       <use xlink:href="#DejaVuSans-63" transform="translate(3776.998047 0)"/>
       <use xlink:href="#DejaVuSans-6f" transform="translate(3831.978516 0)"/>
       <use xlink:href="#DejaVuSans-6c" transform="translate(3893.160156 0)"/>
       <use xlink:href="#DejaVuSans-2c" transform="translate(3920.943359 0)"/>
       <use xlink:href="#DejaVuSans-20" transform="translate(3952.730469 0)"/>
       <use xlink:href="#DejaVuSans-71" transform="translate(3984.517578 0)"/>
       <use xlink:href="#DejaVuSans-75" transform="translate(4047.994141 0)"/>
       <use xlink:href="#DejaVuSans-69" transform="translate(4111.373047 0)"/>
       <use xlink:href="#DejaVuSans-6e" transform="translate(4139.15625 0)"/>
       <use xlink:href="#DejaVuSans-6f" transform="translate(4202.535156 0)"/>
       <use xlink:href="#DejaVuSans-6c" transform="translate(4263.716797 0)"/>
       <use xlink:href="#DejaVuSans-6f" transform="translate(4291.5 0)"/>
       <use xlink:href="#DejaVuSans-6e" transform="translate(4352.681641 0)"/>
       <use xlink:href="#DejaVuSans-65" transform="translate(4416.060547 0)"/>
       <use xlink:href="#DejaVuSans-2c" transform="translate(4477.583984 0)"/>
       <use xlink:href="#DejaVuSans-20" transform="translate(4509.371094 0)"/>
       <use xlink:href="#DejaVuSans-66" transform="translate(4541.158203 0)"/>
       <use xlink:href="#DejaVuSans-6f" transform="translate(4576.363281 0)"/>
       <use xlink:href="#DejaVuSans-6c" transform="translate(4637.544922 0)"/>
       <use xlink:href="#DejaVuSans-61" transform="translate(4665.328125 0)"/>
       <use xlink:href="#DejaVuSans-74" transform="translate(4726.607422 0)"/>
       <use xlink:href="#DejaVuSans-65" transform="translate(4765.816406 0)"/>
       <use xlink:href="#DejaVuSans-20" transform="translate(4827.339844 0)"/>
       <use xlink:href="#DejaVuSans-70" transform="translate(4859.126953 0)"/>
       <use xlink:href="#DejaVuSans-61" transform="translate(4922.603516 0)"/>
       <use xlink:href="#DejaVuSans-74" transform="translate(4983.882812 0)"/>
       <use xlink:href="#DejaVuSans-68" transform="translate(5023.091797 0)"/>
       <use xlink:href="#DejaVuSans-77" transform="translate(5086.470703 0)"/>
       <use xlink:href="#DejaVuSans-61" transform="translate(5168.257812 0)"/>
       <use xlink:href="#DejaVuSans-79" transform="translate(5229.537109 0)"/>
       <use xlink:href="#DejaVuSans-20" transform="translate(5288.716797 0)"/>
       <use xlink:href="#DejaVuSans-61" transform="translate(5320.503906 0)"/>
       <use xlink:href="#DejaVuSans-6e" transform="translate(5381.783203 0)"/>
       <use xlink:href="#DejaVuSans-74" transform="translate(5445.162109 0)"/>
       <use xlink:href="#DejaVuSans-61" transform="translate(5484.371094 0)"/>
       <use xlink:href="#DejaVuSans-67" transform="translate(5545.650391 0)"/>
       <use xlink:href="#DejaVuSans-6f" transform="translate(5609.126953 0)"/>
       <use xlink:href="#DejaVuSans-6e" transform="translate(5670.308594 0)"/>
       <use xlink:href="#DejaVuSans-69" transform="translate(5733.6875 0)"/>
       <use xlink:href="#DejaVuSans-73" transform="translate(5761.470703 0)"/>
       <use xlink:href="#DejaVuSans-74" transform="translate(5813.570312 0)"/>
       <use xlink:href="#DejaVuSans-2c" transform="translate(5852.779297 0)"/>
       <use xlink:href="#DejaVuSans-20" transform="translate(5884.566406 0)"/>
       <use xlink:href="#DejaVuSans-64" transform="translate(5916.353516 0)"/>
       <use xlink:href="#DejaVuSans-69" transform="translate(5979.830078 0)"/>
       <use xlink:href="#DejaVuSans-61" transform="translate(6007.613281 0)"/>
       <use xlink:href="#DejaVuSans-6d" transform="translate(6068.892578 0)"/>
       <use xlink:href="#DejaVuSans-69" transform="translate(6166.304688 0)"/>
       <use xlink:href="#DejaVuSans-6e" transform="translate(6194.087891 0)"/>
       <use xlink:href="#DejaVuSans-6f" transform="translate(6257.466797 0)"/>
       <use xlink:href="#DejaVuSans-70" transform="translate(6318.648438 0)"/>
       <use xlink:href="#DejaVuSans-79" transform="translate(6382.125 0)"/>
       <use xlink:href="#DejaVuSans-72" transform="translate(6441.304688 0)"/>
       <use xlink:href="#DejaVuSans-69" transform="translate(6482.417969 0)"/>
       <use xlink:href="#DejaVuSans-6d" transform="translate(6510.201172 0)"/>
       <use xlink:href="#DejaVuSans-69" transform="translate(6607.613281 0)"/>
       <use xlink:href="#DejaVuSans-64" transform="translate(6635.396484 0)"/>
       <use xlink:href="#DejaVuSans-69" transform="translate(6698.873047 0)"/>
       <use xlink:href="#DejaVuSans-6e" transform="translate(6726.65625 0)"/>
       <use xlink:href="#DejaVuSans-65" transform="translate(6790.035156 0)"/>
       <use xlink:href="#DejaVuSans-20" transform="translate(6851.558594 0)"/>
       <use xlink:href="#DejaVuSans-3b" transform="translate(6883.345703 0)"/>
       <use xlink:href="#DejaVuSans-66" transform="translate(6917.037109 0)"/>
       <use xlink:href="#DejaVuSans-6c" transform="translate(6952.242188 0)"/>
       <use xlink:href="#DejaVuSans-75" transform="translate(6980.025391 0)"/>
       <use xlink:href="#DejaVuSans-6f" transform="translate(7043.404297 0)"/>
       <use xlink:href="#DejaVuSans-72" transform="translate(7104.585938 0)"/>
       <use xlink:href="#DejaVuSans-6f" transform="translate(7143.449219 0)"/>
       <use xlink:href="#DejaVuSans-71" transform="translate(7204.630859 0)"/>
       <use xlink:href="#DejaVuSans-75" transform="translate(7268.107422 0)"/>
       <use xlink:href="#DejaVuSans-69" transform="translate(7331.486328 0)"/>
       <use xlink:href="#DejaVuSans-6e" transform="translate(7359.269531 0)"/>
       <use xlink:href="#DejaVuSans-6f" transform="translate(7422.648438 0)"/>
       <use xlink:href="#DejaVuSans-6c" transform="translate(7483.830078 0)"/>
       <use xlink:href="#DejaVuSans-6f" transform="translate(7511.613281 0)"/>
       <use xlink:href="#DejaVuSans-6e" transform="translate(7572.794922 0)"/>
       <use xlink:href="#DejaVuSans-65" transform="translate(7636.173828 0)"/>
       <use xlink:href="#DejaVuSans-20" transform="translate(7697.697266 0)"/>
       <use xlink:href="#DejaVuSans-3b" transform="translate(7729.484375 0)"/>
       <use xlink:href="#DejaVuSans-67" transform="translate(7763.175781 0)"/>
       <use xlink:href="#DejaVuSans-6c" transform="translate(7826.652344 0)"/>
       <use xlink:href="#DejaVuSans-79" transform="translate(7854.435547 0)"/>
       <use xlink:href="#DejaVuSans-63" transform="translate(7913.615234 0)"/>
       <use xlink:href="#DejaVuSans-79" transform="translate(7968.595703 0)"/>
       <use xlink:href="#DejaVuSans-6c" transform="translate(8027.775391 0)"/>
       <use xlink:href="#DejaVuSans-63" transform="translate(8055.558594 0)"/>
       <use xlink:href="#DejaVuSans-79" transform="translate(8110.539062 0)"/>
       <use xlink:href="#DejaVuSans-63" transform="translate(8169.71875 0)"/>
       <use xlink:href="#DejaVuSans-6c" transform="translate(8224.699219 0)"/>
       <use xlink:href="#DejaVuSans-69" transform="translate(8252.482422 0)"/>
       <use xlink:href="#DejaVuSans-6e" transform="translate(8280.265625 0)"/>
       <use xlink:href="#DejaVuSans-65" transform="translate(8343.644531 0)"/>
       <use xlink:href="#DejaVuSans-3b" transform="translate(8405.167969 0)"/>
       <use xlink:href="#DejaVuSans-6e" transform="translate(8438.859375 0)"/>
       <use xlink:href="#DejaVuSans-69" transform="translate(8502.238281 0)"/>
       <use xlink:href="#DejaVuSans-74" transform="translate(8530.021484 0)"/>
       <use xlink:href="#DejaVuSans-72" transform="translate(8569.230469 0)"/>
       <use xlink:href="#DejaVuSans-6f" transform="translate(8608.09375 0)"/>
       <use xlink:href="#DejaVuSans-66" transform="translate(8669.275391 0)"/>
       <use xlink:href="#DejaVuSans-75" transform="translate(8704.480469 0)"/>
       <use xlink:href="#DejaVuSans-72" transform="translate(8767.859375 0)"/>
       <use xlink:href="#DejaVuSans-61" transform="translate(8808.972656 0)"/>
       <use xlink:href="#DejaVuSans-6e" transform="translate(8870.251953 0)"/>
       <use xlink:href="#DejaVuSans-20" transform="translate(8933.630859 0)"/>
       <use xlink:href="#DejaVuSans-3b" transform="translate(8965.417969 0)"/>
       <use xlink:href="#DejaVuSans-74" transform="translate(8999.109375 0)"/>
       <use xlink:href="#DejaVuSans-65" transform="translate(9038.318359 0)"/>
       <use xlink:href="#DejaVuSans-74" transform="translate(9099.841797 0)"/>
       <use xlink:href="#DejaVuSans-72" transform="translate(9139.050781 0)"/>
       <use xlink:href="#DejaVuSans-61" transform="translate(9180.164062 0)"/>
       <use xlink:href="#DejaVuSans-63" transform="translate(9241.443359 0)"/>
       <use xlink:href="#DejaVuSans-79" transform="translate(9296.423828 0)"/>
       <use xlink:href="#DejaVuSans-63" transform="translate(9355.603516 0)"/>
       <use xlink:href="#DejaVuSans-6c" transform="translate(9410.583984 0)"/>
       <use xlink:href="#DejaVuSans-69" transform="translate(9438.367188 0)"/>
       <use xlink:href="#DejaVuSans-6e" transform="translate(9466.150391 0)"/>
       <use xlink:href="#DejaVuSans-65" transform="translate(9529.529297 0)"/>
       <use xlink:href="#DejaVuSans-2c" transform="translate(9591.052734 0)"/>
       <use xlink:href="#DejaVuSans-20" transform="translate(9622.839844 0)"/>
       <use xlink:href="#DejaVuSans-64" transform="translate(9654.626953 0)"/>
       <use xlink:href="#DejaVuSans-72" transform="translate(9718.103516 0)"/>
       <use xlink:href="#DejaVuSans-75" transform="translate(9759.216797 0)"/>
       <use xlink:href="#DejaVuSans-67" transform="translate(9822.595703 0)"/>
       <use xlink:href="#DejaVuSans-5f" transform="translate(9886.072266 0)"/>
       <use xlink:href="#DejaVuSans-61" transform="translate(9936.072266 0)"/>
       <use xlink:href="#DejaVuSans-6e" transform="translate(9997.351562 0)"/>
       <use xlink:href="#DejaVuSans-64" transform="translate(10060.730469 0)"/>
       <use xlink:href="#DejaVuSans-5f" transform="translate(10124.207031 0)"/>
       <use xlink:href="#DejaVuSans-62" transform="translate(10174.207031 0)"/>
       <use xlink:href="#DejaVuSans-69" transform="translate(10237.683594 0)"/>
       <use xlink:href="#DejaVuSans-6f" transform="translate(10265.466797 0)"/>
       <use xlink:href="#DejaVuSans-63" transform="translate(10326.648438 0)"/>
       <use xlink:href="#DejaVuSans-69" transform="translate(10381.628906 0)"/>
       <use xlink:href="#DejaVuSans-64" transform="translate(10409.412109 0)"/>
       <use xlink:href="#DejaVuSans-65" transform="translate(10472.888672 0)"/>
       <use xlink:href="#DejaVuSans-5f" transform="translate(10534.412109 0)"/>
       <use xlink:href="#DejaVuSans-72" transform="translate(10584.412109 0)"/>
       <use xlink:href="#DejaVuSans-65" transform="translate(10623.275391 0)"/>
       <use xlink:href="#DejaVuSans-73" transform="translate(10684.798828 0)"/>
       <use xlink:href="#DejaVuSans-69" transform="translate(10736.898438 0)"/>
       <use xlink:href="#DejaVuSans-73" transform="translate(10764.681641 0)"/>
       <use xlink:href="#DejaVuSans-74" transform="translate(10816.78125 0)"/>
       <use xlink:href="#DejaVuSans-61" transform="translate(10855.990234 0)"/>
       <use xlink:href="#DejaVuSans-6e" transform="translate(10917.269531 0)"/>
       <use xlink:href="#DejaVuSans-63" transform="translate(10980.648438 0)"/>
       <use xlink:href="#DejaVuSans-65" transform="translate(11035.628906 0)"/>
       <use xlink:href="#DejaVuSans-7d" transform="translate(11097.152344 0)"/>
      </g>
     </g>
    </g>
    <g id="text_11">
     <!-- Sets -->
     <g transform="translate(147.75 1212.433125) scale(0.1 -0.1)">
      <defs>
       <path id="DejaVuSans-53" d="M 3425 4513 
L 3425 3897 
Q 3066 4069 2747 4153 
Q 2428 4238 2131 4238 
Q 1616 4238 1336 4038 
Q 1056 3838 1056 3469 
Q 1056 3159 1242 3001 
Q 1428 2844 1947 2747 
L 2328 2669 
Q 3034 2534 3370 2195 
Q 3706 1856 3706 1288 
Q 3706 609 3251 259 
Q 2797 -91 1919 -91 
Q 1588 -91 1214 -16 
Q 841 59 441 206 
L 441 856 
Q 825 641 1194 531 
Q 1563 422 1919 422 
Q 2459 422 2753 634 
Q 3047 847 3047 1241 
Q 3047 1584 2836 1778 
Q 2625 1972 2144 2069 
L 1759 2144 
Q 1053 2284 737 2584 
Q 422 2884 422 3419 
Q 422 4038 858 4394 
Q 1294 4750 2059 4750 
Q 2388 4750 2728 4690 
Q 3069 4631 3425 4513 
z
" transform="scale(0.015625)"/>
      </defs>
      <use xlink:href="#DejaVuSans-53"/>
      <use xlink:href="#DejaVuSans-65" transform="translate(63.476562 0)"/>
      <use xlink:href="#DejaVuSans-74" transform="translate(125 0)"/>
      <use xlink:href="#DejaVuSans-73" transform="translate(164.208984 0)"/>
     </g>
    </g>
   </g>
   <g id="matplotlib.axis_2">
    <g id="ytick_1">
     <g id="line2d_11">
      <defs>
       <path id="m4d03534791" d="M 0 0 
L -3.5 0 
" style="stroke: #000000; stroke-width: 0.8"/>
      </defs>
      <g>
       <use xlink:href="#m4d03534791" x="46.965625" y="77.758125" style="stroke: #000000; stroke-width: 0.8"/>
      </g>
     </g>
     <g id="text_12">
      <!-- 0 -->
      <g transform="translate(33.603125 81.557344) scale(0.1 -0.1)">
       <defs>
        <path id="DejaVuSans-30" d="M 2034 4250 
Q 1547 4250 1301 3770 
Q 1056 3291 1056 2328 
Q 1056 1369 1301 889 
Q 1547 409 2034 409 
Q 2525 409 2770 889 
Q 3016 1369 3016 2328 
Q 3016 3291 2770 3770 
Q 2525 4250 2034 4250 
z
M 2034 4750 
Q 2819 4750 3233 4129 
Q 3647 3509 3647 2328 
Q 3647 1150 3233 529 
Q 2819 -91 2034 -91 
Q 1250 -91 836 529 
Q 422 1150 422 2328 
Q 422 3509 836 4129 
Q 1250 4750 2034 4750 
z
" transform="scale(0.015625)"/>
       </defs>
       <use xlink:href="#DejaVuSans-30"/>
      </g>
     </g>
    </g>
    <g id="ytick_2">
     <g id="line2d_12">
      <g>
       <use xlink:href="#m4d03534791" x="46.965625" y="30.403865" style="stroke: #000000; stroke-width: 0.8"/>
      </g>
     </g>
     <g id="text_13">
      <!-- 200 -->
      <g transform="translate(20.878125 34.203084) scale(0.1 -0.1)">
       <defs>
        <path id="DejaVuSans-32" d="M 1228 531 
L 3431 531 
L 3431 0 
L 469 0 
L 469 531 
Q 828 903 1448 1529 
Q 2069 2156 2228 2338 
Q 2531 2678 2651 2914 
Q 2772 3150 2772 3378 
Q 2772 3750 2511 3984 
Q 2250 4219 1831 4219 
Q 1534 4219 1204 4116 
Q 875 4013 500 3803 
L 500 4441 
Q 881 4594 1212 4672 
Q 1544 4750 1819 4750 
Q 2544 4750 2975 4387 
Q 3406 4025 3406 3419 
Q 3406 3131 3298 2873 
Q 3191 2616 2906 2266 
Q 2828 2175 2409 1742 
Q 1991 1309 1228 531 
z
" transform="scale(0.015625)"/>
       </defs>
       <use xlink:href="#DejaVuSans-32"/>
       <use xlink:href="#DejaVuSans-30" transform="translate(63.623047 0)"/>
       <use xlink:href="#DejaVuSans-30" transform="translate(127.246094 0)"/>
      </g>
     </g>
    </g>
    <g id="text_14">
     <!-- Count -->
     <g transform="translate(14.798437 64.886563) rotate(-90) scale(0.1 -0.1)">
      <defs>
       <path id="DejaVuSans-43" d="M 4122 4306 
L 4122 3641 
Q 3803 3938 3442 4084 
Q 3081 4231 2675 4231 
Q 1875 4231 1450 3742 
Q 1025 3253 1025 2328 
Q 1025 1406 1450 917 
Q 1875 428 2675 428 
Q 3081 428 3442 575 
Q 3803 722 4122 1019 
L 4122 359 
Q 3791 134 3420 21 
Q 3050 -91 2638 -91 
Q 1578 -91 968 557 
Q 359 1206 359 2328 
Q 359 3453 968 4101 
Q 1578 4750 2638 4750 
Q 3056 4750 3426 4639 
Q 3797 4528 4122 4306 
z
" transform="scale(0.015625)"/>
      </defs>
      <use xlink:href="#DejaVuSans-43"/>
      <use xlink:href="#DejaVuSans-6f" transform="translate(69.824219 0)"/>
      <use xlink:href="#DejaVuSans-75" transform="translate(131.005859 0)"/>
      <use xlink:href="#DejaVuSans-6e" transform="translate(194.384766 0)"/>
      <use xlink:href="#DejaVuSans-74" transform="translate(257.763672 0)"/>
     </g>
    </g>
   </g>
   <g id="patch_13">
    <path d="M 46.965625 77.758125 
L 46.965625 22.318125 
" style="fill: none; stroke: #000000; stroke-width: 0.8; stroke-linejoin: miter; stroke-linecap: square"/>
   </g>
   <g id="patch_14">
    <path d="M 270.165625 77.758125 
L 270.165625 22.318125 
" style="fill: none; stroke: #000000; stroke-width: 0.8; stroke-linejoin: miter; stroke-linecap: square"/>
   </g>
   <g id="patch_15">
    <path d="M 46.965625 77.758125 
L 270.165625 77.758125 
" style="fill: none; stroke: #000000; stroke-width: 0.8; stroke-linejoin: miter; stroke-linecap: square"/>
   </g>
   <g id="patch_16">
    <path d="M 46.965625 22.318125 
L 270.165625 22.318125 
" style="fill: none; stroke: #000000; stroke-width: 0.8; stroke-linejoin: miter; stroke-linecap: square"/>
   </g>
   <g id="text_15">
    <!-- Quinolone -->
    <g transform="translate(128.066875 16.318125) scale(0.12 -0.12)">
     <defs>
      <path id="DejaVuSans-51" d="M 2522 4238 
Q 1834 4238 1429 3725 
Q 1025 3213 1025 2328 
Q 1025 1447 1429 934 
Q 1834 422 2522 422 
Q 3209 422 3611 934 
Q 4013 1447 4013 2328 
Q 4013 3213 3611 3725 
Q 3209 4238 2522 4238 
z
M 3406 84 
L 4238 -825 
L 3475 -825 
L 2784 -78 
Q 2681 -84 2626 -87 
Q 2572 -91 2522 -91 
Q 1538 -91 948 567 
Q 359 1225 359 2328 
Q 359 3434 948 4092 
Q 1538 4750 2522 4750 
Q 3503 4750 4090 4092 
Q 4678 3434 4678 2328 
Q 4678 1516 4351 937 
Q 4025 359 3406 84 
z
" transform="scale(0.015625)"/>
     </defs>
     <use xlink:href="#DejaVuSans-51"/>
     <use xlink:href="#DejaVuSans-75" transform="translate(78.710938 0)"/>
     <use xlink:href="#DejaVuSans-69" transform="translate(142.089844 0)"/>
     <use xlink:href="#DejaVuSans-6e" transform="translate(169.873047 0)"/>
     <use xlink:href="#DejaVuSans-6f" transform="translate(233.251953 0)"/>
     <use xlink:href="#DejaVuSans-6c" transform="translate(294.433594 0)"/>
     <use xlink:href="#DejaVuSans-6f" transform="translate(322.216797 0)"/>
     <use xlink:href="#DejaVuSans-6e" transform="translate(383.398438 0)"/>
     <use xlink:href="#DejaVuSans-65" transform="translate(446.777344 0)"/>
    </g>
   </g>
   <g id="legend_1">
    <g id="patch_17">
     <path d="M 202.953125 44.99625 
L 263.165625 44.99625 
Q 265.165625 44.99625 265.165625 42.99625 
L 265.165625 29.318125 
Q 265.165625 27.318125 263.165625 27.318125 
L 202.953125 27.318125 
Q 200.953125 27.318125 200.953125 29.318125 
L 200.953125 42.99625 
Q 200.953125 44.99625 202.953125 44.99625 
z
" style="fill: #ffffff; opacity: 0.8; stroke: #cccccc; stroke-linejoin: miter"/>
    </g>
    <g id="patch_18">
     <path d="M 204.953125 38.916563 
L 224.953125 38.916563 
L 224.953125 31.916563 
L 204.953125 31.916563 
z
" style="fill: #d3d3d3"/>
    </g>
    <g id="text_16">
     <!-- count -->
     <g transform="translate(232.953125 38.916563) scale(0.1 -0.1)">
      <use xlink:href="#DejaVuSans-63"/>
      <use xlink:href="#DejaVuSans-6f" transform="translate(54.980469 0)"/>
      <use xlink:href="#DejaVuSans-75" transform="translate(116.162109 0)"/>
      <use xlink:href="#DejaVuSans-6e" transform="translate(179.541016 0)"/>
      <use xlink:href="#DejaVuSans-74" transform="translate(242.919922 0)"/>
     </g>
    </g>
   </g>
  </g>
 </g>
 <defs>
  <clipPath id="pdbadf82a43">
   <rect x="46.965625" y="22.318125" width="223.2" height="55.44"/>
  </clipPath>
 </defs>
</svg>
