<?xml version="1.0" encoding="utf-8" standalone="no"?>
<!DOCTYPE svg PUBLIC "-//W3C//DTD SVG 1.1//EN"
  "http://www.w3.org/Graphics/SVG/1.1/DTD/svg11.dtd">
<svg xmlns:xlink="http://www.w3.org/1999/xlink" width="283.728125pt" height="387.64875pt" viewBox="0 0 283.728125 387.64875" xmlns="http://www.w3.org/2000/svg" version="1.1">
 <metadata>
  <rdf:RDF xmlns:dc="http://purl.org/dc/elements/1.1/" xmlns:cc="http://creativecommons.org/ns#" xmlns:rdf="http://www.w3.org/1999/02/22-rdf-syntax-ns#">
   <cc:Work>
    <dc:type rdf:resource="http://purl.org/dc/dcmitype/StillImage"/>
    <dc:date>2026-05-15T15:48:11.373913</dc:date>
    <dc:format>image/svg+xml</dc:format>
    <dc:creator>
     <cc:Agent>
      <dc:title>Matplotlib v3.10.1, https://matplotlib.org/</dc:title>
     </cc:Agent>
    </dc:creator>
   </cc:Work>
  </rdf:RDF>
 </metadata>
 <defs>
  <style type="text/css">*{stroke-linejoin: round; stroke-linecap: butt}</style>
 </defs>
 <g id="figure_1">
  <g id="patch_1">
   <path d="M 0 387.64875 
L 283.728125 387.64875 
L 283.728125 0 
L 0 0 
z
" style="fill: #ffffff"/>
  </g>
  <g id="axes_1">
   <g id="patch_2">
    <path d="M 53.328125 77.758125 
L 276.528125 77.758125 
L 276.528125 22.318125 
L 53.328125 22.318125 
z
" style="fill: #ffffff"/>
   </g>
   <g id="patch_3">
    <path d="M 58.908125 77.758125 
L 70.068125 77.758125 
L 70.068125 24.958125 
L 58.908125 24.958125 
z
" clip-path="url(#p5144bc0dcd)" style="fill: #d3d3d3"/>
   </g>
   <g id="patch_4">
    <path d="M 81.228125 77.758125 
L 92.388125 77.758125 
L 92.388125 77.539943 
L 81.228125 77.539943 
z
" clip-path="url(#p5144bc0dcd)" style="fill: #d3d3d3"/>
   </g>
   <g id="patch_5">
    <path d="M 103.548125 77.758125 
L 114.708125 77.758125 
L 114.708125 77.539943 
L 103.548125 77.539943 
z
" clip-path="url(#p5144bc0dcd)" style="fill: #d3d3d3"/>
   </g>
   <g id="patch_6">
    <path d="M 125.868125 77.758125 
L 137.028125 77.758125 
L 137.028125 77.649034 
L 125.868125 77.649034 
z
" clip-path="url(#p5144bc0dcd)" style="fill: #d3d3d3"/>
   </g>
   <g id="patch_7">
    <path d="M 148.188125 77.758125 
L 159.348125 77.758125 
L 159.348125 77.70358 
L 148.188125 77.70358 
z
" clip-path="url(#p5144bc0dcd)" style="fill: #d3d3d3"/>
   </g>
   <g id="patch_8">
    <path d="M 170.508125 77.758125 
L 181.668125 77.758125 
L 181.668125 77.70358 
L 170.508125 77.70358 
z
" clip-path="url(#p5144bc0dcd)" style="fill: #d3d3d3"/>
   </g>
   <g id="patch_9">
    <path d="M 192.828125 77.758125 
L 203.988125 77.758125 
L 203.988125 77.70358 
L 192.828125 77.70358 
z
" clip-path="url(#p5144bc0dcd)" style="fill: #d3d3d3"/>
   </g>
   <g id="patch_10">
    <path d="M 215.148125 77.758125 
L 226.308125 77.758125 
L 226.308125 77.70358 
L 215.148125 77.70358 
z
" clip-path="url(#p5144bc0dcd)" style="fill: #d3d3d3"/>
   </g>
   <g id="patch_11">
    <path d="M 237.468125 77.758125 
L 248.628125 77.758125 
L 248.628125 77.70358 
L 237.468125 77.70358 
z
" clip-path="url(#p5144bc0dcd)" style="fill: #d3d3d3"/>
   </g>
   <g id="patch_12">
    <path d="M 259.788125 77.758125 
L 270.948125 77.758125 
L 270.948125 77.70358 
L 259.788125 77.70358 
z
" clip-path="url(#p5144bc0dcd)" style="fill: #d3d3d3"/>
   </g>
   <g id="matplotlib.axis_1">
    <g id="xtick_1">
     <g id="line2d_1">
      <defs>
       <path id="m3bd1fca464" d="M 0 0 
L 0 3.5 
" style="stroke: #000000; stroke-width: 0.8"/>
      </defs>
      <g>
       <use xlink:href="#m3bd1fca464" x="64.488125" y="77.758125" style="stroke: #000000; stroke-width: 0.8"/>
      </g>
     </g>
     <g id="text_1">
      <!-- {glycopeptide, bacitracin} -->
      <g transform="translate(67.2475 218.078438) rotate(-90) scale(0.1 -0.1)">
       <defs>
        <path id="DejaVuSans-7b" d="M 3272 -594 
L 3272 -1044 
L 3078 -1044 
Q 2300 -1044 2036 -812 
Q 1772 -581 1772 109 
L 1772 856 
Q 1772 1328 1603 1509 
Q 1434 1691 991 1691 
L 800 1691 
L 800 2138 
L 991 2138 
Q 1438 2138 1605 2317 
Q 1772 2497 1772 2963 
L 1772 3713 
Q 1772 4403 2036 4633 
Q 2300 4863 3078 4863 
L 3272 4863 
L 3272 4416 
L 3059 4416 
Q 2619 4416 2484 4278 
Q 2350 4141 2350 3700 
L 2350 2925 
Q 2350 2434 2208 2212 
Q 2066 1991 1722 1913 
Q 2069 1828 2209 1606 
Q 2350 1384 2350 897 
L 2350 122 
Q 2350 -319 2484 -456 
Q 2619 -594 3059 -594 
L 3272 -594 
z
" transform="scale(0.015625)"/>
        <path id="DejaVuSans-67" d="M 2906 1791 
Q 2906 2416 2648 2759 
Q 2391 3103 1925 3103 
Q 1463 3103 1205 2759 
Q 947 2416 947 1791 
Q 947 1169 1205 825 
Q 1463 481 1925 481 
Q 2391 481 2648 825 
Q 2906 1169 2906 1791 
z
M 3481 434 
Q 3481 -459 3084 -895 
Q 2688 -1331 1869 -1331 
Q 1566 -1331 1297 -1286 
Q 1028 -1241 775 -1147 
L 775 -588 
Q 1028 -725 1275 -790 
Q 1522 -856 1778 -856 
Q 2344 -856 2625 -561 
Q 2906 -266 2906 331 
L 2906 616 
Q 2728 306 2450 153 
Q 2172 0 1784 0 
Q 1141 0 747 490 
Q 353 981 353 1791 
Q 353 2603 747 3093 
Q 1141 3584 1784 3584 
Q 2172 3584 2450 3431 
Q 2728 3278 2906 2969 
L 2906 3500 
L 3481 3500 
L 3481 434 
z
" transform="scale(0.015625)"/>
        <path id="DejaVuSans-6c" d="M 603 4863 
L 1178 4863 
L 1178 0 
L 603 0 
L 603 4863 
z
" transform="scale(0.015625)"/>
        <path id="DejaVuSans-79" d="M 2059 -325 
Q 1816 -950 1584 -1140 
Q 1353 -1331 966 -1331 
L 506 -1331 
L 506 -850 
L 844 -850 
Q 1081 -850 1212 -737 
Q 1344 -625 1503 -206 
L 1606 56 
L 191 3500 
L 800 3500 
L 1894 763 
L 2988 3500 
L 3597 3500 
L 2059 -325 
z
" transform="scale(0.015625)"/>
        <path id="DejaVuSans-63" d="M 3122 3366 
L 3122 2828 
Q 2878 2963 2633 3030 
Q 2388 3097 2138 3097 
Q 1578 3097 1268 2742 
Q 959 2388 959 1747 
Q 959 1106 1268 751 
Q 1578 397 2138 397 
Q 2388 397 2633 464 
Q 2878 531 3122 666 
L 3122 134 
Q 2881 22 2623 -34 
Q 2366 -91 2075 -91 
Q 1284 -91 818 406 
Q 353 903 353 1747 
Q 353 2603 823 3093 
Q 1294 3584 2113 3584 
Q 2378 3584 2631 3529 
Q 2884 3475 3122 3366 
z
" transform="scale(0.015625)"/>
        <path id="DejaVuSans-6f" d="M 1959 3097 
Q 1497 3097 1228 2736 
Q 959 2375 959 1747 
Q 959 1119 1226 758 
Q 1494 397 1959 397 
Q 2419 397 2687 759 
Q 2956 1122 2956 1747 
Q 2956 2369 2687 2733 
Q 2419 3097 1959 3097 
z
M 1959 3584 
Q 2709 3584 3137 3096 
Q 3566 2609 3566 1747 
Q 3566 888 3137 398 
Q 2709 -91 1959 -91 
Q 1206 -91 779 398 
Q 353 888 353 1747 
Q 353 2609 779 3096 
Q 1206 3584 1959 3584 
z
" transform="scale(0.015625)"/>
        <path id="DejaVuSans-70" d="M 1159 525 
L 1159 -1331 
L 581 -1331 
L 581 3500 
L 1159 3500 
L 1159 2969 
Q 1341 3281 1617 3432 
Q 1894 3584 2278 3584 
Q 2916 3584 3314 3078 
Q 3713 2572 3713 1747 
Q 3713 922 3314 415 
Q 2916 -91 2278 -91 
Q 1894 -91 1617 61 
Q 1341 213 1159 525 
z
M 3116 1747 
Q 3116 2381 2855 2742 
Q 2594 3103 2138 3103 
Q 1681 3103 1420 2742 
Q 1159 2381 1159 1747 
Q 1159 1113 1420 752 
Q 1681 391 2138 391 
Q 2594 391 2855 752 
Q 3116 1113 3116 1747 
z
" transform="scale(0.015625)"/>
        <path id="DejaVuSans-65" d="M 3597 1894 
L 3597 1613 
L 953 1613 
Q 991 1019 1311 708 
Q 1631 397 2203 397 
Q 2534 397 2845 478 
Q 3156 559 3463 722 
L 3463 178 
Q 3153 47 2828 -22 
Q 2503 -91 2169 -91 
Q 1331 -91 842 396 
Q 353 884 353 1716 
Q 353 2575 817 3079 
Q 1281 3584 2069 3584 
Q 2775 3584 3186 3129 
Q 3597 2675 3597 1894 
z
M 3022 2063 
Q 3016 2534 2758 2815 
Q 2500 3097 2075 3097 
Q 1594 3097 1305 2825 
Q 1016 2553 972 2059 
L 3022 2063 
z
" transform="scale(0.015625)"/>
        <path id="DejaVuSans-74" d="M 1172 4494 
L 1172 3500 
L 2356 3500 
L 2356 3053 
L 1172 3053 
L 1172 1153 
Q 1172 725 1289 603 
Q 1406 481 1766 481 
L 2356 481 
L 2356 0 
L 1766 0 
Q 1100 0 847 248 
Q 594 497 594 1153 
L 594 3053 
L 172 3053 
L 172 3500 
L 594 3500 
L 594 4494 
L 1172 4494 
z
" transform="scale(0.015625)"/>
        <path id="DejaVuSans-69" d="M 603 3500 
L 1178 3500 
L 1178 0 
L 603 0 
L 603 3500 
z
M 603 4863 
L 1178 4863 
L 1178 4134 
L 603 4134 
L 603 4863 
z
" transform="scale(0.015625)"/>
        <path id="DejaVuSans-64" d="M 2906 2969 
L 2906 4863 
L 3481 4863 
L 3481 0 
L 2906 0 
L 2906 525 
Q 2725 213 2448 61 
Q 2172 -91 1784 -91 
Q 1150 -91 751 415 
Q 353 922 353 1747 
Q 353 2572 751 3078 
Q 1150 3584 1784 3584 
Q 2172 3584 2448 3432 
Q 2725 3281 2906 2969 
z
M 947 1747 
Q 947 1113 1208 752 
Q 1469 391 1925 391 
Q 2381 391 2643 752 
Q 2906 1113 2906 1747 
Q 2906 2381 2643 2742 
Q 2381 3103 1925 3103 
Q 1469 3103 1208 2742 
Q 947 2381 947 1747 
z
" transform="scale(0.015625)"/>
        <path id="DejaVuSans-2c" d="M 750 794 
L 1409 794 
L 1409 256 
L 897 -744 
L 494 -744 
L 750 256 
L 750 794 
z
" transform="scale(0.015625)"/>
        <path id="DejaVuSans-20" transform="scale(0.015625)"/>
        <path id="DejaVuSans-62" d="M 3116 1747 
Q 3116 2381 2855 2742 
Q 2594 3103 2138 3103 
Q 1681 3103 1420 2742 
Q 1159 2381 1159 1747 
Q 1159 1113 1420 752 
Q 1681 391 2138 391 
Q 2594 391 2855 752 
Q 3116 1113 3116 1747 
z
M 1159 2969 
Q 1341 3281 1617 3432 
Q 1894 3584 2278 3584 
Q 2916 3584 3314 3078 
Q 3713 2572 3713 1747 
Q 3713 922 3314 415 
Q 2916 -91 2278 -91 
Q 1894 -91 1617 61 
Q 1341 213 1159 525 
L 1159 0 
L 581 0 
L 581 4863 
L 1159 4863 
L 1159 2969 
z
" transform="scale(0.015625)"/>
        <path id="DejaVuSans-61" d="M 2194 1759 
Q 1497 1759 1228 1600 
Q 959 1441 959 1056 
Q 959 750 1161 570 
Q 1363 391 1709 391 
Q 2188 391 2477 730 
Q 2766 1069 2766 1631 
L 2766 1759 
L 2194 1759 
z
M 3341 1997 
L 3341 0 
L 2766 0 
L 2766 531 
Q 2569 213 2275 61 
Q 1981 -91 1556 -91 
Q 1019 -91 701 211 
Q 384 513 384 1019 
Q 384 1609 779 1909 
Q 1175 2209 1959 2209 
L 2766 2209 
L 2766 2266 
Q 2766 2663 2505 2880 
Q 2244 3097 1772 3097 
Q 1472 3097 1187 3025 
Q 903 2953 641 2809 
L 641 3341 
Q 956 3463 1253 3523 
Q 1550 3584 1831 3584 
Q 2591 3584 2966 3190 
Q 3341 2797 3341 1997 
z
" transform="scale(0.015625)"/>
        <path id="DejaVuSans-72" d="M 2631 2963 
Q 2534 3019 2420 3045 
Q 2306 3072 2169 3072 
Q 1681 3072 1420 2755 
Q 1159 2438 1159 1844 
L 1159 0 
L 581 0 
L 581 3500 
L 1159 3500 
L 1159 2956 
Q 1341 3275 1631 3429 
Q 1922 3584 2338 3584 
Q 2397 3584 2469 3576 
Q 2541 3569 2628 3553 
L 2631 2963 
z
" transform="scale(0.015625)"/>
        <path id="DejaVuSans-6e" d="M 3513 2113 
L 3513 0 
L 2938 0 
L 2938 2094 
Q 2938 2591 2744 2837 
Q 2550 3084 2163 3084 
Q 1697 3084 1428 2787 
Q 1159 2491 1159 1978 
L 1159 0 
L 581 0 
L 581 3500 
L 1159 3500 
L 1159 2956 
Q 1366 3272 1645 3428 
Q 1925 3584 2291 3584 
Q 2894 3584 3203 3211 
Q 3513 2838 3513 2113 
z
" transform="scale(0.015625)"/>
        <path id="DejaVuSans-7d" d="M 800 -594 
L 1019 -594 
Q 1456 -594 1589 -459 
Q 1722 -325 1722 122 
L 1722 897 
Q 1722 1384 1862 1606 
Q 2003 1828 2350 1913 
Q 2003 1991 1862 2212 
Q 1722 2434 1722 2925 
L 1722 3700 
Q 1722 4144 1589 4280 
Q 1456 4416 1019 4416 
L 800 4416 
L 800 4863 
L 997 4863 
Q 1775 4863 2036 4633 
Q 2297 4403 2297 3713 
L 2297 2963 
Q 2297 2497 2465 2317 
Q 2634 2138 3078 2138 
L 3272 2138 
L 3272 1691 
L 3078 1691 
Q 2634 1691 2465 1509 
Q 2297 1328 2297 856 
L 2297 109 
Q 2297 -581 2036 -812 
Q 1775 -1044 997 -1044 
L 800 -1044 
L 800 -594 
z
" transform="scale(0.015625)"/>
       </defs>
       <use xlink:href="#DejaVuSans-7b"/>
       <use xlink:href="#DejaVuSans-67" transform="translate(63.623047 0)"/>
       <use xlink:href="#DejaVuSans-6c" transform="translate(127.099609 0)"/>
       <use xlink:href="#DejaVuSans-79" transform="translate(154.882812 0)"/>
       <use xlink:href="#DejaVuSans-63" transform="translate(214.0625 0)"/>
       <use xlink:href="#DejaVuSans-6f" transform="translate(269.042969 0)"/>
       <use xlink:href="#DejaVuSans-70" transform="translate(330.224609 0)"/>
       <use xlink:href="#DejaVuSans-65" transform="translate(393.701172 0)"/>
       <use xlink:href="#DejaVuSans-70" transform="translate(455.224609 0)"/>
       <use xlink:href="#DejaVuSans-74" transform="translate(518.701172 0)"/>
       <use xlink:href="#DejaVuSans-69" transform="translate(557.910156 0)"/>
       <use xlink:href="#DejaVuSans-64" transform="translate(585.693359 0)"/>
       <use xlink:href="#DejaVuSans-65" transform="translate(649.169922 0)"/>
       <use xlink:href="#DejaVuSans-2c" transform="translate(710.693359 0)"/>
       <use xlink:href="#DejaVuSans-20" transform="translate(742.480469 0)"/>
       <use xlink:href="#DejaVuSans-62" transform="translate(774.267578 0)"/>
       <use xlink:href="#DejaVuSans-61" transform="translate(837.744141 0)"/>
       <use xlink:href="#DejaVuSans-63" transform="translate(899.023438 0)"/>
       <use xlink:href="#DejaVuSans-69" transform="translate(954.003906 0)"/>
       <use xlink:href="#DejaVuSans-74" transform="translate(981.787109 0)"/>
       <use xlink:href="#DejaVuSans-72" transform="translate(1020.996094 0)"/>
       <use xlink:href="#DejaVuSans-61" transform="translate(1062.109375 0)"/>
       <use xlink:href="#DejaVuSans-63" transform="translate(1123.388672 0)"/>
       <use xlink:href="#DejaVuSans-69" transform="translate(1178.369141 0)"/>
       <use xlink:href="#DejaVuSans-6e" transform="translate(1206.152344 0)"/>
       <use xlink:href="#DejaVuSans-7d" transform="translate(1269.53125 0)"/>
      </g>
     </g>
    </g>
    <g id="xtick_2">
     <g id="line2d_2">
      <g>
       <use xlink:href="#m3bd1fca464" x="86.808125" y="77.758125" style="stroke: #000000; stroke-width: 0.8"/>
      </g>
     </g>
     <g id="text_2">
      <!-- {glycopeptide, bacitracin, peptide} -->
      <g transform="translate(89.5675 262.484688) rotate(-90) scale(0.1 -0.1)">
       <use xlink:href="#DejaVuSans-7b"/>
       <use xlink:href="#DejaVuSans-67" transform="translate(63.623047 0)"/>
       <use xlink:href="#DejaVuSans-6c" transform="translate(127.099609 0)"/>
       <use xlink:href="#DejaVuSans-79" transform="translate(154.882812 0)"/>
       <use xlink:href="#DejaVuSans-63" transform="translate(214.0625 0)"/>
       <use xlink:href="#DejaVuSans-6f" transform="translate(269.042969 0)"/>
       <use xlink:href="#DejaVuSans-70" transform="translate(330.224609 0)"/>
       <use xlink:href="#DejaVuSans-65" transform="translate(393.701172 0)"/>
       <use xlink:href="#DejaVuSans-70" transform="translate(455.224609 0)"/>
       <use xlink:href="#DejaVuSans-74" transform="translate(518.701172 0)"/>
       <use xlink:href="#DejaVuSans-69" transform="translate(557.910156 0)"/>
       <use xlink:href="#DejaVuSans-64" transform="translate(585.693359 0)"/>
       <use xlink:href="#DejaVuSans-65" transform="translate(649.169922 0)"/>
       <use xlink:href="#DejaVuSans-2c" transform="translate(710.693359 0)"/>
       <use xlink:href="#DejaVuSans-20" transform="translate(742.480469 0)"/>
       <use xlink:href="#DejaVuSans-62" transform="translate(774.267578 0)"/>
       <use xlink:href="#DejaVuSans-61" transform="translate(837.744141 0)"/>
       <use xlink:href="#DejaVuSans-63" transform="translate(899.023438 0)"/>
       <use xlink:href="#DejaVuSans-69" transform="translate(954.003906 0)"/>
       <use xlink:href="#DejaVuSans-74" transform="translate(981.787109 0)"/>
       <use xlink:href="#DejaVuSans-72" transform="translate(1020.996094 0)"/>
       <use xlink:href="#DejaVuSans-61" transform="translate(1062.109375 0)"/>
       <use xlink:href="#DejaVuSans-63" transform="translate(1123.388672 0)"/>
       <use xlink:href="#DejaVuSans-69" transform="translate(1178.369141 0)"/>
       <use xlink:href="#DejaVuSans-6e" transform="translate(1206.152344 0)"/>
       <use xlink:href="#DejaVuSans-2c" transform="translate(1269.53125 0)"/>
       <use xlink:href="#DejaVuSans-20" transform="translate(1301.318359 0)"/>
       <use xlink:href="#DejaVuSans-70" transform="translate(1333.105469 0)"/>
       <use xlink:href="#DejaVuSans-65" transform="translate(1396.582031 0)"/>
       <use xlink:href="#DejaVuSans-70" transform="translate(1458.105469 0)"/>
       <use xlink:href="#DejaVuSans-74" transform="translate(1521.582031 0)"/>
       <use xlink:href="#DejaVuSans-69" transform="translate(1560.791016 0)"/>
       <use xlink:href="#DejaVuSans-64" transform="translate(1588.574219 0)"/>
       <use xlink:href="#DejaVuSans-65" transform="translate(1652.050781 0)"/>
       <use xlink:href="#DejaVuSans-7d" transform="translate(1713.574219 0)"/>
      </g>
     </g>
    </g>
    <g id="xtick_3">
     <g id="line2d_3">
      <g>
       <use xlink:href="#m3bd1fca464" x="109.128125" y="77.758125" style="stroke: #000000; stroke-width: 0.8"/>
      </g>
     </g>
     <g id="text_3">
      <!-- {mycobacterium_tuberculosis-specific_drug, bacitracin} -->
      <g transform="translate(111.748437 366.770625) rotate(-90) scale(0.1 -0.1)">
       <defs>
        <path id="DejaVuSans-6d" d="M 3328 2828 
Q 3544 3216 3844 3400 
Q 4144 3584 4550 3584 
Q 5097 3584 5394 3201 
Q 5691 2819 5691 2113 
L 5691 0 
L 5113 0 
L 5113 2094 
Q 5113 2597 4934 2840 
Q 4756 3084 4391 3084 
Q 3944 3084 3684 2787 
Q 3425 2491 3425 1978 
L 3425 0 
L 2847 0 
L 2847 2094 
Q 2847 2600 2669 2842 
Q 2491 3084 2119 3084 
Q 1678 3084 1418 2786 
Q 1159 2488 1159 1978 
L 1159 0 
L 581 0 
L 581 3500 
L 1159 3500 
L 1159 2956 
Q 1356 3278 1631 3431 
Q 1906 3584 2284 3584 
Q 2666 3584 2933 3390 
Q 3200 3197 3328 2828 
z
" transform="scale(0.015625)"/>
        <path id="DejaVuSans-75" d="M 544 1381 
L 544 3500 
L 1119 3500 
L 1119 1403 
Q 1119 906 1312 657 
Q 1506 409 1894 409 
Q 2359 409 2629 706 
Q 2900 1003 2900 1516 
L 2900 3500 
L 3475 3500 
L 3475 0 
L 2900 0 
L 2900 538 
Q 2691 219 2414 64 
Q 2138 -91 1772 -91 
Q 1169 -91 856 284 
Q 544 659 544 1381 
z
M 1991 3584 
L 1991 3584 
z
" transform="scale(0.015625)"/>
        <path id="DejaVuSans-5f" d="M 3263 -1063 
L 3263 -1509 
L -63 -1509 
L -63 -1063 
L 3263 -1063 
z
" transform="scale(0.015625)"/>
        <path id="DejaVuSans-73" d="M 2834 3397 
L 2834 2853 
Q 2591 2978 2328 3040 
Q 2066 3103 1784 3103 
Q 1356 3103 1142 2972 
Q 928 2841 928 2578 
Q 928 2378 1081 2264 
Q 1234 2150 1697 2047 
L 1894 2003 
Q 2506 1872 2764 1633 
Q 3022 1394 3022 966 
Q 3022 478 2636 193 
Q 2250 -91 1575 -91 
Q 1294 -91 989 -36 
Q 684 19 347 128 
L 347 722 
Q 666 556 975 473 
Q 1284 391 1588 391 
Q 1994 391 2212 530 
Q 2431 669 2431 922 
Q 2431 1156 2273 1281 
Q 2116 1406 1581 1522 
L 1381 1569 
Q 847 1681 609 1914 
Q 372 2147 372 2553 
Q 372 3047 722 3315 
Q 1072 3584 1716 3584 
Q 2034 3584 2315 3537 
Q 2597 3491 2834 3397 
z
" transform="scale(0.015625)"/>
        <path id="DejaVuSans-2d" d="M 313 2009 
L 1997 2009 
L 1997 1497 
L 313 1497 
L 313 2009 
z
" transform="scale(0.015625)"/>
        <path id="DejaVuSans-66" d="M 2375 4863 
L 2375 4384 
L 1825 4384 
Q 1516 4384 1395 4259 
Q 1275 4134 1275 3809 
L 1275 3500 
L 2222 3500 
L 2222 3053 
L 1275 3053 
L 1275 0 
L 697 0 
L 697 3053 
L 147 3053 
L 147 3500 
L 697 3500 
L 697 3744 
Q 697 4328 969 4595 
Q 1241 4863 1831 4863 
L 2375 4863 
z
" transform="scale(0.015625)"/>
       </defs>
       <use xlink:href="#DejaVuSans-7b"/>
       <use xlink:href="#DejaVuSans-6d" transform="translate(63.623047 0)"/>
       <use xlink:href="#DejaVuSans-79" transform="translate(161.035156 0)"/>
       <use xlink:href="#DejaVuSans-63" transform="translate(220.214844 0)"/>
       <use xlink:href="#DejaVuSans-6f" transform="translate(275.195312 0)"/>
       <use xlink:href="#DejaVuSans-62" transform="translate(336.376953 0)"/>
       <use xlink:href="#DejaVuSans-61" transform="translate(399.853516 0)"/>
       <use xlink:href="#DejaVuSans-63" transform="translate(461.132812 0)"/>
       <use xlink:href="#DejaVuSans-74" transform="translate(516.113281 0)"/>
       <use xlink:href="#DejaVuSans-65" transform="translate(555.322266 0)"/>
       <use xlink:href="#DejaVuSans-72" transform="translate(616.845703 0)"/>
       <use xlink:href="#DejaVuSans-69" transform="translate(657.958984 0)"/>
       <use xlink:href="#DejaVuSans-75" transform="translate(685.742188 0)"/>
       <use xlink:href="#DejaVuSans-6d" transform="translate(749.121094 0)"/>
       <use xlink:href="#DejaVuSans-5f" transform="translate(846.533203 0)"/>
       <use xlink:href="#DejaVuSans-74" transform="translate(896.533203 0)"/>
       <use xlink:href="#DejaVuSans-75" transform="translate(935.742188 0)"/>
       <use xlink:href="#DejaVuSans-62" transform="translate(999.121094 0)"/>
       <use xlink:href="#DejaVuSans-65" transform="translate(1062.597656 0)"/>
       <use xlink:href="#DejaVuSans-72" transform="translate(1124.121094 0)"/>
       <use xlink:href="#DejaVuSans-63" transform="translate(1162.984375 0)"/>
       <use xlink:href="#DejaVuSans-75" transform="translate(1217.964844 0)"/>
       <use xlink:href="#DejaVuSans-6c" transform="translate(1281.34375 0)"/>
       <use xlink:href="#DejaVuSans-6f" transform="translate(1309.126953 0)"/>
       <use xlink:href="#DejaVuSans-73" transform="translate(1370.308594 0)"/>
       <use xlink:href="#DejaVuSans-69" transform="translate(1422.408203 0)"/>
       <use xlink:href="#DejaVuSans-73" transform="translate(1450.191406 0)"/>
       <use xlink:href="#DejaVuSans-2d" transform="translate(1502.291016 0)"/>
       <use xlink:href="#DejaVuSans-73" transform="translate(1538.375 0)"/>
       <use xlink:href="#DejaVuSans-70" transform="translate(1590.474609 0)"/>
       <use xlink:href="#DejaVuSans-65" transform="translate(1653.951172 0)"/>
       <use xlink:href="#DejaVuSans-63" transform="translate(1715.474609 0)"/>
       <use xlink:href="#DejaVuSans-69" transform="translate(1770.455078 0)"/>
       <use xlink:href="#DejaVuSans-66" transform="translate(1798.238281 0)"/>
       <use xlink:href="#DejaVuSans-69" transform="translate(1833.443359 0)"/>
       <use xlink:href="#DejaVuSans-63" transform="translate(1861.226562 0)"/>
       <use xlink:href="#DejaVuSans-5f" transform="translate(1916.207031 0)"/>
       <use xlink:href="#DejaVuSans-64" transform="translate(1966.207031 0)"/>
       <use xlink:href="#DejaVuSans-72" transform="translate(2029.683594 0)"/>
       <use xlink:href="#DejaVuSans-75" transform="translate(2070.796875 0)"/>
       <use xlink:href="#DejaVuSans-67" transform="translate(2134.175781 0)"/>
       <use xlink:href="#DejaVuSans-2c" transform="translate(2197.652344 0)"/>
       <use xlink:href="#DejaVuSans-20" transform="translate(2229.439453 0)"/>
       <use xlink:href="#DejaVuSans-62" transform="translate(2261.226562 0)"/>
       <use xlink:href="#DejaVuSans-61" transform="translate(2324.703125 0)"/>
       <use xlink:href="#DejaVuSans-63" transform="translate(2385.982422 0)"/>
       <use xlink:href="#DejaVuSans-69" transform="translate(2440.962891 0)"/>
       <use xlink:href="#DejaVuSans-74" transform="translate(2468.746094 0)"/>
       <use xlink:href="#DejaVuSans-72" transform="translate(2507.955078 0)"/>
       <use xlink:href="#DejaVuSans-61" transform="translate(2549.068359 0)"/>
       <use xlink:href="#DejaVuSans-63" transform="translate(2610.347656 0)"/>
       <use xlink:href="#DejaVuSans-69" transform="translate(2665.328125 0)"/>
       <use xlink:href="#DejaVuSans-6e" transform="translate(2693.111328 0)"/>
       <use xlink:href="#DejaVuSans-7d" transform="translate(2756.490234 0)"/>
      </g>
     </g>
    </g>
    <g id="xtick_4">
     <g id="line2d_4">
      <g>
       <use xlink:href="#m3bd1fca464" x="131.448125" y="77.758125" style="stroke: #000000; stroke-width: 0.8"/>
      </g>
     </g>
     <g id="text_4">
      <!-- {bacitracin, macrolide} -->
      <g transform="translate(134.2075 202.795625) rotate(-90) scale(0.1 -0.1)">
       <use xlink:href="#DejaVuSans-7b"/>
       <use xlink:href="#DejaVuSans-62" transform="translate(63.623047 0)"/>
       <use xlink:href="#DejaVuSans-61" transform="translate(127.099609 0)"/>
       <use xlink:href="#DejaVuSans-63" transform="translate(188.378906 0)"/>
       <use xlink:href="#DejaVuSans-69" transform="translate(243.359375 0)"/>
       <use xlink:href="#DejaVuSans-74" transform="translate(271.142578 0)"/>
       <use xlink:href="#DejaVuSans-72" transform="translate(310.351562 0)"/>
       <use xlink:href="#DejaVuSans-61" transform="translate(351.464844 0)"/>
       <use xlink:href="#DejaVuSans-63" transform="translate(412.744141 0)"/>
       <use xlink:href="#DejaVuSans-69" transform="translate(467.724609 0)"/>
       <use xlink:href="#DejaVuSans-6e" transform="translate(495.507812 0)"/>
       <use xlink:href="#DejaVuSans-2c" transform="translate(558.886719 0)"/>
       <use xlink:href="#DejaVuSans-20" transform="translate(590.673828 0)"/>
       <use xlink:href="#DejaVuSans-6d" transform="translate(622.460938 0)"/>
       <use xlink:href="#DejaVuSans-61" transform="translate(719.873047 0)"/>
       <use xlink:href="#DejaVuSans-63" transform="translate(781.152344 0)"/>
       <use xlink:href="#DejaVuSans-72" transform="translate(836.132812 0)"/>
       <use xlink:href="#DejaVuSans-6f" transform="translate(874.996094 0)"/>
       <use xlink:href="#DejaVuSans-6c" transform="translate(936.177734 0)"/>
       <use xlink:href="#DejaVuSans-69" transform="translate(963.960938 0)"/>
       <use xlink:href="#DejaVuSans-64" transform="translate(991.744141 0)"/>
       <use xlink:href="#DejaVuSans-65" transform="translate(1055.220703 0)"/>
       <use xlink:href="#DejaVuSans-7d" transform="translate(1116.744141 0)"/>
      </g>
     </g>
    </g>
    <g id="xtick_5">
     <g id="line2d_5">
      <g>
       <use xlink:href="#m3bd1fca464" x="153.768125" y="77.758125" style="stroke: #000000; stroke-width: 0.8"/>
      </g>
     </g>
     <g id="text_5">
      <!-- {nitroimidazole, bacitracin} -->
      <g transform="translate(156.5275 224.478438) rotate(-90) scale(0.1 -0.1)">
       <defs>
        <path id="DejaVuSans-7a" d="M 353 3500 
L 3084 3500 
L 3084 2975 
L 922 459 
L 3084 459 
L 3084 0 
L 275 0 
L 275 525 
L 2438 3041 
L 353 3041 
L 353 3500 
z
" transform="scale(0.015625)"/>
       </defs>
       <use xlink:href="#DejaVuSans-7b"/>
       <use xlink:href="#DejaVuSans-6e" transform="translate(63.623047 0)"/>
       <use xlink:href="#DejaVuSans-69" transform="translate(127.001953 0)"/>
       <use xlink:href="#DejaVuSans-74" transform="translate(154.785156 0)"/>
       <use xlink:href="#DejaVuSans-72" transform="translate(193.994141 0)"/>
       <use xlink:href="#DejaVuSans-6f" transform="translate(232.857422 0)"/>
       <use xlink:href="#DejaVuSans-69" transform="translate(294.039062 0)"/>
       <use xlink:href="#DejaVuSans-6d" transform="translate(321.822266 0)"/>
       <use xlink:href="#DejaVuSans-69" transform="translate(419.234375 0)"/>
       <use xlink:href="#DejaVuSans-64" transform="translate(447.017578 0)"/>
       <use xlink:href="#DejaVuSans-61" transform="translate(510.494141 0)"/>
       <use xlink:href="#DejaVuSans-7a" transform="translate(571.773438 0)"/>
       <use xlink:href="#DejaVuSans-6f" transform="translate(624.263672 0)"/>
       <use xlink:href="#DejaVuSans-6c" transform="translate(685.445312 0)"/>
       <use xlink:href="#DejaVuSans-65" transform="translate(713.228516 0)"/>
       <use xlink:href="#DejaVuSans-2c" transform="translate(774.751953 0)"/>
       <use xlink:href="#DejaVuSans-20" transform="translate(806.539062 0)"/>
       <use xlink:href="#DejaVuSans-62" transform="translate(838.326172 0)"/>
       <use xlink:href="#DejaVuSans-61" transform="translate(901.802734 0)"/>
       <use xlink:href="#DejaVuSans-63" transform="translate(963.082031 0)"/>
       <use xlink:href="#DejaVuSans-69" transform="translate(1018.0625 0)"/>
       <use xlink:href="#DejaVuSans-74" transform="translate(1045.845703 0)"/>
       <use xlink:href="#DejaVuSans-72" transform="translate(1085.054688 0)"/>
       <use xlink:href="#DejaVuSans-61" transform="translate(1126.167969 0)"/>
       <use xlink:href="#DejaVuSans-63" transform="translate(1187.447266 0)"/>
       <use xlink:href="#DejaVuSans-69" transform="translate(1242.427734 0)"/>
       <use xlink:href="#DejaVuSans-6e" transform="translate(1270.210938 0)"/>
       <use xlink:href="#DejaVuSans-7d" transform="translate(1333.589844 0)"/>
      </g>
     </g>
    </g>
    <g id="xtick_6">
     <g id="line2d_6">
      <g>
       <use xlink:href="#m3bd1fca464" x="176.088125" y="77.758125" style="stroke: #000000; stroke-width: 0.8"/>
      </g>
     </g>
     <g id="text_6">
      <!-- {bacitracin, peptide} -->
      <g transform="translate(178.8475 191.415938) rotate(-90) scale(0.1 -0.1)">
       <use xlink:href="#DejaVuSans-7b"/>
       <use xlink:href="#DejaVuSans-62" transform="translate(63.623047 0)"/>
       <use xlink:href="#DejaVuSans-61" transform="translate(127.099609 0)"/>
       <use xlink:href="#DejaVuSans-63" transform="translate(188.378906 0)"/>
       <use xlink:href="#DejaVuSans-69" transform="translate(243.359375 0)"/>
       <use xlink:href="#DejaVuSans-74" transform="translate(271.142578 0)"/>
       <use xlink:href="#DejaVuSans-72" transform="translate(310.351562 0)"/>
       <use xlink:href="#DejaVuSans-61" transform="translate(351.464844 0)"/>
       <use xlink:href="#DejaVuSans-63" transform="translate(412.744141 0)"/>
       <use xlink:href="#DejaVuSans-69" transform="translate(467.724609 0)"/>
       <use xlink:href="#DejaVuSans-6e" transform="translate(495.507812 0)"/>
       <use xlink:href="#DejaVuSans-2c" transform="translate(558.886719 0)"/>
       <use xlink:href="#DejaVuSans-20" transform="translate(590.673828 0)"/>
       <use xlink:href="#DejaVuSans-70" transform="translate(622.460938 0)"/>
       <use xlink:href="#DejaVuSans-65" transform="translate(685.9375 0)"/>
       <use xlink:href="#DejaVuSans-70" transform="translate(747.460938 0)"/>
       <use xlink:href="#DejaVuSans-74" transform="translate(810.9375 0)"/>
       <use xlink:href="#DejaVuSans-69" transform="translate(850.146484 0)"/>
       <use xlink:href="#DejaVuSans-64" transform="translate(877.929688 0)"/>
       <use xlink:href="#DejaVuSans-65" transform="translate(941.40625 0)"/>
       <use xlink:href="#DejaVuSans-7d" transform="translate(1002.929688 0)"/>
      </g>
     </g>
    </g>
    <g id="xtick_7">
     <g id="line2d_7">
      <g>
       <use xlink:href="#m3bd1fca464" x="198.408125" y="77.758125" style="stroke: #000000; stroke-width: 0.8"/>
      </g>
     </g>
     <g id="text_7">
      <!-- {triclosan, bacitracin} -->
      <g transform="translate(201.1675 196.245625) rotate(-90) scale(0.1 -0.1)">
       <use xlink:href="#DejaVuSans-7b"/>
       <use xlink:href="#DejaVuSans-74" transform="translate(63.623047 0)"/>
       <use xlink:href="#DejaVuSans-72" transform="translate(102.832031 0)"/>
       <use xlink:href="#DejaVuSans-69" transform="translate(143.945312 0)"/>
       <use xlink:href="#DejaVuSans-63" transform="translate(171.728516 0)"/>
       <use xlink:href="#DejaVuSans-6c" transform="translate(226.708984 0)"/>
       <use xlink:href="#DejaVuSans-6f" transform="translate(254.492188 0)"/>
       <use xlink:href="#DejaVuSans-73" transform="translate(315.673828 0)"/>
       <use xlink:href="#DejaVuSans-61" transform="translate(367.773438 0)"/>
       <use xlink:href="#DejaVuSans-6e" transform="translate(429.052734 0)"/>
       <use xlink:href="#DejaVuSans-2c" transform="translate(492.431641 0)"/>
       <use xlink:href="#DejaVuSans-20" transform="translate(524.21875 0)"/>
       <use xlink:href="#DejaVuSans-62" transform="translate(556.005859 0)"/>
       <use xlink:href="#DejaVuSans-61" transform="translate(619.482422 0)"/>
       <use xlink:href="#DejaVuSans-63" transform="translate(680.761719 0)"/>
       <use xlink:href="#DejaVuSans-69" transform="translate(735.742188 0)"/>
       <use xlink:href="#DejaVuSans-74" transform="translate(763.525391 0)"/>
       <use xlink:href="#DejaVuSans-72" transform="translate(802.734375 0)"/>
       <use xlink:href="#DejaVuSans-61" transform="translate(843.847656 0)"/>
       <use xlink:href="#DejaVuSans-63" transform="translate(905.126953 0)"/>
       <use xlink:href="#DejaVuSans-69" transform="translate(960.107422 0)"/>
       <use xlink:href="#DejaVuSans-6e" transform="translate(987.890625 0)"/>
       <use xlink:href="#DejaVuSans-7d" transform="translate(1051.269531 0)"/>
      </g>
     </g>
    </g>
    <g id="xtick_8">
     <g id="line2d_8">
      <g>
       <use xlink:href="#m3bd1fca464" x="220.728125" y="77.758125" style="stroke: #000000; stroke-width: 0.8"/>
      </g>
     </g>
     <g id="text_8">
      <!-- {bacitracin, aminocoumarin, quinolone} -->
      <g transform="translate(223.4875 287.183125) rotate(-90) scale(0.1 -0.1)">
       <defs>
        <path id="DejaVuSans-71" d="M 947 1747 
Q 947 1113 1208 752 
Q 1469 391 1925 391 
Q 2381 391 2643 752 
Q 2906 1113 2906 1747 
Q 2906 2381 2643 2742 
Q 2381 3103 1925 3103 
Q 1469 3103 1208 2742 
Q 947 2381 947 1747 
z
M 2906 525 
Q 2725 213 2448 61 
Q 2172 -91 1784 -91 
Q 1150 -91 751 415 
Q 353 922 353 1747 
Q 353 2572 751 3078 
Q 1150 3584 1784 3584 
Q 2172 3584 2448 3432 
Q 2725 3281 2906 2969 
L 2906 3500 
L 3481 3500 
L 3481 -1331 
L 2906 -1331 
L 2906 525 
z
" transform="scale(0.015625)"/>
       </defs>
       <use xlink:href="#DejaVuSans-7b"/>
       <use xlink:href="#DejaVuSans-62" transform="translate(63.623047 0)"/>
       <use xlink:href="#DejaVuSans-61" transform="translate(127.099609 0)"/>
       <use xlink:href="#DejaVuSans-63" transform="translate(188.378906 0)"/>
       <use xlink:href="#DejaVuSans-69" transform="translate(243.359375 0)"/>
       <use xlink:href="#DejaVuSans-74" transform="translate(271.142578 0)"/>
       <use xlink:href="#DejaVuSans-72" transform="translate(310.351562 0)"/>
       <use xlink:href="#DejaVuSans-61" transform="translate(351.464844 0)"/>
       <use xlink:href="#DejaVuSans-63" transform="translate(412.744141 0)"/>
       <use xlink:href="#DejaVuSans-69" transform="translate(467.724609 0)"/>
       <use xlink:href="#DejaVuSans-6e" transform="translate(495.507812 0)"/>
       <use xlink:href="#DejaVuSans-2c" transform="translate(558.886719 0)"/>
       <use xlink:href="#DejaVuSans-20" transform="translate(590.673828 0)"/>
       <use xlink:href="#DejaVuSans-61" transform="translate(622.460938 0)"/>
       <use xlink:href="#DejaVuSans-6d" transform="translate(683.740234 0)"/>
       <use xlink:href="#DejaVuSans-69" transform="translate(781.152344 0)"/>
       <use xlink:href="#DejaVuSans-6e" transform="translate(808.935547 0)"/>
       <use xlink:href="#DejaVuSans-6f" transform="translate(872.314453 0)"/>
       <use xlink:href="#DejaVuSans-63" transform="translate(933.496094 0)"/>
       <use xlink:href="#DejaVuSans-6f" transform="translate(988.476562 0)"/>
       <use xlink:href="#DejaVuSans-75" transform="translate(1049.658203 0)"/>
       <use xlink:href="#DejaVuSans-6d" transform="translate(1113.037109 0)"/>
       <use xlink:href="#DejaVuSans-61" transform="translate(1210.449219 0)"/>
       <use xlink:href="#DejaVuSans-72" transform="translate(1271.728516 0)"/>
       <use xlink:href="#DejaVuSans-69" transform="translate(1312.841797 0)"/>
       <use xlink:href="#DejaVuSans-6e" transform="translate(1340.625 0)"/>
       <use xlink:href="#DejaVuSans-2c" transform="translate(1404.003906 0)"/>
       <use xlink:href="#DejaVuSans-20" transform="translate(1435.791016 0)"/>
       <use xlink:href="#DejaVuSans-71" transform="translate(1467.578125 0)"/>
       <use xlink:href="#DejaVuSans-75" transform="translate(1531.054688 0)"/>
       <use xlink:href="#DejaVuSans-69" transform="translate(1594.433594 0)"/>
       <use xlink:href="#DejaVuSans-6e" transform="translate(1622.216797 0)"/>
       <use xlink:href="#DejaVuSans-6f" transform="translate(1685.595703 0)"/>
       <use xlink:href="#DejaVuSans-6c" transform="translate(1746.777344 0)"/>
       <use xlink:href="#DejaVuSans-6f" transform="translate(1774.560547 0)"/>
       <use xlink:href="#DejaVuSans-6e" transform="translate(1835.742188 0)"/>
       <use xlink:href="#DejaVuSans-65" transform="translate(1899.121094 0)"/>
       <use xlink:href="#DejaVuSans-7d" transform="translate(1960.644531 0)"/>
      </g>
     </g>
    </g>
    <g id="xtick_9">
     <g id="line2d_9">
      <g>
       <use xlink:href="#m3bd1fca464" x="243.048125" y="77.758125" style="stroke: #000000; stroke-width: 0.8"/>
      </g>
     </g>
     <g id="text_9">
      <!-- {bacitracin, bleomycin} -->
      <g transform="translate(245.8075 205.037813) rotate(-90) scale(0.1 -0.1)">
       <use xlink:href="#DejaVuSans-7b"/>
       <use xlink:href="#DejaVuSans-62" transform="translate(63.623047 0)"/>
       <use xlink:href="#DejaVuSans-61" transform="translate(127.099609 0)"/>
       <use xlink:href="#DejaVuSans-63" transform="translate(188.378906 0)"/>
       <use xlink:href="#DejaVuSans-69" transform="translate(243.359375 0)"/>
       <use xlink:href="#DejaVuSans-74" transform="translate(271.142578 0)"/>
       <use xlink:href="#DejaVuSans-72" transform="translate(310.351562 0)"/>
       <use xlink:href="#DejaVuSans-61" transform="translate(351.464844 0)"/>
       <use xlink:href="#DejaVuSans-63" transform="translate(412.744141 0)"/>
       <use xlink:href="#DejaVuSans-69" transform="translate(467.724609 0)"/>
       <use xlink:href="#DejaVuSans-6e" transform="translate(495.507812 0)"/>
       <use xlink:href="#DejaVuSans-2c" transform="translate(558.886719 0)"/>
       <use xlink:href="#DejaVuSans-20" transform="translate(590.673828 0)"/>
       <use xlink:href="#DejaVuSans-62" transform="translate(622.460938 0)"/>
       <use xlink:href="#DejaVuSans-6c" transform="translate(685.9375 0)"/>
       <use xlink:href="#DejaVuSans-65" transform="translate(713.720703 0)"/>
       <use xlink:href="#DejaVuSans-6f" transform="translate(775.244141 0)"/>
       <use xlink:href="#DejaVuSans-6d" transform="translate(836.425781 0)"/>
       <use xlink:href="#DejaVuSans-79" transform="translate(933.837891 0)"/>
       <use xlink:href="#DejaVuSans-63" transform="translate(993.017578 0)"/>
       <use xlink:href="#DejaVuSans-69" transform="translate(1047.998047 0)"/>
       <use xlink:href="#DejaVuSans-6e" transform="translate(1075.78125 0)"/>
       <use xlink:href="#DejaVuSans-7d" transform="translate(1139.160156 0)"/>
      </g>
     </g>
    </g>
    <g id="xtick_10">
     <g id="line2d_10">
      <g>
       <use xlink:href="#m3bd1fca464" x="265.368125" y="77.758125" style="stroke: #000000; stroke-width: 0.8"/>
      </g>
     </g>
     <g id="text_10">
      <!-- {bacitracin, multidrug} -->
      <g transform="translate(268.1275 202.065938) rotate(-90) scale(0.1 -0.1)">
       <use xlink:href="#DejaVuSans-7b"/>
       <use xlink:href="#DejaVuSans-62" transform="translate(63.623047 0)"/>
       <use xlink:href="#DejaVuSans-61" transform="translate(127.099609 0)"/>
       <use xlink:href="#DejaVuSans-63" transform="translate(188.378906 0)"/>
       <use xlink:href="#DejaVuSans-69" transform="translate(243.359375 0)"/>
       <use xlink:href="#DejaVuSans-74" transform="translate(271.142578 0)"/>
       <use xlink:href="#DejaVuSans-72" transform="translate(310.351562 0)"/>
       <use xlink:href="#DejaVuSans-61" transform="translate(351.464844 0)"/>
       <use xlink:href="#DejaVuSans-63" transform="translate(412.744141 0)"/>
       <use xlink:href="#DejaVuSans-69" transform="translate(467.724609 0)"/>
       <use xlink:href="#DejaVuSans-6e" transform="translate(495.507812 0)"/>
       <use xlink:href="#DejaVuSans-2c" transform="translate(558.886719 0)"/>
       <use xlink:href="#DejaVuSans-20" transform="translate(590.673828 0)"/>
       <use xlink:href="#DejaVuSans-6d" transform="translate(622.460938 0)"/>
       <use xlink:href="#DejaVuSans-75" transform="translate(719.873047 0)"/>
       <use xlink:href="#DejaVuSans-6c" transform="translate(783.251953 0)"/>
       <use xlink:href="#DejaVuSans-74" transform="translate(811.035156 0)"/>
       <use xlink:href="#DejaVuSans-69" transform="translate(850.244141 0)"/>
       <use xlink:href="#DejaVuSans-64" transform="translate(878.027344 0)"/>
       <use xlink:href="#DejaVuSans-72" transform="translate(941.503906 0)"/>
       <use xlink:href="#DejaVuSans-75" transform="translate(982.617188 0)"/>
       <use xlink:href="#DejaVuSans-67" transform="translate(1045.996094 0)"/>
       <use xlink:href="#DejaVuSans-7d" transform="translate(1109.472656 0)"/>
      </g>
     </g>
    </g>
    <g id="text_11">
     <!-- Sets -->
     <g transform="translate(154.1125 378.369063) scale(0.1 -0.1)">
      <defs>
       <path id="DejaVuSans-53" d="M 3425 4513 
L 3425 3897 
Q 3066 4069 2747 4153 
Q 2428 4238 2131 4238 
Q 1616 4238 1336 4038 
Q 1056 3838 1056 3469 
Q 1056 3159 1242 3001 
Q 1428 2844 1947 2747 
L 2328 2669 
Q 3034 2534 3370 2195 
Q 3706 1856 3706 1288 
Q 3706 609 3251 259 
Q 2797 -91 1919 -91 
Q 1588 -91 1214 -16 
Q 841 59 441 206 
L 441 856 
Q 825 641 1194 531 
Q 1563 422 1919 422 
Q 2459 422 2753 634 
Q 3047 847 3047 1241 
Q 3047 1584 2836 1778 
Q 2625 1972 2144 2069 
L 1759 2144 
Q 1053 2284 737 2584 
Q 422 2884 422 3419 
Q 422 4038 858 4394 
Q 1294 4750 2059 4750 
Q 2388 4750 2728 4690 
Q 3069 4631 3425 4513 
z
" transform="scale(0.015625)"/>
      </defs>
      <use xlink:href="#DejaVuSans-53"/>
      <use xlink:href="#DejaVuSans-65" transform="translate(63.476562 0)"/>
      <use xlink:href="#DejaVuSans-74" transform="translate(125 0)"/>
      <use xlink:href="#DejaVuSans-73" transform="translate(164.208984 0)"/>
     </g>
    </g>
   </g>
   <g id="matplotlib.axis_2">
    <g id="ytick_1">
     <g id="line2d_11">
      <defs>
       <path id="m6e3795df91" d="M 0 0 
L -3.5 0 
" style="stroke: #000000; stroke-width: 0.8"/>
      </defs>
      <g>
       <use xlink:href="#m6e3795df91" x="53.328125" y="77.758125" style="stroke: #000000; stroke-width: 0.8"/>
      </g>
     </g>
     <g id="text_12">
      <!-- 0 -->
      <g transform="translate(39.965625 81.557344) scale(0.1 -0.1)">
       <defs>
        <path id="DejaVuSans-30" d="M 2034 4250 
Q 1547 4250 1301 3770 
Q 1056 3291 1056 2328 
Q 1056 1369 1301 889 
Q 1547 409 2034 409 
Q 2525 409 2770 889 
Q 3016 1369 3016 2328 
Q 3016 3291 2770 3770 
Q 2525 4250 2034 4250 
z
M 2034 4750 
Q 2819 4750 3233 4129 
Q 3647 3509 3647 2328 
Q 3647 1150 3233 529 
Q 2819 -91 2034 -91 
Q 1250 -91 836 529 
Q 422 1150 422 2328 
Q 422 3509 836 4129 
Q 1250 4750 2034 4750 
z
" transform="scale(0.015625)"/>
       </defs>
       <use xlink:href="#DejaVuSans-30"/>
      </g>
     </g>
    </g>
    <g id="ytick_2">
     <g id="line2d_12">
      <g>
       <use xlink:href="#m6e3795df91" x="53.328125" y="23.21267" style="stroke: #000000; stroke-width: 0.8"/>
      </g>
     </g>
     <g id="text_13">
      <!-- 1000 -->
      <g transform="translate(20.878125 27.011889) scale(0.1 -0.1)">
       <defs>
        <path id="DejaVuSans-31" d="M 794 531 
L 1825 531 
L 1825 4091 
L 703 3866 
L 703 4441 
L 1819 4666 
L 2450 4666 
L 2450 531 
L 3481 531 
L 3481 0 
L 794 0 
L 794 531 
z
" transform="scale(0.015625)"/>
       </defs>
       <use xlink:href="#DejaVuSans-31"/>
       <use xlink:href="#DejaVuSans-30" transform="translate(63.623047 0)"/>
       <use xlink:href="#DejaVuSans-30" transform="translate(127.246094 0)"/>
       <use xlink:href="#DejaVuSans-30" transform="translate(190.869141 0)"/>
      </g>
     </g>
    </g>
    <g id="text_14">
     <!-- Count -->
     <g transform="translate(14.798437 64.886563) rotate(-90) scale(0.1 -0.1)">
      <defs>
       <path id="DejaVuSans-43" d="M 4122 4306 
L 4122 3641 
Q 3803 3938 3442 4084 
Q 3081 4231 2675 4231 
Q 1875 4231 1450 3742 
Q 1025 3253 1025 2328 
Q 1025 1406 1450 917 
Q 1875 428 2675 428 
Q 3081 428 3442 575 
Q 3803 722 4122 1019 
L 4122 359 
Q 3791 134 3420 21 
Q 3050 -91 2638 -91 
Q 1578 -91 968 557 
Q 359 1206 359 2328 
Q 359 3453 968 4101 
Q 1578 4750 2638 4750 
Q 3056 4750 3426 4639 
Q 3797 4528 4122 4306 
z
" transform="scale(0.015625)"/>
      </defs>
      <use xlink:href="#DejaVuSans-43"/>
      <use xlink:href="#DejaVuSans-6f" transform="translate(69.824219 0)"/>
      <use xlink:href="#DejaVuSans-75" transform="translate(131.005859 0)"/>
      <use xlink:href="#DejaVuSans-6e" transform="translate(194.384766 0)"/>
      <use xlink:href="#DejaVuSans-74" transform="translate(257.763672 0)"/>
     </g>
    </g>
   </g>
   <g id="patch_13">
    <path d="M 53.328125 77.758125 
L 53.328125 22.318125 
" style="fill: none; stroke: #000000; stroke-width: 0.8; stroke-linejoin: miter; stroke-linecap: square"/>
   </g>
   <g id="patch_14">
    <path d="M 276.528125 77.758125 
L 276.528125 22.318125 
" style="fill: none; stroke: #000000; stroke-width: 0.8; stroke-linejoin: miter; stroke-linecap: square"/>
   </g>
   <g id="patch_15">
    <path d="M 53.328125 77.758125 
L 276.528125 77.758125 
" style="fill: none; stroke: #000000; stroke-width: 0.8; stroke-linejoin: miter; stroke-linecap: square"/>
   </g>
   <g id="patch_16">
    <path d="M 53.328125 22.318125 
L 276.528125 22.318125 
" style="fill: none; stroke: #000000; stroke-width: 0.8; stroke-linejoin: miter; stroke-linecap: square"/>
   </g>
   <g id="text_15">
    <!-- Bacitracin -->
    <g transform="translate(134.904687 16.318125) scale(0.12 -0.12)">
     <defs>
      <path id="DejaVuSans-42" d="M 1259 2228 
L 1259 519 
L 2272 519 
Q 2781 519 3026 730 
Q 3272 941 3272 1375 
Q 3272 1813 3026 2020 
Q 2781 2228 2272 2228 
L 1259 2228 
z
M 1259 4147 
L 1259 2741 
L 2194 2741 
Q 2656 2741 2882 2914 
Q 3109 3088 3109 3444 
Q 3109 3797 2882 3972 
Q 2656 4147 2194 4147 
L 1259 4147 
z
M 628 4666 
L 2241 4666 
Q 2963 4666 3353 4366 
Q 3744 4066 3744 3513 
Q 3744 3084 3544 2831 
Q 3344 2578 2956 2516 
Q 3422 2416 3680 2098 
Q 3938 1781 3938 1306 
Q 3938 681 3513 340 
Q 3088 0 2303 0 
L 628 0 
L 628 4666 
z
" transform="scale(0.015625)"/>
     </defs>
     <use xlink:href="#DejaVuSans-42"/>
     <use xlink:href="#DejaVuSans-61" transform="translate(68.603516 0)"/>
     <use xlink:href="#DejaVuSans-63" transform="translate(129.882812 0)"/>
     <use xlink:href="#DejaVuSans-69" transform="translate(184.863281 0)"/>
     <use xlink:href="#DejaVuSans-74" transform="translate(212.646484 0)"/>
     <use xlink:href="#DejaVuSans-72" transform="translate(251.855469 0)"/>
     <use xlink:href="#DejaVuSans-61" transform="translate(292.96875 0)"/>
     <use xlink:href="#DejaVuSans-63" transform="translate(354.248047 0)"/>
     <use xlink:href="#DejaVuSans-69" transform="translate(409.228516 0)"/>
     <use xlink:href="#DejaVuSans-6e" transform="translate(437.011719 0)"/>
    </g>
   </g>
   <g id="legend_1">
    <g id="patch_17">
     <path d="M 209.315625 44.99625 
L 269.528125 44.99625 
Q 271.528125 44.99625 271.528125 42.99625 
L 271.528125 29.318125 
Q 271.528125 27.318125 269.528125 27.318125 
L 209.315625 27.318125 
Q 207.315625 27.318125 207.315625 29.318125 
L 207.315625 42.99625 
Q 207.315625 44.99625 209.315625 44.99625 
z
" style="fill: #ffffff; opacity: 0.8; stroke: #cccccc; stroke-linejoin: miter"/>
    </g>
    <g id="patch_18">
     <path d="M 211.315625 38.916563 
L 231.315625 38.916563 
L 231.315625 31.916563 
L 211.315625 31.916563 
z
" style="fill: #d3d3d3"/>
    </g>
    <g id="text_16">
     <!-- count -->
     <g transform="translate(239.315625 38.916563) scale(0.1 -0.1)">
      <use xlink:href="#DejaVuSans-63"/>
      <use xlink:href="#DejaVuSans-6f" transform="translate(54.980469 0)"/>
      <use xlink:href="#DejaVuSans-75" transform="translate(116.162109 0)"/>
      <use xlink:href="#DejaVuSans-6e" transform="translate(179.541016 0)"/>
      <use xlink:href="#DejaVuSans-74" transform="translate(242.919922 0)"/>
     </g>
    </g>
   </g>
  </g>
 </g>
 <defs>
  <clipPath id="p5144bc0dcd">
   <rect x="53.328125" y="22.318125" width="223.2" height="55.44"/>
  </clipPath>
 </defs>
</svg>
