<?xml version="1.0" encoding="utf-8" standalone="no"?>
<!DOCTYPE svg PUBLIC "-//W3C//DTD SVG 1.1//EN"
  "http://www.w3.org/Graphics/SVG/1.1/DTD/svg11.dtd">
<svg xmlns:xlink="http://www.w3.org/1999/xlink" width="415.966479pt" height="266.51625pt" viewBox="0 0 415.966479 266.51625" xmlns="http://www.w3.org/2000/svg" version="1.1">
 <metadata>
  <rdf:RDF xmlns:dc="http://purl.org/dc/elements/1.1/" xmlns:cc="http://creativecommons.org/ns#" xmlns:rdf="http://www.w3.org/1999/02/22-rdf-syntax-ns#">
   <cc:Work>
    <dc:type rdf:resource="http://purl.org/dc/dcmitype/StillImage"/>
    <dc:date>2026-05-15T16:20:23.964280</dc:date>
    <dc:format>image/svg+xml</dc:format>
    <dc:creator>
     <cc:Agent>
      <dc:title>Matplotlib v3.10.1, https://matplotlib.org/</dc:title>
     </cc:Agent>
    </dc:creator>
   </cc:Work>
  </rdf:RDF>
 </metadata>
 <defs>
  <style type="text/css">*{stroke-linejoin: round; stroke-linecap: butt}</style>
 </defs>
 <g id="figure_1">
  <g id="patch_1">
   <path d="M 0 266.51625 
L 415.966479 266.51625 
L 415.966479 0 
L 0 0 
z
" style="fill: #ffffff"/>
  </g>
  <g id="axes_1">
   <g id="patch_2">
    <path d="M 286.242188 228.96 
L 397.842188 228.96 
L 397.842188 7.2 
L 286.242188 7.2 
z
" style="fill: #ffffff"/>
   </g>
   <g id="patch_3">
    <path d="M 286.242188 8.6784 
L 392.527902 8.6784 
L 392.527902 20.5056 
L 286.242188 20.5056 
z
" clip-path="url(#p2e3fff8643)" style="fill: #d3d3d3"/>
   </g>
   <g id="patch_4">
    <path d="M 286.242188 23.4624 
L 310.72743 23.4624 
L 310.72743 35.2896 
L 286.242188 35.2896 
z
" clip-path="url(#p2e3fff8643)" style="fill: #d3d3d3"/>
   </g>
   <g id="patch_5">
    <path d="M 286.242188 38.2464 
L 302.492483 38.2464 
L 302.492483 50.0736 
L 286.242188 50.0736 
z
" clip-path="url(#p2e3fff8643)" style="fill: #d3d3d3"/>
   </g>
   <g id="patch_6">
    <path d="M 286.242188 53.0304 
L 295.026131 53.0304 
L 295.026131 64.8576 
L 286.242188 64.8576 
z
" clip-path="url(#p2e3fff8643)" style="fill: #d3d3d3"/>
   </g>
   <g id="patch_7">
    <path d="M 286.242188 67.8144 
L 294.367335 67.8144 
L 294.367335 79.6416 
L 286.242188 79.6416 
z
" clip-path="url(#p2e3fff8643)" style="fill: #d3d3d3"/>
   </g>
   <g id="patch_8">
    <path d="M 286.242188 82.5984 
L 292.830145 82.5984 
L 292.830145 94.4256 
L 286.242188 94.4256 
z
" clip-path="url(#p2e3fff8643)" style="fill: #d3d3d3"/>
   </g>
   <g id="patch_9">
    <path d="M 286.242188 97.3824 
L 292.171349 97.3824 
L 292.171349 109.2096 
L 286.242188 109.2096 
z
" clip-path="url(#p2e3fff8643)" style="fill: #d3d3d3"/>
   </g>
   <g id="patch_10">
    <path d="M 286.242188 112.1664 
L 291.732152 112.1664 
L 291.732152 123.9936 
L 286.242188 123.9936 
z
" clip-path="url(#p2e3fff8643)" style="fill: #d3d3d3"/>
   </g>
   <g id="patch_11">
    <path d="M 286.242188 126.9504 
L 290.963557 126.9504 
L 290.963557 138.7776 
L 286.242188 138.7776 
z
" clip-path="url(#p2e3fff8643)" style="fill: #d3d3d3"/>
   </g>
   <g id="patch_12">
    <path d="M 286.242188 141.7344 
L 290.634159 141.7344 
L 290.634159 153.5616 
L 286.242188 153.5616 
z
" clip-path="url(#p2e3fff8643)" style="fill: #d3d3d3"/>
   </g>
   <g id="patch_13">
    <path d="M 286.242188 156.5184 
L 290.194962 156.5184 
L 290.194962 168.3456 
L 286.242188 168.3456 
z
" clip-path="url(#p2e3fff8643)" style="fill: #d3d3d3"/>
   </g>
   <g id="patch_14">
    <path d="M 286.242188 171.3024 
L 290.085163 171.3024 
L 290.085163 183.1296 
L 286.242188 183.1296 
z
" clip-path="url(#p2e3fff8643)" style="fill: #d3d3d3"/>
   </g>
   <g id="patch_15">
    <path d="M 286.242188 186.0864 
L 289.755765 186.0864 
L 289.755765 197.9136 
L 286.242188 197.9136 
z
" clip-path="url(#p2e3fff8643)" style="fill: #d3d3d3"/>
   </g>
   <g id="patch_16">
    <path d="M 286.242188 200.8704 
L 289.426367 200.8704 
L 289.426367 212.6976 
L 286.242188 212.6976 
z
" clip-path="url(#p2e3fff8643)" style="fill: #d3d3d3"/>
   </g>
   <g id="patch_17">
    <path d="M 286.242188 215.6544 
L 289.206768 215.6544 
L 289.206768 227.4816 
L 286.242188 227.4816 
z
" clip-path="url(#p2e3fff8643)" style="fill: #d3d3d3"/>
   </g>
   <g id="matplotlib.axis_1">
    <g id="xtick_1">
     <g id="line2d_1">
      <defs>
       <path id="m134dca6b15" d="M 0 0 
L 0 3.5 
" style="stroke: #000000; stroke-width: 0.8"/>
      </defs>
      <g>
       <use xlink:href="#m134dca6b15" x="286.242188" y="228.96" style="stroke: #000000; stroke-width: 0.8"/>
      </g>
     </g>
     <g id="text_1">
      <!-- 0 -->
      <g transform="translate(283.060938 243.558437) scale(0.1 -0.1)">
       <defs>
        <path id="DejaVuSans-30" d="M 2034 4250 
Q 1547 4250 1301 3770 
Q 1056 3291 1056 2328 
Q 1056 1369 1301 889 
Q 1547 409 2034 409 
Q 2525 409 2770 889 
Q 3016 1369 3016 2328 
Q 3016 3291 2770 3770 
Q 2525 4250 2034 4250 
z
M 2034 4750 
Q 2819 4750 3233 4129 
Q 3647 3509 3647 2328 
Q 3647 1150 3233 529 
Q 2819 -91 2034 -91 
Q 1250 -91 836 529 
Q 422 1150 422 2328 
Q 422 3509 836 4129 
Q 1250 4750 2034 4750 
z
" transform="scale(0.015625)"/>
       </defs>
       <use xlink:href="#DejaVuSans-30"/>
      </g>
     </g>
    </g>
    <g id="xtick_2">
     <g id="line2d_2">
      <g>
       <use xlink:href="#m134dca6b15" x="341.141833" y="228.96" style="stroke: #000000; stroke-width: 0.8"/>
      </g>
     </g>
     <g id="text_2">
      <!-- 500 -->
      <g transform="translate(331.598083 243.558437) scale(0.1 -0.1)">
       <defs>
        <path id="DejaVuSans-35" d="M 691 4666 
L 3169 4666 
L 3169 4134 
L 1269 4134 
L 1269 2991 
Q 1406 3038 1543 3061 
Q 1681 3084 1819 3084 
Q 2600 3084 3056 2656 
Q 3513 2228 3513 1497 
Q 3513 744 3044 326 
Q 2575 -91 1722 -91 
Q 1428 -91 1123 -41 
Q 819 9 494 109 
L 494 744 
Q 775 591 1075 516 
Q 1375 441 1709 441 
Q 2250 441 2565 725 
Q 2881 1009 2881 1497 
Q 2881 1984 2565 2268 
Q 2250 2553 1709 2553 
Q 1456 2553 1204 2497 
Q 953 2441 691 2322 
L 691 4666 
z
" transform="scale(0.015625)"/>
       </defs>
       <use xlink:href="#DejaVuSans-35"/>
       <use xlink:href="#DejaVuSans-30" transform="translate(63.623047 0)"/>
       <use xlink:href="#DejaVuSans-30" transform="translate(127.246094 0)"/>
      </g>
     </g>
    </g>
    <g id="xtick_3">
     <g id="line2d_3">
      <g>
       <use xlink:href="#m134dca6b15" x="396.041479" y="228.96" style="stroke: #000000; stroke-width: 0.8"/>
      </g>
     </g>
     <g id="text_3">
      <!-- 1000 -->
      <g transform="translate(383.316479 243.558437) scale(0.1 -0.1)">
       <defs>
        <path id="DejaVuSans-31" d="M 794 531 
L 1825 531 
L 1825 4091 
L 703 3866 
L 703 4441 
L 1819 4666 
L 2450 4666 
L 2450 531 
L 3481 531 
L 3481 0 
L 794 0 
L 794 531 
z
" transform="scale(0.015625)"/>
       </defs>
       <use xlink:href="#DejaVuSans-31"/>
       <use xlink:href="#DejaVuSans-30" transform="translate(63.623047 0)"/>
       <use xlink:href="#DejaVuSans-30" transform="translate(127.246094 0)"/>
       <use xlink:href="#DejaVuSans-30" transform="translate(190.869141 0)"/>
      </g>
     </g>
    </g>
    <g id="text_4">
     <!-- Count -->
     <g transform="translate(327.19375 257.236562) scale(0.1 -0.1)">
      <defs>
       <path id="DejaVuSans-43" d="M 4122 4306 
L 4122 3641 
Q 3803 3938 3442 4084 
Q 3081 4231 2675 4231 
Q 1875 4231 1450 3742 
Q 1025 3253 1025 2328 
Q 1025 1406 1450 917 
Q 1875 428 2675 428 
Q 3081 428 3442 575 
Q 3803 722 4122 1019 
L 4122 359 
Q 3791 134 3420 21 
Q 3050 -91 2638 -91 
Q 1578 -91 968 557 
Q 359 1206 359 2328 
Q 359 3453 968 4101 
Q 1578 4750 2638 4750 
Q 3056 4750 3426 4639 
Q 3797 4528 4122 4306 
z
" transform="scale(0.015625)"/>
       <path id="DejaVuSans-6f" d="M 1959 3097 
Q 1497 3097 1228 2736 
Q 959 2375 959 1747 
Q 959 1119 1226 758 
Q 1494 397 1959 397 
Q 2419 397 2687 759 
Q 2956 1122 2956 1747 
Q 2956 2369 2687 2733 
Q 2419 3097 1959 3097 
z
M 1959 3584 
Q 2709 3584 3137 3096 
Q 3566 2609 3566 1747 
Q 3566 888 3137 398 
Q 2709 -91 1959 -91 
Q 1206 -91 779 398 
Q 353 888 353 1747 
Q 353 2609 779 3096 
Q 1206 3584 1959 3584 
z
" transform="scale(0.015625)"/>
       <path id="DejaVuSans-75" d="M 544 1381 
L 544 3500 
L 1119 3500 
L 1119 1403 
Q 1119 906 1312 657 
Q 1506 409 1894 409 
Q 2359 409 2629 706 
Q 2900 1003 2900 1516 
L 2900 3500 
L 3475 3500 
L 3475 0 
L 2900 0 
L 2900 538 
Q 2691 219 2414 64 
Q 2138 -91 1772 -91 
Q 1169 -91 856 284 
Q 544 659 544 1381 
z
M 1991 3584 
L 1991 3584 
z
" transform="scale(0.015625)"/>
       <path id="DejaVuSans-6e" d="M 3513 2113 
L 3513 0 
L 2938 0 
L 2938 2094 
Q 2938 2591 2744 2837 
Q 2550 3084 2163 3084 
Q 1697 3084 1428 2787 
Q 1159 2491 1159 1978 
L 1159 0 
L 581 0 
L 581 3500 
L 1159 3500 
L 1159 2956 
Q 1366 3272 1645 3428 
Q 1925 3584 2291 3584 
Q 2894 3584 3203 3211 
Q 3513 2838 3513 2113 
z
" transform="scale(0.015625)"/>
       <path id="DejaVuSans-74" d="M 1172 4494 
L 1172 3500 
L 2356 3500 
L 2356 3053 
L 1172 3053 
L 1172 1153 
Q 1172 725 1289 603 
Q 1406 481 1766 481 
L 2356 481 
L 2356 0 
L 1766 0 
Q 1100 0 847 248 
Q 594 497 594 1153 
L 594 3053 
L 172 3053 
L 172 3500 
L 594 3500 
L 594 4494 
L 1172 4494 
z
" transform="scale(0.015625)"/>
      </defs>
      <use xlink:href="#DejaVuSans-43"/>
      <use xlink:href="#DejaVuSans-6f" transform="translate(69.824219 0)"/>
      <use xlink:href="#DejaVuSans-75" transform="translate(131.005859 0)"/>
      <use xlink:href="#DejaVuSans-6e" transform="translate(194.384766 0)"/>
      <use xlink:href="#DejaVuSans-74" transform="translate(257.763672 0)"/>
     </g>
    </g>
   </g>
   <g id="matplotlib.axis_2">
    <g id="ytick_1">
     <g id="line2d_4">
      <defs>
       <path id="m3196dce553" d="M 0 0 
L -3.5 0 
" style="stroke: #000000; stroke-width: 0.8"/>
      </defs>
      <g>
       <use xlink:href="#m3196dce553" x="286.242188" y="14.592" style="stroke: #000000; stroke-width: 0.8"/>
      </g>
     </g>
     <g id="text_5">
      <!-- {bacitracin, glycopeptide} -->
      <g transform="translate(145.921875 18.391219) scale(0.1 -0.1)">
       <defs>
        <path id="DejaVuSans-7b" d="M 3272 -594 
L 3272 -1044 
L 3078 -1044 
Q 2300 -1044 2036 -812 
Q 1772 -581 1772 109 
L 1772 856 
Q 1772 1328 1603 1509 
Q 1434 1691 991 1691 
L 800 1691 
L 800 2138 
L 991 2138 
Q 1438 2138 1605 2317 
Q 1772 2497 1772 2963 
L 1772 3713 
Q 1772 4403 2036 4633 
Q 2300 4863 3078 4863 
L 3272 4863 
L 3272 4416 
L 3059 4416 
Q 2619 4416 2484 4278 
Q 2350 4141 2350 3700 
L 2350 2925 
Q 2350 2434 2208 2212 
Q 2066 1991 1722 1913 
Q 2069 1828 2209 1606 
Q 2350 1384 2350 897 
L 2350 122 
Q 2350 -319 2484 -456 
Q 2619 -594 3059 -594 
L 3272 -594 
z
" transform="scale(0.015625)"/>
        <path id="DejaVuSans-62" d="M 3116 1747 
Q 3116 2381 2855 2742 
Q 2594 3103 2138 3103 
Q 1681 3103 1420 2742 
Q 1159 2381 1159 1747 
Q 1159 1113 1420 752 
Q 1681 391 2138 391 
Q 2594 391 2855 752 
Q 3116 1113 3116 1747 
z
M 1159 2969 
Q 1341 3281 1617 3432 
Q 1894 3584 2278 3584 
Q 2916 3584 3314 3078 
Q 3713 2572 3713 1747 
Q 3713 922 3314 415 
Q 2916 -91 2278 -91 
Q 1894 -91 1617 61 
Q 1341 213 1159 525 
L 1159 0 
L 581 0 
L 581 4863 
L 1159 4863 
L 1159 2969 
z
" transform="scale(0.015625)"/>
        <path id="DejaVuSans-61" d="M 2194 1759 
Q 1497 1759 1228 1600 
Q 959 1441 959 1056 
Q 959 750 1161 570 
Q 1363 391 1709 391 
Q 2188 391 2477 730 
Q 2766 1069 2766 1631 
L 2766 1759 
L 2194 1759 
z
M 3341 1997 
L 3341 0 
L 2766 0 
L 2766 531 
Q 2569 213 2275 61 
Q 1981 -91 1556 -91 
Q 1019 -91 701 211 
Q 384 513 384 1019 
Q 384 1609 779 1909 
Q 1175 2209 1959 2209 
L 2766 2209 
L 2766 2266 
Q 2766 2663 2505 2880 
Q 2244 3097 1772 3097 
Q 1472 3097 1187 3025 
Q 903 2953 641 2809 
L 641 3341 
Q 956 3463 1253 3523 
Q 1550 3584 1831 3584 
Q 2591 3584 2966 3190 
Q 3341 2797 3341 1997 
z
" transform="scale(0.015625)"/>
        <path id="DejaVuSans-63" d="M 3122 3366 
L 3122 2828 
Q 2878 2963 2633 3030 
Q 2388 3097 2138 3097 
Q 1578 3097 1268 2742 
Q 959 2388 959 1747 
Q 959 1106 1268 751 
Q 1578 397 2138 397 
Q 2388 397 2633 464 
Q 2878 531 3122 666 
L 3122 134 
Q 2881 22 2623 -34 
Q 2366 -91 2075 -91 
Q 1284 -91 818 406 
Q 353 903 353 1747 
Q 353 2603 823 3093 
Q 1294 3584 2113 3584 
Q 2378 3584 2631 3529 
Q 2884 3475 3122 3366 
z
" transform="scale(0.015625)"/>
        <path id="DejaVuSans-69" d="M 603 3500 
L 1178 3500 
L 1178 0 
L 603 0 
L 603 3500 
z
M 603 4863 
L 1178 4863 
L 1178 4134 
L 603 4134 
L 603 4863 
z
" transform="scale(0.015625)"/>
        <path id="DejaVuSans-72" d="M 2631 2963 
Q 2534 3019 2420 3045 
Q 2306 3072 2169 3072 
Q 1681 3072 1420 2755 
Q 1159 2438 1159 1844 
L 1159 0 
L 581 0 
L 581 3500 
L 1159 3500 
L 1159 2956 
Q 1341 3275 1631 3429 
Q 1922 3584 2338 3584 
Q 2397 3584 2469 3576 
Q 2541 3569 2628 3553 
L 2631 2963 
z
" transform="scale(0.015625)"/>
        <path id="DejaVuSans-2c" d="M 750 794 
L 1409 794 
L 1409 256 
L 897 -744 
L 494 -744 
L 750 256 
L 750 794 
z
" transform="scale(0.015625)"/>
        <path id="DejaVuSans-20" transform="scale(0.015625)"/>
        <path id="DejaVuSans-67" d="M 2906 1791 
Q 2906 2416 2648 2759 
Q 2391 3103 1925 3103 
Q 1463 3103 1205 2759 
Q 947 2416 947 1791 
Q 947 1169 1205 825 
Q 1463 481 1925 481 
Q 2391 481 2648 825 
Q 2906 1169 2906 1791 
z
M 3481 434 
Q 3481 -459 3084 -895 
Q 2688 -1331 1869 -1331 
Q 1566 -1331 1297 -1286 
Q 1028 -1241 775 -1147 
L 775 -588 
Q 1028 -725 1275 -790 
Q 1522 -856 1778 -856 
Q 2344 -856 2625 -561 
Q 2906 -266 2906 331 
L 2906 616 
Q 2728 306 2450 153 
Q 2172 0 1784 0 
Q 1141 0 747 490 
Q 353 981 353 1791 
Q 353 2603 747 3093 
Q 1141 3584 1784 3584 
Q 2172 3584 2450 3431 
Q 2728 3278 2906 2969 
L 2906 3500 
L 3481 3500 
L 3481 434 
z
" transform="scale(0.015625)"/>
        <path id="DejaVuSans-6c" d="M 603 4863 
L 1178 4863 
L 1178 0 
L 603 0 
L 603 4863 
z
" transform="scale(0.015625)"/>
        <path id="DejaVuSans-79" d="M 2059 -325 
Q 1816 -950 1584 -1140 
Q 1353 -1331 966 -1331 
L 506 -1331 
L 506 -850 
L 844 -850 
Q 1081 -850 1212 -737 
Q 1344 -625 1503 -206 
L 1606 56 
L 191 3500 
L 800 3500 
L 1894 763 
L 2988 3500 
L 3597 3500 
L 2059 -325 
z
" transform="scale(0.015625)"/>
        <path id="DejaVuSans-70" d="M 1159 525 
L 1159 -1331 
L 581 -1331 
L 581 3500 
L 1159 3500 
L 1159 2969 
Q 1341 3281 1617 3432 
Q 1894 3584 2278 3584 
Q 2916 3584 3314 3078 
Q 3713 2572 3713 1747 
Q 3713 922 3314 415 
Q 2916 -91 2278 -91 
Q 1894 -91 1617 61 
Q 1341 213 1159 525 
z
M 3116 1747 
Q 3116 2381 2855 2742 
Q 2594 3103 2138 3103 
Q 1681 3103 1420 2742 
Q 1159 2381 1159 1747 
Q 1159 1113 1420 752 
Q 1681 391 2138 391 
Q 2594 391 2855 752 
Q 3116 1113 3116 1747 
z
" transform="scale(0.015625)"/>
        <path id="DejaVuSans-65" d="M 3597 1894 
L 3597 1613 
L 953 1613 
Q 991 1019 1311 708 
Q 1631 397 2203 397 
Q 2534 397 2845 478 
Q 3156 559 3463 722 
L 3463 178 
Q 3153 47 2828 -22 
Q 2503 -91 2169 -91 
Q 1331 -91 842 396 
Q 353 884 353 1716 
Q 353 2575 817 3079 
Q 1281 3584 2069 3584 
Q 2775 3584 3186 3129 
Q 3597 2675 3597 1894 
z
M 3022 2063 
Q 3016 2534 2758 2815 
Q 2500 3097 2075 3097 
Q 1594 3097 1305 2825 
Q 1016 2553 972 2059 
L 3022 2063 
z
" transform="scale(0.015625)"/>
        <path id="DejaVuSans-64" d="M 2906 2969 
L 2906 4863 
L 3481 4863 
L 3481 0 
L 2906 0 
L 2906 525 
Q 2725 213 2448 61 
Q 2172 -91 1784 -91 
Q 1150 -91 751 415 
Q 353 922 353 1747 
Q 353 2572 751 3078 
Q 1150 3584 1784 3584 
Q 2172 3584 2448 3432 
Q 2725 3281 2906 2969 
z
M 947 1747 
Q 947 1113 1208 752 
Q 1469 391 1925 391 
Q 2381 391 2643 752 
Q 2906 1113 2906 1747 
Q 2906 2381 2643 2742 
Q 2381 3103 1925 3103 
Q 1469 3103 1208 2742 
Q 947 2381 947 1747 
z
" transform="scale(0.015625)"/>
        <path id="DejaVuSans-7d" d="M 800 -594 
L 1019 -594 
Q 1456 -594 1589 -459 
Q 1722 -325 1722 122 
L 1722 897 
Q 1722 1384 1862 1606 
Q 2003 1828 2350 1913 
Q 2003 1991 1862 2212 
Q 1722 2434 1722 2925 
L 1722 3700 
Q 1722 4144 1589 4280 
Q 1456 4416 1019 4416 
L 800 4416 
L 800 4863 
L 997 4863 
Q 1775 4863 2036 4633 
Q 2297 4403 2297 3713 
L 2297 2963 
Q 2297 2497 2465 2317 
Q 2634 2138 3078 2138 
L 3272 2138 
L 3272 1691 
L 3078 1691 
Q 2634 1691 2465 1509 
Q 2297 1328 2297 856 
L 2297 109 
Q 2297 -581 2036 -812 
Q 1775 -1044 997 -1044 
L 800 -1044 
L 800 -594 
z
" transform="scale(0.015625)"/>
       </defs>
       <use xlink:href="#DejaVuSans-7b"/>
       <use xlink:href="#DejaVuSans-62" transform="translate(63.623047 0)"/>
       <use xlink:href="#DejaVuSans-61" transform="translate(127.099609 0)"/>
       <use xlink:href="#DejaVuSans-63" transform="translate(188.378906 0)"/>
       <use xlink:href="#DejaVuSans-69" transform="translate(243.359375 0)"/>
       <use xlink:href="#DejaVuSans-74" transform="translate(271.142578 0)"/>
       <use xlink:href="#DejaVuSans-72" transform="translate(310.351562 0)"/>
       <use xlink:href="#DejaVuSans-61" transform="translate(351.464844 0)"/>
       <use xlink:href="#DejaVuSans-63" transform="translate(412.744141 0)"/>
       <use xlink:href="#DejaVuSans-69" transform="translate(467.724609 0)"/>
       <use xlink:href="#DejaVuSans-6e" transform="translate(495.507812 0)"/>
       <use xlink:href="#DejaVuSans-2c" transform="translate(558.886719 0)"/>
       <use xlink:href="#DejaVuSans-20" transform="translate(590.673828 0)"/>
       <use xlink:href="#DejaVuSans-67" transform="translate(622.460938 0)"/>
       <use xlink:href="#DejaVuSans-6c" transform="translate(685.9375 0)"/>
       <use xlink:href="#DejaVuSans-79" transform="translate(713.720703 0)"/>
       <use xlink:href="#DejaVuSans-63" transform="translate(772.900391 0)"/>
       <use xlink:href="#DejaVuSans-6f" transform="translate(827.880859 0)"/>
       <use xlink:href="#DejaVuSans-70" transform="translate(889.0625 0)"/>
       <use xlink:href="#DejaVuSans-65" transform="translate(952.539062 0)"/>
       <use xlink:href="#DejaVuSans-70" transform="translate(1014.0625 0)"/>
       <use xlink:href="#DejaVuSans-74" transform="translate(1077.539062 0)"/>
       <use xlink:href="#DejaVuSans-69" transform="translate(1116.748047 0)"/>
       <use xlink:href="#DejaVuSans-64" transform="translate(1144.53125 0)"/>
       <use xlink:href="#DejaVuSans-65" transform="translate(1208.007812 0)"/>
       <use xlink:href="#DejaVuSans-7d" transform="translate(1269.53125 0)"/>
      </g>
     </g>
    </g>
    <g id="ytick_2">
     <g id="line2d_5">
      <g>
       <use xlink:href="#m3196dce553" x="286.242188" y="29.376" style="stroke: #000000; stroke-width: 0.8"/>
      </g>
     </g>
     <g id="text_6">
      <!-- {fluoroquinolone, quinolone} -->
      <g transform="translate(132.785937 33.175219) scale(0.1 -0.1)">
       <defs>
        <path id="DejaVuSans-66" d="M 2375 4863 
L 2375 4384 
L 1825 4384 
Q 1516 4384 1395 4259 
Q 1275 4134 1275 3809 
L 1275 3500 
L 2222 3500 
L 2222 3053 
L 1275 3053 
L 1275 0 
L 697 0 
L 697 3053 
L 147 3053 
L 147 3500 
L 697 3500 
L 697 3744 
Q 697 4328 969 4595 
Q 1241 4863 1831 4863 
L 2375 4863 
z
" transform="scale(0.015625)"/>
        <path id="DejaVuSans-71" d="M 947 1747 
Q 947 1113 1208 752 
Q 1469 391 1925 391 
Q 2381 391 2643 752 
Q 2906 1113 2906 1747 
Q 2906 2381 2643 2742 
Q 2381 3103 1925 3103 
Q 1469 3103 1208 2742 
Q 947 2381 947 1747 
z
M 2906 525 
Q 2725 213 2448 61 
Q 2172 -91 1784 -91 
Q 1150 -91 751 415 
Q 353 922 353 1747 
Q 353 2572 751 3078 
Q 1150 3584 1784 3584 
Q 2172 3584 2448 3432 
Q 2725 3281 2906 2969 
L 2906 3500 
L 3481 3500 
L 3481 -1331 
L 2906 -1331 
L 2906 525 
z
" transform="scale(0.015625)"/>
       </defs>
       <use xlink:href="#DejaVuSans-7b"/>
       <use xlink:href="#DejaVuSans-66" transform="translate(63.623047 0)"/>
       <use xlink:href="#DejaVuSans-6c" transform="translate(98.828125 0)"/>
       <use xlink:href="#DejaVuSans-75" transform="translate(126.611328 0)"/>
       <use xlink:href="#DejaVuSans-6f" transform="translate(189.990234 0)"/>
       <use xlink:href="#DejaVuSans-72" transform="translate(251.171875 0)"/>
       <use xlink:href="#DejaVuSans-6f" transform="translate(290.035156 0)"/>
       <use xlink:href="#DejaVuSans-71" transform="translate(351.216797 0)"/>
       <use xlink:href="#DejaVuSans-75" transform="translate(414.693359 0)"/>
       <use xlink:href="#DejaVuSans-69" transform="translate(478.072266 0)"/>
       <use xlink:href="#DejaVuSans-6e" transform="translate(505.855469 0)"/>
       <use xlink:href="#DejaVuSans-6f" transform="translate(569.234375 0)"/>
       <use xlink:href="#DejaVuSans-6c" transform="translate(630.416016 0)"/>
       <use xlink:href="#DejaVuSans-6f" transform="translate(658.199219 0)"/>
       <use xlink:href="#DejaVuSans-6e" transform="translate(719.380859 0)"/>
       <use xlink:href="#DejaVuSans-65" transform="translate(782.759766 0)"/>
       <use xlink:href="#DejaVuSans-2c" transform="translate(844.283203 0)"/>
       <use xlink:href="#DejaVuSans-20" transform="translate(876.070312 0)"/>
       <use xlink:href="#DejaVuSans-71" transform="translate(907.857422 0)"/>
       <use xlink:href="#DejaVuSans-75" transform="translate(971.333984 0)"/>
       <use xlink:href="#DejaVuSans-69" transform="translate(1034.712891 0)"/>
       <use xlink:href="#DejaVuSans-6e" transform="translate(1062.496094 0)"/>
       <use xlink:href="#DejaVuSans-6f" transform="translate(1125.875 0)"/>
       <use xlink:href="#DejaVuSans-6c" transform="translate(1187.056641 0)"/>
       <use xlink:href="#DejaVuSans-6f" transform="translate(1214.839844 0)"/>
       <use xlink:href="#DejaVuSans-6e" transform="translate(1276.021484 0)"/>
       <use xlink:href="#DejaVuSans-65" transform="translate(1339.400391 0)"/>
       <use xlink:href="#DejaVuSans-7d" transform="translate(1400.923828 0)"/>
      </g>
     </g>
    </g>
    <g id="ytick_3">
     <g id="line2d_6">
      <g>
       <use xlink:href="#m3196dce553" x="286.242188" y="44.16" style="stroke: #000000; stroke-width: 0.8"/>
      </g>
     </g>
     <g id="text_7">
      <!-- {fosfomycin, phosphonic acid} -->
      <g transform="translate(124.035937 47.959219) scale(0.1 -0.1)">
       <defs>
        <path id="DejaVuSans-73" d="M 2834 3397 
L 2834 2853 
Q 2591 2978 2328 3040 
Q 2066 3103 1784 3103 
Q 1356 3103 1142 2972 
Q 928 2841 928 2578 
Q 928 2378 1081 2264 
Q 1234 2150 1697 2047 
L 1894 2003 
Q 2506 1872 2764 1633 
Q 3022 1394 3022 966 
Q 3022 478 2636 193 
Q 2250 -91 1575 -91 
Q 1294 -91 989 -36 
Q 684 19 347 128 
L 347 722 
Q 666 556 975 473 
Q 1284 391 1588 391 
Q 1994 391 2212 530 
Q 2431 669 2431 922 
Q 2431 1156 2273 1281 
Q 2116 1406 1581 1522 
L 1381 1569 
Q 847 1681 609 1914 
Q 372 2147 372 2553 
Q 372 3047 722 3315 
Q 1072 3584 1716 3584 
Q 2034 3584 2315 3537 
Q 2597 3491 2834 3397 
z
" transform="scale(0.015625)"/>
        <path id="DejaVuSans-6d" d="M 3328 2828 
Q 3544 3216 3844 3400 
Q 4144 3584 4550 3584 
Q 5097 3584 5394 3201 
Q 5691 2819 5691 2113 
L 5691 0 
L 5113 0 
L 5113 2094 
Q 5113 2597 4934 2840 
Q 4756 3084 4391 3084 
Q 3944 3084 3684 2787 
Q 3425 2491 3425 1978 
L 3425 0 
L 2847 0 
L 2847 2094 
Q 2847 2600 2669 2842 
Q 2491 3084 2119 3084 
Q 1678 3084 1418 2786 
Q 1159 2488 1159 1978 
L 1159 0 
L 581 0 
L 581 3500 
L 1159 3500 
L 1159 2956 
Q 1356 3278 1631 3431 
Q 1906 3584 2284 3584 
Q 2666 3584 2933 3390 
Q 3200 3197 3328 2828 
z
" transform="scale(0.015625)"/>
        <path id="DejaVuSans-68" d="M 3513 2113 
L 3513 0 
L 2938 0 
L 2938 2094 
Q 2938 2591 2744 2837 
Q 2550 3084 2163 3084 
Q 1697 3084 1428 2787 
Q 1159 2491 1159 1978 
L 1159 0 
L 581 0 
L 581 4863 
L 1159 4863 
L 1159 2956 
Q 1366 3272 1645 3428 
Q 1925 3584 2291 3584 
Q 2894 3584 3203 3211 
Q 3513 2838 3513 2113 
z
" transform="scale(0.015625)"/>
       </defs>
       <use xlink:href="#DejaVuSans-7b"/>
       <use xlink:href="#DejaVuSans-66" transform="translate(63.623047 0)"/>
       <use xlink:href="#DejaVuSans-6f" transform="translate(98.828125 0)"/>
       <use xlink:href="#DejaVuSans-73" transform="translate(160.009766 0)"/>
       <use xlink:href="#DejaVuSans-66" transform="translate(212.109375 0)"/>
       <use xlink:href="#DejaVuSans-6f" transform="translate(247.314453 0)"/>
       <use xlink:href="#DejaVuSans-6d" transform="translate(308.496094 0)"/>
       <use xlink:href="#DejaVuSans-79" transform="translate(405.908203 0)"/>
       <use xlink:href="#DejaVuSans-63" transform="translate(465.087891 0)"/>
       <use xlink:href="#DejaVuSans-69" transform="translate(520.068359 0)"/>
       <use xlink:href="#DejaVuSans-6e" transform="translate(547.851562 0)"/>
       <use xlink:href="#DejaVuSans-2c" transform="translate(611.230469 0)"/>
       <use xlink:href="#DejaVuSans-20" transform="translate(643.017578 0)"/>
       <use xlink:href="#DejaVuSans-70" transform="translate(674.804688 0)"/>
       <use xlink:href="#DejaVuSans-68" transform="translate(738.28125 0)"/>
       <use xlink:href="#DejaVuSans-6f" transform="translate(801.660156 0)"/>
       <use xlink:href="#DejaVuSans-73" transform="translate(862.841797 0)"/>
       <use xlink:href="#DejaVuSans-70" transform="translate(914.941406 0)"/>
       <use xlink:href="#DejaVuSans-68" transform="translate(978.417969 0)"/>
       <use xlink:href="#DejaVuSans-6f" transform="translate(1041.796875 0)"/>
       <use xlink:href="#DejaVuSans-6e" transform="translate(1102.978516 0)"/>
       <use xlink:href="#DejaVuSans-69" transform="translate(1166.357422 0)"/>
       <use xlink:href="#DejaVuSans-63" transform="translate(1194.140625 0)"/>
       <use xlink:href="#DejaVuSans-20" transform="translate(1249.121094 0)"/>
       <use xlink:href="#DejaVuSans-61" transform="translate(1280.908203 0)"/>
       <use xlink:href="#DejaVuSans-63" transform="translate(1342.1875 0)"/>
       <use xlink:href="#DejaVuSans-69" transform="translate(1397.167969 0)"/>
       <use xlink:href="#DejaVuSans-64" transform="translate(1424.951172 0)"/>
       <use xlink:href="#DejaVuSans-7d" transform="translate(1488.427734 0)"/>
      </g>
     </g>
    </g>
    <g id="ytick_4">
     <g id="line2d_7">
      <g>
       <use xlink:href="#m3196dce553" x="286.242188" y="58.944" style="stroke: #000000; stroke-width: 0.8"/>
      </g>
     </g>
     <g id="text_8">
      <!-- {MLS, ml} -->
      <g transform="translate(227.09375 62.743219) scale(0.1 -0.1)">
       <defs>
        <path id="DejaVuSans-4d" d="M 628 4666 
L 1569 4666 
L 2759 1491 
L 3956 4666 
L 4897 4666 
L 4897 0 
L 4281 0 
L 4281 4097 
L 3078 897 
L 2444 897 
L 1241 4097 
L 1241 0 
L 628 0 
L 628 4666 
z
" transform="scale(0.015625)"/>
        <path id="DejaVuSans-4c" d="M 628 4666 
L 1259 4666 
L 1259 531 
L 3531 531 
L 3531 0 
L 628 0 
L 628 4666 
z
" transform="scale(0.015625)"/>
        <path id="DejaVuSans-53" d="M 3425 4513 
L 3425 3897 
Q 3066 4069 2747 4153 
Q 2428 4238 2131 4238 
Q 1616 4238 1336 4038 
Q 1056 3838 1056 3469 
Q 1056 3159 1242 3001 
Q 1428 2844 1947 2747 
L 2328 2669 
Q 3034 2534 3370 2195 
Q 3706 1856 3706 1288 
Q 3706 609 3251 259 
Q 2797 -91 1919 -91 
Q 1588 -91 1214 -16 
Q 841 59 441 206 
L 441 856 
Q 825 641 1194 531 
Q 1563 422 1919 422 
Q 2459 422 2753 634 
Q 3047 847 3047 1241 
Q 3047 1584 2836 1778 
Q 2625 1972 2144 2069 
L 1759 2144 
Q 1053 2284 737 2584 
Q 422 2884 422 3419 
Q 422 4038 858 4394 
Q 1294 4750 2059 4750 
Q 2388 4750 2728 4690 
Q 3069 4631 3425 4513 
z
" transform="scale(0.015625)"/>
       </defs>
       <use xlink:href="#DejaVuSans-7b"/>
       <use xlink:href="#DejaVuSans-4d" transform="translate(63.623047 0)"/>
       <use xlink:href="#DejaVuSans-4c" transform="translate(149.902344 0)"/>
       <use xlink:href="#DejaVuSans-53" transform="translate(205.615234 0)"/>
       <use xlink:href="#DejaVuSans-2c" transform="translate(269.091797 0)"/>
       <use xlink:href="#DejaVuSans-20" transform="translate(300.878906 0)"/>
       <use xlink:href="#DejaVuSans-6d" transform="translate(332.666016 0)"/>
       <use xlink:href="#DejaVuSans-6c" transform="translate(430.078125 0)"/>
       <use xlink:href="#DejaVuSans-7d" transform="translate(457.861328 0)"/>
      </g>
     </g>
    </g>
    <g id="ytick_5">
     <g id="line2d_8">
      <g>
       <use xlink:href="#m3196dce553" x="286.242188" y="73.728" style="stroke: #000000; stroke-width: 0.8"/>
      </g>
     </g>
     <g id="text_9">
      <!-- {chloramphenicol, phenicol} -->
      <g transform="translate(134.748437 77.527219) scale(0.1 -0.1)">
       <use xlink:href="#DejaVuSans-7b"/>
       <use xlink:href="#DejaVuSans-63" transform="translate(63.623047 0)"/>
       <use xlink:href="#DejaVuSans-68" transform="translate(118.603516 0)"/>
       <use xlink:href="#DejaVuSans-6c" transform="translate(181.982422 0)"/>
       <use xlink:href="#DejaVuSans-6f" transform="translate(209.765625 0)"/>
       <use xlink:href="#DejaVuSans-72" transform="translate(270.947266 0)"/>
       <use xlink:href="#DejaVuSans-61" transform="translate(312.060547 0)"/>
       <use xlink:href="#DejaVuSans-6d" transform="translate(373.339844 0)"/>
       <use xlink:href="#DejaVuSans-70" transform="translate(470.751953 0)"/>
       <use xlink:href="#DejaVuSans-68" transform="translate(534.228516 0)"/>
       <use xlink:href="#DejaVuSans-65" transform="translate(597.607422 0)"/>
       <use xlink:href="#DejaVuSans-6e" transform="translate(659.130859 0)"/>
       <use xlink:href="#DejaVuSans-69" transform="translate(722.509766 0)"/>
       <use xlink:href="#DejaVuSans-63" transform="translate(750.292969 0)"/>
       <use xlink:href="#DejaVuSans-6f" transform="translate(805.273438 0)"/>
       <use xlink:href="#DejaVuSans-6c" transform="translate(866.455078 0)"/>
       <use xlink:href="#DejaVuSans-2c" transform="translate(894.238281 0)"/>
       <use xlink:href="#DejaVuSans-20" transform="translate(926.025391 0)"/>
       <use xlink:href="#DejaVuSans-70" transform="translate(957.8125 0)"/>
       <use xlink:href="#DejaVuSans-68" transform="translate(1021.289062 0)"/>
       <use xlink:href="#DejaVuSans-65" transform="translate(1084.667969 0)"/>
       <use xlink:href="#DejaVuSans-6e" transform="translate(1146.191406 0)"/>
       <use xlink:href="#DejaVuSans-69" transform="translate(1209.570312 0)"/>
       <use xlink:href="#DejaVuSans-63" transform="translate(1237.353516 0)"/>
       <use xlink:href="#DejaVuSans-6f" transform="translate(1292.333984 0)"/>
       <use xlink:href="#DejaVuSans-6c" transform="translate(1353.515625 0)"/>
       <use xlink:href="#DejaVuSans-7d" transform="translate(1381.298828 0)"/>
      </g>
     </g>
    </g>
    <g id="ytick_6">
     <g id="line2d_9">
      <g>
       <use xlink:href="#m3196dce553" x="286.242188" y="88.512" style="stroke: #000000; stroke-width: 0.8"/>
      </g>
     </g>
     <g id="text_10">
      <!-- {MLS, macrolide, ml} -->
      <g transform="translate(171.307813 92.311219) scale(0.1 -0.1)">
       <use xlink:href="#DejaVuSans-7b"/>
       <use xlink:href="#DejaVuSans-4d" transform="translate(63.623047 0)"/>
       <use xlink:href="#DejaVuSans-4c" transform="translate(149.902344 0)"/>
       <use xlink:href="#DejaVuSans-53" transform="translate(205.615234 0)"/>
       <use xlink:href="#DejaVuSans-2c" transform="translate(269.091797 0)"/>
       <use xlink:href="#DejaVuSans-20" transform="translate(300.878906 0)"/>
       <use xlink:href="#DejaVuSans-6d" transform="translate(332.666016 0)"/>
       <use xlink:href="#DejaVuSans-61" transform="translate(430.078125 0)"/>
       <use xlink:href="#DejaVuSans-63" transform="translate(491.357422 0)"/>
       <use xlink:href="#DejaVuSans-72" transform="translate(546.337891 0)"/>
       <use xlink:href="#DejaVuSans-6f" transform="translate(585.201172 0)"/>
       <use xlink:href="#DejaVuSans-6c" transform="translate(646.382812 0)"/>
       <use xlink:href="#DejaVuSans-69" transform="translate(674.166016 0)"/>
       <use xlink:href="#DejaVuSans-64" transform="translate(701.949219 0)"/>
       <use xlink:href="#DejaVuSans-65" transform="translate(765.425781 0)"/>
       <use xlink:href="#DejaVuSans-2c" transform="translate(826.949219 0)"/>
       <use xlink:href="#DejaVuSans-20" transform="translate(858.736328 0)"/>
       <use xlink:href="#DejaVuSans-6d" transform="translate(890.523438 0)"/>
       <use xlink:href="#DejaVuSans-6c" transform="translate(987.935547 0)"/>
       <use xlink:href="#DejaVuSans-7d" transform="translate(1015.71875 0)"/>
      </g>
     </g>
    </g>
    <g id="ytick_7">
     <g id="line2d_10">
      <g>
       <use xlink:href="#m3196dce553" x="286.242188" y="103.296" style="stroke: #000000; stroke-width: 0.8"/>
      </g>
     </g>
     <g id="text_11">
      <!-- {polymyxin, polypeptide} -->
      <g transform="translate(149.089062 107.095219) scale(0.1 -0.1)">
       <defs>
        <path id="DejaVuSans-78" d="M 3513 3500 
L 2247 1797 
L 3578 0 
L 2900 0 
L 1881 1375 
L 863 0 
L 184 0 
L 1544 1831 
L 300 3500 
L 978 3500 
L 1906 2253 
L 2834 3500 
L 3513 3500 
z
" transform="scale(0.015625)"/>
       </defs>
       <use xlink:href="#DejaVuSans-7b"/>
       <use xlink:href="#DejaVuSans-70" transform="translate(63.623047 0)"/>
       <use xlink:href="#DejaVuSans-6f" transform="translate(127.099609 0)"/>
       <use xlink:href="#DejaVuSans-6c" transform="translate(188.28125 0)"/>
       <use xlink:href="#DejaVuSans-79" transform="translate(216.064453 0)"/>
       <use xlink:href="#DejaVuSans-6d" transform="translate(275.244141 0)"/>
       <use xlink:href="#DejaVuSans-79" transform="translate(372.65625 0)"/>
       <use xlink:href="#DejaVuSans-78" transform="translate(431.835938 0)"/>
       <use xlink:href="#DejaVuSans-69" transform="translate(491.015625 0)"/>
       <use xlink:href="#DejaVuSans-6e" transform="translate(518.798828 0)"/>
       <use xlink:href="#DejaVuSans-2c" transform="translate(582.177734 0)"/>
       <use xlink:href="#DejaVuSans-20" transform="translate(613.964844 0)"/>
       <use xlink:href="#DejaVuSans-70" transform="translate(645.751953 0)"/>
       <use xlink:href="#DejaVuSans-6f" transform="translate(709.228516 0)"/>
       <use xlink:href="#DejaVuSans-6c" transform="translate(770.410156 0)"/>
       <use xlink:href="#DejaVuSans-79" transform="translate(798.193359 0)"/>
       <use xlink:href="#DejaVuSans-70" transform="translate(857.373047 0)"/>
       <use xlink:href="#DejaVuSans-65" transform="translate(920.849609 0)"/>
       <use xlink:href="#DejaVuSans-70" transform="translate(982.373047 0)"/>
       <use xlink:href="#DejaVuSans-74" transform="translate(1045.849609 0)"/>
       <use xlink:href="#DejaVuSans-69" transform="translate(1085.058594 0)"/>
       <use xlink:href="#DejaVuSans-64" transform="translate(1112.841797 0)"/>
       <use xlink:href="#DejaVuSans-65" transform="translate(1176.318359 0)"/>
       <use xlink:href="#DejaVuSans-7d" transform="translate(1237.841797 0)"/>
      </g>
     </g>
    </g>
    <g id="ytick_8">
     <g id="line2d_11">
      <g>
       <use xlink:href="#m3196dce553" x="286.242188" y="118.08" style="stroke: #000000; stroke-width: 0.8"/>
      </g>
     </g>
     <g id="text_12">
      <!-- {colistin, lipopeptide, peptide, polymyxin} -->
      <g transform="translate(66.048437 121.879219) scale(0.1 -0.1)">
       <use xlink:href="#DejaVuSans-7b"/>
       <use xlink:href="#DejaVuSans-63" transform="translate(63.623047 0)"/>
       <use xlink:href="#DejaVuSans-6f" transform="translate(118.603516 0)"/>
       <use xlink:href="#DejaVuSans-6c" transform="translate(179.785156 0)"/>
       <use xlink:href="#DejaVuSans-69" transform="translate(207.568359 0)"/>
       <use xlink:href="#DejaVuSans-73" transform="translate(235.351562 0)"/>
       <use xlink:href="#DejaVuSans-74" transform="translate(287.451172 0)"/>
       <use xlink:href="#DejaVuSans-69" transform="translate(326.660156 0)"/>
       <use xlink:href="#DejaVuSans-6e" transform="translate(354.443359 0)"/>
       <use xlink:href="#DejaVuSans-2c" transform="translate(417.822266 0)"/>
       <use xlink:href="#DejaVuSans-20" transform="translate(449.609375 0)"/>
       <use xlink:href="#DejaVuSans-6c" transform="translate(481.396484 0)"/>
       <use xlink:href="#DejaVuSans-69" transform="translate(509.179688 0)"/>
       <use xlink:href="#DejaVuSans-70" transform="translate(536.962891 0)"/>
       <use xlink:href="#DejaVuSans-6f" transform="translate(600.439453 0)"/>
       <use xlink:href="#DejaVuSans-70" transform="translate(661.621094 0)"/>
       <use xlink:href="#DejaVuSans-65" transform="translate(725.097656 0)"/>
       <use xlink:href="#DejaVuSans-70" transform="translate(786.621094 0)"/>
       <use xlink:href="#DejaVuSans-74" transform="translate(850.097656 0)"/>
       <use xlink:href="#DejaVuSans-69" transform="translate(889.306641 0)"/>
       <use xlink:href="#DejaVuSans-64" transform="translate(917.089844 0)"/>
       <use xlink:href="#DejaVuSans-65" transform="translate(980.566406 0)"/>
       <use xlink:href="#DejaVuSans-2c" transform="translate(1042.089844 0)"/>
       <use xlink:href="#DejaVuSans-20" transform="translate(1073.876953 0)"/>
       <use xlink:href="#DejaVuSans-70" transform="translate(1105.664062 0)"/>
       <use xlink:href="#DejaVuSans-65" transform="translate(1169.140625 0)"/>
       <use xlink:href="#DejaVuSans-70" transform="translate(1230.664062 0)"/>
       <use xlink:href="#DejaVuSans-74" transform="translate(1294.140625 0)"/>
       <use xlink:href="#DejaVuSans-69" transform="translate(1333.349609 0)"/>
       <use xlink:href="#DejaVuSans-64" transform="translate(1361.132812 0)"/>
       <use xlink:href="#DejaVuSans-65" transform="translate(1424.609375 0)"/>
       <use xlink:href="#DejaVuSans-2c" transform="translate(1486.132812 0)"/>
       <use xlink:href="#DejaVuSans-20" transform="translate(1517.919922 0)"/>
       <use xlink:href="#DejaVuSans-70" transform="translate(1549.707031 0)"/>
       <use xlink:href="#DejaVuSans-6f" transform="translate(1613.183594 0)"/>
       <use xlink:href="#DejaVuSans-6c" transform="translate(1674.365234 0)"/>
       <use xlink:href="#DejaVuSans-79" transform="translate(1702.148438 0)"/>
       <use xlink:href="#DejaVuSans-6d" transform="translate(1761.328125 0)"/>
       <use xlink:href="#DejaVuSans-79" transform="translate(1858.740234 0)"/>
       <use xlink:href="#DejaVuSans-78" transform="translate(1917.919922 0)"/>
       <use xlink:href="#DejaVuSans-69" transform="translate(1977.099609 0)"/>
       <use xlink:href="#DejaVuSans-6e" transform="translate(2004.882812 0)"/>
       <use xlink:href="#DejaVuSans-7d" transform="translate(2068.261719 0)"/>
      </g>
     </g>
    </g>
    <g id="ytick_9">
     <g id="line2d_12">
      <g>
       <use xlink:href="#m3196dce553" x="286.242188" y="132.864" style="stroke: #000000; stroke-width: 0.8"/>
      </g>
     </g>
     <g id="text_13">
      <!-- {glycopeptide, polymyxin} -->
      <g transform="translate(143.590625 136.663219) scale(0.1 -0.1)">
       <use xlink:href="#DejaVuSans-7b"/>
       <use xlink:href="#DejaVuSans-67" transform="translate(63.623047 0)"/>
       <use xlink:href="#DejaVuSans-6c" transform="translate(127.099609 0)"/>
       <use xlink:href="#DejaVuSans-79" transform="translate(154.882812 0)"/>
       <use xlink:href="#DejaVuSans-63" transform="translate(214.0625 0)"/>
       <use xlink:href="#DejaVuSans-6f" transform="translate(269.042969 0)"/>
       <use xlink:href="#DejaVuSans-70" transform="translate(330.224609 0)"/>
       <use xlink:href="#DejaVuSans-65" transform="translate(393.701172 0)"/>
       <use xlink:href="#DejaVuSans-70" transform="translate(455.224609 0)"/>
       <use xlink:href="#DejaVuSans-74" transform="translate(518.701172 0)"/>
       <use xlink:href="#DejaVuSans-69" transform="translate(557.910156 0)"/>
       <use xlink:href="#DejaVuSans-64" transform="translate(585.693359 0)"/>
       <use xlink:href="#DejaVuSans-65" transform="translate(649.169922 0)"/>
       <use xlink:href="#DejaVuSans-2c" transform="translate(710.693359 0)"/>
       <use xlink:href="#DejaVuSans-20" transform="translate(742.480469 0)"/>
       <use xlink:href="#DejaVuSans-70" transform="translate(774.267578 0)"/>
       <use xlink:href="#DejaVuSans-6f" transform="translate(837.744141 0)"/>
       <use xlink:href="#DejaVuSans-6c" transform="translate(898.925781 0)"/>
       <use xlink:href="#DejaVuSans-79" transform="translate(926.708984 0)"/>
       <use xlink:href="#DejaVuSans-6d" transform="translate(985.888672 0)"/>
       <use xlink:href="#DejaVuSans-79" transform="translate(1083.300781 0)"/>
       <use xlink:href="#DejaVuSans-78" transform="translate(1142.480469 0)"/>
       <use xlink:href="#DejaVuSans-69" transform="translate(1201.660156 0)"/>
       <use xlink:href="#DejaVuSans-6e" transform="translate(1229.443359 0)"/>
       <use xlink:href="#DejaVuSans-7d" transform="translate(1292.822266 0)"/>
      </g>
     </g>
    </g>
    <g id="ytick_10">
     <g id="line2d_13">
      <g>
       <use xlink:href="#m3196dce553" x="286.242188" y="147.648" style="stroke: #000000; stroke-width: 0.8"/>
      </g>
     </g>
     <g id="text_14">
      <!-- {diaminopyrimidine, trimethoprim} -->
      <g transform="translate(100.58125 151.447219) scale(0.1 -0.1)">
       <use xlink:href="#DejaVuSans-7b"/>
       <use xlink:href="#DejaVuSans-64" transform="translate(63.623047 0)"/>
       <use xlink:href="#DejaVuSans-69" transform="translate(127.099609 0)"/>
       <use xlink:href="#DejaVuSans-61" transform="translate(154.882812 0)"/>
       <use xlink:href="#DejaVuSans-6d" transform="translate(216.162109 0)"/>
       <use xlink:href="#DejaVuSans-69" transform="translate(313.574219 0)"/>
       <use xlink:href="#DejaVuSans-6e" transform="translate(341.357422 0)"/>
       <use xlink:href="#DejaVuSans-6f" transform="translate(404.736328 0)"/>
       <use xlink:href="#DejaVuSans-70" transform="translate(465.917969 0)"/>
       <use xlink:href="#DejaVuSans-79" transform="translate(529.394531 0)"/>
       <use xlink:href="#DejaVuSans-72" transform="translate(588.574219 0)"/>
       <use xlink:href="#DejaVuSans-69" transform="translate(629.6875 0)"/>
       <use xlink:href="#DejaVuSans-6d" transform="translate(657.470703 0)"/>
       <use xlink:href="#DejaVuSans-69" transform="translate(754.882812 0)"/>
       <use xlink:href="#DejaVuSans-64" transform="translate(782.666016 0)"/>
       <use xlink:href="#DejaVuSans-69" transform="translate(846.142578 0)"/>
       <use xlink:href="#DejaVuSans-6e" transform="translate(873.925781 0)"/>
       <use xlink:href="#DejaVuSans-65" transform="translate(937.304688 0)"/>
       <use xlink:href="#DejaVuSans-2c" transform="translate(998.828125 0)"/>
       <use xlink:href="#DejaVuSans-20" transform="translate(1030.615234 0)"/>
       <use xlink:href="#DejaVuSans-74" transform="translate(1062.402344 0)"/>
       <use xlink:href="#DejaVuSans-72" transform="translate(1101.611328 0)"/>
       <use xlink:href="#DejaVuSans-69" transform="translate(1142.724609 0)"/>
       <use xlink:href="#DejaVuSans-6d" transform="translate(1170.507812 0)"/>
       <use xlink:href="#DejaVuSans-65" transform="translate(1267.919922 0)"/>
       <use xlink:href="#DejaVuSans-74" transform="translate(1329.443359 0)"/>
       <use xlink:href="#DejaVuSans-68" transform="translate(1368.652344 0)"/>
       <use xlink:href="#DejaVuSans-6f" transform="translate(1432.03125 0)"/>
       <use xlink:href="#DejaVuSans-70" transform="translate(1493.212891 0)"/>
       <use xlink:href="#DejaVuSans-72" transform="translate(1556.689453 0)"/>
       <use xlink:href="#DejaVuSans-69" transform="translate(1597.802734 0)"/>
       <use xlink:href="#DejaVuSans-6d" transform="translate(1625.585938 0)"/>
       <use xlink:href="#DejaVuSans-7d" transform="translate(1722.998047 0)"/>
      </g>
     </g>
    </g>
    <g id="ytick_11">
     <g id="line2d_14">
      <g>
       <use xlink:href="#m3196dce553" x="286.242188" y="162.432" style="stroke: #000000; stroke-width: 0.8"/>
      </g>
     </g>
     <g id="text_15">
      <!-- {drug_and_biocide_resistance, phenicol/quinolone} -->
      <g transform="translate(20.878125 166.231219) scale(0.1 -0.1)">
       <defs>
        <path id="DejaVuSans-5f" d="M 3263 -1063 
L 3263 -1509 
L -63 -1509 
L -63 -1063 
L 3263 -1063 
z
" transform="scale(0.015625)"/>
        <path id="DejaVuSans-2f" d="M 1625 4666 
L 2156 4666 
L 531 -594 
L 0 -594 
L 1625 4666 
z
" transform="scale(0.015625)"/>
       </defs>
       <use xlink:href="#DejaVuSans-7b"/>
       <use xlink:href="#DejaVuSans-64" transform="translate(63.623047 0)"/>
       <use xlink:href="#DejaVuSans-72" transform="translate(127.099609 0)"/>
       <use xlink:href="#DejaVuSans-75" transform="translate(168.212891 0)"/>
       <use xlink:href="#DejaVuSans-67" transform="translate(231.591797 0)"/>
       <use xlink:href="#DejaVuSans-5f" transform="translate(295.068359 0)"/>
       <use xlink:href="#DejaVuSans-61" transform="translate(345.068359 0)"/>
       <use xlink:href="#DejaVuSans-6e" transform="translate(406.347656 0)"/>
       <use xlink:href="#DejaVuSans-64" transform="translate(469.726562 0)"/>
       <use xlink:href="#DejaVuSans-5f" transform="translate(533.203125 0)"/>
       <use xlink:href="#DejaVuSans-62" transform="translate(583.203125 0)"/>
       <use xlink:href="#DejaVuSans-69" transform="translate(646.679688 0)"/>
       <use xlink:href="#DejaVuSans-6f" transform="translate(674.462891 0)"/>
       <use xlink:href="#DejaVuSans-63" transform="translate(735.644531 0)"/>
       <use xlink:href="#DejaVuSans-69" transform="translate(790.625 0)"/>
       <use xlink:href="#DejaVuSans-64" transform="translate(818.408203 0)"/>
       <use xlink:href="#DejaVuSans-65" transform="translate(881.884766 0)"/>
       <use xlink:href="#DejaVuSans-5f" transform="translate(943.408203 0)"/>
       <use xlink:href="#DejaVuSans-72" transform="translate(993.408203 0)"/>
       <use xlink:href="#DejaVuSans-65" transform="translate(1032.271484 0)"/>
       <use xlink:href="#DejaVuSans-73" transform="translate(1093.794922 0)"/>
       <use xlink:href="#DejaVuSans-69" transform="translate(1145.894531 0)"/>
       <use xlink:href="#DejaVuSans-73" transform="translate(1173.677734 0)"/>
       <use xlink:href="#DejaVuSans-74" transform="translate(1225.777344 0)"/>
       <use xlink:href="#DejaVuSans-61" transform="translate(1264.986328 0)"/>
       <use xlink:href="#DejaVuSans-6e" transform="translate(1326.265625 0)"/>
       <use xlink:href="#DejaVuSans-63" transform="translate(1389.644531 0)"/>
       <use xlink:href="#DejaVuSans-65" transform="translate(1444.625 0)"/>
       <use xlink:href="#DejaVuSans-2c" transform="translate(1506.148438 0)"/>
       <use xlink:href="#DejaVuSans-20" transform="translate(1537.935547 0)"/>
       <use xlink:href="#DejaVuSans-70" transform="translate(1569.722656 0)"/>
       <use xlink:href="#DejaVuSans-68" transform="translate(1633.199219 0)"/>
       <use xlink:href="#DejaVuSans-65" transform="translate(1696.578125 0)"/>
       <use xlink:href="#DejaVuSans-6e" transform="translate(1758.101562 0)"/>
       <use xlink:href="#DejaVuSans-69" transform="translate(1821.480469 0)"/>
       <use xlink:href="#DejaVuSans-63" transform="translate(1849.263672 0)"/>
       <use xlink:href="#DejaVuSans-6f" transform="translate(1904.244141 0)"/>
       <use xlink:href="#DejaVuSans-6c" transform="translate(1965.425781 0)"/>
       <use xlink:href="#DejaVuSans-2f" transform="translate(1993.208984 0)"/>
       <use xlink:href="#DejaVuSans-71" transform="translate(2026.900391 0)"/>
       <use xlink:href="#DejaVuSans-75" transform="translate(2090.376953 0)"/>
       <use xlink:href="#DejaVuSans-69" transform="translate(2153.755859 0)"/>
       <use xlink:href="#DejaVuSans-6e" transform="translate(2181.539062 0)"/>
       <use xlink:href="#DejaVuSans-6f" transform="translate(2244.917969 0)"/>
       <use xlink:href="#DejaVuSans-6c" transform="translate(2306.099609 0)"/>
       <use xlink:href="#DejaVuSans-6f" transform="translate(2333.882812 0)"/>
       <use xlink:href="#DejaVuSans-6e" transform="translate(2395.064453 0)"/>
       <use xlink:href="#DejaVuSans-65" transform="translate(2458.443359 0)"/>
       <use xlink:href="#DejaVuSans-7d" transform="translate(2519.966797 0)"/>
      </g>
     </g>
    </g>
    <g id="ytick_12">
     <g id="line2d_15">
      <g>
       <use xlink:href="#m3196dce553" x="286.242188" y="177.216" style="stroke: #000000; stroke-width: 0.8"/>
      </g>
     </g>
     <g id="text_16">
      <!-- {folate pathway antagonist, sulfonamide} -->
      <g transform="translate(67.55 181.015219) scale(0.1 -0.1)">
       <defs>
        <path id="DejaVuSans-77" d="M 269 3500 
L 844 3500 
L 1563 769 
L 2278 3500 
L 2956 3500 
L 3675 769 
L 4391 3500 
L 4966 3500 
L 4050 0 
L 3372 0 
L 2619 2869 
L 1863 0 
L 1184 0 
L 269 3500 
z
" transform="scale(0.015625)"/>
       </defs>
       <use xlink:href="#DejaVuSans-7b"/>
       <use xlink:href="#DejaVuSans-66" transform="translate(63.623047 0)"/>
       <use xlink:href="#DejaVuSans-6f" transform="translate(98.828125 0)"/>
       <use xlink:href="#DejaVuSans-6c" transform="translate(160.009766 0)"/>
       <use xlink:href="#DejaVuSans-61" transform="translate(187.792969 0)"/>
       <use xlink:href="#DejaVuSans-74" transform="translate(249.072266 0)"/>
       <use xlink:href="#DejaVuSans-65" transform="translate(288.28125 0)"/>
       <use xlink:href="#DejaVuSans-20" transform="translate(349.804688 0)"/>
       <use xlink:href="#DejaVuSans-70" transform="translate(381.591797 0)"/>
       <use xlink:href="#DejaVuSans-61" transform="translate(445.068359 0)"/>
       <use xlink:href="#DejaVuSans-74" transform="translate(506.347656 0)"/>
       <use xlink:href="#DejaVuSans-68" transform="translate(545.556641 0)"/>
       <use xlink:href="#DejaVuSans-77" transform="translate(608.935547 0)"/>
       <use xlink:href="#DejaVuSans-61" transform="translate(690.722656 0)"/>
       <use xlink:href="#DejaVuSans-79" transform="translate(752.001953 0)"/>
       <use xlink:href="#DejaVuSans-20" transform="translate(811.181641 0)"/>
       <use xlink:href="#DejaVuSans-61" transform="translate(842.96875 0)"/>
       <use xlink:href="#DejaVuSans-6e" transform="translate(904.248047 0)"/>
       <use xlink:href="#DejaVuSans-74" transform="translate(967.626953 0)"/>
       <use xlink:href="#DejaVuSans-61" transform="translate(1006.835938 0)"/>
       <use xlink:href="#DejaVuSans-67" transform="translate(1068.115234 0)"/>
       <use xlink:href="#DejaVuSans-6f" transform="translate(1131.591797 0)"/>
       <use xlink:href="#DejaVuSans-6e" transform="translate(1192.773438 0)"/>
       <use xlink:href="#DejaVuSans-69" transform="translate(1256.152344 0)"/>
       <use xlink:href="#DejaVuSans-73" transform="translate(1283.935547 0)"/>
       <use xlink:href="#DejaVuSans-74" transform="translate(1336.035156 0)"/>
       <use xlink:href="#DejaVuSans-2c" transform="translate(1375.244141 0)"/>
       <use xlink:href="#DejaVuSans-20" transform="translate(1407.03125 0)"/>
       <use xlink:href="#DejaVuSans-73" transform="translate(1438.818359 0)"/>
       <use xlink:href="#DejaVuSans-75" transform="translate(1490.917969 0)"/>
       <use xlink:href="#DejaVuSans-6c" transform="translate(1554.296875 0)"/>
       <use xlink:href="#DejaVuSans-66" transform="translate(1582.080078 0)"/>
       <use xlink:href="#DejaVuSans-6f" transform="translate(1617.285156 0)"/>
       <use xlink:href="#DejaVuSans-6e" transform="translate(1678.466797 0)"/>
       <use xlink:href="#DejaVuSans-61" transform="translate(1741.845703 0)"/>
       <use xlink:href="#DejaVuSans-6d" transform="translate(1803.125 0)"/>
       <use xlink:href="#DejaVuSans-69" transform="translate(1900.537109 0)"/>
       <use xlink:href="#DejaVuSans-64" transform="translate(1928.320312 0)"/>
       <use xlink:href="#DejaVuSans-65" transform="translate(1991.796875 0)"/>
       <use xlink:href="#DejaVuSans-7d" transform="translate(2053.320312 0)"/>
      </g>
     </g>
    </g>
    <g id="ytick_13">
     <g id="line2d_16">
      <g>
       <use xlink:href="#m3196dce553" x="286.242188" y="192" style="stroke: #000000; stroke-width: 0.8"/>
      </g>
     </g>
     <g id="text_17">
      <!-- {drug_and_biocide_resistance, multidrug} -->
      <g transform="translate(67.204687 195.799219) scale(0.1 -0.1)">
       <use xlink:href="#DejaVuSans-7b"/>
       <use xlink:href="#DejaVuSans-64" transform="translate(63.623047 0)"/>
       <use xlink:href="#DejaVuSans-72" transform="translate(127.099609 0)"/>
       <use xlink:href="#DejaVuSans-75" transform="translate(168.212891 0)"/>
       <use xlink:href="#DejaVuSans-67" transform="translate(231.591797 0)"/>
       <use xlink:href="#DejaVuSans-5f" transform="translate(295.068359 0)"/>
       <use xlink:href="#DejaVuSans-61" transform="translate(345.068359 0)"/>
       <use xlink:href="#DejaVuSans-6e" transform="translate(406.347656 0)"/>
       <use xlink:href="#DejaVuSans-64" transform="translate(469.726562 0)"/>
       <use xlink:href="#DejaVuSans-5f" transform="translate(533.203125 0)"/>
       <use xlink:href="#DejaVuSans-62" transform="translate(583.203125 0)"/>
       <use xlink:href="#DejaVuSans-69" transform="translate(646.679688 0)"/>
       <use xlink:href="#DejaVuSans-6f" transform="translate(674.462891 0)"/>
       <use xlink:href="#DejaVuSans-63" transform="translate(735.644531 0)"/>
       <use xlink:href="#DejaVuSans-69" transform="translate(790.625 0)"/>
       <use xlink:href="#DejaVuSans-64" transform="translate(818.408203 0)"/>
       <use xlink:href="#DejaVuSans-65" transform="translate(881.884766 0)"/>
       <use xlink:href="#DejaVuSans-5f" transform="translate(943.408203 0)"/>
       <use xlink:href="#DejaVuSans-72" transform="translate(993.408203 0)"/>
       <use xlink:href="#DejaVuSans-65" transform="translate(1032.271484 0)"/>
       <use xlink:href="#DejaVuSans-73" transform="translate(1093.794922 0)"/>
       <use xlink:href="#DejaVuSans-69" transform="translate(1145.894531 0)"/>
       <use xlink:href="#DejaVuSans-73" transform="translate(1173.677734 0)"/>
       <use xlink:href="#DejaVuSans-74" transform="translate(1225.777344 0)"/>
       <use xlink:href="#DejaVuSans-61" transform="translate(1264.986328 0)"/>
       <use xlink:href="#DejaVuSans-6e" transform="translate(1326.265625 0)"/>
       <use xlink:href="#DejaVuSans-63" transform="translate(1389.644531 0)"/>
       <use xlink:href="#DejaVuSans-65" transform="translate(1444.625 0)"/>
       <use xlink:href="#DejaVuSans-2c" transform="translate(1506.148438 0)"/>
       <use xlink:href="#DejaVuSans-20" transform="translate(1537.935547 0)"/>
       <use xlink:href="#DejaVuSans-6d" transform="translate(1569.722656 0)"/>
       <use xlink:href="#DejaVuSans-75" transform="translate(1667.134766 0)"/>
       <use xlink:href="#DejaVuSans-6c" transform="translate(1730.513672 0)"/>
       <use xlink:href="#DejaVuSans-74" transform="translate(1758.296875 0)"/>
       <use xlink:href="#DejaVuSans-69" transform="translate(1797.505859 0)"/>
       <use xlink:href="#DejaVuSans-64" transform="translate(1825.289062 0)"/>
       <use xlink:href="#DejaVuSans-72" transform="translate(1888.765625 0)"/>
       <use xlink:href="#DejaVuSans-75" transform="translate(1929.878906 0)"/>
       <use xlink:href="#DejaVuSans-67" transform="translate(1993.257812 0)"/>
       <use xlink:href="#DejaVuSans-7d" transform="translate(2056.734375 0)"/>
      </g>
     </g>
    </g>
    <g id="ytick_14">
     <g id="line2d_17">
      <g>
       <use xlink:href="#m3196dce553" x="286.242188" y="206.784" style="stroke: #000000; stroke-width: 0.8"/>
      </g>
     </g>
     <g id="text_18">
      <!-- {amphenicol, chloramphenicol, phenicol} -->
      <g transform="translate(70.173437 210.583219) scale(0.1 -0.1)">
       <use xlink:href="#DejaVuSans-7b"/>
       <use xlink:href="#DejaVuSans-61" transform="translate(63.623047 0)"/>
       <use xlink:href="#DejaVuSans-6d" transform="translate(124.902344 0)"/>
       <use xlink:href="#DejaVuSans-70" transform="translate(222.314453 0)"/>
       <use xlink:href="#DejaVuSans-68" transform="translate(285.791016 0)"/>
       <use xlink:href="#DejaVuSans-65" transform="translate(349.169922 0)"/>
       <use xlink:href="#DejaVuSans-6e" transform="translate(410.693359 0)"/>
       <use xlink:href="#DejaVuSans-69" transform="translate(474.072266 0)"/>
       <use xlink:href="#DejaVuSans-63" transform="translate(501.855469 0)"/>
       <use xlink:href="#DejaVuSans-6f" transform="translate(556.835938 0)"/>
       <use xlink:href="#DejaVuSans-6c" transform="translate(618.017578 0)"/>
       <use xlink:href="#DejaVuSans-2c" transform="translate(645.800781 0)"/>
       <use xlink:href="#DejaVuSans-20" transform="translate(677.587891 0)"/>
       <use xlink:href="#DejaVuSans-63" transform="translate(709.375 0)"/>
       <use xlink:href="#DejaVuSans-68" transform="translate(764.355469 0)"/>
       <use xlink:href="#DejaVuSans-6c" transform="translate(827.734375 0)"/>
       <use xlink:href="#DejaVuSans-6f" transform="translate(855.517578 0)"/>
       <use xlink:href="#DejaVuSans-72" transform="translate(916.699219 0)"/>
       <use xlink:href="#DejaVuSans-61" transform="translate(957.8125 0)"/>
       <use xlink:href="#DejaVuSans-6d" transform="translate(1019.091797 0)"/>
       <use xlink:href="#DejaVuSans-70" transform="translate(1116.503906 0)"/>
       <use xlink:href="#DejaVuSans-68" transform="translate(1179.980469 0)"/>
       <use xlink:href="#DejaVuSans-65" transform="translate(1243.359375 0)"/>
       <use xlink:href="#DejaVuSans-6e" transform="translate(1304.882812 0)"/>
       <use xlink:href="#DejaVuSans-69" transform="translate(1368.261719 0)"/>
       <use xlink:href="#DejaVuSans-63" transform="translate(1396.044922 0)"/>
       <use xlink:href="#DejaVuSans-6f" transform="translate(1451.025391 0)"/>
       <use xlink:href="#DejaVuSans-6c" transform="translate(1512.207031 0)"/>
       <use xlink:href="#DejaVuSans-2c" transform="translate(1539.990234 0)"/>
       <use xlink:href="#DejaVuSans-20" transform="translate(1571.777344 0)"/>
       <use xlink:href="#DejaVuSans-70" transform="translate(1603.564453 0)"/>
       <use xlink:href="#DejaVuSans-68" transform="translate(1667.041016 0)"/>
       <use xlink:href="#DejaVuSans-65" transform="translate(1730.419922 0)"/>
       <use xlink:href="#DejaVuSans-6e" transform="translate(1791.943359 0)"/>
       <use xlink:href="#DejaVuSans-69" transform="translate(1855.322266 0)"/>
       <use xlink:href="#DejaVuSans-63" transform="translate(1883.105469 0)"/>
       <use xlink:href="#DejaVuSans-6f" transform="translate(1938.085938 0)"/>
       <use xlink:href="#DejaVuSans-6c" transform="translate(1999.267578 0)"/>
       <use xlink:href="#DejaVuSans-7d" transform="translate(2027.050781 0)"/>
      </g>
     </g>
    </g>
    <g id="ytick_15">
     <g id="line2d_18">
      <g>
       <use xlink:href="#m3196dce553" x="286.242188" y="221.568" style="stroke: #000000; stroke-width: 0.8"/>
      </g>
     </g>
     <g id="text_19">
      <!-- {rifampin, rifamycin} -->
      <g transform="translate(171.607812 225.367219) scale(0.1 -0.1)">
       <use xlink:href="#DejaVuSans-7b"/>
       <use xlink:href="#DejaVuSans-72" transform="translate(63.623047 0)"/>
       <use xlink:href="#DejaVuSans-69" transform="translate(104.736328 0)"/>
       <use xlink:href="#DejaVuSans-66" transform="translate(132.519531 0)"/>
       <use xlink:href="#DejaVuSans-61" transform="translate(167.724609 0)"/>
       <use xlink:href="#DejaVuSans-6d" transform="translate(229.003906 0)"/>
       <use xlink:href="#DejaVuSans-70" transform="translate(326.416016 0)"/>
       <use xlink:href="#DejaVuSans-69" transform="translate(389.892578 0)"/>
       <use xlink:href="#DejaVuSans-6e" transform="translate(417.675781 0)"/>
       <use xlink:href="#DejaVuSans-2c" transform="translate(481.054688 0)"/>
       <use xlink:href="#DejaVuSans-20" transform="translate(512.841797 0)"/>
       <use xlink:href="#DejaVuSans-72" transform="translate(544.628906 0)"/>
       <use xlink:href="#DejaVuSans-69" transform="translate(585.742188 0)"/>
       <use xlink:href="#DejaVuSans-66" transform="translate(613.525391 0)"/>
       <use xlink:href="#DejaVuSans-61" transform="translate(648.730469 0)"/>
       <use xlink:href="#DejaVuSans-6d" transform="translate(710.009766 0)"/>
       <use xlink:href="#DejaVuSans-79" transform="translate(807.421875 0)"/>
       <use xlink:href="#DejaVuSans-63" transform="translate(866.601562 0)"/>
       <use xlink:href="#DejaVuSans-69" transform="translate(921.582031 0)"/>
       <use xlink:href="#DejaVuSans-6e" transform="translate(949.365234 0)"/>
       <use xlink:href="#DejaVuSans-7d" transform="translate(1012.744141 0)"/>
      </g>
     </g>
    </g>
    <g id="text_20">
     <!-- Sets -->
     <g transform="translate(14.798438 128.895625) rotate(-90) scale(0.1 -0.1)">
      <use xlink:href="#DejaVuSans-53"/>
      <use xlink:href="#DejaVuSans-65" transform="translate(63.476562 0)"/>
      <use xlink:href="#DejaVuSans-74" transform="translate(125 0)"/>
      <use xlink:href="#DejaVuSans-73" transform="translate(164.208984 0)"/>
     </g>
    </g>
   </g>
   <g id="line2d_19">
    <path clip-path="url(#p2e3fff8643)" style="fill: none; stroke: #424242; stroke-width: 2.25; stroke-linecap: square"/>
   </g>
   <g id="line2d_20">
    <path clip-path="url(#p2e3fff8643)" style="fill: none; stroke: #424242; stroke-width: 2.25; stroke-linecap: square"/>
   </g>
   <g id="line2d_21">
    <path clip-path="url(#p2e3fff8643)" style="fill: none; stroke: #424242; stroke-width: 2.25; stroke-linecap: square"/>
   </g>
   <g id="line2d_22">
    <path clip-path="url(#p2e3fff8643)" style="fill: none; stroke: #424242; stroke-width: 2.25; stroke-linecap: square"/>
   </g>
   <g id="line2d_23">
    <path clip-path="url(#p2e3fff8643)" style="fill: none; stroke: #424242; stroke-width: 2.25; stroke-linecap: square"/>
   </g>
   <g id="line2d_24">
    <path clip-path="url(#p2e3fff8643)" style="fill: none; stroke: #424242; stroke-width: 2.25; stroke-linecap: square"/>
   </g>
   <g id="line2d_25">
    <path clip-path="url(#p2e3fff8643)" style="fill: none; stroke: #424242; stroke-width: 2.25; stroke-linecap: square"/>
   </g>
   <g id="line2d_26">
    <path clip-path="url(#p2e3fff8643)" style="fill: none; stroke: #424242; stroke-width: 2.25; stroke-linecap: square"/>
   </g>
   <g id="line2d_27">
    <path clip-path="url(#p2e3fff8643)" style="fill: none; stroke: #424242; stroke-width: 2.25; stroke-linecap: square"/>
   </g>
   <g id="line2d_28">
    <path clip-path="url(#p2e3fff8643)" style="fill: none; stroke: #424242; stroke-width: 2.25; stroke-linecap: square"/>
   </g>
   <g id="line2d_29">
    <path clip-path="url(#p2e3fff8643)" style="fill: none; stroke: #424242; stroke-width: 2.25; stroke-linecap: square"/>
   </g>
   <g id="line2d_30">
    <path clip-path="url(#p2e3fff8643)" style="fill: none; stroke: #424242; stroke-width: 2.25; stroke-linecap: square"/>
   </g>
   <g id="line2d_31">
    <path clip-path="url(#p2e3fff8643)" style="fill: none; stroke: #424242; stroke-width: 2.25; stroke-linecap: square"/>
   </g>
   <g id="line2d_32">
    <path clip-path="url(#p2e3fff8643)" style="fill: none; stroke: #424242; stroke-width: 2.25; stroke-linecap: square"/>
   </g>
   <g id="line2d_33">
    <path clip-path="url(#p2e3fff8643)" style="fill: none; stroke: #424242; stroke-width: 2.25; stroke-linecap: square"/>
   </g>
   <g id="patch_18">
    <path d="M 286.242188 228.96 
L 286.242188 7.2 
" style="fill: none; stroke: #000000; stroke-width: 0.8; stroke-linejoin: miter; stroke-linecap: square"/>
   </g>
   <g id="patch_19">
    <path d="M 397.842188 228.96 
L 397.842188 7.2 
" style="fill: none; stroke: #000000; stroke-width: 0.8; stroke-linejoin: miter; stroke-linecap: square"/>
   </g>
   <g id="patch_20">
    <path d="M 286.242188 228.96 
L 397.842188 228.96 
" style="fill: none; stroke: #000000; stroke-width: 0.8; stroke-linejoin: miter; stroke-linecap: square"/>
   </g>
   <g id="patch_21">
    <path d="M 286.242188 7.2 
L 397.842188 7.2 
" style="fill: none; stroke: #000000; stroke-width: 0.8; stroke-linejoin: miter; stroke-linecap: square"/>
   </g>
  </g>
 </g>
 <defs>
  <clipPath id="p2e3fff8643">
   <rect x="286.242188" y="7.2" width="111.6" height="221.76"/>
  </clipPath>
 </defs>
</svg>
